<svg width="184" height="66" viewBox="0 0 184 66" fill="none" xmlns="http://www.w3.org/2000/svg">
<g clip-path="url(#clip0_386_188)">
<path d="M62.9116 18.7392H66.4049L76.1362 42.1942H71.3953L69.0248 36.0809H60.4164L58.046 42.1942H53.3051L62.9116 18.7392ZM67.403 31.9637L64.783 25.1019L62.163 31.9637H67.403Z" fill="white"/>
<path d="M78.6313 18.7392H85.1188C95.8482 18.7392 97.7196 25.9753 97.7196 30.5914C97.7196 33.0866 97.0958 42.1942 85.2436 42.1942H78.6313V18.7392ZM85.1188 38.077C87.4893 38.077 93.353 37.8275 93.353 30.7161C93.353 23.3553 87.2398 23.1058 84.8694 23.1058H82.998V38.077H85.1188Z" fill="white"/>
<path d="M100.839 18.7392H107.576C115.436 18.7392 116.434 23.9791 116.434 26.2248C116.434 29.9676 113.938 33.2114 110.071 33.5857L116.683 42.1942H111.318L105.205 33.5857H105.08V42.1942H100.714V18.7392H100.839ZM105.205 29.9676H107.825C108.823 29.9676 112.192 29.843 112.192 26.4744C112.192 23.1059 108.823 22.9811 107.825 22.9811H105.205V29.9676Z" fill="white"/>
<path d="M142.758 30.7161C142.758 37.4532 137.393 42.9427 130.407 42.9427C123.42 42.9427 118.056 37.5779 118.056 30.7161C118.056 23.9791 123.42 18.4897 130.407 18.4897C137.393 18.4897 142.758 23.8543 142.758 30.7161ZM138.391 30.5914C138.391 26.2248 135.023 22.6067 130.407 22.6067C125.791 22.6067 122.422 26.2248 122.422 30.5914C122.422 35.0828 125.915 38.7008 130.407 38.7008C135.023 38.5761 138.391 34.958 138.391 30.5914Z" fill="white"/>
<path d="M40.5796 0.274811H34.7158V50.4283H40.5796V0.274811Z" fill="#1976D2"/>
<path d="M31.8463 23.3554H25.9825V65.3995H31.8463V23.3554Z" fill="#1E88E5"/>
<path d="M23.2378 20.2364H17.3741V50.4283H23.2378V20.2364Z" fill="#2196F3"/>
<path d="M14.5046 11.7527H8.64087V34.8333H14.5046V11.7527Z" fill="#42A5F5"/>
<path d="M5.89617 26.9733H0.0324707V42.6932H5.89617V26.9733Z" fill="#64B5F6"/>
<path d="M148.753 18.7866H160.73V23.0284H153.119V28.3931H160.355V32.6349H153.119V42.2415H148.753V18.7866Z" fill="#F44336"/>
<path d="M170.087 30.5141L161.977 18.7866H167.092L172.707 26.896L178.321 18.7866H183.436L175.327 30.5141L183.436 42.2415H178.196L172.582 34.132L166.968 42.2415H161.977L170.087 30.5141Z" fill="#F44336"/>
<path d="M58.5234 50.9359V62.3109H57.0391V50.9359H58.5234ZM62.1797 50.9359V52.1703H53.3906V50.9359H62.1797ZM65.0938 50.3109V62.3109H63.6484V50.3109H65.0938ZM64.75 57.764L64.1484 57.7406C64.1536 57.1625 64.2396 56.6286 64.4062 56.139C64.5729 55.6442 64.8073 55.2146 65.1094 54.85C65.4115 54.4854 65.7708 54.2041 66.1875 54.0062C66.6094 53.8031 67.0755 53.7015 67.5859 53.7015C68.0026 53.7015 68.3776 53.7588 68.7109 53.8734C69.0443 53.9828 69.3281 54.1599 69.5625 54.4047C69.8021 54.6495 69.9844 54.9672 70.1094 55.3578C70.2344 55.7432 70.2969 56.2146 70.2969 56.7719V62.3109H68.8438V56.7562C68.8438 56.3135 68.7786 55.9594 68.6484 55.6937C68.5182 55.4229 68.3281 55.2276 68.0781 55.1078C67.8281 54.9828 67.5208 54.9203 67.1562 54.9203C66.7969 54.9203 66.4688 54.9958 66.1719 55.1469C65.8802 55.2979 65.6276 55.5062 65.4141 55.7719C65.2057 56.0375 65.0417 56.3422 64.9219 56.6859C64.8073 57.0245 64.75 57.3838 64.75 57.764ZM75.9688 62.4672C75.3802 62.4672 74.8464 62.3682 74.3672 62.1703C73.8932 61.9672 73.4844 61.6833 73.1406 61.3187C72.8021 60.9541 72.5417 60.5219 72.3594 60.0219C72.1771 59.5219 72.0859 58.975 72.0859 58.3812V58.0531C72.0859 57.3656 72.1875 56.7536 72.3906 56.2172C72.5938 55.6755 72.8698 55.2172 73.2188 54.8422C73.5677 54.4672 73.9635 54.1833 74.4062 53.9906C74.849 53.7979 75.3073 53.7015 75.7812 53.7015C76.3854 53.7015 76.9062 53.8057 77.3438 54.014C77.7865 54.2224 78.1484 54.514 78.4297 54.889C78.7109 55.2588 78.9193 55.6963 79.0547 56.2015C79.1901 56.7015 79.2578 57.2484 79.2578 57.8422V58.4906H72.9453V57.3109H77.8125V57.2015C77.7917 56.8265 77.7135 56.462 77.5781 56.1078C77.4479 55.7536 77.2396 55.462 76.9531 55.2328C76.6667 55.0036 76.276 54.889 75.7812 54.889C75.4531 54.889 75.151 54.9594 74.875 55.1C74.599 55.2354 74.362 55.4385 74.1641 55.7094C73.9661 55.9802 73.8125 56.3109 73.7031 56.7015C73.5938 57.0922 73.5391 57.5427 73.5391 58.0531V58.3812C73.5391 58.7823 73.5938 59.1599 73.7031 59.514C73.8177 59.863 73.9818 60.1703 74.1953 60.4359C74.4141 60.7015 74.6771 60.9099 74.9844 61.0609C75.2969 61.212 75.651 61.2875 76.0469 61.2875C76.5573 61.2875 76.9896 61.1833 77.3438 60.975C77.6979 60.7666 78.0078 60.488 78.2734 60.139L79.1484 60.8344C78.9661 61.1104 78.7344 61.3734 78.4531 61.6234C78.1719 61.8734 77.8255 62.0765 77.4141 62.2328C77.0078 62.389 76.526 62.4672 75.9688 62.4672ZM89.3438 51.9437L85.5781 62.3109H84.0391L88.375 50.9359H89.3672L89.3438 51.9437ZM92.5 62.3109L88.7266 51.9437L88.7031 50.9359H89.6953L94.0469 62.3109H92.5ZM92.3047 58.1V59.3344H85.9141V58.1H92.3047ZM96.7969 55.1859V62.3109H95.3516V53.8578H96.7578L96.7969 55.1859ZM99.4375 53.8109L99.4297 55.1547C99.3099 55.1286 99.1953 55.113 99.0859 55.1078C98.9818 55.0974 98.862 55.0922 98.7266 55.0922C98.3932 55.0922 98.099 55.1442 97.8438 55.2484C97.5885 55.3526 97.3724 55.4984 97.1953 55.6859C97.0182 55.8734 96.8776 56.0974 96.7734 56.3578C96.6745 56.613 96.6094 56.8942 96.5781 57.2015L96.1719 57.4359C96.1719 56.9255 96.2214 56.4463 96.3203 55.9984C96.4245 55.5505 96.5833 55.1547 96.7969 54.8109C97.0104 54.462 97.2812 54.1911 97.6094 53.9984C97.9427 53.8005 98.3385 53.7015 98.7969 53.7015C98.901 53.7015 99.0208 53.7146 99.1562 53.7406C99.2917 53.7614 99.3854 53.7849 99.4375 53.8109ZM104.703 53.8578V54.9672H100.133V53.8578H104.703ZM101.68 51.8031H103.125V60.2172C103.125 60.5036 103.169 60.7198 103.258 60.8656C103.346 61.0114 103.461 61.1078 103.602 61.1547C103.742 61.2015 103.893 61.225 104.055 61.225C104.174 61.225 104.299 61.2146 104.43 61.1937C104.565 61.1677 104.667 61.1469 104.734 61.1312L104.742 62.3109C104.628 62.3474 104.477 62.3812 104.289 62.4125C104.107 62.4489 103.885 62.4672 103.625 62.4672C103.271 62.4672 102.945 62.3969 102.648 62.2562C102.352 62.1156 102.115 61.8812 101.938 61.5531C101.766 61.2198 101.68 60.7719 101.68 60.2094V51.8031ZM119.344 56.264V56.9828C119.344 57.837 119.237 58.6026 119.023 59.2797C118.81 59.9567 118.503 60.5323 118.102 61.0062C117.701 61.4802 117.219 61.8422 116.656 62.0922C116.099 62.3422 115.474 62.4672 114.781 62.4672C114.109 62.4672 113.492 62.3422 112.93 62.0922C112.372 61.8422 111.888 61.4802 111.477 61.0062C111.07 60.5323 110.755 59.9567 110.531 59.2797C110.307 58.6026 110.195 57.837 110.195 56.9828V56.264C110.195 55.4099 110.305 54.6469 110.523 53.975C110.747 53.2979 111.062 52.7224 111.469 52.2484C111.875 51.7692 112.357 51.4047 112.914 51.1547C113.477 50.9047 114.094 50.7797 114.766 50.7797C115.458 50.7797 116.083 50.9047 116.641 51.1547C117.203 51.4047 117.685 51.7692 118.086 52.2484C118.492 52.7224 118.802 53.2979 119.016 53.975C119.234 54.6469 119.344 55.4099 119.344 56.264ZM117.852 56.9828V56.2484C117.852 55.5713 117.781 54.9724 117.641 54.4515C117.505 53.9307 117.305 53.4932 117.039 53.139C116.773 52.7849 116.448 52.5166 116.062 52.3344C115.682 52.1521 115.25 52.0609 114.766 52.0609C114.297 52.0609 113.872 52.1521 113.492 52.3344C113.117 52.5166 112.794 52.7849 112.523 53.139C112.258 53.4932 112.052 53.9307 111.906 54.4515C111.76 54.9724 111.688 55.5713 111.688 56.2484V56.9828C111.688 57.6651 111.76 58.2692 111.906 58.7953C112.052 59.3161 112.26 59.7562 112.531 60.1156C112.807 60.4698 113.133 60.738 113.508 60.9203C113.888 61.1026 114.312 61.1937 114.781 61.1937C115.271 61.1937 115.706 61.1026 116.086 60.9203C116.466 60.738 116.786 60.4698 117.047 60.1156C117.312 59.7562 117.513 59.3161 117.648 58.7953C117.784 58.2692 117.852 57.6651 117.852 56.9828ZM123.539 62.3109H122.094V52.9672C122.094 52.3578 122.203 51.8448 122.422 51.4281C122.646 51.0062 122.966 50.6885 123.383 50.475C123.799 50.2562 124.294 50.1469 124.867 50.1469C125.034 50.1469 125.201 50.1573 125.367 50.1781C125.539 50.1989 125.706 50.2302 125.867 50.2719L125.789 51.4515C125.68 51.4255 125.555 51.4073 125.414 51.3969C125.279 51.3864 125.143 51.3812 125.008 51.3812C124.701 51.3812 124.435 51.4437 124.211 51.5687C123.992 51.6885 123.826 51.8656 123.711 52.1C123.596 52.3344 123.539 52.6234 123.539 52.9672V62.3109ZM125.336 53.8578V54.9672H120.758V53.8578H125.336ZM135.023 50.9359V62.3109H133.539V50.9359H135.023ZM138.68 50.9359V52.1703H129.891V50.9359H138.68ZM141 55.1859V62.3109H139.555V53.8578H140.961L141 55.1859ZM143.641 53.8109L143.633 55.1547C143.513 55.1286 143.398 55.113 143.289 55.1078C143.185 55.0974 143.065 55.0922 142.93 55.0922C142.596 55.0922 142.302 55.1442 142.047 55.2484C141.792 55.3526 141.576 55.4984 141.398 55.6859C141.221 55.8734 141.081 56.0974 140.977 56.3578C140.878 56.613 140.812 56.8942 140.781 57.2015L140.375 57.4359C140.375 56.9255 140.424 56.4463 140.523 55.9984C140.628 55.5505 140.786 55.1547 141 54.8109C141.214 54.462 141.484 54.1911 141.812 53.9984C142.146 53.8005 142.542 53.7015 143 53.7015C143.104 53.7015 143.224 53.7146 143.359 53.7406C143.495 53.7614 143.589 53.7849 143.641 53.8109ZM149.648 60.8656V56.514C149.648 56.1807 149.581 55.8916 149.445 55.6469C149.315 55.3969 149.117 55.2041 148.852 55.0687C148.586 54.9333 148.258 54.8656 147.867 54.8656C147.503 54.8656 147.182 54.9281 146.906 55.0531C146.635 55.1781 146.422 55.3422 146.266 55.5453C146.115 55.7484 146.039 55.9672 146.039 56.2015H144.594C144.594 55.8995 144.672 55.6 144.828 55.3031C144.984 55.0062 145.208 54.738 145.5 54.4984C145.797 54.2536 146.151 54.0609 146.562 53.9203C146.979 53.7745 147.443 53.7015 147.953 53.7015C148.568 53.7015 149.109 53.8057 149.578 54.014C150.052 54.2224 150.422 54.5375 150.688 54.9594C150.958 55.376 151.094 55.8995 151.094 56.5297V60.4672C151.094 60.7484 151.117 61.0479 151.164 61.3656C151.216 61.6833 151.292 61.9567 151.391 62.1859V62.3109H149.883C149.81 62.1442 149.753 61.9229 149.711 61.6469C149.669 61.3656 149.648 61.1052 149.648 60.8656ZM149.898 57.1859L149.914 58.2015H148.453C148.042 58.2015 147.674 58.2354 147.352 58.3031C147.029 58.3656 146.758 58.462 146.539 58.5922C146.32 58.7224 146.154 58.8864 146.039 59.0844C145.924 59.2771 145.867 59.5036 145.867 59.764C145.867 60.0297 145.927 60.2719 146.047 60.4906C146.167 60.7094 146.346 60.8838 146.586 61.014C146.831 61.139 147.13 61.2015 147.484 61.2015C147.927 61.2015 148.318 61.1078 148.656 60.9203C148.995 60.7328 149.263 60.5036 149.461 60.2328C149.664 59.962 149.773 59.6989 149.789 59.4437L150.406 60.139C150.37 60.3578 150.271 60.6 150.109 60.8656C149.948 61.1312 149.732 61.3864 149.461 61.6312C149.195 61.8708 148.878 62.0713 148.508 62.2328C148.143 62.389 147.732 62.4672 147.273 62.4672C146.701 62.4672 146.198 62.3552 145.766 62.1312C145.339 61.9073 145.005 61.6078 144.766 61.2328C144.531 60.8526 144.414 60.4281 144.414 59.9594C144.414 59.5062 144.503 59.1078 144.68 58.764C144.857 58.4151 145.112 58.126 145.445 57.8969C145.779 57.6625 146.18 57.4854 146.648 57.3656C147.117 57.2458 147.641 57.1859 148.219 57.1859H149.898ZM158.695 60.6703V50.3109H160.148V62.3109H158.82L158.695 60.6703ZM153.008 58.1781V58.014C153.008 57.3682 153.086 56.7823 153.242 56.2562C153.404 55.725 153.63 55.2692 153.922 54.889C154.219 54.5088 154.57 54.2172 154.977 54.014C155.388 53.8057 155.846 53.7015 156.352 53.7015C156.883 53.7015 157.346 53.7953 157.742 53.9828C158.143 54.1651 158.482 54.4333 158.758 54.7875C159.039 55.1364 159.26 55.5583 159.422 56.0531C159.583 56.5479 159.695 57.1078 159.758 57.7328V58.4515C159.701 59.0713 159.589 59.6286 159.422 60.1234C159.26 60.6182 159.039 61.0401 158.758 61.389C158.482 61.738 158.143 62.0062 157.742 62.1937C157.341 62.376 156.872 62.4672 156.336 62.4672C155.841 62.4672 155.388 62.3604 154.977 62.1469C154.57 61.9333 154.219 61.6338 153.922 61.2484C153.63 60.863 153.404 60.4099 153.242 59.889C153.086 59.363 153.008 58.7927 153.008 58.1781ZM154.461 58.014V58.1781C154.461 58.6 154.503 58.9958 154.586 59.3656C154.674 59.7354 154.81 60.0609 154.992 60.3422C155.174 60.6234 155.406 60.8448 155.688 61.0062C155.969 61.1625 156.305 61.2406 156.695 61.2406C157.174 61.2406 157.568 61.139 157.875 60.9359C158.188 60.7328 158.438 60.4646 158.625 60.1312C158.812 59.7979 158.958 59.4359 159.062 59.0453V57.1625C159 56.876 158.909 56.6 158.789 56.3344C158.674 56.0635 158.523 55.8239 158.336 55.6156C158.154 55.4021 157.927 55.2328 157.656 55.1078C157.391 54.9828 157.076 54.9203 156.711 54.9203C156.315 54.9203 155.974 55.0036 155.688 55.1703C155.406 55.3317 155.174 55.5557 154.992 55.8422C154.81 56.1234 154.674 56.4515 154.586 56.8265C154.503 57.1963 154.461 57.5922 154.461 58.014ZM163.969 53.8578V62.3109H162.516V53.8578H163.969ZM162.406 51.6156C162.406 51.3812 162.477 51.1833 162.617 51.0219C162.763 50.8604 162.977 50.7797 163.258 50.7797C163.534 50.7797 163.745 50.8604 163.891 51.0219C164.042 51.1833 164.117 51.3812 164.117 51.6156C164.117 51.8396 164.042 52.0323 163.891 52.1937C163.745 52.35 163.534 52.4281 163.258 52.4281C162.977 52.4281 162.763 52.35 162.617 52.1937C162.477 52.0323 162.406 51.8396 162.406 51.6156ZM167.734 55.6625V62.3109H166.289V53.8578H167.656L167.734 55.6625ZM167.391 57.764L166.789 57.7406C166.794 57.1625 166.88 56.6286 167.047 56.139C167.214 55.6442 167.448 55.2146 167.75 54.85C168.052 54.4854 168.411 54.2041 168.828 54.0062C169.25 53.8031 169.716 53.7015 170.227 53.7015C170.643 53.7015 171.018 53.7588 171.352 53.8734C171.685 53.9828 171.969 54.1599 172.203 54.4047C172.443 54.6495 172.625 54.9672 172.75 55.3578C172.875 55.7432 172.938 56.2146 172.938 56.7719V62.3109H171.484V56.7562C171.484 56.3135 171.419 55.9594 171.289 55.6937C171.159 55.4229 170.969 55.2276 170.719 55.1078C170.469 54.9828 170.161 54.9203 169.797 54.9203C169.438 54.9203 169.109 54.9958 168.812 55.1469C168.521 55.2979 168.268 55.5062 168.055 55.7719C167.846 56.0375 167.682 56.3422 167.562 56.6859C167.448 57.0245 167.391 57.3838 167.391 57.764ZM180.609 53.8578H181.922V62.1312C181.922 62.876 181.771 63.5114 181.469 64.0375C181.167 64.5635 180.745 64.962 180.203 65.2328C179.667 65.5088 179.047 65.6469 178.344 65.6469C178.052 65.6469 177.708 65.6 177.312 65.5062C176.922 65.4177 176.536 65.264 176.156 65.0453C175.781 64.8317 175.466 64.5427 175.211 64.1781L175.969 63.3187C176.323 63.7458 176.693 64.0427 177.078 64.2094C177.469 64.376 177.854 64.4594 178.234 64.4594C178.693 64.4594 179.089 64.3734 179.422 64.2015C179.755 64.0297 180.013 63.7745 180.195 63.4359C180.383 63.1026 180.477 62.6911 180.477 62.2015V55.7172L180.609 53.8578ZM174.789 58.1781V58.014C174.789 57.3682 174.865 56.7823 175.016 56.2562C175.172 55.725 175.393 55.2692 175.68 54.889C175.971 54.5088 176.323 54.2172 176.734 54.014C177.146 53.8057 177.609 53.7015 178.125 53.7015C178.656 53.7015 179.12 53.7953 179.516 53.9828C179.917 54.1651 180.255 54.4333 180.531 54.7875C180.812 55.1364 181.034 55.5583 181.195 56.0531C181.357 56.5479 181.469 57.1078 181.531 57.7328V58.4515C181.474 59.0713 181.362 59.6286 181.195 60.1234C181.034 60.6182 180.812 61.0401 180.531 61.389C180.255 61.738 179.917 62.0062 179.516 62.1937C179.115 62.376 178.646 62.4672 178.109 62.4672C177.604 62.4672 177.146 62.3604 176.734 62.1469C176.328 61.9333 175.979 61.6338 175.688 61.2484C175.396 60.863 175.172 60.4099 175.016 59.889C174.865 59.363 174.789 58.7927 174.789 58.1781ZM176.234 58.014V58.1781C176.234 58.6 176.276 58.9958 176.359 59.3656C176.448 59.7354 176.581 60.0609 176.758 60.3422C176.94 60.6234 177.172 60.8448 177.453 61.0062C177.734 61.1625 178.07 61.2406 178.461 61.2406C178.94 61.2406 179.336 61.139 179.648 60.9359C179.961 60.7328 180.208 60.4646 180.391 60.1312C180.578 59.7979 180.724 59.4359 180.828 59.0453V57.1625C180.771 56.876 180.682 56.6 180.562 56.3344C180.448 56.0635 180.297 55.8239 180.109 55.6156C179.927 55.4021 179.701 55.2328 179.43 55.1078C179.159 54.9828 178.841 54.9203 178.477 54.9203C178.081 54.9203 177.74 55.0036 177.453 55.1703C177.172 55.3317 176.94 55.5557 176.758 55.8422C176.581 56.1234 176.448 56.4515 176.359 56.8265C176.276 57.1963 176.234 57.5922 176.234 58.014Z" fill="white"/>
</g>
<defs>
<clipPath id="clip0_386_188">
<rect width="183.273" height="65" fill="white" transform="translate(0 0.310898)"/>
</clipPath>
</defs>
</svg>
