<svg width="42" height="157" viewBox="0 0 42 157" fill="none" xmlns="http://www.w3.org/2000/svg">
<rect x="0.303467" y="79.9708" width="40.9988" height="3.02034" fill="#091827"/>
<rect x="0.303467" y="124.037" width="40.9988" height="3.02034" fill="#091827"/>
<rect x="0.303467" y="85.7592" width="40.9988" height="1.01823" fill="#091827"/>
<rect x="0.303467" y="136.194" width="40.9988" height="1.01823" fill="#091827"/>
<rect width="40.9988" height="1.01823" transform="matrix(-1 0 0 1 41.3023 104.898)" fill="#091827"/>
<rect x="0.303467" y="144.083" width="40.9988" height="1.01823" fill="#091827"/>
<rect x="0.303467" y="89.5452" width="40.9988" height="2.11365" fill="#091827"/>
<rect width="40.9988" height="2.11365" transform="matrix(-1 0 0 1 41.3023 108.684)" fill="#091827"/>
<rect x="0.303467" y="147.869" width="40.9988" height="2.11365" fill="#091827"/>
<rect x="0.303467" y="94.4268" width="40.9988" height="3.60063" fill="#091827"/>
<rect x="0.303467" y="129.825" width="40.9988" height="3.60063" fill="#091827"/>
<rect width="40.9988" height="3.60063" transform="matrix(-1 0 0 1 41.3023 113.566)" fill="#091827"/>
<rect x="0.303467" y="152.75" width="40.9988" height="3.60063" fill="#091827"/>
<rect x="0.303467" y="100.795" width="40.9988" height="1.3348" fill="#091827"/>
<rect width="40.9988" height="1.3348" transform="matrix(-1 0 0 1 41.3023 139.98)" fill="#091827"/>
<rect width="40.9988" height="1.3348" transform="matrix(-1 0 0 1 41.3023 119.934)" fill="#091827"/>
<rect width="40.9988" height="3.02034" transform="matrix(1 0 0 -1 0.303467 76.7311)" fill="#091827"/>
<rect width="40.9988" height="3.02034" transform="matrix(1 0 0 -1 0.303467 32.6649)" fill="#091827"/>
<rect width="40.9988" height="1.01823" transform="matrix(1 0 0 -1 0.303467 70.9427)" fill="#091827"/>
<rect width="40.9988" height="1.01823" transform="matrix(1 0 0 -1 0.303467 20.5081)" fill="#091827"/>
<rect x="41.3023" y="51.8038" width="40.9988" height="1.01823" transform="rotate(-180 41.3023 51.8038)" fill="#091827"/>
<rect width="40.9988" height="1.01823" transform="matrix(1 0 0 -1 0.303467 12.6193)" fill="#091827"/>
<rect width="40.9988" height="2.11365" transform="matrix(1 0 0 -1 0.303467 67.1566)" fill="#091827"/>
<rect x="41.3023" y="48.0177" width="40.9988" height="2.11365" transform="rotate(-180 41.3023 48.0177)" fill="#091827"/>
<rect width="40.9988" height="2.11365" transform="matrix(1 0 0 -1 0.303467 8.83313)" fill="#091827"/>
<rect width="40.9988" height="3.60063" transform="matrix(1 0 0 -1 0.303467 62.275)" fill="#091827"/>
<rect width="40.9988" height="3.60063" transform="matrix(1 0 0 -1 0.303467 26.8766)" fill="#091827"/>
<rect x="41.3023" y="43.1361" width="40.9988" height="3.60063" transform="rotate(-180 41.3023 43.1361)" fill="#091827"/>
<rect width="40.9988" height="3.60063" transform="matrix(1 0 0 -1 0.303467 3.95166)" fill="#091827"/>
<rect width="40.9988" height="1.3348" transform="matrix(1 0 0 -1 0.303467 55.9065)" fill="#091827"/>
<rect x="41.3023" y="16.7219" width="40.9988" height="1.3348" transform="rotate(-180 41.3023 16.7219)" fill="#091827"/>
<rect x="41.3023" y="36.7676" width="40.9988" height="1.3348" transform="rotate(-180 41.3023 36.7676)" fill="#091827"/>
</svg>
