<svg width="184" height="65" viewBox="0 0 184 65" fill="none" xmlns="http://www.w3.org/2000/svg">
<g clip-path="url(#clip0_109_10)">
<path d="M62.9116 18.4283H66.4049L76.1362 41.8833H71.3953L69.0248 35.77H60.4164L58.046 41.8833H53.3051L62.9116 18.4283ZM67.403 31.6529L64.783 24.791L62.163 31.6529H67.403Z" fill="#2196F3"/>
<path d="M78.6313 18.4283H85.1188C95.8482 18.4283 97.7196 25.6644 97.7196 30.2805C97.7196 32.7757 97.0958 41.8833 85.2436 41.8833H78.6313V18.4283ZM85.1188 37.7661C87.4893 37.7661 93.353 37.5166 93.353 30.4053C93.353 23.0444 87.2398 22.7949 84.8694 22.7949H82.998V37.7661H85.1188Z" fill="#2196F3"/>
<path d="M100.839 18.4283H107.576C115.436 18.4283 116.434 23.6682 116.434 25.9139C116.434 29.6567 113.938 32.9005 110.071 33.2748L116.683 41.8833H111.318L105.205 33.2748H105.08V41.8833H100.714V18.4283H100.839ZM105.205 29.6567H107.825C108.823 29.6567 112.192 29.5321 112.192 26.1635C112.192 22.795 108.823 22.6702 107.825 22.6702H105.205V29.6567Z" fill="#2196F3"/>
<path d="M142.758 30.4052C142.758 37.1423 137.393 42.6318 130.407 42.6318C123.42 42.6318 118.056 37.267 118.056 30.4052C118.056 23.6682 123.42 18.1788 130.407 18.1788C137.393 18.1788 142.758 23.5434 142.758 30.4052ZM138.391 30.2805C138.391 25.9139 135.023 22.2958 130.407 22.2958C125.791 22.2958 122.422 25.9139 122.422 30.2805C122.422 34.7719 125.915 38.3899 130.407 38.3899C135.023 38.2652 138.391 34.6471 138.391 30.2805Z" fill="#2196F3"/>
<path d="M40.5796 -0.036087H34.7158V50.1174H40.5796V-0.036087Z" fill="#1976D2"/>
<path d="M31.8463 23.0445H25.9825V65.0886H31.8463V23.0445Z" fill="#1E88E5"/>
<path d="M23.2378 19.9255H17.3741V50.1174H23.2378V19.9255Z" fill="#2196F3"/>
<path d="M14.5046 11.4418H8.64087V34.5224H14.5046V11.4418Z" fill="#42A5F5"/>
<path d="M5.89617 26.6624H0.0324707V42.3823H5.89617V26.6624Z" fill="#64B5F6"/>
<path d="M148.753 18.4757H160.73V22.7175H153.119V28.0822H160.355V32.324H153.119V41.9306H148.753V18.4757Z" fill="#F44336"/>
<path d="M170.087 30.2032L161.977 18.4757H167.092L172.707 26.5851L178.321 18.4757H183.436L175.327 30.2032L183.436 41.9306H178.196L172.582 33.8212L166.968 41.9306H161.977L170.087 30.2032Z" fill="#F44336"/>
<path d="M58.5234 50.625V62H57.0391V50.625H58.5234ZM62.1797 50.625V51.8594H53.3906V50.625H62.1797ZM65.0938 50V62H63.6484V50H65.0938ZM64.75 57.4531L64.1484 57.4297C64.1536 56.8516 64.2396 56.3177 64.4062 55.8281C64.5729 55.3333 64.8073 54.9036 65.1094 54.5391C65.4115 54.1745 65.7708 53.8932 66.1875 53.6953C66.6094 53.4922 67.0755 53.3906 67.5859 53.3906C68.0026 53.3906 68.3776 53.4479 68.7109 53.5625C69.0443 53.6719 69.3281 53.849 69.5625 54.0938C69.8021 54.3385 69.9844 54.6562 70.1094 55.0469C70.2344 55.4323 70.2969 55.9036 70.2969 56.4609V62H68.8438V56.4453C68.8438 56.0026 68.7786 55.6484 68.6484 55.3828C68.5182 55.112 68.3281 54.9167 68.0781 54.7969C67.8281 54.6719 67.5208 54.6094 67.1562 54.6094C66.7969 54.6094 66.4688 54.6849 66.1719 54.8359C65.8802 54.987 65.6276 55.1953 65.4141 55.4609C65.2057 55.7266 65.0417 56.0312 64.9219 56.375C64.8073 56.7135 64.75 57.0729 64.75 57.4531ZM75.9688 62.1562C75.3802 62.1562 74.8464 62.0573 74.3672 61.8594C73.8932 61.6562 73.4844 61.3724 73.1406 61.0078C72.8021 60.6432 72.5417 60.2109 72.3594 59.7109C72.1771 59.2109 72.0859 58.6641 72.0859 58.0703V57.7422C72.0859 57.0547 72.1875 56.4427 72.3906 55.9062C72.5938 55.3646 72.8698 54.9062 73.2188 54.5312C73.5677 54.1562 73.9635 53.8724 74.4062 53.6797C74.849 53.487 75.3073 53.3906 75.7812 53.3906C76.3854 53.3906 76.9062 53.4948 77.3438 53.7031C77.7865 53.9115 78.1484 54.2031 78.4297 54.5781C78.7109 54.9479 78.9193 55.3854 79.0547 55.8906C79.1901 56.3906 79.2578 56.9375 79.2578 57.5312V58.1797H72.9453V57H77.8125V56.8906C77.7917 56.5156 77.7135 56.151 77.5781 55.7969C77.4479 55.4427 77.2396 55.151 76.9531 54.9219C76.6667 54.6927 76.276 54.5781 75.7812 54.5781C75.4531 54.5781 75.151 54.6484 74.875 54.7891C74.599 54.9245 74.362 55.1276 74.1641 55.3984C73.9661 55.6693 73.8125 56 73.7031 56.3906C73.5938 56.7812 73.5391 57.2318 73.5391 57.7422V58.0703C73.5391 58.4714 73.5938 58.849 73.7031 59.2031C73.8177 59.5521 73.9818 59.8594 74.1953 60.125C74.4141 60.3906 74.6771 60.599 74.9844 60.75C75.2969 60.901 75.651 60.9766 76.0469 60.9766C76.5573 60.9766 76.9896 60.8724 77.3438 60.6641C77.6979 60.4557 78.0078 60.1771 78.2734 59.8281L79.1484 60.5234C78.9661 60.7995 78.7344 61.0625 78.4531 61.3125C78.1719 61.5625 77.8255 61.7656 77.4141 61.9219C77.0078 62.0781 76.526 62.1562 75.9688 62.1562ZM89.3438 51.6328L85.5781 62H84.0391L88.375 50.625H89.3672L89.3438 51.6328ZM92.5 62L88.7266 51.6328L88.7031 50.625H89.6953L94.0469 62H92.5ZM92.3047 57.7891V59.0234H85.9141V57.7891H92.3047ZM96.7969 54.875V62H95.3516V53.5469H96.7578L96.7969 54.875ZM99.4375 53.5L99.4297 54.8438C99.3099 54.8177 99.1953 54.8021 99.0859 54.7969C98.9818 54.7865 98.862 54.7812 98.7266 54.7812C98.3932 54.7812 98.099 54.8333 97.8438 54.9375C97.5885 55.0417 97.3724 55.1875 97.1953 55.375C97.0182 55.5625 96.8776 55.7865 96.7734 56.0469C96.6745 56.3021 96.6094 56.5833 96.5781 56.8906L96.1719 57.125C96.1719 56.6146 96.2214 56.1354 96.3203 55.6875C96.4245 55.2396 96.5833 54.8438 96.7969 54.5C97.0104 54.151 97.2812 53.8802 97.6094 53.6875C97.9427 53.4896 98.3385 53.3906 98.7969 53.3906C98.901 53.3906 99.0208 53.4036 99.1562 53.4297C99.2917 53.4505 99.3854 53.474 99.4375 53.5ZM104.703 53.5469V54.6562H100.133V53.5469H104.703ZM101.68 51.4922H103.125V59.9062C103.125 60.1927 103.169 60.4089 103.258 60.5547C103.346 60.7005 103.461 60.7969 103.602 60.8438C103.742 60.8906 103.893 60.9141 104.055 60.9141C104.174 60.9141 104.299 60.9036 104.43 60.8828C104.565 60.8568 104.667 60.8359 104.734 60.8203L104.742 62C104.628 62.0365 104.477 62.0703 104.289 62.1016C104.107 62.138 103.885 62.1562 103.625 62.1562C103.271 62.1562 102.945 62.0859 102.648 61.9453C102.352 61.8047 102.115 61.5703 101.938 61.2422C101.766 60.9089 101.68 60.4609 101.68 59.8984V51.4922ZM119.344 55.9531V56.6719C119.344 57.526 119.237 58.2917 119.023 58.9688C118.81 59.6458 118.503 60.2214 118.102 60.6953C117.701 61.1693 117.219 61.5312 116.656 61.7812C116.099 62.0312 115.474 62.1562 114.781 62.1562C114.109 62.1562 113.492 62.0312 112.93 61.7812C112.372 61.5312 111.888 61.1693 111.477 60.6953C111.07 60.2214 110.755 59.6458 110.531 58.9688C110.307 58.2917 110.195 57.526 110.195 56.6719V55.9531C110.195 55.099 110.305 54.3359 110.523 53.6641C110.747 52.987 111.062 52.4115 111.469 51.9375C111.875 51.4583 112.357 51.0938 112.914 50.8438C113.477 50.5938 114.094 50.4688 114.766 50.4688C115.458 50.4688 116.083 50.5938 116.641 50.8438C117.203 51.0938 117.685 51.4583 118.086 51.9375C118.492 52.4115 118.802 52.987 119.016 53.6641C119.234 54.3359 119.344 55.099 119.344 55.9531ZM117.852 56.6719V55.9375C117.852 55.2604 117.781 54.6615 117.641 54.1406C117.505 53.6198 117.305 53.1823 117.039 52.8281C116.773 52.474 116.448 52.2057 116.062 52.0234C115.682 51.8411 115.25 51.75 114.766 51.75C114.297 51.75 113.872 51.8411 113.492 52.0234C113.117 52.2057 112.794 52.474 112.523 52.8281C112.258 53.1823 112.052 53.6198 111.906 54.1406C111.76 54.6615 111.688 55.2604 111.688 55.9375V56.6719C111.688 57.3542 111.76 57.9583 111.906 58.4844C112.052 59.0052 112.26 59.4453 112.531 59.8047C112.807 60.1589 113.133 60.4271 113.508 60.6094C113.888 60.7917 114.312 60.8828 114.781 60.8828C115.271 60.8828 115.706 60.7917 116.086 60.6094C116.466 60.4271 116.786 60.1589 117.047 59.8047C117.312 59.4453 117.513 59.0052 117.648 58.4844C117.784 57.9583 117.852 57.3542 117.852 56.6719ZM123.539 62H122.094V52.6562C122.094 52.0469 122.203 51.5339 122.422 51.1172C122.646 50.6953 122.966 50.3776 123.383 50.1641C123.799 49.9453 124.294 49.8359 124.867 49.8359C125.034 49.8359 125.201 49.8464 125.367 49.8672C125.539 49.888 125.706 49.9193 125.867 49.9609L125.789 51.1406C125.68 51.1146 125.555 51.0964 125.414 51.0859C125.279 51.0755 125.143 51.0703 125.008 51.0703C124.701 51.0703 124.435 51.1328 124.211 51.2578C123.992 51.3776 123.826 51.5547 123.711 51.7891C123.596 52.0234 123.539 52.3125 123.539 52.6562V62ZM125.336 53.5469V54.6562H120.758V53.5469H125.336ZM135.023 50.625V62H133.539V50.625H135.023ZM138.68 50.625V51.8594H129.891V50.625H138.68ZM141 54.875V62H139.555V53.5469H140.961L141 54.875ZM143.641 53.5L143.633 54.8438C143.513 54.8177 143.398 54.8021 143.289 54.7969C143.185 54.7865 143.065 54.7812 142.93 54.7812C142.596 54.7812 142.302 54.8333 142.047 54.9375C141.792 55.0417 141.576 55.1875 141.398 55.375C141.221 55.5625 141.081 55.7865 140.977 56.0469C140.878 56.3021 140.812 56.5833 140.781 56.8906L140.375 57.125C140.375 56.6146 140.424 56.1354 140.523 55.6875C140.628 55.2396 140.786 54.8438 141 54.5C141.214 54.151 141.484 53.8802 141.812 53.6875C142.146 53.4896 142.542 53.3906 143 53.3906C143.104 53.3906 143.224 53.4036 143.359 53.4297C143.495 53.4505 143.589 53.474 143.641 53.5ZM149.648 60.5547V56.2031C149.648 55.8698 149.581 55.5807 149.445 55.3359C149.315 55.0859 149.117 54.8932 148.852 54.7578C148.586 54.6224 148.258 54.5547 147.867 54.5547C147.503 54.5547 147.182 54.6172 146.906 54.7422C146.635 54.8672 146.422 55.0312 146.266 55.2344C146.115 55.4375 146.039 55.6562 146.039 55.8906H144.594C144.594 55.5885 144.672 55.2891 144.828 54.9922C144.984 54.6953 145.208 54.4271 145.5 54.1875C145.797 53.9427 146.151 53.75 146.562 53.6094C146.979 53.4635 147.443 53.3906 147.953 53.3906C148.568 53.3906 149.109 53.4948 149.578 53.7031C150.052 53.9115 150.422 54.2266 150.688 54.6484C150.958 55.0651 151.094 55.5885 151.094 56.2188V60.1562C151.094 60.4375 151.117 60.737 151.164 61.0547C151.216 61.3724 151.292 61.6458 151.391 61.875V62H149.883C149.81 61.8333 149.753 61.612 149.711 61.3359C149.669 61.0547 149.648 60.7943 149.648 60.5547ZM149.898 56.875L149.914 57.8906H148.453C148.042 57.8906 147.674 57.9245 147.352 57.9922C147.029 58.0547 146.758 58.151 146.539 58.2812C146.32 58.4115 146.154 58.5755 146.039 58.7734C145.924 58.9661 145.867 59.1927 145.867 59.4531C145.867 59.7188 145.927 59.9609 146.047 60.1797C146.167 60.3984 146.346 60.5729 146.586 60.7031C146.831 60.8281 147.13 60.8906 147.484 60.8906C147.927 60.8906 148.318 60.7969 148.656 60.6094C148.995 60.4219 149.263 60.1927 149.461 59.9219C149.664 59.651 149.773 59.388 149.789 59.1328L150.406 59.8281C150.37 60.0469 150.271 60.2891 150.109 60.5547C149.948 60.8203 149.732 61.0755 149.461 61.3203C149.195 61.5599 148.878 61.7604 148.508 61.9219C148.143 62.0781 147.732 62.1562 147.273 62.1562C146.701 62.1562 146.198 62.0443 145.766 61.8203C145.339 61.5964 145.005 61.2969 144.766 60.9219C144.531 60.5417 144.414 60.1172 144.414 59.6484C144.414 59.1953 144.503 58.7969 144.68 58.4531C144.857 58.1042 145.112 57.8151 145.445 57.5859C145.779 57.3516 146.18 57.1745 146.648 57.0547C147.117 56.9349 147.641 56.875 148.219 56.875H149.898ZM158.695 60.3594V50H160.148V62H158.82L158.695 60.3594ZM153.008 57.8672V57.7031C153.008 57.0573 153.086 56.4714 153.242 55.9453C153.404 55.4141 153.63 54.9583 153.922 54.5781C154.219 54.1979 154.57 53.9062 154.977 53.7031C155.388 53.4948 155.846 53.3906 156.352 53.3906C156.883 53.3906 157.346 53.4844 157.742 53.6719C158.143 53.8542 158.482 54.1224 158.758 54.4766C159.039 54.8255 159.26 55.2474 159.422 55.7422C159.583 56.237 159.695 56.7969 159.758 57.4219V58.1406C159.701 58.7604 159.589 59.3177 159.422 59.8125C159.26 60.3073 159.039 60.7292 158.758 61.0781C158.482 61.4271 158.143 61.6953 157.742 61.8828C157.341 62.0651 156.872 62.1562 156.336 62.1562C155.841 62.1562 155.388 62.0495 154.977 61.8359C154.57 61.6224 154.219 61.3229 153.922 60.9375C153.63 60.5521 153.404 60.099 153.242 59.5781C153.086 59.0521 153.008 58.4818 153.008 57.8672ZM154.461 57.7031V57.8672C154.461 58.2891 154.503 58.6849 154.586 59.0547C154.674 59.4245 154.81 59.75 154.992 60.0312C155.174 60.3125 155.406 60.5339 155.688 60.6953C155.969 60.8516 156.305 60.9297 156.695 60.9297C157.174 60.9297 157.568 60.8281 157.875 60.625C158.188 60.4219 158.438 60.1536 158.625 59.8203C158.812 59.487 158.958 59.125 159.062 58.7344V56.8516C159 56.5651 158.909 56.2891 158.789 56.0234C158.674 55.7526 158.523 55.513 158.336 55.3047C158.154 55.0911 157.927 54.9219 157.656 54.7969C157.391 54.6719 157.076 54.6094 156.711 54.6094C156.315 54.6094 155.974 54.6927 155.688 54.8594C155.406 55.0208 155.174 55.2448 154.992 55.5312C154.81 55.8125 154.674 56.1406 154.586 56.5156C154.503 56.8854 154.461 57.2812 154.461 57.7031ZM163.969 53.5469V62H162.516V53.5469H163.969ZM162.406 51.3047C162.406 51.0703 162.477 50.8724 162.617 50.7109C162.763 50.5495 162.977 50.4688 163.258 50.4688C163.534 50.4688 163.745 50.5495 163.891 50.7109C164.042 50.8724 164.117 51.0703 164.117 51.3047C164.117 51.5286 164.042 51.7214 163.891 51.8828C163.745 52.0391 163.534 52.1172 163.258 52.1172C162.977 52.1172 162.763 52.0391 162.617 51.8828C162.477 51.7214 162.406 51.5286 162.406 51.3047ZM167.734 55.3516V62H166.289V53.5469H167.656L167.734 55.3516ZM167.391 57.4531L166.789 57.4297C166.794 56.8516 166.88 56.3177 167.047 55.8281C167.214 55.3333 167.448 54.9036 167.75 54.5391C168.052 54.1745 168.411 53.8932 168.828 53.6953C169.25 53.4922 169.716 53.3906 170.227 53.3906C170.643 53.3906 171.018 53.4479 171.352 53.5625C171.685 53.6719 171.969 53.849 172.203 54.0938C172.443 54.3385 172.625 54.6562 172.75 55.0469C172.875 55.4323 172.938 55.9036 172.938 56.4609V62H171.484V56.4453C171.484 56.0026 171.419 55.6484 171.289 55.3828C171.159 55.112 170.969 54.9167 170.719 54.7969C170.469 54.6719 170.161 54.6094 169.797 54.6094C169.438 54.6094 169.109 54.6849 168.812 54.8359C168.521 54.987 168.268 55.1953 168.055 55.4609C167.846 55.7266 167.682 56.0312 167.562 56.375C167.448 56.7135 167.391 57.0729 167.391 57.4531ZM180.609 53.5469H181.922V61.8203C181.922 62.5651 181.771 63.2005 181.469 63.7266C181.167 64.2526 180.745 64.651 180.203 64.9219C179.667 65.1979 179.047 65.3359 178.344 65.3359C178.052 65.3359 177.708 65.2891 177.312 65.1953C176.922 65.1068 176.536 64.9531 176.156 64.7344C175.781 64.5208 175.466 64.2318 175.211 63.8672L175.969 63.0078C176.323 63.4349 176.693 63.7318 177.078 63.8984C177.469 64.0651 177.854 64.1484 178.234 64.1484C178.693 64.1484 179.089 64.0625 179.422 63.8906C179.755 63.7188 180.013 63.4635 180.195 63.125C180.383 62.7917 180.477 62.3802 180.477 61.8906V55.4062L180.609 53.5469ZM174.789 57.8672V57.7031C174.789 57.0573 174.865 56.4714 175.016 55.9453C175.172 55.4141 175.393 54.9583 175.68 54.5781C175.971 54.1979 176.323 53.9062 176.734 53.7031C177.146 53.4948 177.609 53.3906 178.125 53.3906C178.656 53.3906 179.12 53.4844 179.516 53.6719C179.917 53.8542 180.255 54.1224 180.531 54.4766C180.812 54.8255 181.034 55.2474 181.195 55.7422C181.357 56.237 181.469 56.7969 181.531 57.4219V58.1406C181.474 58.7604 181.362 59.3177 181.195 59.8125C181.034 60.3073 180.812 60.7292 180.531 61.0781C180.255 61.4271 179.917 61.6953 179.516 61.8828C179.115 62.0651 178.646 62.1562 178.109 62.1562C177.604 62.1562 177.146 62.0495 176.734 61.8359C176.328 61.6224 175.979 61.3229 175.688 60.9375C175.396 60.5521 175.172 60.099 175.016 59.5781C174.865 59.0521 174.789 58.4818 174.789 57.8672ZM176.234 57.7031V57.8672C176.234 58.2891 176.276 58.6849 176.359 59.0547C176.448 59.4245 176.581 59.75 176.758 60.0312C176.94 60.3125 177.172 60.5339 177.453 60.6953C177.734 60.8516 178.07 60.9297 178.461 60.9297C178.94 60.9297 179.336 60.8281 179.648 60.625C179.961 60.4219 180.208 60.1536 180.391 59.8203C180.578 59.487 180.724 59.125 180.828 58.7344V56.8516C180.771 56.5651 180.682 56.2891 180.562 56.0234C180.448 55.7526 180.297 55.513 180.109 55.3047C179.927 55.0911 179.701 54.9219 179.43 54.7969C179.159 54.6719 178.841 54.6094 178.477 54.6094C178.081 54.6094 177.74 54.6927 177.453 54.8594C177.172 55.0208 176.94 55.2448 176.758 55.5312C176.581 55.8125 176.448 56.1406 176.359 56.5156C176.276 56.8854 176.234 57.2812 176.234 57.7031Z" fill="#2196F3"/>
</g>
<defs>
<clipPath id="clip0_109_10">
<rect width="183.273" height="65" fill="white"/>
</clipPath>
</defs>
</svg>
