<svg width="1053" height="322" viewBox="0 0 1053 322" fill="none" xmlns="http://www.w3.org/2000/svg">
<g clip-path="url(#clip0_408_19)">
<path fill-rule="evenodd" clip-rule="evenodd" d="M253.84 24.0459C266.583 23.4205 276.721 12.9527 276.721 0.131271L1053.87 0.131577V31.1629L1043.01 37.9054C1039.23 40.2523 1039.23 45.7541 1043.01 48.101L1053.87 54.8435V69.7224L1043.01 76.4648C1039.23 78.8118 1039.23 84.3135 1043.01 86.6604L1053.87 93.4029V108.282L1043.01 115.024C1039.23 117.371 1039.23 122.873 1043.01 125.22L1053.87 131.962V146.841L1043.01 153.584C1039.23 155.931 1039.23 161.432 1043.01 163.779L1053.87 170.522V185.401L1043.01 192.143C1039.23 194.49 1039.23 199.992 1043.01 202.339L1053.87 209.081V224.289L1043.01 231.031C1039.23 233.378 1039.23 238.88 1043.01 241.227L1053.87 247.969V262.941L1043.01 269.684C1039.23 272.03 1039.23 277.532 1043.01 279.879L1053.87 286.622V321.868L276.533 321.869C275.094 310.453 265.571 301.536 253.84 300.96V295.995H251.424V300.96C239.693 301.536 230.17 310.453 228.731 321.869H-0.873291V0.131326L228.543 0.131271C228.543 12.9527 238.682 23.4205 251.424 24.0459V26.0053H253.84V24.0459ZM253.84 292.343H251.424V283.889H253.84V292.343ZM253.84 280.236H251.424V271.782H253.84V280.236ZM253.84 268.13H251.424V259.676L253.84 259.676V268.13ZM253.84 256.024H251.424V247.57H253.84V256.024ZM253.84 243.918H251.424V235.464H253.84L253.84 243.918ZM253.84 231.811L251.424 231.811V223.357H253.84V231.811ZM253.84 219.705H251.424V211.251H253.84V219.705ZM253.84 207.599H251.424V199.145L253.84 199.145V207.599ZM253.84 195.493H251.424V187.039H253.84V195.493ZM253.84 183.386H251.424V174.932L253.84 174.932V183.386ZM253.84 171.28H251.424V162.826H253.84V171.28ZM253.84 159.174H251.424V150.72L253.84 150.72V159.174ZM253.84 147.068H251.424V138.614L253.84 138.614V147.068ZM253.84 134.962H251.424V126.507L253.84 126.507V134.962ZM253.84 122.855L251.424 122.855V114.401H253.84V122.855ZM253.84 110.749L251.424 110.749V102.295L253.84 102.295V110.749ZM253.84 98.6428L251.424 98.6428V90.1886H253.84V98.6428ZM253.84 86.5365H251.424V78.0824H253.84V86.5365ZM253.84 74.4303H251.424V65.9761H253.84V74.4303ZM253.84 62.324L251.424 62.324V53.8699H253.84V62.324ZM253.84 50.2178L251.424 50.2178V41.7636H253.84V50.2178ZM253.84 38.1115H251.424V29.6574H253.84V38.1115Z" fill="white"/>
</g>
<defs>
<clipPath id="clip0_408_19">
<rect width="1053" height="322" rx="10" fill="white"/>
</clipPath>
</defs>
</svg>
