<svg width="846" height="269" viewBox="0 0 846 269" fill="none" xmlns="http://www.w3.org/2000/svg">
<path fill-rule="evenodd" clip-rule="evenodd" d="M781.51 20.2956C792.061 19.7746 800.455 11.0552 800.455 0.375244L845.989 0.37529V268.375H800.299C799.108 258.866 791.223 251.439 781.51 250.959V246.823H779.51V250.959C769.798 251.439 761.913 258.866 760.722 268.375H0.988525V0.37529L760.566 0.375244C760.566 11.0552 768.96 19.7746 779.51 20.2956V21.9277H781.51V20.2956ZM779.51 243.781L781.51 243.781V236.739H779.51V243.781ZM779.51 233.697H781.51V226.654H779.51V233.697ZM779.51 223.612H781.51V216.57L779.51 216.57V223.612ZM779.51 213.528H781.51V206.486H779.51V213.528ZM779.51 203.444H781.51L781.51 196.402H779.51L779.51 203.444ZM779.51 193.36L781.51 193.36V186.318H779.51V193.36ZM779.51 183.275H781.51V176.233H779.51V183.275ZM779.51 173.191H781.51V166.149L779.51 166.149V173.191ZM779.51 163.107H781.51V156.065H779.51V163.107ZM779.51 153.023H781.51V145.981L779.51 145.981V153.023ZM779.51 142.938H781.51V135.896H779.51V142.938ZM779.51 132.854H781.51V125.812L779.51 125.812V132.854ZM779.51 122.77H781.51V115.728L779.51 115.728V122.77ZM779.51 112.686L781.51 112.686V105.644L779.51 105.644V112.686ZM779.51 102.602L781.51 102.602V95.5594H779.51V102.602ZM779.51 92.5173L781.51 92.5173V85.4752L779.51 85.4752V92.5173ZM779.51 82.4331L781.51 82.4331V75.391H779.51V82.4331ZM779.51 72.3489L781.51 72.3489V65.3067H779.51V72.3489ZM779.51 62.2646H781.51V55.2225H779.51V62.2646ZM779.51 52.1804L781.51 52.1804V45.1383H779.51V52.1804ZM779.51 42.0962L781.51 42.0962V35.054H779.51V42.0962ZM779.51 32.0119H781.51V24.9698H779.51V32.0119Z" fill="white"/>
</svg>
