<svg width="1054" height="322" viewBox="0 0 1054 322" fill="none" xmlns="http://www.w3.org/2000/svg">
<g clip-path="url(#clip0_408_19)">
<path fill-rule="evenodd" clip-rule="evenodd" d="M233.172 24.3223C245.914 23.6931 256.053 13.1618 256.053 0.262543L989.048 0.262598V323.953H255.865C254.426 312.468 244.903 303.497 233.172 302.917V297.922H230.756V302.917C219.025 303.496 209.502 312.468 208.063 323.953H-1.5415V0.262598L207.875 0.262543C207.875 13.1618 218.013 23.6931 230.756 24.3223V26.2936H233.172V24.3223ZM230.756 294.247H233.172V285.742H230.756V294.247ZM230.756 282.068H233.172V273.562H230.756V282.068ZM230.756 269.888H233.172V261.382L230.756 261.383V269.888ZM230.756 257.708H233.172V249.203H230.756V257.708ZM230.756 245.529H233.172L233.172 237.023H230.756V245.529ZM230.756 233.349L233.172 233.349V224.843H230.756V233.349ZM230.756 221.169H233.172V212.664H230.756V221.169ZM230.756 208.989H233.172V200.484L230.756 200.484V208.989ZM230.756 196.81H233.172V188.304H230.756V196.81ZM230.756 184.63H233.172V176.124L230.756 176.124V184.63ZM230.756 172.45H233.172V163.945H230.756V172.45ZM230.756 160.27H233.172V151.765L230.756 151.765V160.27ZM230.756 148.091H233.172V139.585L230.756 139.585V148.091ZM230.756 135.911H233.172V127.406L230.756 127.406V135.911ZM230.756 123.731L233.172 123.731V115.226H230.756V123.731ZM230.756 111.552L233.172 111.552V103.046L230.756 103.046V111.552ZM230.756 99.3719L233.172 99.3719V90.8664H230.756V99.3719ZM230.756 87.1922L233.172 87.1922V78.6867H230.756V87.1922ZM230.756 75.0125H233.172V66.507H230.756V75.0125ZM230.756 62.8327L233.172 62.8327V54.3273H230.756V62.8327ZM230.756 50.653L233.172 50.653V42.1475H230.756V50.653ZM230.756 38.4733H233.172V29.9678H230.756V38.4733Z" fill="white"/>
<path fill-rule="evenodd" clip-rule="evenodd" d="M989.048 0.262543L989.048 322L1053.21 322L1053.21 287.729L1042.34 280.987C1038.56 278.64 1038.56 273.138 1042.34 270.791L1053.21 264.049L1053.21 249.077L1042.34 242.334C1038.56 239.988 1038.56 234.486 1042.34 232.139L1053.21 225.396L1053.21 210.189L1042.34 203.446C1038.56 201.1 1038.56 195.598 1042.34 193.251L1053.21 186.508L1053.21 171.629L1042.34 164.887C1038.56 162.54 1038.56 157.038 1042.34 154.691L1053.21 147.949L1053.21 133.07L1042.34 126.327C1038.56 123.98 1038.56 118.479 1042.34 116.132L1053.21 109.389L1053.21 94.5104L1042.34 87.7679C1038.56 85.421 1038.56 79.9192 1042.34 77.5723L1053.21 70.8298L1053.21 55.9509L1042.34 49.2083C1038.56 46.8614 1038.56 41.3597 1042.34 39.0128L1053.21 32.2703L1053.21 0.26254L989.048 0.262543Z" fill="white"/>
</g>
<defs>
<clipPath id="clip0_408_19">
<rect x="0.205078" width="1053" height="322" rx="10" fill="white"/>
</clipPath>
</defs>
</svg>
