<svg width="833" height="268" viewBox="0 0 833 268" fill="none" xmlns="http://www.w3.org/2000/svg">
<path fill-rule="evenodd" clip-rule="evenodd" d="M761.51 19.9287C772.061 19.4077 780.455 10.6883 780.455 0.00830078L832.989 0.00834656V268.008H780.299C779.108 258.499 771.223 251.072 761.51 250.592V246.456H759.51V250.592C749.798 251.072 741.913 258.499 740.722 268.008H0.988525V0.00834656L740.566 0.00830078C740.566 10.6883 748.96 19.4077 759.51 19.9287V21.5607H761.51V19.9287ZM759.51 243.414L761.51 243.414V236.372H759.51V243.414ZM759.51 233.33H761.51V226.287H759.51V233.33ZM759.51 223.245H761.51V216.203L759.51 216.203V223.245ZM759.51 213.161H761.51V206.119H759.51V213.161ZM759.51 203.077H761.51L761.51 196.035H759.51L759.51 203.077ZM759.51 192.993L761.51 192.993V185.951H759.51V192.993ZM759.51 182.908H761.51V175.866H759.51V182.908ZM759.51 172.824H761.51V165.782L759.51 165.782V172.824ZM759.51 162.74H761.51V155.698H759.51V162.74ZM759.51 152.656H761.51V145.614L759.51 145.614V152.656ZM759.51 142.572H761.51V135.529H759.51V142.572ZM759.51 132.487H761.51V125.445L759.51 125.445V132.487ZM759.51 122.403H761.51V115.361L759.51 115.361V122.403ZM759.51 112.319L761.51 112.319V105.277L759.51 105.277V112.319ZM759.51 102.235L761.51 102.235V95.1925H759.51V102.235ZM759.51 92.1504L761.51 92.1504V85.1083L759.51 85.1083V92.1504ZM759.51 82.0662L761.51 82.0662V75.024H759.51V82.0662ZM759.51 71.9819L761.51 71.9819V64.9398H759.51V71.9819ZM759.51 61.8977H761.51V54.8556H759.51V61.8977ZM759.51 51.8134L761.51 51.8134V44.7713H759.51V51.8134ZM759.51 41.7292L761.51 41.7292V34.6871H759.51V41.7292ZM759.51 31.645H761.51V24.6029H759.51V31.645Z" fill="white"/>
</svg>
