<svg aria-hidden="true" style="position: absolute; width: 0; height: 0; overflow: hidden;" version="1.1" xmlns="http://www.w3.org/2000/svg" xmlns:xlink="http://www.w3.org/1999/xlink">
<defs>
<symbol id="icon-bank-commissions" viewBox="0 0 34 34" fill="none">
  <path d="M3.54812 29.5312H4.88924M24.3354 29.5312H22.8602M22.8602 29.5312V19.42H17.4957M22.8602 29.5312H17.4957M4.88924 29.5312V19.42H10.9243M4.88924 29.5312H10.9243M10.9243 19.42V29.5312M10.9243 19.42H17.4957M10.9243 29.5312H17.4957M17.4957 19.42V29.5312M1 32.8572H27.2859M1.53645 19.42H26.0789V17.8235L14.1429 11.1714L1.53645 17.8235V19.42Z" stroke="#42A5F5" stroke-width="2" stroke-linecap="square"/>
  <circle cx="26.7717" cy="6.57147" r="6.07147" stroke="#232323"/>
  <path d="M27.0457 7.64233V7.47367C27.0457 7.35707 27.0734 7.25035 27.1289 7.15353C27.1856 7.05567 27.2677 6.97758 27.375 6.91928C27.4836 6.85994 27.615 6.83027 27.7694 6.83027C27.9262 6.83027 28.0577 6.85994 28.1639 6.91928C28.27 6.97758 28.3502 7.05567 28.4045 7.15353C28.4588 7.25035 28.4859 7.35707 28.4859 7.47367V7.64233C28.4859 7.75893 28.4582 7.86617 28.4027 7.96403C28.3484 8.06085 28.2676 8.13894 28.1603 8.19828C28.0541 8.25658 27.9238 8.28573 27.7694 8.28573C27.6126 8.28573 27.4805 8.25658 27.3732 8.19828C27.2658 8.13894 27.1844 8.06085 27.1289 7.96403C27.0734 7.86617 27.0457 7.75893 27.0457 7.64233ZM27.4148 7.47367V7.64233C27.4148 7.73915 27.4413 7.82609 27.4944 7.90313C27.5475 7.97913 27.6392 8.01713 27.7694 8.01713C27.8961 8.01713 27.9853 7.97913 28.0372 7.90313C28.0903 7.82609 28.1168 7.73915 28.1168 7.64233V7.47367C28.1168 7.37685 28.0915 7.29044 28.0408 7.21444C27.9902 7.13739 27.8997 7.09887 27.7694 7.09887C27.6428 7.09887 27.5517 7.13739 27.4962 7.21444C27.4419 7.29044 27.4148 7.37685 27.4148 7.47367ZM25.2002 5.81206V5.6434C25.2002 5.5268 25.2279 5.42009 25.2834 5.32326C25.3401 5.2254 25.4221 5.14732 25.5295 5.08901C25.6381 5.02967 25.7695 5 25.9239 5C26.0807 5 26.2122 5.02967 26.3184 5.08901C26.4245 5.14732 26.5047 5.2254 26.559 5.32326C26.6133 5.42009 26.6404 5.5268 26.6404 5.6434V5.81206C26.6404 5.92867 26.6127 6.0359 26.5572 6.13377C26.5029 6.23059 26.4221 6.30867 26.3147 6.36801C26.2086 6.42632 26.0783 6.45547 25.9239 6.45547C25.7671 6.45547 25.635 6.42632 25.5277 6.36801C25.4203 6.30867 25.3389 6.23059 25.2834 6.13377C25.2279 6.0359 25.2002 5.92867 25.2002 5.81206ZM25.5693 5.6434V5.81206C25.5693 5.90889 25.5958 5.99582 25.6489 6.07286C25.702 6.14886 25.7937 6.18686 25.9239 6.18686C26.0506 6.18686 26.1398 6.14886 26.1917 6.07286C26.2448 5.99582 26.2713 5.90889 26.2713 5.81206V5.6434C26.2713 5.54658 26.246 5.46017 26.1953 5.38417C26.1447 5.30713 26.0542 5.26861 25.9239 5.26861C25.7973 5.26861 25.7062 5.30713 25.6507 5.38417C25.5964 5.46017 25.5693 5.54658 25.5693 5.6434ZM25.3377 8.24201L27.8852 5.04373H28.2978L25.7502 8.24201H25.3377Z" fill="#232323"/>
</symbol>
<symbol id="icon-arrow-right" viewBox="0 0 40 32">
<path  d="M24.686 1.857l12.728 12.728c0.781 0.781 0.781 2.047 0 2.828l-12.728 12.728c-0.781 0.781-2.047 0.781-2.828 0s-0.781-2.047 0-2.828l9.314-9.314h-31.172v-4h31.172l-9.314-9.314c-0.781-0.781-0.781-2.047 0-2.828s2.047-0.781 2.828 0z"></path>
</symbol>
<symbol id="icon-branch" viewBox="0 0 95 186">
<path d="M78.4313 128.057C71.7217 132.714 70.6436 137.786 70.4677 139.191C69.4034 139.812 68.4132 140.365 67.5109 140.853C68.9315 138.5 70.2734 136.1 71.5135 133.645C73.568 129.467 75.3495 125.16 76.8441 120.761C77.0107 120.277 77.1726 119.794 77.3253 119.31C78.4914 115.694 80.1711 112.258 82.42 109.19C82.5727 108.983 82.7208 108.78 82.8643 108.573L82.8596 108.577C101.646 98.3377 93.0258 77.4576 93.0258 77.4576C93.308 82.0685 88.8381 85.5877 84.2478 93.9894C80.3377 101.143 81.6472 106.159 82.1285 107.495C81.166 108.974 80.2683 110.263 79.4909 111.337C79.7963 109.992 80.0832 108.647 80.347 107.292C81.24 102.741 81.7352 98.1213 81.9619 93.5012L82.0359 91.7692C82.0683 91.1935 82.0868 90.6131 82.0776 90.0373L82.0729 86.5688C82.0452 85.4126 81.9712 84.2611 81.9249 83.1049C81.8925 82.5291 81.8833 81.9487 81.8324 81.3729L81.675 79.6456C81.5686 78.5032 81.6334 77.3471 81.8601 76.2232L83.2067 69.627V69.6362C96.9034 53.2426 81.1845 36.9779 81.1845 36.9779C83.1511 41.1604 80.2914 46.0661 79.1207 55.5641C78.1259 63.6481 81.1938 67.8306 82.1285 68.8992C81.7398 70.8154 81.3418 72.4875 80.9855 73.8509L80.8329 72.7777C80.6987 71.6307 80.4256 70.5068 80.222 69.3691L79.8935 67.6694C79.7871 67.1028 79.676 66.5362 79.5279 65.9789C78.968 63.7402 78.459 61.4924 77.7418 59.2998L77.2421 57.6462L76.9922 56.8216L76.7007 56.0063L75.53 52.7543C74.7896 50.8658 74.0169 48.9864 73.1886 47.1347C71.7032 43.809 70.7824 40.253 70.5788 36.6233C70.5325 35.7803 70.4631 34.9512 70.3844 34.1405V34.1497C77.7557 14.131 57.465 4.0617 57.465 4.0617C60.7273 7.34595 59.6861 12.9241 61.7869 22.261C63.5731 30.2068 67.8764 33.1225 69.1212 33.8181C69.5145 36.5357 69.7274 38.8158 69.8384 40.405C69.806 40.3497 69.7783 40.2898 69.7459 40.2345L68.9222 38.7191C68.6492 38.2124 68.3299 37.7334 68.0384 37.2359L66.2476 34.2879L64.318 31.432C63.9941 30.9576 63.6795 30.4785 63.3463 30.0087L62.3098 28.6314C61.2455 27.162 60.1211 25.7341 58.9597 24.343H58.9643C57.3401 22.2978 55.119 19.3406 53.1894 17.2033C52.2825 16.2038 51.4912 15.1029 50.9082 13.8822C42.4634 -3.83801 21.8442 1.14594 21.8442 1.14594C26.4761 1.44074 29.4237 6.29112 37.2299 11.8739C43.4027 16.2867 48.2938 16.0241 50.0753 15.7155C50.2881 15.7846 50.5473 15.8675 50.7647 15.9366L53.1246 18.3963C56.2064 21.7727 59.1586 25.2735 61.7407 29.0368L62.7309 30.4279C63.0502 30.9023 63.351 31.3859 63.661 31.865L65.5026 34.7439L66.28 36.1027C64.2301 34.3708 62.1617 32.86 60.1211 31.5518L60.1257 31.5564C49.0064 13.3295 28.4427 22.8414 28.4427 22.8414C33.0561 22.3531 36.7857 26.6415 45.4295 30.8286C52.7822 34.3938 57.7566 32.8692 59.0753 32.3302C62.0183 34.0484 64.4707 35.7296 65.8867 36.743C66.7798 37.3833 67.534 38.2078 68.0291 39.1843C68.0291 39.1889 68.0338 39.1935 68.0384 39.1981L68.8112 40.7182C70.9444 44.7395 72.661 48.9634 74.2066 53.2334L75.2755 56.467L75.5392 57.273L75.7659 58.093L76.2195 59.7328C76.8719 61.9069 77.3161 64.1318 77.8066 66.3428C77.9408 66.8955 78.0334 67.4529 78.1213 68.0102L78.1259 68.0379C76.7377 65.9144 75.2801 63.9751 73.7901 62.2202L73.7948 62.2248C68.5197 41.5565 46.0588 44.6612 46.0588 44.6612C50.6166 45.5363 52.9211 50.723 59.9545 57.25C65.9376 62.8005 71.1433 62.7913 72.5639 62.6624C74.1742 64.4081 75.4929 65.9696 76.4693 67.1765C77.8251 68.8532 78.7136 70.8661 78.9125 73.008C78.9125 73.0172 78.9125 73.031 78.9172 73.0402L79.3058 76.412L79.403 77.2549L79.4586 78.1025L79.5696 79.7976L79.6807 81.4881C79.7177 82.0501 79.7131 82.6166 79.7269 83.1832C79.7454 84.3117 79.7871 85.4449 79.7825 86.5734L79.6991 89.9636C79.6945 90.5301 79.6622 91.0921 79.6159 91.6541L79.5002 93.3446C79.3151 95.7859 79.056 98.218 78.6997 100.636C78.2138 98.6049 77.6493 96.6703 77.0107 94.8508L77.0154 94.8554C79.5002 73.6759 57.4049 68.5952 57.4049 68.5952C61.3473 71.0319 61.6435 76.6976 65.8682 85.2882C69.4683 92.603 74.3315 94.4408 75.7058 94.8278C76.2333 96.1452 76.6868 97.3658 77.0662 98.4437C78.001 101.092 78.1999 103.948 77.5938 106.689C77.5891 106.703 77.5891 106.717 77.5845 106.73C76.6128 111.129 75.4236 115.487 73.8457 119.706C72.2863 123.93 70.4585 128.048 68.3715 132.032C67.7515 133.189 67.1037 134.326 66.442 135.455C66.8261 133.069 67.0389 130.766 67.1268 128.564V128.573C77.2328 109.77 58.5478 96.9835 58.5478 96.9835C61.3196 100.692 59.5057 106.067 60.2784 115.607C60.9355 123.723 64.7854 127.21 65.9191 128.066C65.9191 128.375 65.9191 128.684 65.9191 128.983C65.8867 134.147 64.2996 139.2 61.2965 143.41C61.2826 143.433 61.2687 143.451 61.2501 143.474C58.6542 147.141 55.7298 150.563 52.6573 153.825C51.8706 154.621 51.1303 155.464 50.302 156.229L47.8727 158.551C47.8357 158.518 47.8449 158.528 47.8079 158.495C48.5483 157.183 49.2146 155.884 49.8208 154.598V154.603C66.4559 141.171 54.2121 122.175 54.2121 122.175C55.3226 126.662 51.5606 130.918 48.5575 140.01C46.0033 147.744 48.1966 152.447 48.9046 153.673C48.4141 154.843 47.9421 155.916 47.4978 156.869C46.4151 159.209 44.8279 161.291 42.7873 162.876C42.778 162.885 42.7688 162.89 42.7549 162.899C39.2474 165.681 35.5918 168.284 31.7281 170.541C29.4792 171.863 27.1841 173.102 24.8519 174.258C25.8236 173.258 26.7306 172.254 27.5589 171.245L27.5542 171.25C43.4906 163.931 37.6232 146.385 37.6232 146.385C37.5955 150.172 33.7409 152.793 29.5116 159.407C25.9115 165.036 26.6982 169.209 27.0128 170.324C26.4946 171.01 25.9995 171.642 25.5367 172.222C24.0144 174.12 22.0524 175.635 19.8035 176.584C19.7943 176.589 19.7804 176.593 19.7712 176.598C15.6482 178.316 11.4188 179.767 7.11547 180.955L7.06921 180.969L7.05531 180.974C5.88923 181.305 5.02859 182.337 5.00082 183.544C4.95455 185.608 6.87026 186.92 8.66102 186.377C13.1773 185.004 17.6056 183.355 21.9043 181.434C26.1985 179.495 30.3306 177.224 34.3193 174.737C36.7209 173.249 39.0438 171.632 41.2926 169.928C44.3513 167.611 48.0207 166.234 51.8475 165.907H51.8429C71.842 173.549 82.2627 153.502 82.2627 153.502C78.9125 156.699 73.3274 155.58 63.9155 157.528C55.9056 159.186 52.9118 163.424 52.1946 164.649C50.2696 164.898 48.5668 165.055 47.1647 165.161C48.4372 164.046 49.668 162.885 50.9082 161.738L53.3837 159.246C54.2213 158.431 54.9756 157.533 55.7761 156.676C58.8949 153.194 61.8424 149.555 64.443 145.676C64.4939 145.598 64.5494 145.52 64.6003 145.441C65.8774 143.543 67.6219 142.014 69.6672 140.978C70.0004 140.807 70.3289 140.637 70.6575 140.466L70.6528 140.471C92.0587 139.674 93.7245 117.163 93.7245 117.163C91.8921 121.424 86.3115 122.585 78.4313 128.057Z"/>
</symbol>
<symbol id="icon-double-gear" viewBox="0 0 38 30" fill="none">
<path fill-rule="evenodd" clip-rule="evenodd" d="M15.0828 0.5C15.3998 0.5 15.6672 0.736009 15.7064 1.0505L15.9982 3.38484C16.8864 3.62549 17.7285 3.97773 18.5085 4.42544L20.3661 2.98061C20.6163 2.78602 20.9723 2.80818 21.1964 3.03229L20.752 3.47667L20.752 3.47671L21.1964 3.03229L23.8627 5.69859C24.0868 5.9227 24.1089 6.27862 23.9143 6.52879L22.4695 8.38648C22.9172 9.1665 23.2695 10.0086 23.5101 10.8967L25.8444 11.1886C26.1589 11.2278 26.3949 11.4951 26.3949 11.8121V15.5828C26.3949 15.8998 26.1589 16.1672 25.8444 16.2064L23.5101 16.4982C23.2695 17.3863 22.9172 18.2285 22.4695 19.0085L23.9143 20.8661C24.1089 21.1163 24.0868 21.4723 23.8627 21.6964L21.1964 24.3627C20.9723 24.5868 20.6163 24.6089 20.3661 24.4143L18.5085 22.9695C17.7285 23.4172 16.8863 23.7695 15.9982 24.0101L15.7064 26.3444C15.6672 26.6589 15.3998 26.8949 15.0828 26.8949H11.3121C10.9951 26.8949 10.7278 26.6589 10.6886 26.3444L10.3967 24.0101C9.5086 23.7695 8.66651 23.4172 7.88649 22.9695L6.02881 24.4143C5.77863 24.6089 5.42272 24.5868 5.1986 24.3627L2.53231 21.6964L2.97673 21.252L2.97668 21.252L2.53231 21.6964C2.30819 21.4723 2.28603 21.1163 2.48062 20.8661L3.92545 19.0085C3.47773 18.2285 3.12549 17.3864 2.88484 16.4982L0.550498 16.2064C0.236009 16.1672 0 15.8998 0 15.5828V11.8121C0 11.4951 0.236009 11.2278 0.550498 11.1886L2.88485 10.8967C3.12551 10.0086 3.47774 9.16648 3.92545 8.38645L2.48061 6.52881C2.28603 6.27862 2.30819 5.9227 2.53231 5.69859L5.1986 3.03229C5.4227 2.80819 5.77863 2.78603 6.02881 2.98061L7.88647 4.42545C8.66649 3.97774 9.50859 3.62551 10.3967 3.38485L10.6886 1.0505C10.7278 0.736009 10.9951 0.5 11.3121 0.5H15.0828ZM11.1057 4.50347C10.0514 4.74226 9.06401 5.15787 8.1762 5.71778C7.95235 5.85897 7.66402 5.84476 7.45513 5.68228L5.69507 4.31335L3.81336 6.19506L5.1823 7.95511C5.34478 8.16402 5.35897 8.45233 5.21779 8.67619C4.65787 9.564 4.24226 10.5514 4.00347 11.6057C3.945 11.8638 3.7311 12.0576 3.46848 12.0904L1.2569 12.3669V15.0281L3.46848 15.3045C3.7311 15.3374 3.945 15.5312 4.00347 15.7892C4.24226 16.8435 4.65788 17.8309 5.21779 18.7188C5.35897 18.9427 5.34478 19.231 5.1823 19.4399L3.81336 21.1999L5.69507 23.0816L7.45513 21.7126C7.66404 21.5502 7.95235 21.536 8.1762 21.6772C9.06401 22.2371 10.0514 22.6527 11.1057 22.8915C11.3638 22.9499 11.5576 23.1638 11.5904 23.4264L11.8669 25.638H14.5281L14.8045 23.4264C14.8374 23.1638 15.0312 22.9499 15.2892 22.8915C16.3435 22.6527 17.3309 22.2371 18.2188 21.6772C18.4427 21.536 18.7309 21.5502 18.9399 21.7126L20.6999 23.0816L22.5816 21.1999L21.2126 19.4399C21.0502 19.231 21.036 18.9427 21.1772 18.7188C21.7371 17.8309 22.1527 16.8435 22.3915 15.7892C22.4499 15.5312 22.6638 15.3374 22.9264 15.3045L25.138 15.0281V12.3669L22.9264 12.0904C22.6638 12.0576 22.4499 11.8638 22.3915 11.6057C22.1527 10.5514 21.7371 9.564 21.1772 8.67619C21.036 8.45233 21.0502 8.16401 21.2126 7.95511L22.5816 6.19506L20.6999 4.31334L18.9399 5.68228C18.7309 5.84476 18.4427 5.85895 18.2188 5.71778C17.3309 5.15787 16.3435 4.74226 15.2892 4.50347C15.0312 4.445 14.8374 4.2311 14.8045 3.96848L14.5281 1.7569H11.8669L11.5904 3.96848C11.5576 4.2311 11.3638 4.445 11.1057 4.50347ZM8.79831 13.6975C8.79831 11.2679 10.7679 9.29831 13.1975 9.29831C15.6271 9.29831 17.5966 11.2679 17.5966 13.6975C17.5966 16.1271 15.6271 18.0966 13.1975 18.0966C10.7679 18.0966 8.79831 16.1271 8.79831 13.6975ZM13.1975 8.04141C10.0737 8.04141 7.54141 10.5737 7.54141 13.6975C7.54141 16.8212 10.0737 19.3535 13.1975 19.3535C16.3212 19.3535 18.8535 16.8212 18.8535 13.6975C18.8535 10.5737 16.3212 8.04141 13.1975 8.04141Z" fill="#42A5F5"/>
<path fill-rule="evenodd" clip-rule="evenodd" d="M31.9955 16.8022C32.154 16.8022 32.2877 16.9203 32.3073 17.0775L32.4532 18.2447C32.8973 18.365 33.3183 18.5411 33.7083 18.765L34.6371 18.0426C34.7623 17.9453 34.9402 17.9563 35.0523 18.0684L34.8301 18.2906L34.8301 18.2906L35.0523 18.0684L36.3854 19.4015C36.4975 19.5136 36.5085 19.6916 36.4113 19.8166L35.6888 20.7455C35.9127 21.1355 36.0888 21.5565 36.2092 22.0006L37.3763 22.1465C37.5336 22.1661 37.6516 22.2998 37.6516 22.4583V24.3437C37.6516 24.5022 37.5336 24.6358 37.3763 24.6554L36.2092 24.8013C36.0888 25.2454 35.9127 25.6665 35.6888 26.0565L36.4113 26.9853C36.5085 27.1104 36.4975 27.2884 36.3854 27.4004L35.0523 28.7336C34.9402 28.8456 34.7623 28.8567 34.6371 28.7594L33.7083 28.037C33.3183 28.2609 32.8973 28.437 32.4532 28.5573L32.3073 29.7245C32.2877 29.8817 32.154 29.9997 31.9955 29.9997H30.1102C29.9517 29.9997 29.818 29.8817 29.7984 29.7245L29.6525 28.5573C29.2084 28.437 28.7874 28.2609 28.3973 28.037L27.4685 28.7594C27.3434 28.8567 27.1655 28.8456 27.0534 28.7336L25.7203 27.4004L25.9425 27.1782L25.9424 27.1782L25.7203 27.4004C25.6082 27.2884 25.5971 27.1104 25.6944 26.9853L26.4168 26.0565C26.193 25.6665 26.0168 25.2454 25.8965 24.8013L24.7294 24.6554C24.5721 24.6358 24.4541 24.5022 24.4541 24.3437V22.4583C24.4541 22.2998 24.5721 22.1661 24.7294 22.1465L25.8965 22.0006C26.0169 21.5565 26.193 21.1355 26.4168 20.7455L25.6944 19.8166C25.5971 19.6916 25.6082 19.5136 25.7203 19.4015L27.0534 18.0684C27.1655 17.9563 27.3434 17.9453 27.4685 18.0426L28.3973 18.765C28.7873 18.5411 29.2084 18.365 29.6525 18.2447L29.7984 17.0775C29.818 16.9203 29.9517 16.8022 30.1102 16.8022H31.9955ZM30.007 18.804C29.4798 18.9234 28.9861 19.1312 28.5422 19.4111C28.4303 19.4817 28.2861 19.4746 28.1817 19.3934L27.3016 18.7089L26.3608 19.6498L27.0452 20.5298C27.1265 20.6343 27.1336 20.7784 27.063 20.8903C26.783 21.3342 26.5752 21.8279 26.4558 22.3551C26.4266 22.4841 26.3197 22.581 26.1883 22.5974L25.0826 22.7357V24.0663L26.1883 24.2045C26.3197 24.2209 26.4266 24.3178 26.4558 24.4469C26.5752 24.974 26.783 25.4677 27.063 25.9116C27.1336 26.0236 27.1265 26.1677 27.0452 26.2722L26.3608 27.1522L27.3016 28.0931L28.1817 27.4086C28.2861 27.3274 28.4303 27.3203 28.5422 27.3908C28.9861 27.6708 29.4798 27.8786 30.007 27.998C30.136 28.0272 30.2329 28.1342 30.2493 28.2654L30.3875 29.3713H31.7181L31.8564 28.2654C31.8728 28.1342 31.9697 28.0272 32.0987 27.998C32.6259 27.8786 33.1196 27.6708 33.5635 27.3908C33.6754 27.3203 33.8195 27.3274 33.924 27.4086L34.8041 28.0931L35.7449 27.1522L35.0604 26.2722C34.9792 26.1677 34.9721 26.0236 35.0427 25.9116C35.3227 25.4677 35.5304 24.974 35.6498 24.4469C35.6791 24.3178 35.786 24.2209 35.9173 24.2045L37.0231 24.0663V22.7357L35.9173 22.5974C35.786 22.581 35.6791 22.4841 35.6498 22.3551C35.5304 21.8279 35.3227 21.3342 35.0427 20.8903C34.9721 20.7784 34.9792 20.6343 35.0604 20.5298L35.7449 19.6498L34.8041 18.7089L33.924 19.3934C33.8195 19.4746 33.6754 19.4817 33.5635 19.4111C33.1196 19.1312 32.6259 18.9234 32.0987 18.804C31.9697 18.7747 31.8728 18.6678 31.8564 18.5365L31.7181 17.4307H30.3875L30.2493 18.5365C30.2329 18.6678 30.136 18.7747 30.007 18.804ZM28.8533 23.401C28.8533 22.1862 29.838 21.2014 31.0528 21.2014C32.2676 21.2014 33.2524 22.1862 33.2524 23.401C33.2524 24.6158 32.2676 25.6006 31.0528 25.6006C29.838 25.6006 28.8533 24.6158 28.8533 23.401ZM31.0528 20.5729C29.491 20.5729 28.2248 21.8391 28.2248 23.401C28.2248 24.9629 29.491 26.229 31.0528 26.229C32.6147 26.229 33.8809 24.9629 33.8809 23.401C33.8809 21.8391 32.6147 20.5729 31.0528 20.5729Z" fill="#232323"/>
</symbol>
<symbol  id="icon-shield-bank" viewBox="0 0 32 36" fill="none">
<path d="M1 15.429C1 10.237 1 7.64098 1.61298 6.76764C2.22595 5.89429 4.66686 5.05876 9.54869 3.38769L10.4788 3.06933C13.0236 2.19824 14.2959 1.7627 15.6134 1.7627C16.9309 1.7627 18.2032 2.19824 20.7481 3.06933L21.6781 3.38769C26.56 5.05876 29.0009 5.89429 29.6139 6.76764C30.2268 7.64098 30.2268 10.237 30.2268 15.429C30.2268 16.2131 30.2268 17.0636 30.2268 17.9858C30.2268 27.1403 23.3439 31.583 19.0255 33.4694C17.8541 33.981 17.2685 34.2369 15.6134 34.2369C13.9584 34.2369 13.3727 33.981 12.2013 33.4694C7.88285 31.583 1 27.1403 1 17.9858C1 17.0636 1 16.2131 1 15.429Z" stroke="#42A5F5" stroke-width="2"/>
<path d="M10.9994 19.1196H11.5607M19.6984 19.1196H19.0811M19.0811 19.1196V14.9233H16.8362M19.0811 19.1196H16.8362M11.5607 19.1196V14.9233H14.0862M11.5607 19.1196H14.0862M14.0862 14.9233V19.1196M14.0862 14.9233H16.8362M14.0862 19.1196H16.8362M16.8362 14.9233V19.1196M9.93311 20.5H20.9331M10.1576 14.9233H20.428V14.2607L15.4331 11.5L10.1576 14.2607V14.9233Z" stroke="#232323" stroke-linecap="square"/>
</symbol>
<symbol id="icon-shield-checkmark" viewBox="0 0 33 36" fill="none">
<path d="M2 15.5681C2 10.3761 2 7.78014 2.61298 6.9068C3.22595 6.03345 5.66686 5.19792 10.5487 3.52685L11.4788 3.20849C14.0236 2.3374 15.2959 1.90186 16.6134 1.90186C17.9309 1.90186 19.2032 2.3374 21.7481 3.20849L22.6781 3.52685C27.56 5.19792 30.0009 6.03345 30.6139 6.9068C31.2268 7.78014 31.2268 10.3761 31.2268 15.5681C31.2268 16.3522 31.2268 17.2027 31.2268 18.125C31.2268 27.2795 24.3439 31.7221 20.0255 33.6086C18.8541 34.1202 18.2685 34.3761 16.6134 34.3761C14.9584 34.3761 14.3727 34.1202 13.2013 33.6086C8.88285 31.7221 2 27.2795 2 18.125C2 17.2027 2 16.3522 2 15.5681Z" stroke="#42A5F5" stroke-width="3"/>
<path d="M12.3193 18.1439L16.8365 21.6373L22.4349 13.9177" stroke="#232323" stroke-width="2" stroke-linecap="round"/>
</symbol>
<symbol id="icon-insurance" viewBox="0 0 32 33" fill="none">
  <path d="M31.4347 11.1051C30.3312 5.07651 23.751 0.958785 18.1261 0.151387C17.682 0.0841039 17.2245 0.043734 16.74 0.0302774C16.1076 -0.0100925 15.4751 -0.0100925 14.8696 0.0302774C14.3582 0.043734 13.9007 0.0841039 13.4566 0.151387C7.83176 0.958785 1.25147 5.07651 0.148023 11.1051L0 11.9125L0.820854 11.8721C4.11773 11.7106 7.33386 12.4777 9.6484 13.9579L9.91754 14.1328L10.227 14.0252C11.8957 13.4062 13.8872 13.2447 14.9234 13.1909L15.1522 13.1774C15.2329 13.1774 16.0807 13.1774 16.2018 13.1639L16.6728 13.1774C17.9377 13.2312 19.7812 13.4196 21.3557 14.0117L21.6652 14.1194L21.9343 13.9444C24.2488 12.4642 27.4784 11.7106 30.7619 11.8587L31.5827 11.899L31.4347 11.1051ZM29.8872 10.5399C26.7518 10.5399 23.8182 11.28 21.5037 12.6795C19.8351 12.1143 18.005 11.9394 16.7266 11.8721L16.2556 11.8587C16.0941 11.8587 15.1656 11.8587 15.0983 11.8587L14.8561 11.8721C13.5777 11.9259 11.7342 12.1143 10.079 12.6795C7.76448 11.2935 4.83093 10.5399 1.69554 10.5399C1.66862 10.5399 1.64171 10.5399 1.62825 10.5399C3.01428 5.56095 8.7199 2.15642 13.6316 1.45668C14.0218 1.40285 14.439 1.36248 14.9234 1.34903C15.4886 1.30866 16.0672 1.30866 16.6593 1.34903C17.1168 1.36248 17.534 1.40285 17.9242 1.45668C22.8494 2.16988 28.5415 5.56095 29.9545 10.5534C29.941 10.5399 29.9141 10.5399 29.8872 10.5399Z" fill="#42A5F5"/>
  <path d="M15.9996 22.8932C14.2368 22.2742 13.1468 21.8167 12.9853 20.5517C12.8642 19.6367 13.5505 18.6678 14.5194 18.3718C15.5287 18.0757 16.8878 18.1968 18.1662 18.7082C18.5026 18.8427 18.8794 18.6813 19.0139 18.3448C19.1485 18.0084 18.987 17.6316 18.6506 17.4971C17.9105 17.201 17.1434 17.0126 16.4033 16.9454V15.6535C16.4033 15.2902 16.1073 14.9941 15.744 14.9941C15.3806 14.9941 15.0846 15.2902 15.0846 15.6535V16.9454C14.7616 16.9857 14.4387 17.0395 14.1426 17.1203C12.5547 17.5913 11.4782 19.1792 11.6801 20.7267C11.9626 22.8663 13.8735 23.5391 15.569 24.1312C16.4975 24.4542 17.3588 24.7637 17.8836 25.2615C18.3545 25.7056 18.5968 26.2708 18.5968 26.8629C18.5968 27.4415 18.3276 28.0067 17.8566 28.4239C17.3318 28.8948 16.6186 29.164 15.7036 29.2313C15.0173 29.2716 14.2234 29.1909 13.2545 29.0159C13.0257 28.9756 12.77 28.9218 12.5547 28.8545C12.2049 28.7468 11.8415 28.9487 11.7339 29.2985C11.6262 29.6484 11.8281 30.0117 12.178 30.1194C12.4605 30.2001 12.7566 30.2674 13.0123 30.3078C13.7927 30.4558 14.4521 30.5231 15.0711 30.55V31.8149C15.0711 32.1783 15.3672 32.4743 15.7305 32.4743C16.0938 32.4743 16.3899 32.1783 16.3899 31.8149V30.4693C17.3318 30.3078 18.1123 29.9714 18.7313 29.4062C19.4849 28.7334 19.9021 27.8452 19.9155 26.8763C19.929 25.9075 19.5253 25.0059 18.7986 24.3196C18.072 23.6198 17.0223 23.2565 15.9996 22.8932Z" fill="#232323"/>
</symbol>
<symbol id="icon-logo-limit-color" viewBox="0 0 30 32">
<path fill="#1966b2" style="fill: var(--color4, #1966b2)" d="M1.404 27.514h0.432l-0.685 2.015h-0.466l-0.684-2.015h0.432l0.379 1.199c0.021 0.071 0.043 0.154 0.065 0.248s0.037 0.159 0.043 0.196c0.010-0.084 0.045-0.232 0.103-0.444l0.382-1.199zM3.325 29.529l-0.146-0.48h-0.735l-0.146 0.48h-0.461l0.712-2.024h0.523l0.714 2.024h-0.461zM3.077 28.691c-0.135-0.435-0.212-0.68-0.229-0.737s-0.029-0.102-0.036-0.135c-0.030 0.118-0.117 0.409-0.261 0.873h0.526zM5.83 29.529h-0.543l-0.877-1.525h-0.012c0.017 0.269 0.026 0.461 0.026 0.576v0.948h-0.382v-2.015h0.539l0.876 1.51h0.010c-0.014-0.262-0.021-0.447-0.021-0.556v-0.954h0.385v2.015zM7.98 27.514v1.304c0 0.149-0.034 0.279-0.101 0.392s-0.162 0.198-0.288 0.258c-0.126 0.060-0.275 0.090-0.447 0.090-0.259 0-0.461-0.066-0.604-0.199s-0.215-0.315-0.215-0.546v-1.299h0.426v1.234c0 0.155 0.031 0.269 0.094 0.342s0.166 0.109 0.31 0.109c0.14 0 0.241-0.036 0.303-0.109 0.063-0.074 0.095-0.189 0.095-0.345v-1.231h0.426zM9.708 29.529l-0.146-0.48h-0.735l-0.146 0.48h-0.461l0.712-2.024h0.523l0.714 2.024h-0.461zM9.46 28.691c-0.135-0.435-0.211-0.68-0.229-0.737s-0.029-0.102-0.036-0.135c-0.030 0.118-0.117 0.409-0.261 0.873h0.525zM11.202 29.529h-0.428v-1.66h-0.548v-0.355h1.523v0.355h-0.548v1.66zM13.701 27.514v1.304c0 0.149-0.034 0.279-0.101 0.392s-0.162 0.198-0.288 0.258c-0.126 0.060-0.275 0.090-0.447 0.090-0.259 0-0.461-0.066-0.604-0.199s-0.215-0.315-0.215-0.546v-1.299h0.426v1.234c0 0.155 0.031 0.269 0.094 0.342s0.166 0.109 0.31 0.109c0.14 0 0.241-0.036 0.303-0.109 0.063-0.074 0.095-0.189 0.095-0.345v-1.231h0.426zM15.349 29.529h-0.421v-2.015h1.156v0.35h-0.735v0.52h0.684v0.349h-0.684v0.797zM16.479 29.529v-2.015h0.428v2.015h-0.428zM19.203 29.529h-0.543l-0.877-1.525h-0.012c0.017 0.269 0.026 0.461 0.026 0.576v0.948h-0.382v-2.015h0.539l0.876 1.51h0.010c-0.014-0.262-0.021-0.447-0.021-0.556v-0.954h0.385v2.015zM20.946 29.529l-0.146-0.48h-0.735l-0.146 0.48h-0.461l0.712-2.024h0.523l0.714 2.024h-0.461zM20.698 28.691c-0.135-0.435-0.211-0.68-0.229-0.737s-0.029-0.102-0.036-0.135c-0.030 0.118-0.117 0.409-0.261 0.873h0.525zM23.451 29.529h-0.543l-0.877-1.525h-0.012c0.017 0.269 0.026 0.461 0.026 0.576v0.948h-0.382v-2.015h0.539l0.876 1.51h0.010c-0.014-0.262-0.021-0.447-0.021-0.556v-0.954h0.385v2.015zM24.816 27.84c-0.161 0-0.286 0.061-0.374 0.182-0.088 0.12-0.133 0.288-0.133 0.504 0 0.449 0.169 0.674 0.506 0.674 0.141 0 0.313-0.035 0.514-0.106v0.359c-0.165 0.069-0.35 0.103-0.554 0.103-0.293 0-0.518-0.089-0.673-0.266s-0.233-0.434-0.233-0.767c0-0.209 0.038-0.393 0.115-0.55s0.186-0.279 0.328-0.363c0.143-0.085 0.311-0.127 0.503-0.127 0.196 0 0.393 0.048 0.59 0.142l-0.138 0.348c-0.076-0.036-0.151-0.067-0.228-0.094s-0.151-0.040-0.225-0.040zM25.761 29.529v-2.015h0.428v2.015h-0.428zM27.93 29.529l-0.146-0.48h-0.735l-0.146 0.48h-0.461l0.712-2.024h0.523l0.714 2.024h-0.461zM27.682 28.691c-0.135-0.435-0.212-0.68-0.229-0.737s-0.029-0.102-0.036-0.135c-0.030 0.118-0.117 0.409-0.261 0.873h0.526zM28.646 29.529v-2.015h0.428v1.663h0.818v0.353h-1.245z"></path>
<path fill="#f37223" style="fill: var(--color5, #f37223)" d="M3.978 31.088c0-0.027-0.004-0.051-0.012-0.072s-0.022-0.042-0.043-0.060c-0.021-0.019-0.051-0.037-0.090-0.055s-0.089-0.037-0.15-0.056c-0.068-0.022-0.133-0.047-0.194-0.074s-0.114-0.060-0.161-0.096c-0.046-0.037-0.083-0.080-0.11-0.129s-0.039-0.106-0.039-0.171c0-0.063 0.014-0.12 0.041-0.171s0.066-0.096 0.116-0.132c0.050-0.037 0.108-0.066 0.176-0.086s0.143-0.030 0.224-0.030c0.111 0 0.208 0.020 0.291 0.060s0.147 0.095 0.192 0.164c0.046 0.070 0.069 0.149 0.069 0.239h-0.308c0-0.044-0.009-0.083-0.028-0.116s-0.046-0.060-0.083-0.080c-0.037-0.019-0.083-0.029-0.139-0.029-0.054 0-0.099 0.008-0.134 0.025s-0.063 0.038-0.081 0.065c-0.018 0.027-0.027 0.057-0.027 0.091 0 0.025 0.006 0.048 0.019 0.069s0.032 0.040 0.058 0.058c0.026 0.018 0.057 0.035 0.094 0.051s0.080 0.031 0.129 0.046c0.082 0.025 0.154 0.053 0.216 0.084s0.115 0.066 0.157 0.104 0.074 0.082 0.095 0.131c0.021 0.049 0.032 0.104 0.032 0.167 0 0.065-0.013 0.124-0.038 0.176s-0.062 0.096-0.111 0.131c-0.048 0.036-0.106 0.063-0.173 0.082s-0.142 0.028-0.224 0.028c-0.074 0-0.148-0.010-0.22-0.029s-0.138-0.050-0.198-0.090c-0.059-0.040-0.106-0.091-0.141-0.153s-0.053-0.136-0.053-0.22h0.311c0 0.047 0.007 0.087 0.022 0.119s0.035 0.059 0.061 0.079c0.027 0.020 0.059 0.035 0.095 0.044s0.078 0.013 0.122 0.013c0.054 0 0.098-0.008 0.132-0.023s0.061-0.036 0.078-0.063c0.017-0.027 0.026-0.057 0.026-0.091zM5.51 31.24v0.242h-0.802v-0.242h0.802zM4.81 29.977v1.505h-0.31v-1.505h0.31zM5.406 30.59v0.236h-0.697v-0.236h0.697zM5.509 29.977v0.243h-0.801v-0.243h0.801zM5.691 29.977h0.562c0.115 0 0.214 0.017 0.297 0.052s0.148 0.086 0.192 0.153c0.045 0.067 0.067 0.151 0.067 0.249 0 0.080-0.014 0.15-0.041 0.208s-0.065 0.105-0.115 0.144c-0.049 0.038-0.107 0.068-0.173 0.091l-0.098 0.052h-0.488l-0.002-0.242h0.363c0.054 0 0.1-0.010 0.136-0.029s0.063-0.046 0.081-0.081c0.019-0.034 0.028-0.074 0.028-0.12 0-0.048-0.009-0.090-0.027-0.125s-0.045-0.062-0.082-0.081c-0.037-0.019-0.082-0.028-0.138-0.028h-0.251v1.263h-0.31v-1.505zM6.533 31.482l-0.343-0.671 0.328-0.002 0.348 0.659v0.015h-0.332zM7.571 31.168l0.355-1.191h0.345l-0.524 1.505h-0.228l0.052-0.314zM7.244 29.977l0.354 1.191 0.054 0.314h-0.23l-0.521-1.505h0.343zM8.742 29.977v1.505h-0.309v-1.505h0.309zM9.906 30.983h0.309c-0.006 0.101-0.034 0.191-0.084 0.27s-0.118 0.14-0.206 0.184c-0.088 0.044-0.193 0.066-0.317 0.066-0.097 0-0.183-0.016-0.26-0.050s-0.142-0.082-0.197-0.145c-0.054-0.063-0.095-0.139-0.123-0.228s-0.042-0.188-0.042-0.299v-0.104c0-0.11 0.014-0.21 0.043-0.299s0.072-0.166 0.126-0.229c0.055-0.063 0.121-0.111 0.198-0.145s0.162-0.051 0.257-0.051c0.126 0 0.231 0.023 0.318 0.068s0.154 0.108 0.202 0.188c0.048 0.080 0.077 0.171 0.087 0.273h-0.31c-0.003-0.061-0.015-0.112-0.036-0.154s-0.052-0.075-0.094-0.096c-0.041-0.022-0.097-0.033-0.165-0.033-0.052 0-0.097 0.010-0.136 0.029s-0.071 0.049-0.097 0.088c-0.026 0.039-0.046 0.089-0.059 0.149-0.012 0.059-0.019 0.129-0.019 0.209v0.107c0 0.078 0.006 0.146 0.018 0.206s0.030 0.108 0.054 0.149c0.025 0.040 0.057 0.070 0.095 0.091s0.087 0.030 0.142 0.030c0.065 0 0.118-0.010 0.16-0.031s0.074-0.052 0.096-0.092c0.023-0.040 0.036-0.091 0.040-0.152zM11.429 31.24v0.242h-0.802v-0.242h0.802zM10.729 29.977v1.505h-0.31v-1.505h0.31zM11.325 30.59v0.236h-0.697v-0.236h0.697zM11.428 29.977v0.243h-0.801v-0.243h0.801zM12.394 31.088c0-0.027-0.004-0.051-0.012-0.072s-0.022-0.042-0.043-0.060c-0.021-0.019-0.051-0.037-0.090-0.055s-0.089-0.037-0.15-0.056c-0.068-0.022-0.133-0.047-0.194-0.074s-0.114-0.060-0.161-0.096c-0.046-0.037-0.083-0.080-0.11-0.129s-0.039-0.106-0.039-0.171c0-0.063 0.014-0.12 0.041-0.171s0.066-0.096 0.116-0.132c0.050-0.037 0.108-0.066 0.176-0.086s0.143-0.030 0.224-0.030c0.111 0 0.208 0.020 0.291 0.060s0.147 0.095 0.192 0.164c0.046 0.070 0.069 0.149 0.069 0.239h-0.308c0-0.044-0.009-0.083-0.028-0.116s-0.046-0.060-0.083-0.080c-0.037-0.019-0.083-0.029-0.139-0.029-0.054 0-0.099 0.008-0.134 0.025s-0.063 0.038-0.081 0.065c-0.018 0.027-0.027 0.057-0.027 0.091 0 0.025 0.006 0.048 0.019 0.069s0.032 0.040 0.058 0.058c0.026 0.018 0.057 0.035 0.094 0.051s0.080 0.031 0.129 0.046c0.082 0.025 0.154 0.053 0.216 0.084s0.115 0.066 0.157 0.104 0.074 0.082 0.095 0.131c0.021 0.049 0.032 0.104 0.032 0.167 0 0.065-0.013 0.124-0.038 0.176s-0.062 0.096-0.111 0.131c-0.048 0.036-0.106 0.063-0.173 0.082s-0.142 0.028-0.224 0.028c-0.074 0-0.148-0.010-0.22-0.029s-0.138-0.050-0.198-0.090c-0.059-0.040-0.106-0.091-0.141-0.153s-0.053-0.136-0.053-0.22h0.311c0 0.047 0.007 0.087 0.022 0.119s0.035 0.059 0.061 0.079c0.027 0.020 0.059 0.035 0.095 0.044s0.078 0.013 0.122 0.013c0.054 0 0.098-0.008 0.132-0.023s0.061-0.036 0.078-0.063c0.017-0.027 0.026-0.057 0.026-0.091zM14.316 30.983h0.309c-0.006 0.101-0.034 0.191-0.084 0.27s-0.118 0.14-0.206 0.184c-0.088 0.044-0.193 0.066-0.317 0.066-0.097 0-0.183-0.016-0.26-0.050s-0.142-0.082-0.197-0.145c-0.054-0.063-0.095-0.139-0.123-0.228s-0.042-0.188-0.042-0.299v-0.104c0-0.11 0.015-0.21 0.043-0.299s0.072-0.166 0.126-0.229c0.055-0.063 0.121-0.111 0.198-0.145s0.162-0.051 0.257-0.051c0.126 0 0.231 0.023 0.318 0.068s0.154 0.108 0.202 0.188c0.048 0.080 0.077 0.171 0.087 0.273h-0.31c-0.003-0.061-0.016-0.112-0.036-0.154s-0.052-0.075-0.094-0.096c-0.041-0.022-0.097-0.033-0.165-0.033-0.052 0-0.097 0.010-0.136 0.029s-0.071 0.049-0.097 0.088-0.046 0.089-0.059 0.149c-0.012 0.059-0.019 0.129-0.019 0.209v0.107c0 0.078 0.006 0.146 0.018 0.206s0.030 0.108 0.054 0.149c0.025 0.040 0.057 0.070 0.095 0.091s0.087 0.030 0.142 0.030c0.065 0 0.118-0.010 0.16-0.031s0.074-0.052 0.096-0.092c0.023-0.040 0.036-0.091 0.040-0.152zM16.067 30.694v0.072c0 0.114-0.015 0.217-0.047 0.308s-0.075 0.168-0.131 0.233c-0.057 0.063-0.124 0.112-0.203 0.146s-0.164 0.051-0.26 0.051c-0.094 0-0.181-0.017-0.26-0.051s-0.146-0.083-0.203-0.146c-0.057-0.064-0.102-0.142-0.133-0.233s-0.047-0.194-0.047-0.308v-0.072c0-0.115 0.016-0.218 0.047-0.308s0.075-0.169 0.131-0.233c0.057-0.064 0.125-0.113 0.203-0.147s0.165-0.051 0.26-0.051c0.095 0 0.182 0.017 0.26 0.051s0.146 0.083 0.203 0.147c0.057 0.064 0.101 0.142 0.132 0.233s0.048 0.193 0.048 0.308zM15.753 30.766v-0.073c0-0.080-0.007-0.15-0.022-0.211s-0.036-0.112-0.064-0.153c-0.028-0.041-0.063-0.072-0.103-0.093s-0.087-0.032-0.14-0.032-0.099 0.011-0.14 0.032c-0.040 0.021-0.074 0.052-0.102 0.093s-0.049 0.092-0.063 0.153c-0.014 0.061-0.022 0.131-0.022 0.211v0.073c0 0.079 0.007 0.149 0.022 0.211s0.036 0.112 0.064 0.154c0.028 0.041 0.063 0.073 0.103 0.094s0.087 0.032 0.14 0.032 0.099-0.011 0.14-0.032c0.041-0.021 0.075-0.053 0.102-0.094s0.049-0.093 0.063-0.154c0.014-0.061 0.022-0.132 0.022-0.211zM16.432 29.977h0.263l0.387 1.105 0.387-1.105h0.263l-0.544 1.505h-0.211l-0.544-1.505zM16.29 29.977h0.262l0.048 1.077v0.428h-0.309v-1.505zM17.611 29.977h0.263v1.505h-0.31v-0.428l0.048-1.077zM18.287 29.977h0.263l0.387 1.105 0.387-1.105h0.263l-0.544 1.505h-0.211l-0.544-1.505zM18.146 29.977h0.262l0.048 1.077v0.428h-0.309v-1.505zM19.467 29.977h0.263v1.505h-0.31v-0.428l0.048-1.077zM20.331 29.977v1.505h-0.309v-1.505h0.309zM21.406 31.088c0-0.027-0.004-0.051-0.012-0.072s-0.022-0.042-0.043-0.060c-0.021-0.019-0.051-0.037-0.090-0.055s-0.089-0.037-0.15-0.056c-0.068-0.022-0.133-0.047-0.194-0.074s-0.114-0.060-0.161-0.096c-0.046-0.037-0.083-0.080-0.11-0.129s-0.039-0.106-0.039-0.171c0-0.063 0.014-0.12 0.041-0.171s0.066-0.096 0.116-0.132c0.050-0.037 0.108-0.066 0.176-0.086s0.143-0.030 0.224-0.030c0.111 0 0.208 0.020 0.291 0.060s0.147 0.095 0.192 0.164c0.046 0.070 0.069 0.149 0.069 0.239h-0.308c0-0.044-0.009-0.083-0.028-0.116s-0.046-0.060-0.083-0.080c-0.037-0.019-0.083-0.029-0.139-0.029-0.054 0-0.099 0.008-0.134 0.025s-0.063 0.038-0.081 0.065c-0.018 0.027-0.027 0.057-0.027 0.091 0 0.025 0.006 0.048 0.019 0.069s0.032 0.040 0.058 0.058c0.025 0.018 0.057 0.035 0.094 0.051s0.080 0.031 0.129 0.046c0.082 0.025 0.154 0.053 0.216 0.084s0.115 0.066 0.157 0.104 0.074 0.082 0.095 0.131c0.021 0.049 0.032 0.104 0.032 0.167 0 0.065-0.013 0.124-0.038 0.176s-0.062 0.096-0.111 0.131c-0.048 0.036-0.106 0.063-0.173 0.082s-0.142 0.028-0.224 0.028c-0.075 0-0.148-0.010-0.22-0.029s-0.138-0.050-0.198-0.090c-0.059-0.040-0.106-0.091-0.141-0.153s-0.053-0.136-0.053-0.22h0.311c0 0.047 0.007 0.087 0.022 0.119s0.035 0.059 0.061 0.079c0.027 0.020 0.059 0.035 0.095 0.044s0.078 0.013 0.122 0.013c0.054 0 0.098-0.008 0.132-0.023s0.061-0.036 0.078-0.063c0.017-0.027 0.026-0.057 0.026-0.091zM22.712 31.088c0-0.027-0.004-0.051-0.012-0.072s-0.022-0.042-0.043-0.060c-0.021-0.019-0.051-0.037-0.090-0.055s-0.089-0.037-0.15-0.056c-0.068-0.022-0.133-0.047-0.194-0.074s-0.114-0.060-0.161-0.096c-0.046-0.037-0.083-0.080-0.11-0.129s-0.039-0.106-0.039-0.171c0-0.063 0.014-0.12 0.041-0.171s0.066-0.096 0.116-0.132c0.050-0.037 0.108-0.066 0.176-0.086s0.143-0.030 0.224-0.030c0.111 0 0.208 0.020 0.291 0.060s0.147 0.095 0.192 0.164c0.046 0.070 0.069 0.149 0.069 0.239h-0.308c0-0.044-0.009-0.083-0.028-0.116s-0.046-0.060-0.083-0.080c-0.037-0.019-0.083-0.029-0.139-0.029-0.054 0-0.099 0.008-0.134 0.025s-0.063 0.038-0.081 0.065c-0.018 0.027-0.027 0.057-0.027 0.091 0 0.025 0.006 0.048 0.019 0.069s0.032 0.040 0.058 0.058c0.026 0.018 0.057 0.035 0.094 0.051s0.080 0.031 0.129 0.046c0.082 0.025 0.154 0.053 0.216 0.084s0.115 0.066 0.157 0.104 0.074 0.082 0.095 0.131c0.021 0.049 0.032 0.104 0.032 0.167 0 0.065-0.013 0.124-0.038 0.176s-0.062 0.096-0.111 0.131c-0.048 0.036-0.106 0.063-0.173 0.082s-0.142 0.028-0.224 0.028c-0.075 0-0.148-0.010-0.22-0.029s-0.138-0.050-0.198-0.090c-0.059-0.040-0.106-0.091-0.141-0.153s-0.053-0.136-0.053-0.22h0.311c0 0.047 0.007 0.087 0.022 0.119s0.035 0.059 0.061 0.079c0.027 0.020 0.059 0.035 0.095 0.044s0.078 0.013 0.122 0.013c0.054 0 0.098-0.008 0.132-0.023s0.061-0.036 0.078-0.063c0.017-0.027 0.026-0.057 0.026-0.091zM23.563 29.977v1.505h-0.309v-1.505h0.309zM25.091 30.694v0.072c0 0.114-0.016 0.217-0.047 0.308s-0.075 0.168-0.131 0.233c-0.056 0.063-0.124 0.112-0.203 0.146s-0.165 0.051-0.26 0.051c-0.095 0-0.181-0.017-0.26-0.051s-0.145-0.083-0.203-0.146c-0.057-0.064-0.102-0.142-0.133-0.233s-0.046-0.194-0.046-0.308v-0.072c0-0.115 0.015-0.218 0.046-0.308s0.075-0.169 0.131-0.233c0.057-0.064 0.125-0.113 0.203-0.147s0.165-0.051 0.26-0.051c0.095 0 0.182 0.017 0.26 0.051s0.146 0.083 0.203 0.147c0.057 0.064 0.101 0.142 0.133 0.233s0.048 0.193 0.048 0.308zM24.777 30.766v-0.073c0-0.080-0.007-0.15-0.022-0.211s-0.036-0.112-0.064-0.153c-0.028-0.041-0.063-0.072-0.103-0.093s-0.087-0.032-0.14-0.032c-0.052 0-0.099 0.011-0.14 0.032s-0.074 0.052-0.102 0.093c-0.027 0.041-0.048 0.092-0.063 0.153s-0.022 0.131-0.022 0.211v0.073c0 0.079 0.007 0.149 0.022 0.211s0.036 0.112 0.064 0.154c0.028 0.041 0.063 0.073 0.103 0.094s0.087 0.032 0.14 0.032c0.052 0 0.099-0.011 0.14-0.032s0.075-0.053 0.102-0.094c0.028-0.042 0.049-0.093 0.063-0.154s0.022-0.132 0.022-0.211zM26.54 29.977v1.505h-0.31l-0.605-1.009v1.009h-0.31v-1.505h0.31l0.606 1.010v-1.010h0.309z"></path>
<path fill="#1966b2" style="fill: var(--color4, #1966b2)" d="M2.589 30.094h-2.495v0.541h2.495v-0.541z"></path>
<path fill="#1966b2" style="fill: var(--color4, #1966b2)" d="M2.589 31.012h-2.495v0.282h2.495v-0.282z"></path>
<path fill="#1966b2" style="fill: var(--color4, #1966b2)" d="M29.659 30.094h-2.495v0.541h2.495v-0.541z"></path>
<path fill="#1966b2" style="fill: var(--color4, #1966b2)" d="M29.659 31.012h-2.495v0.282h2.495v-0.282z"></path>
<path fill="#f37223" style="fill: var(--color5, #f37223)" d="M15.685 22.004c6.078 0 11.006-4.926 11.006-11.002s-4.928-11.002-11.006-11.002c-4.145 0-7.755 2.291-9.632 5.675l7.472 16.117c0.698 0.139 1.421 0.212 2.16 0.212z"></path>
<path fill="#1966b2" style="fill: var(--color4, #1966b2)" d="M26.69 11.243c-0.093 4.946-3.438 9.069-7.958 10.368l6.431-16.173c1.006 1.698 1.567 3.687 1.527 5.805z"></path>
<path fill="#1966b2" style="fill: var(--color4, #1966b2)" d="M6.031 5.766c-0.703 1.21-1.175 2.557-1.361 3.985l-6.388 9.331 6.401-6.485c0.132 0.956 0.392 1.871 0.761 2.729l-0.008 0.004-3.576 5.539 4.238-4.265c0.398 0.665 0.867 1.286 1.396 1.853l-2.158 3.596 2.806-2.956c0.655 0.597 1.382 1.119 2.168 1.553l-1.146 2.838 2.145-2.347c0.541 0.234 1.104 0.429 1.685 0.581l-6.96-15.957z"></path>
<path fill="#fff" style="fill: var(--color6, #fff)" d="M6.22 5.462l11.843-0.024-0.819 3.093h-3.608v1.713h2.994l-0.845 3.017h-1.126l1.382 3.886 3.992-11.709h5.15l0.086 0.151-6.472 15.974c-0.98 0.287-2.016 0.441-3.088 0.441-0.969 0-1.908-0.126-2.803-0.362l-6.874-15.844c0.061-0.113 0.123-0.225 0.188-0.335z"></path>
</symbol>
<symbol id="icon-verify" viewBox="0 0 36 36" fill="none">
  <path fill-rule="evenodd" clip-rule="evenodd" d="M23.6844 16.1225C23.9804 16.4277 23.973 16.915 23.6678 17.211L17.8478 22.8559C17.549 23.1457 17.0739 23.1455 16.7754 22.8553L13.8714 20.0329C13.5666 19.7366 13.5596 19.2493 13.8559 18.9444C14.1522 18.6395 14.6396 18.6326 14.9444 18.9289L17.3125 21.2304L22.596 16.1059C22.9011 15.8099 23.3884 15.8173 23.6844 16.1225Z" fill="#232323"/>
  <path d="M15.9868 2.70782C17.0903 1.76406 18.8977 1.76406 20.0172 2.70782L22.5443 4.88329C23.0241 5.29918 23.9198 5.6351 24.5595 5.6351H27.2785C28.9739 5.6351 30.3654 7.02676 30.3654 8.72234V11.4417C30.3654 12.0655 30.7012 12.9773 31.1171 13.4572L33.2923 15.9845C34.2359 17.0882 34.2359 18.8957 33.2923 20.0155L31.1171 22.5428C30.7012 23.0227 30.3654 23.9185 30.3654 24.5583V27.2777C30.3654 28.9732 28.9739 30.3649 27.2785 30.3649H24.5595C23.9358 30.3649 23.0241 30.7008 22.5443 31.1167L20.0172 33.2922C18.9137 34.2359 17.1063 34.2359 15.9868 33.2922L13.4597 31.1167C12.9799 30.7008 12.0842 30.3649 11.4445 30.3649H8.6775C6.98213 30.3649 5.59065 28.9732 5.59065 27.2777V24.5423C5.59065 23.9185 5.25478 23.0227 4.85493 22.5428L2.69574 19.9995C1.76809 18.8957 1.76809 17.1042 2.69574 16.0005L4.85493 13.4572C5.25478 12.9773 5.59065 12.0815 5.59065 11.4577V8.70634C5.59065 7.01076 6.98213 5.6191 8.6775 5.6191H11.4445C12.0682 5.6191 12.9799 5.28319 13.4597 4.86729L15.9868 2.70782Z" stroke="#42A5F5" stroke-width="3" stroke-linecap="round" stroke-linejoin="round"/>
</symbol>
</defs>
</svg>
