<svg xmlns="http://www.w3.org/2000/svg" width="190" height="127" viewBox="0 0 190 127" fill="none">
  <path d="M0.279036 123.017C-0.0446657 124.454 0.857635 125.881 2.29438 126.205C3.73113 126.528 5.15825 125.626 5.48195 124.189C5.80565 122.753 4.90335 121.325 3.46661 121.002C2.02986 120.678 0.602738 121.58 0.279036 123.017ZM189.219 16.6202C189.479 16.5271 189.614 16.2409 189.521 15.9809L188.004 11.7444C187.911 11.4844 187.625 11.3491 187.365 11.4422C187.105 11.5353 186.97 11.8216 187.063 12.0815L188.411 15.8473L184.645 17.1959C184.385 17.289 184.25 17.5752 184.343 17.8352C184.436 18.0952 184.723 18.2305 184.983 18.1374L189.219 16.6202ZM3.37337 123.687C3.48744 123.019 3.60378 122.353 3.72238 121.69L2.73803 121.514C2.61894 122.18 2.50213 122.848 2.38761 123.519L3.37337 123.687ZM4.46106 117.751C4.71625 116.45 4.98037 115.161 5.25329 113.884L4.27537 113.675C4.00127 114.958 3.73602 116.252 3.47976 117.559L4.46106 117.751ZM6.12546 109.972C6.42875 108.666 6.74144 107.374 7.06341 106.094L6.09363 105.85C5.77017 107.136 5.45605 108.434 5.1514 109.746L6.12546 109.972ZM8.06029 102.281C8.41484 100.975 8.77929 99.6834 9.15346 98.4053L8.19374 98.1244C7.81771 99.4088 7.45148 100.707 7.09522 102.019L8.06029 102.281ZM10.305 94.6125C10.7069 93.3352 11.1187 92.0724 11.5404 90.8239L10.5929 90.5039C10.1691 91.7591 9.75504 93.0285 9.35109 94.3123L10.305 94.6125ZM12.8591 87.0533C13.3101 85.8074 13.7712 84.5763 14.2421 83.3601L13.3096 82.999C12.836 84.2222 12.3723 85.4601 11.9188 86.713L12.8591 87.0533ZM15.7368 79.6287C16.2454 78.4007 16.7644 77.1886 17.2935 75.9921L16.3789 75.5876C15.8466 76.7914 15.3245 78.0108 14.8129 79.246L15.7368 79.6287ZM18.9555 72.3556C19.5257 71.148 20.1066 69.9572 20.6979 68.7831L19.8048 68.3333C19.2096 69.515 18.625 70.7134 18.0512 71.9287L18.9555 72.3556ZM22.5321 65.2564C23.166 64.076 23.8108 62.9133 24.4663 61.7684L23.5984 61.2715C22.9384 62.4244 22.2892 63.5949 21.6511 64.7833L22.5321 65.2564ZM26.4816 58.3585C27.1807 57.2125 27.8909 56.0853 28.6119 54.9768L27.7736 54.4316C27.0473 55.5482 26.332 56.6836 25.6279 57.8377L26.4816 58.3585ZM30.816 51.6943C31.5811 50.5904 32.3574 49.5062 33.1446 48.4416L32.3405 47.847C31.5473 48.9199 30.765 50.0124 29.9942 51.1246L30.816 51.6943ZM35.5431 45.3003C36.3742 44.2463 37.2164 43.2127 38.0695 42.1995L37.3046 41.5554C36.4445 42.5768 35.5955 43.6187 34.7578 44.6812L35.5431 45.3003ZM40.665 39.2164C41.5611 38.2196 42.4683 37.2441 43.3862 36.2897L42.6654 35.5966C41.7398 36.5591 40.825 37.5427 39.9213 38.5478L40.665 39.2164ZM46.1776 33.4834C47.1369 32.5512 48.107 31.6409 49.0874 30.7522L48.4158 30.0113C47.4268 30.9078 46.4483 31.826 45.4807 32.7663L46.1776 33.4834ZM52.0699 28.1423C53.0894 27.2812 54.1193 26.4424 55.1592 25.6258L54.5416 24.8393C53.4923 25.6633 52.4532 26.5095 51.4246 27.3783L52.0699 28.1423ZM58.3234 23.2312C59.3993 22.4469 60.4852 21.6853 61.5804 20.9462L61.021 20.1173C59.9158 20.8631 58.8201 21.6317 57.7343 22.4231L58.3234 23.2312ZM64.913 18.7843C66.0408 18.0816 67.1778 17.4017 68.3235 16.7446L67.826 15.8771C66.6697 16.5403 65.5223 17.2264 64.3841 17.9356L64.913 18.7843ZM71.8078 14.83C72.982 14.2125 74.1647 13.6179 75.3555 13.0461L74.9226 12.1446C73.7209 12.7217 72.5273 13.3217 71.3423 13.945L71.8078 14.83ZM78.9719 11.3899C80.1869 10.86 81.4095 10.353 82.6394 9.86876L82.273 8.93829C81.032 9.42694 79.7982 9.93853 78.5722 10.4732L78.9719 11.3899ZM86.3666 8.47821C87.6166 8.03726 88.8734 7.61906 90.1366 7.22341L89.8377 6.26912C88.5633 6.6683 87.2952 7.09025 86.0339 7.53516L86.3666 8.47821ZM93.9513 6.10217C95.229 5.7509 96.5126 5.42207 97.8017 5.11549L97.5703 4.14263C96.27 4.45187 94.9752 4.78358 93.6862 5.13794L93.9513 6.10217ZM101.685 4.26225C102.983 4.00022 104.287 3.76022 105.594 3.54204L105.43 2.55567C104.111 2.77569 102.797 3.01774 101.487 3.28201L101.685 4.26225ZM109.529 2.9531C110.841 2.77892 112.157 2.62624 113.476 2.49488L113.377 1.4998C112.047 1.63223 110.72 1.78617 109.397 1.9618L109.529 2.9531ZM117.443 2.16475C118.763 2.07622 120.086 2.00862 121.411 1.96178L121.376 0.962401C120.04 1.00962 118.706 1.07775 117.376 1.16699L117.443 2.16475ZM125.39 1.88332C126.713 1.87776 128.039 1.89256 129.366 1.92752L129.392 0.92787C128.055 0.892639 126.719 0.87773 125.386 0.883332L125.39 1.88332ZM133.341 2.09216C134.663 2.16673 135.986 2.26106 137.31 2.37497L137.396 1.37865C136.062 1.26391 134.729 1.16888 133.397 1.09374L133.341 2.09216ZM141.267 2.77339C142.583 2.92513 143.9 3.09601 145.216 3.28586L145.359 2.29611C144.033 2.10491 142.707 1.9328 141.381 1.77997L141.267 2.77339ZM149.142 3.90851C150.449 4.13438 151.754 4.3788 153.059 4.64158L153.257 3.66126C151.943 3.39668 150.628 3.15058 149.313 2.92313L149.142 3.90851ZM156.944 5.47893C158.236 5.77577 159.527 6.09053 160.816 6.42305L161.066 5.45475C159.768 5.12002 158.469 4.80315 157.168 4.50431L156.944 5.47893ZM164.651 7.46642C165.926 7.83109 167.198 8.21307 168.467 8.61219L168.767 7.65823C167.489 7.25653 166.209 6.87207 164.926 6.50501L164.651 7.46642ZM172.245 9.8534C173.499 10.283 174.75 10.7293 175.997 11.1922L176.345 10.2547C175.09 9.78892 173.831 9.33976 172.569 8.9074L172.245 9.8534ZM179.709 12.6231C180.94 13.1149 182.166 13.6229 183.388 14.1469L183.782 13.2278C182.553 12.7006 181.318 12.1895 180.08 11.6946L179.709 12.6231ZM187.027 15.7597C187.632 16.0364 188.235 16.317 188.837 16.6016L189.264 15.6975C188.659 15.4112 188.052 15.1289 187.444 14.8505L187.027 15.7597Z" fill="#fff"/>
</svg>