<svg width="17" height="157" viewBox="0 0 17 157" fill="none" xmlns="http://www.w3.org/2000/svg">
<rect x="0.0467529" y="79.8676" width="16.7045" height="3.02034" fill="#091827" fill-opacity="0.17"/>
<rect x="0.0467529" y="123.934" width="16.7045" height="3.02034" fill="#091827" fill-opacity="0.17"/>
<rect x="0.0467529" y="85.656" width="16.7045" height="1.01823" fill="#091827" fill-opacity="0.17"/>
<rect x="0.0467529" y="136.091" width="16.7045" height="1.01823" fill="#091827" fill-opacity="0.17"/>
<rect width="16.7045" height="1.01823" transform="matrix(-1 0 0 1 16.7512 104.795)" fill="#091827" fill-opacity="0.17"/>
<rect x="0.0467529" y="143.979" width="16.7045" height="1.01823" fill="#091827" fill-opacity="0.17"/>
<rect x="0.0467529" y="89.442" width="16.7045" height="2.11365" fill="#091827" fill-opacity="0.17"/>
<rect width="16.7045" height="2.11365" transform="matrix(-1 0 0 1 16.7512 108.581)" fill="#091827" fill-opacity="0.17"/>
<rect x="0.0467529" y="147.766" width="16.7045" height="2.11365" fill="#091827" fill-opacity="0.17"/>
<rect x="0.0467529" y="94.3236" width="16.7045" height="3.60063" fill="#091827" fill-opacity="0.17"/>
<rect x="0.0467529" y="129.722" width="16.7045" height="3.60063" fill="#091827" fill-opacity="0.17"/>
<rect width="16.7045" height="3.60063" transform="matrix(-1 0 0 1 16.7512 113.463)" fill="#091827" fill-opacity="0.17"/>
<rect x="0.0467529" y="152.647" width="16.7045" height="3.60063" fill="#091827" fill-opacity="0.17"/>
<rect x="0.0467529" y="100.692" width="16.7045" height="1.3348" fill="#091827" fill-opacity="0.17"/>
<rect width="16.7045" height="1.3348" transform="matrix(-1 0 0 1 16.7512 139.877)" fill="#091827" fill-opacity="0.17"/>
<rect width="16.7045" height="1.3348" transform="matrix(-1 0 0 1 16.7512 119.831)" fill="#091827" fill-opacity="0.17"/>
<rect width="16.7045" height="3.02034" transform="matrix(1 0 0 -1 0.0467529 76.6279)" fill="#091827" fill-opacity="0.17"/>
<rect width="16.7045" height="3.02034" transform="matrix(1 0 0 -1 0.0467529 32.5617)" fill="#091827" fill-opacity="0.17"/>
<rect width="16.7045" height="1.01823" transform="matrix(1 0 0 -1 0.0467529 70.8396)" fill="#091827" fill-opacity="0.17"/>
<rect width="16.7045" height="1.01823" transform="matrix(1 0 0 -1 0.0467529 20.4049)" fill="#091827" fill-opacity="0.17"/>
<rect x="16.7512" y="51.7007" width="16.7045" height="1.01823" transform="rotate(-180 16.7512 51.7007)" fill="#091827" fill-opacity="0.17"/>
<rect width="16.7045" height="1.01823" transform="matrix(1 0 0 -1 0.0467529 12.5161)" fill="#091827" fill-opacity="0.17"/>
<rect width="16.7045" height="2.11365" transform="matrix(1 0 0 -1 0.0467529 67.0535)" fill="#091827" fill-opacity="0.17"/>
<rect x="16.7512" y="47.9145" width="16.7045" height="2.11365" transform="rotate(-180 16.7512 47.9145)" fill="#091827" fill-opacity="0.17"/>
<rect width="16.7045" height="2.11365" transform="matrix(1 0 0 -1 0.0467529 8.72992)" fill="#091827" fill-opacity="0.17"/>
<rect width="16.7045" height="3.60063" transform="matrix(1 0 0 -1 0.0467529 62.1719)" fill="#091827" fill-opacity="0.17"/>
<rect width="16.7045" height="3.60063" transform="matrix(1 0 0 -1 0.0467529 26.7734)" fill="#091827" fill-opacity="0.17"/>
<rect x="16.7512" y="43.0329" width="16.7045" height="3.60063" transform="rotate(-180 16.7512 43.0329)" fill="#091827" fill-opacity="0.17"/>
<rect width="16.7045" height="3.60063" transform="matrix(1 0 0 -1 0.0467529 3.84843)" fill="#091827" fill-opacity="0.17"/>
<rect width="16.7045" height="1.3348" transform="matrix(1 0 0 -1 0.0467529 55.8034)" fill="#091827" fill-opacity="0.17"/>
<rect x="16.7512" y="16.6188" width="16.7045" height="1.3348" transform="rotate(-180 16.7512 16.6188)" fill="#091827" fill-opacity="0.17"/>
<rect x="16.7512" y="36.6644" width="16.7045" height="1.3348" transform="rotate(-180 16.7512 36.6644)" fill="#091827" fill-opacity="0.17"/>
</svg>
