<svg width="11" height="11" viewBox="0 0 11 11" fill="none" xmlns="http://www.w3.org/2000/svg">
<path d="M8.29205 0.711943C9.05215 1.15079 9.68335 1.78199 10.1222 2.5421C10.561 3.30221 10.7921 4.16444 10.7921 5.04213C10.7921 5.91983 10.561 6.78206 10.1222 7.54216C9.68331 8.30226 9.0521 8.93346 8.29199 9.37229C7.53188 9.81113 6.66965 10.0422 5.79195 10.0421C4.91425 10.0421 4.05203 9.81108 3.29193 9.37221C2.53183 8.93335 1.90065 8.30214 1.46181 7.54202C1.02298 6.78191 0.79197 5.91967 0.791992 5.04198L0.794492 4.87997C0.822494 4.01646 1.07377 3.17494 1.52382 2.43745C1.97387 1.69996 2.60733 1.09167 3.36246 0.671884C4.11758 0.252096 4.9686 0.0351367 5.83253 0.0421573C6.69647 0.0491779 7.54384 0.279939 8.29205 0.711943ZM7.04204 5.54198C6.84312 5.54198 6.65236 5.621 6.5117 5.76165C6.37105 5.9023 6.29203 6.09307 6.29203 6.29198C6.29203 6.4909 6.37105 6.68167 6.5117 6.82232C6.65236 6.96297 6.84312 7.04199 7.04204 7.04199C7.24095 7.04199 7.43172 6.96297 7.57237 6.82232C7.71303 6.68167 7.79204 6.4909 7.79204 6.29198C7.79204 6.09307 7.71303 5.9023 7.57237 5.76165C7.43172 5.621 7.24095 5.54198 7.04204 5.54198ZM7.64554 3.18846C7.55178 3.09473 7.42462 3.04207 7.29204 3.04207C7.15946 3.04207 7.0323 3.09473 6.93854 3.18846L3.93852 6.18848C3.84744 6.28279 3.79704 6.40909 3.79818 6.54019C3.79932 6.67129 3.8519 6.79669 3.94461 6.8894C4.03731 6.9821 4.16272 7.03469 4.29382 7.03583C4.42492 7.03697 4.55122 6.98657 4.64552 6.89549L7.64554 3.89547C7.73928 3.8017 7.79194 3.67455 7.79194 3.54196C7.79194 3.40938 7.73928 3.28223 7.64554 3.18846ZM4.54202 3.04196C4.34311 3.04196 4.15234 3.12098 4.01169 3.26163C3.87103 3.40229 3.79201 3.59305 3.79201 3.79197C3.79201 3.99088 3.87103 4.18165 4.01169 4.3223C4.15234 4.46295 4.34311 4.54197 4.54202 4.54197C4.74093 4.54197 4.9317 4.46295 5.07235 4.3223C5.21301 4.18165 5.29203 3.99088 5.29203 3.79197C5.29203 3.59305 5.21301 3.40229 5.07235 3.26163C4.9317 3.12098 4.74093 3.04196 4.54202 3.04196Z" fill="#F44336"/>
</svg>
