<svg width="923" height="250" viewBox="0 0 923 250" fill="none" xmlns="http://www.w3.org/2000/svg">
<path fill-rule="evenodd" clip-rule="evenodd" d="M889.017 1.78632C889.017 8.85838 883.774 14.7057 876.962 15.6523V20.0185L873.962 20.0185V15.7471C866.723 15.2077 861.017 9.16333 861.017 1.78632C861.017 1.21627 861.051 0.654183 861.118 0.101978H857.953L857.953 0H0.337891V250H857.953L857.953 249.898H861.019C861.133 242.264 867.357 236.111 875.017 236.111C882.678 236.111 888.902 242.264 889.016 249.898H923V223.291L911.987 218.056C908.154 216.234 908.154 211.962 911.987 210.14L923 204.905V193.281L911.987 188.046C908.154 186.224 908.154 181.952 911.987 180.13L923 174.895V163.088L911.987 157.853C908.154 156.031 908.154 151.76 911.987 149.938L923 144.703V133.151L911.987 127.916C908.154 126.094 908.154 121.822 911.987 120L923 114.765V103.213L911.987 97.9784C908.154 96.1562 908.154 91.8847 911.987 90.0626L923 84.8277V73.2757L911.987 68.0408C908.154 66.2187 908.154 61.9472 911.987 60.125L923 54.8902V43.3382L911.987 38.1034C908.154 36.2812 908.154 32.0097 911.987 30.1876L923 24.9527V0.101978H888.917C888.983 0.654183 889.017 1.21627 889.017 1.78632ZM873.962 230.538V235.55L876.962 235.55V230.538H873.962ZM873.962 210.488V220.513H876.962V210.488H873.962ZM873.962 190.439V200.464H876.962V190.439H873.962ZM873.962 170.389V180.414L876.962 180.414V170.389L873.962 170.389ZM873.962 150.34V160.365H876.962V150.34H873.962ZM873.962 130.291V140.315H876.962V130.291H873.962ZM873.962 110.241V120.266H876.962V110.241H873.962ZM873.962 90.1916L873.962 100.216H876.962L876.962 90.1916H873.962ZM873.962 70.1421V80.1669L876.962 80.1669V70.1421H873.962ZM873.962 50.0927V60.1174H876.962V50.0927L873.962 50.0927ZM873.962 30.0432V40.0679H876.962V30.0432H873.962Z" fill="white"/>
</svg>
