<svg width="1054" height="321" viewBox="0 0 1054 321" fill="none" xmlns="http://www.w3.org/2000/svg">
<path d="M10.0196 0C4.48596 0 0 4.46327 0 9.96894V311.031C0 316.537 4.48596 321 10.0196 321H243.788C249.322 321 253.808 316.537 253.808 311.031V9.96894C253.808 4.46327 249.322 0 243.788 0H10.0196Z" fill="white"/>
<path d="M255.824 9.96894C255.824 4.46327 260.31 0 265.844 0H989.717L989.717 0.13094H1054V32.0392L1043.12 38.7608C1039.33 41.1005 1039.33 46.5851 1043.12 48.9247L1054 55.6462V70.479L1043.12 77.2005C1039.33 79.5402 1039.33 85.0248 1043.12 87.3644L1054 94.086V108.919L1043.12 115.64C1039.33 117.98 1039.33 123.465 1043.12 125.804L1054 132.526V147.359L1043.12 154.08C1039.33 156.42 1039.33 161.904 1043.12 164.244L1054 170.966V185.798L1043.12 192.52C1039.33 194.86 1039.33 200.344 1043.12 202.684L1054 209.405V224.566L1043.12 231.287C1039.33 233.627 1039.33 239.111 1043.12 241.451L1054 248.173V263.098L1043.12 269.82C1039.33 272.159 1039.33 277.644 1043.12 279.983L1054 286.705V320.869H989.717L989.717 321H265.844C260.31 321 255.824 316.537 255.824 311.031V9.96894Z" fill="white"/>
<path d="M253.814 301.491H255.818V296.998H253.814V301.491Z" fill="white"/>
<path d="M253.814 293.992H255.818V286.998H253.814V293.992Z" fill="white"/>
<path d="M253.814 283.992H255.818V276.999H253.814V283.992Z" fill="white"/>
<path d="M253.814 273.993H255.818V266.999H253.814V273.993Z" fill="white"/>
<path d="M253.814 263.993H255.818V256.999H253.814V263.993Z" fill="white"/>
<path d="M253.814 253.993H255.818V247H253.814V253.993Z" fill="white"/>
<path d="M253.814 243.994H255.818V237H253.814V243.994Z" fill="white"/>
<path d="M253.814 233.994H255.818V227H253.814V233.994Z" fill="white"/>
<path d="M253.814 223.994H255.818V217.001H253.814V223.994Z" fill="white"/>
<path d="M253.814 213.995H255.818V207.001H253.814V213.995Z" fill="white"/>
<path d="M253.814 203.995H255.818V197.002H253.814V203.995Z" fill="white"/>
<path d="M253.814 193.996H255.818V187.002H253.814V193.996Z" fill="white"/>
<path d="M253.814 183.996H255.818V177.002H253.814V183.996Z" fill="white"/>
<path d="M253.814 173.996H255.818V167.003H253.814V173.996Z" fill="white"/>
<path d="M253.814 163.997H255.818V157.003H253.814V163.997Z" fill="white"/>
<path d="M253.814 153.997H255.818V147.004H253.814V153.997Z" fill="white"/>
<path d="M253.814 143.998H255.818V137.004H253.814V143.998Z" fill="white"/>
<path d="M253.814 133.998H255.818V127.004H253.814V133.998Z" fill="white"/>
<path d="M253.814 123.998H255.818V117.005H253.814V123.998Z" fill="white"/>
<path d="M253.814 113.999H255.818L255.818 107.005H253.814L253.814 113.999Z" fill="white"/>
<path d="M253.814 103.999H255.818V97.0055H253.814V103.999Z" fill="white"/>
<path d="M253.814 93.9995H255.818V87.0059H253.814V93.9995Z" fill="white"/>
<path d="M253.814 83.9999H255.818V77.0063H253.814V83.9999Z" fill="white"/>
<path d="M253.814 74.0003H255.818V67.0067H253.814V74.0003Z" fill="white"/>
<path d="M253.814 64.0007H255.818V57.0071H253.814V64.0007Z" fill="white"/>
<path d="M253.814 54.0011H255.818V47.0075H253.814V54.0011Z" fill="white"/>
<path d="M253.814 44.0015H255.818V37.0079H253.814V44.0015Z" fill="white"/>
<path d="M253.814 34.0019H255.818V27.0083H253.814V34.0019Z" fill="white"/>
<path d="M253.814 24.0023H255.818V19.5086H253.814V24.0023Z" fill="white"/>
</svg>
