<svg width="995" height="328" viewBox="0 0 995 328" fill="none" xmlns="http://www.w3.org/2000/svg">
<path d="M259.503 2.45181C259.503 15.1262 249.228 25.4008 236.553 25.4008C223.879 25.4008 213.604 15.1262 213.604 2.45181L12.2483 2.45178C6.72543 2.45178 2.24829 6.92894 2.24829 12.4518V315.855C2.24829 321.378 6.72543 325.855 12.2483 325.855L213.604 325.855C213.604 313.181 223.879 302.906 236.553 302.906C249.228 302.906 259.503 313.181 259.503 325.855L982.912 325.855C988.435 325.855 992.912 321.378 992.912 315.855V304.273C992.912 300.915 991.227 297.781 988.426 295.93L982.711 292.152C979.16 289.806 979.16 284.304 982.711 281.957L988.426 278.179C991.227 276.328 992.912 273.194 992.912 269.837V265.62C992.912 262.262 991.227 259.129 988.426 257.278L982.711 253.5C979.16 251.153 979.16 245.651 982.711 243.304L988.426 239.527C991.227 237.676 992.912 234.542 992.912 231.184V226.732C992.912 223.374 991.227 220.241 988.426 218.389L982.711 214.612C979.16 212.265 979.16 206.763 982.711 204.416L988.426 200.639C991.227 198.788 992.912 195.654 992.912 192.296V188.173C992.912 184.815 991.227 181.681 988.426 179.83L982.711 176.052C979.16 173.706 979.16 168.204 982.711 165.857L988.426 162.079C991.227 160.228 992.912 157.095 992.912 153.737V149.613C992.912 146.255 991.227 143.122 988.426 141.27L982.711 137.493C979.16 135.146 979.16 129.644 982.711 127.297L988.426 123.52C991.227 121.669 992.912 118.535 992.912 115.177V111.053C992.912 107.696 991.227 104.562 988.426 102.711L982.711 98.9333C979.16 96.5864 979.16 91.0848 982.711 88.7379L988.426 84.9604C991.227 83.1091 992.912 79.9755 992.912 76.6179V72.4939C992.912 69.1362 991.227 66.0027 988.426 64.1513L982.711 60.3738C979.16 58.027 979.16 52.5252 982.711 50.1783L988.426 46.4008C991.227 44.5495 992.912 41.4159 992.912 38.0583V12.4518C992.912 6.92894 988.435 2.45178 982.912 2.45178L259.503 2.45181Z" stroke="white" stroke-width="3" stroke-linecap="round" stroke-linejoin="round" stroke-dasharray="6 6"/>
</svg>
