<svg width="105" height="275" viewBox="0 0 105 275" fill="none" xmlns="http://www.w3.org/2000/svg">
<path fill-rule="evenodd" clip-rule="evenodd" d="M40.982 1.96498C40.982 9.79606 35.1368 16.2619 27.5714 17.2377L27.5714 21.5608H24.5714L24.5714 17.3323C16.5373 16.8118 10.182 10.1306 10.182 1.96498C10.182 1.29927 10.2243 0.643437 10.3062 0H0.337891V275H10.1825C10.2484 266.551 17.1178 259.723 25.5821 259.723C34.0089 259.723 40.8549 266.491 40.9803 274.888H104.466V245.62L92.3518 239.861C88.1351 237.857 88.1351 233.158 92.3518 231.154L104.466 225.395V212.609L92.352 206.851C88.1352 204.846 88.1351 200.148 92.3518 198.143L104.466 192.385V179.397L92.3518 173.639C88.1351 171.634 88.1351 166.936 92.3518 164.931L104.466 159.173V146.466L92.3518 140.708C88.1351 138.703 88.1351 134.005 92.3518 132L104.466 126.242V113.535L92.3518 107.776C88.1351 105.772 88.1351 101.073 92.3518 99.0688L104.466 93.3105V80.6033L92.3518 74.8449C88.1351 72.8406 88.1351 68.1419 92.3518 66.1375L104.466 60.3793V47.672L92.3518 41.9137C88.1351 39.9094 88.1351 35.2107 92.3518 33.2063L104.466 27.4479V0.112176H40.8717C40.9446 0.71961 40.982 1.33792 40.982 1.96498ZM24.5715 254.051L24.5715 259.105H27.5715L27.5715 254.051H24.5715ZM24.5715 233.835L24.5715 243.943H27.5715L27.5715 233.835H24.5715ZM24.5715 213.618L24.5715 223.726H27.5715L27.5715 213.618H24.5715ZM24.5715 193.401L24.5715 203.51H27.5715L27.5715 193.401L24.5715 193.401ZM24.5715 173.185L24.5715 183.293L27.5715 183.293L27.5715 173.185H24.5715ZM24.5714 152.968L24.5714 163.077H27.5714L27.5714 152.968H24.5714ZM24.5714 132.752L24.5714 142.86H27.5714L27.5714 132.752H24.5714ZM24.5714 112.535L24.5714 122.644H27.5714L27.5714 112.535L24.5714 112.535ZM24.5714 92.3187L24.5714 102.427H27.5714L27.5714 92.3187L24.5714 92.3187ZM24.5714 72.1022L24.5714 82.2104L27.5714 82.2105L27.5714 72.1022L24.5714 72.1022ZM24.5714 51.8857L24.5714 61.9939L27.5714 61.9939L27.5714 51.8857L24.5714 51.8857ZM24.5714 31.6691L24.5714 41.7774H27.5714L27.5714 31.6691L24.5714 31.6691Z" fill="white"/>
<path fill-rule="evenodd" clip-rule="evenodd" d="M52.402 55.6607H67.6323V51.7H52.402V55.6607ZM52.402 61.0303H67.6323V58.7053H52.402V61.0303ZM67.6323 65.1951H52.402V64.0751H67.6323V65.1951ZM67.6323 73.8728H52.402V72.7528H67.6323V73.8728ZM67.6323 87.2453H52.402V83.923H67.6323V87.2453ZM52.402 135.718H67.6323V132.396H52.402V135.718ZM67.6323 139.282H52.402V142.604H67.6323V139.282ZM67.6323 187.755H52.402V191.077H67.6323V187.755ZM52.402 145.649H67.6323V146.769H52.402V145.649ZM67.6323 201.127H52.402V202.247H67.6323V201.127ZM67.6323 166.702H52.4021V167.822H67.6323V166.702ZM67.6323 209.805H52.402V210.925H67.6323V209.805ZM52.402 149.814H67.6323V152.139H52.402V149.814ZM52.4021 170.866H67.6323V173.191H52.4021V170.866ZM52.402 213.97H67.6323V216.295H52.402V213.97ZM67.6323 155.183H52.402V159.144H67.6323V155.183ZM52.402 194.122H67.6323V198.082H52.402V194.122ZM52.4021 176.236H67.6323V180.197H52.4021V176.236ZM52.402 219.339H67.6323V223.3H52.402V219.339ZM67.6323 162.189H52.402V163.657H67.6323V162.189ZM67.6323 205.292H52.4021V206.76H67.6323V205.292ZM52.4021 183.242H67.6323V184.71H52.4021V183.242ZM52.402 129.351H67.6323V128.231H52.402V129.351ZM67.6323 108.298H52.4021V107.178H67.6323V108.298ZM52.402 125.186H67.6323V122.861H52.402V125.186ZM52.4021 104.133H67.6323V101.808H52.4021V104.133ZM67.6323 119.817H52.402V115.856H67.6323V119.817ZM52.402 80.8782H67.6323V76.9175H52.402V80.8782ZM52.4021 98.7637H67.6323V94.803H52.4021V98.7637ZM67.6323 112.811H52.402V111.343H67.6323V112.811ZM67.6323 69.7081H52.4021V68.2398H67.6323V69.7081ZM52.4021 91.7583H67.6323V90.29H52.4021V91.7583Z" fill="url(#paint0_linear_446_615)"/>
<defs>
<linearGradient id="paint0_linear_446_615" x1="60.0172" y1="51.7" x2="60.0172" y2="223.3" gradientUnits="userSpaceOnUse">
<stop offset="0.035" stop-color="#9E9E9E"/>
<stop offset="0.505" stop-color="#091827"/>
<stop offset="1" stop-color="#9E9E9E"/>
</linearGradient>
</defs>
</svg>
