<svg width="113" height="278" viewBox="0 0 113 278" fill="none" xmlns="http://www.w3.org/2000/svg">
<path fill-rule="evenodd" clip-rule="evenodd" d="M55.5983 0.992493C55.5983 9.00062 49.1065 15.4925 41.0983 15.4925C33.0902 15.4925 26.5983 9.00062 26.5983 0.992493C26.5983 0.679944 26.6082 0.369706 26.6277 0.0620728H0.579224V277.815H26.6277C26.6082 277.508 26.5983 277.198 26.5983 276.885C26.5983 268.877 33.0902 262.385 41.0983 262.385C49.1065 262.385 55.5983 268.877 55.5983 276.885C55.5983 277.198 55.5884 277.508 55.569 277.815H56.9554L56.9553 277.702H112.579V248.141L103.162 242.325C99.8835 240.3 99.8835 235.555 103.162 233.53L112.579 227.714V214.8L103.162 208.984C99.8836 206.959 99.8835 202.214 103.162 200.189L112.579 194.373V181.255L103.162 175.439C99.8835 173.415 99.8835 168.669 103.162 166.645L112.579 160.829V147.994L103.162 142.178C99.8835 140.154 99.8835 135.408 103.162 133.384L112.579 127.568V114.733L103.162 108.917C99.8835 106.893 99.8835 102.147 103.162 100.123L112.579 94.3068V81.4724L103.162 75.6563C99.8835 73.6319 99.8835 68.8862 103.162 66.8618L112.579 61.0458V48.2114L103.162 42.3954C99.8835 40.371 99.8835 35.6253 103.162 33.6009L112.579 27.7848V0.175372H56.9553L56.9554 0.0620728H55.569C55.5884 0.369706 55.5983 0.679944 55.5983 0.992493ZM39.5984 256.657L39.5984 261.761L42.5984 261.762L42.5984 256.657H39.5984ZM39.5984 236.238L39.5984 246.447H42.5984L42.5984 236.238H39.5984ZM39.5984 215.819L39.5984 226.028H42.5984L42.5984 215.819H39.5984ZM39.5984 195.4L39.5984 205.609H42.5984L42.5984 195.4H39.5984ZM39.5984 174.981L39.5984 185.19H42.5984L42.5984 174.981H39.5984ZM39.5984 154.562L39.5984 164.771H42.5984L42.5984 154.562H39.5984ZM39.5984 134.143L39.5984 144.352H42.5984L42.5984 134.143H39.5984ZM39.5984 113.724L39.5984 123.934L42.5984 123.934L42.5984 113.724H39.5984ZM39.5984 93.3051L39.5984 103.515H42.5984L42.5984 93.3051H39.5984ZM39.5983 72.8862L39.5983 83.0957H42.5983L42.5983 72.8862H39.5983ZM39.5983 52.4672L39.5983 62.6767H42.5983L42.5983 52.4672H39.5983ZM39.5983 32.0483L39.5983 42.2578H42.5983L42.5983 32.0483H39.5983ZM39.5983 16.7341V21.8388L42.5983 21.8388V16.7341H39.5983Z" fill="white"/>
</svg>
