<svg width="213" height="194" viewBox="0 0 213 194" fill="none" xmlns="http://www.w3.org/2000/svg">
<g opacity="0.6" filter="url(#filter0_f_627_41)">
<path d="M163.091 157.789L172.203 157.959L172.545 139.732L163.433 139.562C156.445 139.434 149.495 140.633 142.953 143.096L121.891 106.601L164.031 106.597C165.169 113.493 167.605 120.111 171.21 126.1L175.913 133.906L191.528 124.496L186.825 116.69C184.936 113.557 183.522 110.16 182.629 106.612L208.018 106.592L208.006 88.38L182.653 88.373C183.54 84.8195 184.953 81.4181 186.843 78.2808L191.548 70.4713L175.929 61.0613L171.224 68.8708C167.621 74.8534 165.183 81.4637 164.038 88.3528L121.892 88.3681L142.964 51.8706C149.505 54.3306 156.454 55.5288 163.441 55.4016L172.553 55.232L172.212 37.0024L163.1 37.1721C159.439 37.2371 155.789 36.7596 152.268 35.7552L163.719 15.9222L147.93 6.80643L136.479 26.6395C133.849 24.0924 131.61 21.1698 129.836 17.9669L125.427 9.99085L109.469 18.8105L113.878 26.7865C117.262 32.9015 121.774 38.3199 127.175 42.7549L106.103 79.2524L85.0433 42.7451C90.4457 38.3093 94.9591 32.8904 98.3449 26.7749L102.756 18.7955L86.7969 9.97406L82.3861 17.9535C80.6143 21.1591 78.3747 24.0829 75.7412 26.6285L63.0356 4.68101L47.2477 13.7949L59.9363 35.7804C56.4171 36.7814 52.769 37.255 49.111 37.1856L40.001 37.012L39.6588 55.2395L48.7708 55.4096C55.7595 55.5371 62.709 54.3378 69.2508 51.8755L90.3132 88.3699L48.1733 88.3745C47.0349 81.4779 44.5987 74.8599 40.994 68.8712L36.2943 61.0671L20.6798 70.4773L25.3831 78.2834C27.2722 81.4167 28.6862 84.8129 29.5788 88.361L4.1759 88.3975L4.17696 106.627L29.5592 106.627C28.6713 110.18 27.259 113.581 25.3687 116.719L20.6637 124.528L36.2828 133.938L40.9878 126.129C44.5912 120.137 47.0269 113.517 48.166 106.618L90.3122 106.603L69.2403 143.101C62.6989 140.641 55.7505 139.442 48.763 139.57L39.651 139.739L39.9918 157.969L49.1038 157.799C52.7647 157.734 56.415 158.212 59.9361 159.216L48.4855 179.049L64.2744 188.165L75.725 168.332C78.3553 170.879 80.594 173.801 82.3681 177.004L86.7772 184.98L102.735 176.161L98.3258 168.185C94.9422 162.07 90.4304 156.651 85.0292 152.216L106.101 115.719L127.161 152.226C121.758 156.662 117.245 162.081 113.859 168.196L109.449 176.176L125.407 184.997L129.818 177.018C131.596 173.808 133.844 170.883 136.486 168.337L149.158 190.308L164.936 181.212L152.275 159.219C155.79 158.211 159.435 157.729 163.091 157.789Z" fill="url(#paint0_linear_627_41)"/>
</g>
<defs>
<filter id="filter0_f_627_41" x="0.175781" y="0.681008" width="211.842" height="193.627" filterUnits="userSpaceOnUse" color-interpolation-filters="sRGB">
<feFlood flood-opacity="0" result="BackgroundImageFix"/>
<feBlend mode="normal" in="SourceGraphic" in2="BackgroundImageFix" result="shape"/>
<feGaussianBlur stdDeviation="2" result="effect1_foregroundBlur_627_41"/>
</filter>
<linearGradient id="paint0_linear_627_41" x1="75.4443" y1="-35.0431" x2="240.243" y2="137.188" gradientUnits="userSpaceOnUse">
<stop stop-color="#CDE8FF"/>
<stop offset="1" stop-color="#F7FBFF"/>
</linearGradient>
</defs>
</svg>
