<svg width="170" height="169" viewBox="0 0 170 169" fill="none" xmlns="http://www.w3.org/2000/svg">
<g opacity="0.6" filter="url(#filter0_f_627_42)">
<path d="M49.8076 139.365L51.6316 146.719L66.3419 143.072L64.518 135.718C63.1166 130.079 60.6583 124.757 57.2735 120.033L82.0466 95.2682L91.1172 129.105C85.8242 131.503 81.0341 134.884 77.0008 139.067L71.7445 144.523L82.6604 155.037L87.9168 149.58C90.0264 147.389 92.4492 145.523 95.1063 144.043L100.586 164.426L115.207 160.498L109.757 140.138C112.802 140.086 115.837 140.488 118.763 141.331L126.046 143.429L130.242 128.862L122.959 126.764C117.379 125.159 111.547 124.623 105.769 125.186L96.688 91.3459L130.529 100.414C129.961 106.196 130.494 112.033 132.1 117.617L134.197 124.897L148.762 120.701L146.665 113.421C145.825 110.495 145.423 107.461 145.472 104.418L163.861 109.345L167.784 94.7052L149.395 89.7777C150.874 87.1175 152.739 84.691 154.929 82.5773L160.385 77.3207L149.87 66.4044L144.414 71.661C140.231 75.6937 136.851 80.4825 134.452 85.7739L100.611 76.7062L125.395 51.9402C130.119 55.3239 135.441 57.7822 141.081 59.1852L148.437 61.0101L152.087 46.2972L144.731 44.4723C141.775 43.7392 138.946 42.57 136.335 41.003L151.225 26.0781L140.509 15.3615L125.585 30.2808C124.024 27.6704 122.859 24.8428 122.128 21.8905L120.307 14.5379L105.597 18.1849L107.421 25.5384C108.822 31.1778 111.28 36.5002 114.665 41.2234L89.892 65.9886L80.8214 32.1514C86.1144 29.7534 90.9045 26.3732 94.9378 22.1901L100.193 16.7371L89.2773 6.22349L84.0209 11.6798C81.9114 13.8709 79.4885 15.7371 76.8314 17.2173L71.3364 -3.17335L56.6983 0.749834L62.16 21.1315C59.1155 21.1832 56.0804 20.7809 53.1544 19.9381L45.8711 17.8403L41.6755 32.407L48.9589 34.5048C54.5455 36.1091 60.3855 36.6406 66.17 36.071L75.2506 69.9109L41.4094 60.8432C41.9773 55.0612 41.4444 49.2239 39.8388 43.6403L37.742 36.3599L23.1771 40.5558L25.2738 47.8362C26.1138 50.7619 26.5158 53.7959 26.4668 56.8393L8.07721 51.9119L4.15449 66.5517L22.5441 71.4791C21.0648 74.1394 19.1996 76.5659 17.0094 78.6796L11.5533 83.9362L22.069 94.8525L27.525 89.5959C31.7073 85.5631 35.0875 80.7743 37.4867 75.483L71.3279 84.5507L46.5439 109.317C41.8196 105.933 36.4971 103.475 30.8579 102.072L23.5015 100.247L19.8516 114.96L27.208 116.785C30.1677 117.522 33.0007 118.697 35.6136 120.271L20.6972 135.174L31.3959 145.886L46.3323 130.988C47.8983 133.594 49.0695 136.417 49.8076 139.365Z" fill="url(#paint0_linear_627_42)"/>
</g>
<defs>
<filter id="filter0_f_627_42" x="0.154541" y="-7.17334" width="171.63" height="175.599" filterUnits="userSpaceOnUse" color-interpolation-filters="sRGB">
<feFlood flood-opacity="0" result="BackgroundImageFix"/>
<feBlend mode="normal" in="SourceGraphic" in2="BackgroundImageFix" result="shape"/>
<feGaussianBlur stdDeviation="2" result="effect1_foregroundBlur_627_42"/>
</filter>
<linearGradient id="paint0_linear_627_42" x1="185.793" y1="27.4952" x2="82.9501" y2="196.885" gradientUnits="userSpaceOnUse">
<stop stop-color="#CDE8FF"/>
<stop offset="1" stop-color="#F7FBFF"/>
</linearGradient>
</defs>
</svg>
