<svg width="339" height="316" viewBox="0 0 339 316" fill="none" xmlns="http://www.w3.org/2000/svg">
<g opacity="0.6" filter="url(#filter0_f_627_40)">
<path d="M101.245 32.6282L86.8875 29.03L79.6865 57.7508L94.0445 61.349C105.058 64.1041 116.494 64.7452 127.746 63.2384L147.745 128.687L81.0553 113.299C81.7734 101.969 80.3359 90.6056 76.8192 79.8113L72.228 65.7394L44.0795 74.9267L48.6707 88.9986C50.5156 94.6474 51.5124 100.538 51.6288 106.48L11.4421 97.2365L4.80663 126.061L44.9277 135.336C42.2243 140.635 38.7466 145.502 34.609 149.776L24.31 160.416L45.5898 181.014L55.8889 170.374C63.7761 162.222 70.0496 152.652 74.3785 142.168L141.082 157.542L94.4007 207.602C84.9474 201.319 74.3891 196.885 63.2846 194.533L48.8025 191.472L42.6817 220.446L57.1637 223.506C62.981 224.741 68.5834 226.83 73.7886 229.706L48.4216 256.909L70.0778 277.104L95.4448 249.901C98.677 254.893 101.152 260.336 102.789 266.053L106.853 280.286L135.329 272.158L131.265 257.925C128.145 247.012 122.984 236.789 116.057 227.797L162.738 177.736L182.728 243.205C172.558 248.251 163.436 255.178 155.843 263.619L145.948 274.635L167.981 294.426L177.876 283.409C181.851 278.984 186.464 275.175 191.561 272.108L203.65 311.483L231.965 302.828L219.917 263.4C225.852 263.101 231.798 263.684 237.562 265.131L251.915 268.734L259.116 240.013L244.758 236.415C233.745 233.66 222.309 233.019 211.057 234.525L191.058 169.076L257.747 184.465C257.029 195.795 258.467 207.158 261.983 217.953L266.57 232.02L294.718 222.833L290.127 208.761C288.282 203.112 287.285 197.221 287.169 191.279L327.383 200.503L334.042 171.653L293.873 162.381C296.577 157.082 300.054 152.215 304.192 147.94L314.491 137.3L293.211 116.702L282.912 127.342C275.021 135.508 268.747 145.095 264.424 155.596L197.721 140.222L244.402 90.1616C253.855 96.4446 264.414 100.879 275.518 103.231L290 106.292L296.121 77.3179L281.639 74.2574C275.822 73.0228 270.219 70.9335 265.014 68.0575L290.381 40.8544L268.725 20.6599L243.358 47.8631C240.126 42.8712 237.651 37.4283 236.013 31.7113L231.95 17.4781L203.474 25.6055L207.537 39.8387C210.658 50.7521 215.819 60.9752 222.746 69.9672L176.064 120.027L156.074 54.559C166.244 49.5129 175.367 42.5862 182.959 34.1452L192.855 23.129L170.822 3.33808L160.927 14.3544C156.94 18.7835 152.315 22.5929 147.203 25.6567L135.176 -13.7441L106.884 -5.11366L118.884 34.3167C112.953 34.6285 107.009 34.0595 101.245 32.6282Z" fill="url(#paint0_linear_627_40)"/>
</g>
<defs>
<filter id="filter0_f_627_40" x="0.806641" y="-17.7441" width="337.235" height="333.227" filterUnits="userSpaceOnUse" color-interpolation-filters="sRGB">
<feFlood flood-opacity="0" result="BackgroundImageFix"/>
<feBlend mode="normal" in="SourceGraphic" in2="BackgroundImageFix" result="shape"/>
<feGaussianBlur stdDeviation="2" result="effect1_foregroundBlur_627_40"/>
</filter>
<linearGradient id="paint0_linear_627_40" x1="169.5" y1="369.815" x2="-28.3766" y2="37.0427" gradientUnits="userSpaceOnUse">
<stop stop-color="#CDE8FF"/>
<stop offset="1" stop-color="#F7FBFF"/>
</linearGradient>
</defs>
</svg>
