<svg width="101" height="100" viewBox="0 0 101 100" fill="none" xmlns="http://www.w3.org/2000/svg">
<g opacity="0.6" filter="url(#filter0_f_627_43)">
<path d="M31.1213 17.2743L27.0969 16.2657L25.0786 24.3158L29.1029 25.3243C32.1898 26.0965 35.3952 26.2762 38.5491 25.8539L44.1545 44.1984L25.4623 39.8852C25.6635 36.7095 25.2606 33.5245 24.2749 30.499L22.9881 26.5549L15.0985 29.1299L16.3853 33.0741C16.9024 34.6574 17.1818 36.3086 17.2144 37.9738L5.95064 35.3831L4.0908 43.4623L15.3362 46.0617C14.5785 47.547 13.6037 48.9111 12.444 50.1092L9.55732 53.0914L15.5218 58.8647L18.4085 55.8825C20.6191 53.5978 22.3775 50.9154 23.5908 47.9768L42.2869 52.2859L29.2028 66.3171C26.5532 64.556 23.5938 63.3131 20.4814 62.6539L16.4222 61.7961L14.7067 69.917L18.7658 70.7748C20.3963 71.1209 21.9666 71.7064 23.4255 72.5125L16.3155 80.1372L22.3854 85.7974L29.4954 78.1728C30.4014 79.5719 31.0951 81.0975 31.554 82.6999L32.693 86.6893L40.6744 84.4113L39.5355 80.4219C38.6608 77.363 37.2143 74.4976 35.2727 71.9773L48.3569 57.9461L53.9598 76.296C51.1093 77.7104 48.5524 79.6518 46.4243 82.0177L43.6508 85.1054L49.8262 90.6525L52.5998 87.5648C53.714 86.3243 55.0067 85.2568 56.4355 84.3973L59.8239 95.4335L67.7601 93.0076L64.3832 81.9563C66.0467 81.8726 67.7134 82.0362 69.3289 82.4415L73.3519 83.4514L75.3703 75.4014L71.3459 74.3928C68.259 73.6206 65.0537 73.441 61.8998 73.8633L56.2944 55.5188L74.9866 59.832C74.7854 63.0076 75.1882 66.1926 76.1739 69.2181L77.4594 73.161L85.349 70.5859L84.0622 66.6418C83.5451 65.0585 83.2657 63.4073 83.2331 61.742L94.5047 64.3272L96.3709 56.2411L85.1122 53.6421C85.8699 52.1568 86.8447 50.7927 88.0044 49.5947L90.8911 46.6125L84.9266 40.8391L82.04 43.8213C79.828 46.1101 78.0697 48.7971 76.858 51.7403L58.1619 47.4313L71.2461 33.4001C73.8957 35.1611 76.8551 36.4041 79.9675 37.0633L84.0266 37.9211L85.7422 29.8002L81.6831 28.9423C80.0526 28.5963 78.4823 28.0107 77.0234 27.2046L84.1334 19.58L78.0634 13.9197L70.9534 21.5444C70.0475 20.1453 69.3538 18.6197 68.8948 17.0173L67.7559 13.0279L59.7745 15.3059L60.9134 19.2953C61.7881 22.3541 63.2345 25.2196 65.1761 27.7399L52.092 41.7711L46.489 23.4212C49.3396 22.0068 51.8965 20.0654 54.0245 17.6995L56.7981 14.6118L50.6227 9.06465L47.8491 12.1524C46.7317 13.3938 45.4353 14.4615 44.0027 15.3203L40.6314 4.27675L32.7017 6.69574L36.0652 17.7475C34.4029 17.8349 32.7368 17.6754 31.1213 17.2743Z" fill="url(#paint0_linear_627_43)"/>
</g>
<defs>
<filter id="filter0_f_627_43" x="0.0908203" y="0.276749" width="100.28" height="99.1568" filterUnits="userSpaceOnUse" color-interpolation-filters="sRGB">
<feFlood flood-opacity="0" result="BackgroundImageFix"/>
<feBlend mode="normal" in="SourceGraphic" in2="BackgroundImageFix" result="shape"/>
<feGaussianBlur stdDeviation="2" result="effect1_foregroundBlur_627_43"/>
</filter>
<linearGradient id="paint0_linear_627_43" x1="50.252" y1="111.783" x2="-5.21" y2="18.5116" gradientUnits="userSpaceOnUse">
<stop stop-color="#CDE8FF"/>
<stop offset="1" stop-color="#F7FBFF"/>
</linearGradient>
</defs>
</svg>
