<svg width="244" height="77" viewBox="0 0 244 77" fill="none" xmlns="http://www.w3.org/2000/svg">
<rect x="0.165039" y="0.77002" width="243.365" height="76.186" rx="38.093" fill="white"/>
<path d="M100.476 43.4883V54.8633H98.1404V43.4883H100.476ZM103.976 43.4883V45.3242H94.6951V43.4883H103.976ZM103.453 50.7227V50.5586C103.453 49.9388 103.541 49.3685 103.719 48.8477C103.896 48.3216 104.153 47.8659 104.492 47.4805C104.83 47.0951 105.247 46.7956 105.742 46.582C106.237 46.3633 106.804 46.2539 107.445 46.2539C108.086 46.2539 108.656 46.3633 109.156 46.582C109.656 46.7956 110.075 47.0951 110.414 47.4805C110.758 47.8659 111.018 48.3216 111.195 48.8477C111.372 49.3685 111.461 49.9388 111.461 50.5586V50.7227C111.461 51.3372 111.372 51.9076 111.195 52.4336C111.018 52.9544 110.758 53.4102 110.414 53.8008C110.075 54.1862 109.659 54.4857 109.164 54.6992C108.669 54.9128 108.101 55.0195 107.461 55.0195C106.82 55.0195 106.25 54.9128 105.75 54.6992C105.255 54.4857 104.836 54.1862 104.492 53.8008C104.153 53.4102 103.896 52.9544 103.719 52.4336C103.541 51.9076 103.453 51.3372 103.453 50.7227ZM105.703 50.5586V50.7227C105.703 51.0768 105.734 51.4076 105.797 51.7148C105.859 52.0221 105.958 52.293 106.094 52.5273C106.234 52.7565 106.416 52.9362 106.64 53.0664C106.864 53.1966 107.138 53.2617 107.461 53.2617C107.773 53.2617 108.041 53.1966 108.265 53.0664C108.489 52.9362 108.669 52.7565 108.804 52.5273C108.94 52.293 109.039 52.0221 109.101 51.7148C109.169 51.4076 109.203 51.0768 109.203 50.7227V50.5586C109.203 50.2148 109.169 49.8919 109.101 49.5898C109.039 49.2826 108.937 49.0117 108.797 48.7773C108.661 48.5378 108.482 48.3503 108.258 48.2148C108.034 48.0794 107.763 48.0117 107.445 48.0117C107.127 48.0117 106.857 48.0794 106.633 48.2148C106.414 48.3503 106.234 48.5378 106.094 48.7773C105.958 49.0117 105.859 49.2826 105.797 49.5898C105.734 49.8919 105.703 50.2148 105.703 50.5586ZM115.094 48.0352V58.1133H112.844V46.4102H114.929L115.094 48.0352ZM120.445 50.543V50.707C120.445 51.3216 120.372 51.8919 120.226 52.418C120.086 52.944 119.877 53.4023 119.601 53.793C119.325 54.1784 118.982 54.4805 118.57 54.6992C118.164 54.9128 117.695 55.0195 117.164 55.0195C116.648 55.0195 116.2 54.9154 115.82 54.707C115.44 54.4987 115.12 54.207 114.859 53.832C114.604 53.4518 114.398 53.0117 114.242 52.5117C114.086 52.0117 113.966 51.4753 113.883 50.9023V50.4727C113.966 49.8581 114.086 49.2956 114.242 48.7852C114.398 48.2695 114.604 47.8242 114.859 47.4492C115.12 47.069 115.437 46.7747 115.812 46.5664C116.192 46.3581 116.638 46.2539 117.148 46.2539C117.685 46.2539 118.156 46.3555 118.562 46.5586C118.974 46.7617 119.317 47.0534 119.594 47.4336C119.875 47.8138 120.086 48.2669 120.226 48.793C120.372 49.319 120.445 49.9023 120.445 50.543ZM118.187 50.707V50.543C118.187 50.1836 118.156 49.8529 118.094 49.5508C118.036 49.2435 117.942 48.9753 117.812 48.7461C117.687 48.5169 117.521 48.3398 117.312 48.2148C117.109 48.0846 116.862 48.0195 116.57 48.0195C116.263 48.0195 116 48.069 115.781 48.168C115.567 48.2669 115.393 48.4102 115.258 48.5977C115.122 48.7852 115.021 49.0091 114.953 49.2695C114.885 49.5299 114.844 49.8242 114.828 50.1523V51.2383C114.854 51.6237 114.927 51.9701 115.047 52.2773C115.166 52.5794 115.351 52.819 115.601 52.9961C115.851 53.1732 116.179 53.2617 116.586 53.2617C116.883 53.2617 117.133 53.1966 117.336 53.0664C117.539 52.931 117.703 52.7461 117.828 52.5117C117.958 52.2773 118.049 52.0065 118.101 51.6992C118.159 51.3919 118.187 51.0612 118.187 50.707ZM127.851 49.6836L126.054 49.2539L126.703 43.4883H133.094V45.3086H128.554L128.273 47.832C128.424 47.7435 128.653 47.6497 128.961 47.5508C129.268 47.4466 129.612 47.3945 129.992 47.3945C130.544 47.3945 131.034 47.4805 131.461 47.6523C131.888 47.8242 132.25 48.0742 132.547 48.4023C132.849 48.7305 133.078 49.1315 133.234 49.6055C133.39 50.0794 133.469 50.6159 133.469 51.2148C133.469 51.7201 133.39 52.2018 133.234 52.6602C133.078 53.1133 132.841 53.5195 132.523 53.8789C132.205 54.2331 131.807 54.5117 131.328 54.7148C130.849 54.918 130.281 55.0195 129.625 55.0195C129.135 55.0195 128.661 54.9466 128.203 54.8008C127.75 54.6549 127.341 54.4388 126.976 54.1523C126.617 53.8659 126.328 53.5195 126.109 53.1133C125.896 52.7018 125.784 52.2331 125.773 51.707H128.008C128.039 52.0299 128.122 52.3086 128.258 52.543C128.398 52.7721 128.583 52.9492 128.812 53.0742C129.041 53.1992 129.31 53.2617 129.617 53.2617C129.903 53.2617 130.148 53.207 130.351 53.0977C130.554 52.9883 130.719 52.8372 130.844 52.6445C130.969 52.4466 131.06 52.2174 131.117 51.957C131.179 51.6914 131.211 51.4049 131.211 51.0977C131.211 50.7904 131.174 50.5117 131.101 50.2617C131.028 50.0117 130.916 49.7956 130.765 49.6133C130.614 49.431 130.422 49.2904 130.187 49.1914C129.958 49.0924 129.69 49.043 129.383 49.043C128.966 49.043 128.643 49.1081 128.414 49.2383C128.19 49.3685 128.002 49.5169 127.851 49.6836ZM140.211 43.4883H142.195L145.117 51.8398L148.039 43.4883H150.023L145.914 54.8633H144.32L140.211 43.4883ZM139.14 43.4883H141.117L141.476 51.6289V54.8633H139.14V43.4883ZM149.117 43.4883H151.101V54.8633H148.758V51.6289L149.117 43.4883ZM157.578 52.957V49.1914C157.578 48.9206 157.534 48.6888 157.445 48.4961C157.357 48.2982 157.219 48.1445 157.031 48.0352C156.849 47.9258 156.612 47.8711 156.32 47.8711C156.07 47.8711 155.854 47.9154 155.672 48.0039C155.489 48.0872 155.349 48.2096 155.25 48.3711C155.151 48.5273 155.101 48.7122 155.101 48.9258H152.851C152.851 48.5664 152.935 48.2253 153.101 47.9023C153.268 47.5794 153.51 47.2956 153.828 47.0508C154.146 46.8008 154.523 46.6055 154.961 46.4648C155.403 46.3242 155.898 46.2539 156.445 46.2539C157.101 46.2539 157.685 46.3633 158.195 46.582C158.705 46.8008 159.107 47.1289 159.398 47.5664C159.695 48.0039 159.844 48.5508 159.844 49.207V52.8242C159.844 53.2878 159.872 53.668 159.929 53.9648C159.987 54.2565 160.07 54.5117 160.179 54.7305V54.8633H157.906C157.797 54.6341 157.713 54.3477 157.656 54.0039C157.604 53.6549 157.578 53.306 157.578 52.957ZM157.875 49.7148L157.89 50.9883H156.633C156.336 50.9883 156.078 51.0221 155.859 51.0898C155.64 51.1576 155.461 51.2539 155.32 51.3789C155.179 51.4987 155.075 51.6393 155.008 51.8008C154.945 51.9622 154.914 52.1393 154.914 52.332C154.914 52.5247 154.958 52.6992 155.047 52.8555C155.135 53.0065 155.263 53.1263 155.429 53.2148C155.596 53.2982 155.791 53.3398 156.015 53.3398C156.354 53.3398 156.648 53.2721 156.898 53.1367C157.148 53.0013 157.341 52.8346 157.476 52.6367C157.617 52.4388 157.69 52.2513 157.695 52.0742L158.289 53.0273C158.205 53.2409 158.091 53.4622 157.945 53.6914C157.804 53.9206 157.625 54.1367 157.406 54.3398C157.187 54.5378 156.924 54.7018 156.617 54.832C156.31 54.957 155.945 55.0195 155.523 55.0195C154.987 55.0195 154.5 54.9128 154.062 54.6992C153.63 54.4805 153.286 54.181 153.031 53.8008C152.781 53.4154 152.656 52.9779 152.656 52.4883C152.656 52.0456 152.739 51.6523 152.906 51.3086C153.073 50.9648 153.317 50.6758 153.64 50.4414C153.969 50.2018 154.377 50.0221 154.867 49.9023C155.357 49.7773 155.924 49.7148 156.57 49.7148H157.875ZM163.828 48.2539V54.8633H161.578V46.4102H163.695L163.828 48.2539ZM166.375 46.3555L166.336 48.4414C166.226 48.4258 166.094 48.4128 165.937 48.4023C165.786 48.3867 165.648 48.3789 165.523 48.3789C165.205 48.3789 164.929 48.4206 164.695 48.5039C164.466 48.582 164.273 48.6992 164.117 48.8555C163.966 49.0117 163.851 49.2018 163.773 49.4258C163.7 49.6497 163.659 49.9049 163.648 50.1914L163.195 50.0508C163.195 49.5039 163.25 49.0013 163.359 48.543C163.469 48.0794 163.627 47.6758 163.836 47.332C164.049 46.9883 164.31 46.7227 164.617 46.5352C164.924 46.3477 165.276 46.2539 165.672 46.2539C165.797 46.2539 165.924 46.2643 166.054 46.2852C166.185 46.3008 166.291 46.3242 166.375 46.3555ZM169.687 42.8555V54.8633H167.437V42.8555H169.687ZM175.015 46.4102L171.344 50.5977L169.375 52.5898L168.554 50.9648L170.117 48.9805L172.312 46.4102H175.015ZM172.679 54.8633L170.179 50.957L171.734 49.5977L175.273 54.8633H172.679ZM179.719 55.0195C179.062 55.0195 178.474 54.9154 177.953 54.707C177.432 54.4935 176.989 54.1992 176.625 53.8242C176.265 53.4492 175.989 53.0143 175.797 52.5195C175.604 52.0195 175.508 51.4883 175.508 50.9258V50.6133C175.508 49.9727 175.599 49.3867 175.781 48.8555C175.963 48.3242 176.224 47.8633 176.562 47.4727C176.906 47.082 177.323 46.7826 177.812 46.5742C178.302 46.3607 178.854 46.2539 179.469 46.2539C180.067 46.2539 180.599 46.3529 181.062 46.5508C181.526 46.7487 181.914 47.0299 182.226 47.3945C182.544 47.7591 182.784 48.1966 182.945 48.707C183.107 49.2122 183.187 49.7747 183.187 50.3945V51.332H176.469V49.832H180.976V49.6602C180.976 49.3477 180.919 49.069 180.804 48.8242C180.695 48.5742 180.528 48.3763 180.304 48.2305C180.08 48.0846 179.794 48.0117 179.445 48.0117C179.148 48.0117 178.893 48.0768 178.679 48.207C178.466 48.3372 178.291 48.5195 178.156 48.7539C178.026 48.9883 177.927 49.2643 177.859 49.582C177.797 49.8945 177.765 50.2383 177.765 50.6133V50.9258C177.765 51.2643 177.812 51.5768 177.906 51.8633C178.005 52.1497 178.143 52.3971 178.32 52.6055C178.502 52.8138 178.721 52.9753 178.976 53.0898C179.237 53.2044 179.531 53.2617 179.859 53.2617C180.265 53.2617 180.643 53.1836 180.992 53.0273C181.346 52.8659 181.651 52.6237 181.906 52.3008L183 53.4883C182.823 53.7435 182.58 53.9883 182.273 54.2227C181.971 54.457 181.607 54.6497 181.179 54.8008C180.752 54.9466 180.265 55.0195 179.719 55.0195ZM188.609 46.4102V48.0039H183.687V46.4102H188.609ZM184.906 44.3242H187.156V52.3164C187.156 52.5612 187.187 52.7487 187.25 52.8789C187.317 53.0091 187.416 53.1003 187.547 53.1523C187.677 53.1992 187.841 53.2227 188.039 53.2227C188.179 53.2227 188.304 53.2174 188.414 53.207C188.528 53.1914 188.625 53.1758 188.703 53.1602L188.711 54.8164C188.518 54.8789 188.31 54.9284 188.086 54.9648C187.862 55.0013 187.614 55.0195 187.344 55.0195C186.849 55.0195 186.416 54.9388 186.047 54.7773C185.682 54.6107 185.401 54.3451 185.203 53.9805C185.005 53.6159 184.906 53.1367 184.906 52.543V44.3242ZM194.461 52.5273C194.461 52.3659 194.414 52.2201 194.32 52.0898C194.226 51.9596 194.052 51.8398 193.797 51.7305C193.547 51.6159 193.185 51.5117 192.711 51.418C192.284 51.3242 191.885 51.207 191.515 51.0664C191.151 50.9206 190.833 50.7461 190.562 50.543C190.297 50.3398 190.088 50.1003 189.937 49.8242C189.786 49.543 189.711 49.2227 189.711 48.8633C189.711 48.5091 189.786 48.1758 189.937 47.8633C190.094 47.5508 190.315 47.2747 190.601 47.0352C190.893 46.7904 191.247 46.6003 191.664 46.4648C192.086 46.3242 192.56 46.2539 193.086 46.2539C193.82 46.2539 194.45 46.3711 194.976 46.6055C195.508 46.8398 195.914 47.1628 196.195 47.5742C196.482 47.9805 196.625 48.444 196.625 48.9648H194.375C194.375 48.7461 194.328 48.5508 194.234 48.3789C194.146 48.2018 194.005 48.0638 193.812 47.9648C193.625 47.8607 193.38 47.8086 193.078 47.8086C192.828 47.8086 192.612 47.8529 192.429 47.9414C192.247 48.0247 192.107 48.1393 192.008 48.2852C191.914 48.4258 191.867 48.582 191.867 48.7539C191.867 48.8841 191.893 49.0013 191.945 49.1055C192.002 49.2044 192.094 49.2956 192.219 49.3789C192.344 49.4622 192.505 49.5404 192.703 49.6133C192.906 49.681 193.156 49.7435 193.453 49.8008C194.062 49.9258 194.607 50.0898 195.086 50.293C195.565 50.4909 195.945 50.7617 196.226 51.1055C196.508 51.444 196.648 51.8893 196.648 52.4414C196.648 52.8164 196.565 53.1602 196.398 53.4727C196.232 53.7852 195.992 54.0586 195.679 54.293C195.367 54.5221 194.992 54.7018 194.554 54.832C194.122 54.957 193.635 55.0195 193.094 55.0195C192.307 55.0195 191.64 54.8789 191.094 54.5977C190.552 54.3164 190.14 53.9596 189.859 53.5273C189.583 53.0898 189.445 52.6419 189.445 52.1836H191.578C191.588 52.4909 191.666 52.7383 191.812 52.9258C191.963 53.1133 192.153 53.2487 192.383 53.332C192.617 53.4154 192.87 53.457 193.14 53.457C193.432 53.457 193.674 53.418 193.867 53.3398C194.06 53.2565 194.205 53.1471 194.304 53.0117C194.409 52.8711 194.461 52.7096 194.461 52.5273Z" fill="#190F3A" fill-opacity="0.5"/>
<path d="M100.476 21.4883V32.8633H98.1404V21.4883H100.476ZM103.976 21.4883V23.3242H94.6951V21.4883H103.976ZM106.875 26.2539V32.8633H104.625V24.4102H106.742L106.875 26.2539ZM109.422 24.3555L109.383 26.4414C109.273 26.4258 109.14 26.4128 108.984 26.4023C108.833 26.3867 108.695 26.3789 108.57 26.3789C108.252 26.3789 107.976 26.4206 107.742 26.5039C107.513 26.582 107.32 26.6992 107.164 26.8555C107.013 27.0117 106.898 27.2018 106.82 27.4258C106.747 27.6497 106.705 27.9049 106.695 28.1914L106.242 28.0508C106.242 27.5039 106.297 27.0013 106.406 26.543C106.515 26.0794 106.674 25.6758 106.883 25.332C107.096 24.9883 107.357 24.7227 107.664 24.5352C107.971 24.3477 108.323 24.2539 108.719 24.2539C108.844 24.2539 108.971 24.2643 109.101 24.2852C109.232 24.3008 109.338 24.3242 109.422 24.3555ZM114.781 30.957V27.1914C114.781 26.9206 114.737 26.6888 114.648 26.4961C114.56 26.2982 114.422 26.1445 114.234 26.0352C114.052 25.9258 113.815 25.8711 113.523 25.8711C113.273 25.8711 113.057 25.9154 112.875 26.0039C112.692 26.0872 112.552 26.2096 112.453 26.3711C112.354 26.5273 112.304 26.7122 112.304 26.9258H110.054C110.054 26.5664 110.138 26.2253 110.304 25.9023C110.471 25.5794 110.713 25.2956 111.031 25.0508C111.349 24.8008 111.726 24.6055 112.164 24.4648C112.607 24.3242 113.101 24.2539 113.648 24.2539C114.304 24.2539 114.888 24.3633 115.398 24.582C115.909 24.8008 116.31 25.1289 116.601 25.5664C116.898 26.0039 117.047 26.5508 117.047 27.207V30.8242C117.047 31.2878 117.075 31.668 117.133 31.9648C117.19 32.2565 117.273 32.5117 117.383 32.7305V32.8633H115.109C115 32.6341 114.916 32.3477 114.859 32.0039C114.807 31.6549 114.781 31.306 114.781 30.957ZM115.078 27.7148L115.094 28.9883H113.836C113.539 28.9883 113.281 29.0221 113.062 29.0898C112.844 29.1576 112.664 29.2539 112.523 29.3789C112.383 29.4987 112.278 29.6393 112.211 29.8008C112.148 29.9622 112.117 30.1393 112.117 30.332C112.117 30.5247 112.161 30.6992 112.25 30.8555C112.338 31.0065 112.466 31.1263 112.633 31.2148C112.799 31.2982 112.995 31.3398 113.219 31.3398C113.557 31.3398 113.851 31.2721 114.101 31.1367C114.351 31.0013 114.544 30.8346 114.679 30.6367C114.82 30.4388 114.893 30.2513 114.898 30.0742L115.492 31.0273C115.409 31.2409 115.294 31.4622 115.148 31.6914C115.008 31.9206 114.828 32.1367 114.609 32.3398C114.39 32.5378 114.127 32.7018 113.82 32.832C113.513 32.957 113.148 33.0195 112.726 33.0195C112.19 33.0195 111.703 32.9128 111.265 32.6992C110.833 32.4805 110.489 32.181 110.234 31.8008C109.984 31.4154 109.859 30.9779 109.859 30.4883C109.859 30.0456 109.942 29.6523 110.109 29.3086C110.276 28.9648 110.521 28.6758 110.844 28.4414C111.172 28.2018 111.58 28.0221 112.07 27.9023C112.56 27.7773 113.127 27.7148 113.773 27.7148H115.078ZM123.773 31.0195V20.8633H126.039V32.8633H124L123.773 31.0195ZM118.429 28.7383V28.5742C118.429 27.9284 118.502 27.3424 118.648 26.8164C118.794 26.2852 119.008 25.8294 119.289 25.4492C119.57 25.069 119.916 24.7747 120.328 24.5664C120.739 24.3581 121.208 24.2539 121.734 24.2539C122.229 24.2539 122.661 24.3581 123.031 24.5664C123.406 24.7747 123.724 25.0716 123.984 25.457C124.25 25.8372 124.463 26.2878 124.625 26.8086C124.786 27.3242 124.903 27.8893 124.976 28.5039V28.8633C124.903 29.4518 124.786 29.9987 124.625 30.5039C124.463 31.0091 124.25 31.4518 123.984 31.832C123.724 32.207 123.406 32.4987 123.031 32.707C122.656 32.9154 122.219 33.0195 121.719 33.0195C121.192 33.0195 120.724 32.9128 120.312 32.6992C119.906 32.4857 119.562 32.1862 119.281 31.8008C119.005 31.4154 118.794 30.9622 118.648 30.4414C118.502 29.9206 118.429 29.3529 118.429 28.7383ZM120.679 28.5742V28.7383C120.679 29.0872 120.705 29.4128 120.758 29.7148C120.815 30.0169 120.906 30.2852 121.031 30.5195C121.161 30.7487 121.328 30.9284 121.531 31.0586C121.739 31.1836 121.992 31.2461 122.289 31.2461C122.674 31.2461 122.992 31.1602 123.242 30.9883C123.492 30.8112 123.682 30.569 123.812 30.2617C123.948 29.9544 124.026 29.6003 124.047 29.1992V28.1758C124.031 27.8477 123.984 27.5534 123.906 27.293C123.833 27.0273 123.724 26.8008 123.578 26.6133C123.437 26.4258 123.26 26.2799 123.047 26.1758C122.838 26.0716 122.591 26.0195 122.304 26.0195C122.013 26.0195 121.763 26.0872 121.554 26.2227C121.346 26.3529 121.177 26.5326 121.047 26.7617C120.922 26.9909 120.828 27.2617 120.765 27.5742C120.708 27.8815 120.679 28.2148 120.679 28.5742ZM131.687 33.0195C131.031 33.0195 130.442 32.9154 129.922 32.707C129.401 32.4935 128.958 32.1992 128.594 31.8242C128.234 31.4492 127.958 31.0143 127.765 30.5195C127.573 30.0195 127.476 29.4883 127.476 28.9258V28.6133C127.476 27.9727 127.567 27.3867 127.75 26.8555C127.932 26.3242 128.192 25.8633 128.531 25.4727C128.875 25.082 129.291 24.7826 129.781 24.5742C130.271 24.3607 130.823 24.2539 131.437 24.2539C132.036 24.2539 132.567 24.3529 133.031 24.5508C133.495 24.7487 133.883 25.0299 134.195 25.3945C134.513 25.7591 134.752 26.1966 134.914 26.707C135.075 27.2122 135.156 27.7747 135.156 28.3945V29.332H128.437V27.832H132.945V27.6602C132.945 27.3477 132.888 27.069 132.773 26.8242C132.664 26.5742 132.497 26.3763 132.273 26.2305C132.049 26.0846 131.763 26.0117 131.414 26.0117C131.117 26.0117 130.862 26.0768 130.648 26.207C130.435 26.3372 130.26 26.5195 130.125 26.7539C129.995 26.9883 129.896 27.2643 129.828 27.582C129.765 27.8945 129.734 28.2383 129.734 28.6133V28.9258C129.734 29.2643 129.781 29.5768 129.875 29.8633C129.974 30.1497 130.112 30.3971 130.289 30.6055C130.471 30.8138 130.69 30.9753 130.945 31.0898C131.205 31.2044 131.5 31.2617 131.828 31.2617C132.234 31.2617 132.612 31.1836 132.961 31.0273C133.315 30.8659 133.62 30.6237 133.875 30.3008L134.969 31.4883C134.791 31.7435 134.549 31.9883 134.242 32.2227C133.94 32.457 133.575 32.6497 133.148 32.8008C132.721 32.9466 132.234 33.0195 131.687 33.0195Z" fill="#190F3A"/>
<circle cx="38.2228" cy="38.8632" r="35.16" fill="#FFD7E0"/>
<path d="M29.2227 36.8633H33.2227V43.8633H29.2227V36.8633ZM36.2227 33.8633H40.2227V46.8633H36.2227V33.8633Z" stroke="black" stroke-width="1.7" stroke-linejoin="round"/>
<path d="M38.2227 48.8633V46.8633" stroke="black" stroke-width="1.7" stroke-linecap="round" stroke-linejoin="round"/>
<path d="M43.2227 32.8633H47.2227V37.3633H43.2227V32.8633Z" stroke="black" stroke-width="1.7" stroke-linejoin="round"/>
<path d="M31.2227 36.8633V31.8633M45.2227 43.8633V37.3633M45.2227 32.8633V28.8633" stroke="black" stroke-width="1.7" stroke-linecap="round" stroke-linejoin="round"/>
</svg>
