<svg width="244" height="77" viewBox="0 0 244 77" fill="none" xmlns="http://www.w3.org/2000/svg">
<rect x="0.165039" y="0.77002" width="243.365" height="76.186" rx="38.093" fill="white"/>
<path d="M99.8398 49.7012H96.918L96.9023 48.0918H99.3555C99.7878 48.0918 100.142 48.0371 100.418 47.9277C100.694 47.8132 100.9 47.6491 101.035 47.4355C101.176 47.2168 101.246 46.9512 101.246 46.6387C101.246 46.2845 101.178 45.998 101.043 45.7793C100.913 45.5605 100.707 45.4017 100.426 45.3027C100.15 45.2038 99.793 45.1543 99.3555 45.1543H97.7305V54.6934H95.3867V43.3184H99.3555C100.017 43.3184 100.608 43.3809 101.129 43.5059C101.655 43.6309 102.1 43.821 102.465 44.0762C102.829 44.3314 103.108 44.6543 103.301 45.0449C103.493 45.4303 103.59 45.8887 103.59 46.4199C103.59 46.8887 103.483 47.321 103.27 47.7168C103.061 48.1126 102.73 48.4355 102.277 48.6855C101.829 48.9355 101.243 49.0736 100.52 49.0996L99.8398 49.7012ZM99.7383 54.6934H96.2773L97.1914 52.8652H99.7383C100.15 52.8652 100.486 52.8001 100.746 52.6699C101.007 52.5345 101.199 52.3522 101.324 52.123C101.449 51.8939 101.512 51.6309 101.512 51.334C101.512 51.0007 101.454 50.7116 101.34 50.4668C101.23 50.222 101.053 50.0345 100.809 49.9043C100.564 49.7689 100.241 49.7012 99.8398 49.7012H97.582L97.5977 48.0918H100.41L100.949 48.7246C101.642 48.7142 102.199 48.8366 102.621 49.0918C103.048 49.3418 103.358 49.6673 103.551 50.0684C103.749 50.4694 103.848 50.8991 103.848 51.3574C103.848 52.0866 103.689 52.7012 103.371 53.2012C103.053 53.696 102.587 54.0684 101.973 54.3184C101.363 54.5684 100.618 54.6934 99.7383 54.6934ZM110.473 43.3184V54.6934H108.137V43.3184H110.473ZM113.973 43.3184V45.1543H104.691V43.3184H113.973ZM121.684 50.9199H124.02C123.973 51.6855 123.762 52.3652 123.387 52.959C123.017 53.5527 122.499 54.0163 121.832 54.3496C121.171 54.6829 120.374 54.8496 119.441 54.8496C118.712 54.8496 118.059 54.7246 117.48 54.4746C116.902 54.2194 116.408 53.8548 115.996 53.3809C115.59 52.9069 115.28 52.334 115.066 51.6621C114.853 50.9902 114.746 50.2376 114.746 49.4043V48.6152C114.746 47.7819 114.855 47.0293 115.074 46.3574C115.298 45.6803 115.616 45.1048 116.027 44.6309C116.444 44.1569 116.941 43.7923 117.52 43.5371C118.098 43.2819 118.743 43.1543 119.457 43.1543C120.405 43.1543 121.204 43.3262 121.855 43.6699C122.512 44.0137 123.02 44.4876 123.379 45.0918C123.743 45.696 123.962 46.3835 124.035 47.1543H121.691C121.665 46.696 121.574 46.3079 121.418 45.9902C121.262 45.6673 121.025 45.4251 120.707 45.2637C120.395 45.097 119.978 45.0137 119.457 45.0137C119.066 45.0137 118.725 45.0866 118.434 45.2324C118.142 45.3783 117.897 45.5996 117.699 45.8965C117.501 46.1934 117.353 46.5684 117.254 47.0215C117.16 47.4694 117.113 47.9954 117.113 48.5996V49.4043C117.113 49.9928 117.158 50.5111 117.246 50.959C117.335 51.4017 117.47 51.7767 117.652 52.084C117.84 52.3861 118.079 52.6152 118.371 52.7715C118.668 52.9225 119.025 52.998 119.441 52.998C119.931 52.998 120.335 52.9199 120.652 52.7637C120.97 52.6074 121.212 52.3757 121.379 52.0684C121.551 51.7611 121.652 51.3783 121.684 50.9199ZM130.277 43.3184L126.105 55.6699H124.434L128.605 43.3184H130.277ZM139.129 52.8652V54.6934H133.074V52.8652H139.129ZM133.84 43.3184V54.6934H131.496V43.3184H133.84ZM138.34 47.9512V49.7324H133.074V47.9512H138.34ZM139.121 43.3184V45.1543H133.074V43.3184H139.121ZM145.738 43.3184V54.6934H143.402V43.3184H145.738ZM149.238 43.3184V45.1543H139.957V43.3184H149.238ZM158.16 47.9512V49.7793H152.223V47.9512H158.16ZM152.918 43.3184V54.6934H150.574V43.3184H152.918ZM159.832 43.3184V54.6934H157.496V43.3184H159.832Z" fill="#190F3A" fill-opacity="0.5"/>
<path d="M102.973 26.2905V28.1187H97.0352V26.2905H102.973ZM97.7305 21.6577V33.0327H95.3867V21.6577H97.7305ZM104.645 21.6577V33.0327H102.309V21.6577H104.645ZM106.184 28.8921V28.728C106.184 28.1082 106.272 27.5379 106.449 27.0171C106.626 26.491 106.884 26.0353 107.223 25.6499C107.561 25.2645 107.978 24.965 108.473 24.7515C108.967 24.5327 109.535 24.4233 110.176 24.4233C110.816 24.4233 111.387 24.5327 111.887 24.7515C112.387 24.965 112.806 25.2645 113.145 25.6499C113.488 26.0353 113.749 26.491 113.926 27.0171C114.103 27.5379 114.191 28.1082 114.191 28.728V28.8921C114.191 29.5067 114.103 30.077 113.926 30.603C113.749 31.1239 113.488 31.5796 113.145 31.9702C112.806 32.3556 112.389 32.6551 111.895 32.8687C111.4 33.0822 110.832 33.189 110.191 33.189C109.551 33.189 108.98 33.0822 108.48 32.8687C107.986 32.6551 107.566 32.3556 107.223 31.9702C106.884 31.5796 106.626 31.1239 106.449 30.603C106.272 30.077 106.184 29.5067 106.184 28.8921ZM108.434 28.728V28.8921C108.434 29.2463 108.465 29.577 108.527 29.8843C108.59 30.1916 108.689 30.4624 108.824 30.6968C108.965 30.9259 109.147 31.1056 109.371 31.2358C109.595 31.366 109.868 31.4312 110.191 31.4312C110.504 31.4312 110.772 31.366 110.996 31.2358C111.22 31.1056 111.4 30.9259 111.535 30.6968C111.671 30.4624 111.77 30.1916 111.832 29.8843C111.9 29.577 111.934 29.2463 111.934 28.8921V28.728C111.934 28.3843 111.9 28.0614 111.832 27.7593C111.77 27.452 111.668 27.1812 111.527 26.9468C111.392 26.7072 111.212 26.5197 110.988 26.3843C110.764 26.2489 110.493 26.1812 110.176 26.1812C109.858 26.1812 109.587 26.2489 109.363 26.3843C109.145 26.5197 108.965 26.7072 108.824 26.9468C108.689 27.1812 108.59 27.452 108.527 27.7593C108.465 28.0614 108.434 28.3843 108.434 28.728ZM117.949 21.0327V33.0327H115.691V21.0327H117.949ZM124.801 31.189V21.0327H127.066V33.0327H125.027L124.801 31.189ZM119.457 28.9077V28.7437C119.457 28.0978 119.53 27.5119 119.676 26.9858C119.822 26.4546 120.035 25.9989 120.316 25.6187C120.598 25.2384 120.944 24.9442 121.355 24.7358C121.767 24.5275 122.236 24.4233 122.762 24.4233C123.257 24.4233 123.689 24.5275 124.059 24.7358C124.434 24.9442 124.751 25.241 125.012 25.6265C125.277 26.0067 125.491 26.4572 125.652 26.978C125.814 27.4937 125.931 28.0588 126.004 28.6733V29.0327C125.931 29.6213 125.814 30.1681 125.652 30.6733C125.491 31.1785 125.277 31.6213 125.012 32.0015C124.751 32.3765 124.434 32.6681 124.059 32.8765C123.684 33.0848 123.246 33.189 122.746 33.189C122.22 33.189 121.751 33.0822 121.34 32.8687C120.934 32.6551 120.59 32.3556 120.309 31.9702C120.033 31.5848 119.822 31.1317 119.676 30.6108C119.53 30.09 119.457 29.5223 119.457 28.9077ZM121.707 28.7437V28.9077C121.707 29.2567 121.733 29.5822 121.785 29.8843C121.842 30.1864 121.934 30.4546 122.059 30.689C122.189 30.9181 122.355 31.0978 122.559 31.228C122.767 31.353 123.02 31.4155 123.316 31.4155C123.702 31.4155 124.02 31.3296 124.27 31.1577C124.52 30.9806 124.71 30.7384 124.84 30.4312C124.975 30.1239 125.053 29.7697 125.074 29.3687V28.3452C125.059 28.0171 125.012 27.7228 124.934 27.4624C124.861 27.1968 124.751 26.9702 124.605 26.7827C124.465 26.5952 124.288 26.4494 124.074 26.3452C123.866 26.241 123.618 26.189 123.332 26.189C123.04 26.189 122.79 26.2567 122.582 26.3921C122.374 26.5223 122.204 26.702 122.074 26.9312C121.949 27.1603 121.855 27.4312 121.793 27.7437C121.736 28.0509 121.707 28.3843 121.707 28.7437Z" fill="#190F3A"/>
<circle cx="38.2228" cy="38.8632" r="35.16" fill="#FFD7E0"/>
<path d="M36.3479 29.8633C35.4538 29.8664 34.5972 30.223 33.9649 30.8553C33.3327 31.4875 32.9761 32.3441 32.9729 33.2383C32.9729 33.8383 33.1432 34.3955 33.4184 34.8793C32.0677 35.6698 31.0102 36.7918 30.4417 38.1133H30.3479C30.2984 38.1143 30.2492 38.1053 30.2032 38.0868C30.1572 38.0683 30.1155 38.0407 30.0805 38.0057C30.0454 37.9707 30.0178 37.9289 29.9994 37.883C29.9809 37.837 29.9719 37.7878 29.9729 37.7383C29.9729 37.6063 30.0404 37.5013 30.1372 37.4338L29.2694 36.215C29.0239 36.3861 28.8233 36.6139 28.6846 36.8791C28.546 37.1443 28.4733 37.439 28.4729 37.7383C28.4729 38.6608 29.1614 39.4168 30.0434 39.5668C30.0052 39.8293 29.9729 40.091 29.9729 40.3633C29.9729 42.2323 30.9659 43.8523 32.4104 45.0508C32.2289 45.8008 32.3197 46.6003 32.9024 47.1838C33.3326 47.6103 33.9139 47.8496 34.5198 47.8496C35.1256 47.8496 35.7069 47.6103 36.1372 47.1838L36.4184 46.9025C37.0042 47.0105 37.5929 47.1133 38.2229 47.1133C38.8529 47.1133 39.4417 47.0105 40.0274 46.9025L40.3087 47.1838C40.7389 47.6103 41.3202 47.8496 41.926 47.8496C42.5319 47.8496 43.1132 47.6103 43.5434 47.1838C44.1142 46.6123 44.1997 45.836 44.0354 45.0973C44.6369 44.6089 45.1519 44.0227 45.5587 43.3633H47.2229V37.3633H45.5122C45.2396 36.9214 44.917 36.5125 44.5507 36.1445L44.9729 33.824V32.8633H44.2229C44.2229 32.8633 42.4214 32.8933 40.8944 34.0355C40.4933 33.9204 40.0865 33.8263 39.6757 33.7535C39.7062 33.5865 39.7219 33.4148 39.7229 33.2383C39.7229 31.3835 38.2027 29.8633 36.3479 29.8633ZM36.3479 31.3633C37.3904 31.3633 38.2229 32.1958 38.2229 33.2383C38.2229 33.3673 38.1997 33.4903 38.1757 33.6133C36.9659 33.6193 35.8237 33.8533 34.7782 34.2463C34.5782 33.9482 34.4719 33.5972 34.4729 33.2383C34.4729 32.1958 35.3054 31.3633 36.3479 31.3633ZM43.2854 34.5043C43.2974 34.5013 43.2974 34.5065 43.3087 34.5043L43.0274 36.2143L42.9577 36.6133L43.2854 36.8945C43.7856 37.3288 44.1991 37.8538 44.5042 38.4418L44.7149 38.8633H45.7229V41.8633H44.7149L44.5042 42.2855C44.1382 43.0085 43.5607 43.6445 42.8167 44.183L42.2774 44.582L42.6059 45.1918C42.7844 45.4933 42.7522 45.8653 42.4882 46.1293C42.417 46.2035 42.3315 46.2626 42.2369 46.3029C42.1423 46.3433 42.0405 46.3641 41.9376 46.3641C41.8348 46.3641 41.733 46.3433 41.6384 46.3029C41.5438 46.2626 41.4583 46.2035 41.3872 46.1293L40.8479 45.5893L40.5434 45.3088L40.1444 45.4025C39.5354 45.5428 38.8882 45.6133 38.2229 45.6133C37.5763 45.6153 36.9315 45.5446 36.3007 45.4025L35.9032 45.3088L35.5979 45.59L35.0587 46.1285C34.9875 46.2029 34.9019 46.262 34.8073 46.3025C34.7126 46.3429 34.6107 46.3637 34.5078 46.3637C34.4048 46.3637 34.303 46.3429 34.2083 46.3025C34.1136 46.262 34.0281 46.2029 33.9569 46.1285C33.8335 46.009 33.7546 45.8509 33.7333 45.6804C33.712 45.5099 33.7496 45.3372 33.8399 45.191L34.1684 44.582L33.6292 44.1838C32.2724 43.1983 31.4729 41.8543 31.4729 40.3633C31.4729 37.5568 34.4054 35.1133 38.2229 35.1133C39.1454 35.1133 40.0244 35.2513 40.8247 35.5115L41.2229 35.6525L41.5514 35.3713C42.0869 34.8935 42.7492 34.6363 43.2854 34.5043ZM42.7229 38.8633C42.3104 38.8633 41.9729 39.2008 41.9729 39.6133C41.9729 40.0258 42.3104 40.3633 42.7229 40.3633C43.1354 40.3633 43.4729 40.0258 43.4729 39.6133C43.4729 39.2008 43.1354 38.8633 42.7229 38.8633Z" fill="black"/>
</svg>
