<svg width="261" height="77" viewBox="0 0 261 77" fill="none" xmlns="http://www.w3.org/2000/svg">
<rect x="0.165039" y="0.77002" width="260" height="76.186" rx="38.093" fill="white"/>
<path opacity="0.5" d="M96.4607 43.4883H98.4451L101.367 51.8398L104.289 43.4883H106.273L102.164 54.8633H100.57L96.4607 43.4883ZM95.3904 43.4883H97.3669L97.7263 51.6289V54.8633H95.3904V43.4883ZM105.367 43.4883H107.351V54.8633H105.008V51.6289L105.367 43.4883ZM113.828 52.957V49.1914C113.828 48.9206 113.784 48.6888 113.695 48.4961C113.607 48.2982 113.469 48.1445 113.281 48.0352C113.099 47.9258 112.862 47.8711 112.57 47.8711C112.32 47.8711 112.104 47.9154 111.922 48.0039C111.739 48.0872 111.599 48.2096 111.5 48.3711C111.401 48.5273 111.351 48.7122 111.351 48.9258H109.101C109.101 48.5664 109.185 48.2253 109.351 47.9023C109.518 47.5794 109.76 47.2956 110.078 47.0508C110.396 46.8008 110.773 46.6055 111.211 46.4648C111.653 46.3242 112.148 46.2539 112.695 46.2539C113.351 46.2539 113.935 46.3633 114.445 46.582C114.955 46.8008 115.357 47.1289 115.648 47.5664C115.945 48.0039 116.094 48.5508 116.094 49.207V52.8242C116.094 53.2878 116.122 53.668 116.179 53.9648C116.237 54.2565 116.32 54.5117 116.429 54.7305V54.8633H114.156C114.047 54.6341 113.963 54.3477 113.906 54.0039C113.854 53.6549 113.828 53.306 113.828 52.957ZM114.125 49.7148L114.14 50.9883H112.883C112.586 50.9883 112.328 51.0221 112.109 51.0898C111.89 51.1576 111.711 51.2539 111.57 51.3789C111.429 51.4987 111.325 51.6393 111.258 51.8008C111.195 51.9622 111.164 52.1393 111.164 52.332C111.164 52.5247 111.208 52.6992 111.297 52.8555C111.385 53.0065 111.513 53.1263 111.679 53.2148C111.846 53.2982 112.041 53.3398 112.265 53.3398C112.604 53.3398 112.898 53.2721 113.148 53.1367C113.398 53.0013 113.591 52.8346 113.726 52.6367C113.867 52.4388 113.94 52.2513 113.945 52.0742L114.539 53.0273C114.455 53.2409 114.341 53.4622 114.195 53.6914C114.054 53.9206 113.875 54.1367 113.656 54.3398C113.437 54.5378 113.174 54.7018 112.867 54.832C112.56 54.957 112.195 55.0195 111.773 55.0195C111.237 55.0195 110.75 54.9128 110.312 54.6992C109.88 54.4805 109.536 54.181 109.281 53.8008C109.031 53.4154 108.906 52.9779 108.906 52.4883C108.906 52.0456 108.989 51.6523 109.156 51.3086C109.323 50.9648 109.567 50.6758 109.89 50.4414C110.219 50.2018 110.627 50.0221 111.117 49.9023C111.607 49.7773 112.174 49.7148 112.82 49.7148H114.125ZM120.078 48.2539V54.8633H117.828V46.4102H119.945L120.078 48.2539ZM122.625 46.3555L122.586 48.4414C122.476 48.4258 122.344 48.4128 122.187 48.4023C122.036 48.3867 121.898 48.3789 121.773 48.3789C121.455 48.3789 121.179 48.4206 120.945 48.5039C120.716 48.582 120.523 48.6992 120.367 48.8555C120.216 49.0117 120.101 49.2018 120.023 49.4258C119.95 49.6497 119.909 49.9049 119.898 50.1914L119.445 50.0508C119.445 49.5039 119.5 49.0013 119.609 48.543C119.719 48.0794 119.877 47.6758 120.086 47.332C120.299 46.9883 120.56 46.7227 120.867 46.5352C121.174 46.3477 121.526 46.2539 121.922 46.2539C122.047 46.2539 122.174 46.2643 122.304 46.2852C122.435 46.3008 122.541 46.3242 122.625 46.3555ZM125.937 42.8555V54.8633H123.687V42.8555H125.937ZM131.265 46.4102L127.594 50.5977L125.625 52.5898L124.804 50.9648L126.367 48.9805L128.562 46.4102H131.265ZM128.929 54.8633L126.429 50.957L127.984 49.5977L131.523 54.8633H128.929ZM135.969 55.0195C135.312 55.0195 134.724 54.9154 134.203 54.707C133.682 54.4935 133.239 54.1992 132.875 53.8242C132.515 53.4492 132.239 53.0143 132.047 52.5195C131.854 52.0195 131.758 51.4883 131.758 50.9258V50.6133C131.758 49.9727 131.849 49.3867 132.031 48.8555C132.213 48.3242 132.474 47.8633 132.812 47.4727C133.156 47.082 133.573 46.7826 134.062 46.5742C134.552 46.3607 135.104 46.2539 135.719 46.2539C136.317 46.2539 136.849 46.3529 137.312 46.5508C137.776 46.7487 138.164 47.0299 138.476 47.3945C138.794 47.7591 139.034 48.1966 139.195 48.707C139.357 49.2122 139.437 49.7747 139.437 50.3945V51.332H132.719V49.832H137.226V49.6602C137.226 49.3477 137.169 49.069 137.054 48.8242C136.945 48.5742 136.778 48.3763 136.554 48.2305C136.33 48.0846 136.044 48.0117 135.695 48.0117C135.398 48.0117 135.143 48.0768 134.929 48.207C134.716 48.3372 134.541 48.5195 134.406 48.7539C134.276 48.9883 134.177 49.2643 134.109 49.582C134.047 49.8945 134.015 50.2383 134.015 50.6133V50.9258C134.015 51.2643 134.062 51.5768 134.156 51.8633C134.255 52.1497 134.393 52.3971 134.57 52.6055C134.752 52.8138 134.971 52.9753 135.226 53.0898C135.487 53.2044 135.781 53.2617 136.109 53.2617C136.515 53.2617 136.893 53.1836 137.242 53.0273C137.596 52.8659 137.901 52.6237 138.156 52.3008L139.25 53.4883C139.073 53.7435 138.83 53.9883 138.523 54.2227C138.221 54.457 137.857 54.6497 137.429 54.8008C137.002 54.9466 136.515 55.0195 135.969 55.0195ZM144.859 46.4102V48.0039H139.937V46.4102H144.859ZM141.156 44.3242H143.406V52.3164C143.406 52.5612 143.437 52.7487 143.5 52.8789C143.567 53.0091 143.666 53.1003 143.797 53.1523C143.927 53.1992 144.091 53.2227 144.289 53.2227C144.429 53.2227 144.554 53.2174 144.664 53.207C144.778 53.1914 144.875 53.1758 144.953 53.1602L144.961 54.8164C144.768 54.8789 144.56 54.9284 144.336 54.9648C144.112 55.0013 143.864 55.0195 143.594 55.0195C143.099 55.0195 142.666 54.9388 142.297 54.7773C141.932 54.6107 141.651 54.3451 141.453 53.9805C141.255 53.6159 141.156 53.1367 141.156 52.543V44.3242ZM150.711 52.5273C150.711 52.3659 150.664 52.2201 150.57 52.0898C150.476 51.9596 150.302 51.8398 150.047 51.7305C149.797 51.6159 149.435 51.5117 148.961 51.418C148.534 51.3242 148.135 51.207 147.765 51.0664C147.401 50.9206 147.083 50.7461 146.812 50.543C146.547 50.3398 146.338 50.1003 146.187 49.8242C146.036 49.543 145.961 49.2227 145.961 48.8633C145.961 48.5091 146.036 48.1758 146.187 47.8633C146.344 47.5508 146.565 47.2747 146.851 47.0352C147.143 46.7904 147.497 46.6003 147.914 46.4648C148.336 46.3242 148.81 46.2539 149.336 46.2539C150.07 46.2539 150.7 46.3711 151.226 46.6055C151.758 46.8398 152.164 47.1628 152.445 47.5742C152.732 47.9805 152.875 48.444 152.875 48.9648H150.625C150.625 48.7461 150.578 48.5508 150.484 48.3789C150.396 48.2018 150.255 48.0638 150.062 47.9648C149.875 47.8607 149.63 47.8086 149.328 47.8086C149.078 47.8086 148.862 47.8529 148.679 47.9414C148.497 48.0247 148.357 48.1393 148.258 48.2852C148.164 48.4258 148.117 48.582 148.117 48.7539C148.117 48.8841 148.143 49.0013 148.195 49.1055C148.252 49.2044 148.344 49.2956 148.469 49.3789C148.594 49.4622 148.755 49.5404 148.953 49.6133C149.156 49.681 149.406 49.7435 149.703 49.8008C150.312 49.9258 150.857 50.0898 151.336 50.293C151.815 50.4909 152.195 50.7617 152.476 51.1055C152.758 51.444 152.898 51.8893 152.898 52.4414C152.898 52.8164 152.815 53.1602 152.648 53.4727C152.482 53.7852 152.242 54.0586 151.929 54.293C151.617 54.5221 151.242 54.7018 150.804 54.832C150.372 54.957 149.885 55.0195 149.344 55.0195C148.557 55.0195 147.89 54.8789 147.344 54.5977C146.802 54.3164 146.39 53.9596 146.109 53.5273C145.833 53.0898 145.695 52.6419 145.695 52.1836H147.828C147.838 52.4909 147.916 52.7383 148.062 52.9258C148.213 53.1133 148.403 53.2487 148.633 53.332C148.867 53.4154 149.12 53.457 149.39 53.457C149.682 53.457 149.924 53.418 150.117 53.3398C150.31 53.2565 150.455 53.1471 150.554 53.0117C150.659 52.8711 150.711 52.7096 150.711 52.5273ZM159.219 43.4883L155.047 55.8398H153.375L157.547 43.4883H159.219ZM165.062 45.4336L161.969 54.8633H159.476L163.703 43.4883H165.289L165.062 45.4336ZM167.633 54.8633L164.531 45.4336L164.281 43.4883H165.883L170.133 54.8633H167.633ZM167.492 50.6289V52.4648H161.484V50.6289H167.492ZM174.539 53.2617C174.815 53.2617 175.06 53.2096 175.273 53.1055C175.487 52.9961 175.653 52.8451 175.773 52.6523C175.898 52.4544 175.963 52.2227 175.969 51.957H178.086C178.08 52.5508 177.922 53.0794 177.609 53.543C177.297 54.0013 176.877 54.3633 176.351 54.6289C175.825 54.8893 175.237 55.0195 174.586 55.0195C173.929 55.0195 173.357 54.9102 172.867 54.6914C172.383 54.4727 171.979 54.1706 171.656 53.7852C171.333 53.3945 171.091 52.9414 170.929 52.4258C170.768 51.9049 170.687 51.3477 170.687 50.7539V50.5273C170.687 49.9284 170.768 49.3711 170.929 48.8555C171.091 48.3346 171.333 47.8815 171.656 47.4961C171.979 47.1055 172.383 46.8008 172.867 46.582C173.351 46.3633 173.919 46.2539 174.57 46.2539C175.263 46.2539 175.87 46.3867 176.39 46.6523C176.916 46.918 177.328 47.2982 177.625 47.793C177.927 48.2826 178.08 48.8633 178.086 49.5352H175.969C175.963 49.2539 175.903 48.9987 175.789 48.7695C175.679 48.5404 175.518 48.3581 175.304 48.2227C175.096 48.082 174.838 48.0117 174.531 48.0117C174.203 48.0117 173.935 48.082 173.726 48.2227C173.518 48.3581 173.357 48.5456 173.242 48.7852C173.127 49.0195 173.047 49.2878 173 49.5898C172.958 49.8867 172.937 50.1992 172.937 50.5273V50.7539C172.937 51.082 172.958 51.3971 173 51.6992C173.041 52.0013 173.12 52.2695 173.234 52.5039C173.354 52.7383 173.518 52.9232 173.726 53.0586C173.935 53.194 174.205 53.2617 174.539 53.2617ZM182.883 53.2617C183.159 53.2617 183.403 53.2096 183.617 53.1055C183.83 52.9961 183.997 52.8451 184.117 52.6523C184.242 52.4544 184.307 52.2227 184.312 51.957H186.429C186.424 52.5508 186.265 53.0794 185.953 53.543C185.64 54.0013 185.221 54.3633 184.695 54.6289C184.169 54.8893 183.58 55.0195 182.929 55.0195C182.273 55.0195 181.7 54.9102 181.211 54.6914C180.726 54.4727 180.323 54.1706 180 53.7852C179.677 53.3945 179.435 52.9414 179.273 52.4258C179.112 51.9049 179.031 51.3477 179.031 50.7539V50.5273C179.031 49.9284 179.112 49.3711 179.273 48.8555C179.435 48.3346 179.677 47.8815 180 47.4961C180.323 47.1055 180.726 46.8008 181.211 46.582C181.695 46.3633 182.263 46.2539 182.914 46.2539C183.607 46.2539 184.213 46.3867 184.734 46.6523C185.26 46.918 185.672 47.2982 185.969 47.793C186.271 48.2826 186.424 48.8633 186.429 49.5352H184.312C184.307 49.2539 184.247 48.9987 184.133 48.7695C184.023 48.5404 183.862 48.3581 183.648 48.2227C183.44 48.082 183.182 48.0117 182.875 48.0117C182.547 48.0117 182.278 48.082 182.07 48.2227C181.862 48.3581 181.7 48.5456 181.586 48.7852C181.471 49.0195 181.39 49.2878 181.344 49.5898C181.302 49.8867 181.281 50.1992 181.281 50.5273V50.7539C181.281 51.082 181.302 51.3971 181.344 51.6992C181.385 52.0013 181.463 52.2695 181.578 52.5039C181.698 52.7383 181.862 52.9232 182.07 53.0586C182.278 53.194 182.549 53.2617 182.883 53.2617ZM187.375 50.7227V50.5586C187.375 49.9388 187.463 49.3685 187.64 48.8477C187.817 48.3216 188.075 47.8659 188.414 47.4805C188.752 47.0951 189.169 46.7956 189.664 46.582C190.159 46.3633 190.726 46.2539 191.367 46.2539C192.008 46.2539 192.578 46.3633 193.078 46.582C193.578 46.7956 193.997 47.0951 194.336 47.4805C194.679 47.8659 194.94 48.3216 195.117 48.8477C195.294 49.3685 195.383 49.9388 195.383 50.5586V50.7227C195.383 51.3372 195.294 51.9076 195.117 52.4336C194.94 52.9544 194.679 53.4102 194.336 53.8008C193.997 54.1862 193.58 54.4857 193.086 54.6992C192.591 54.9128 192.023 55.0195 191.383 55.0195C190.742 55.0195 190.172 54.9128 189.672 54.6992C189.177 54.4857 188.758 54.1862 188.414 53.8008C188.075 53.4102 187.817 52.9544 187.64 52.4336C187.463 51.9076 187.375 51.3372 187.375 50.7227ZM189.625 50.5586V50.7227C189.625 51.0768 189.656 51.4076 189.719 51.7148C189.781 52.0221 189.88 52.293 190.015 52.5273C190.156 52.7565 190.338 52.9362 190.562 53.0664C190.786 53.1966 191.06 53.2617 191.383 53.2617C191.695 53.2617 191.963 53.1966 192.187 53.0664C192.411 52.9362 192.591 52.7565 192.726 52.5273C192.862 52.293 192.961 52.0221 193.023 51.7148C193.091 51.4076 193.125 51.0768 193.125 50.7227V50.5586C193.125 50.2148 193.091 49.8919 193.023 49.5898C192.961 49.2826 192.859 49.0117 192.718 48.7773C192.583 48.5378 192.403 48.3503 192.179 48.2148C191.955 48.0794 191.685 48.0117 191.367 48.0117C191.049 48.0117 190.778 48.0794 190.554 48.2148C190.336 48.3503 190.156 48.5378 190.015 48.7773C189.88 49.0117 189.781 49.2826 189.719 49.5898C189.656 49.8919 189.625 50.2148 189.625 50.5586ZM201.765 52.8398V46.4102H204.015V54.8633H201.898L201.765 52.8398ZM202.015 51.1055L202.679 51.0898C202.679 51.6523 202.614 52.1758 202.484 52.6602C202.354 53.1393 202.159 53.556 201.898 53.9102C201.638 54.2591 201.31 54.5326 200.914 54.7305C200.518 54.9232 200.052 55.0195 199.515 55.0195C199.104 55.0195 198.724 54.9622 198.375 54.8477C198.031 54.7279 197.734 54.543 197.484 54.293C197.239 54.0378 197.047 53.7122 196.906 53.3164C196.771 52.9154 196.703 52.4336 196.703 51.8711V46.4102H198.953V51.8867C198.953 52.1367 198.982 52.3477 199.039 52.5195C199.101 52.6914 199.187 52.832 199.297 52.9414C199.406 53.0508 199.534 53.1289 199.679 53.1758C199.83 53.2227 199.997 53.2461 200.179 53.2461C200.643 53.2461 201.008 53.1523 201.273 52.9648C201.544 52.7773 201.734 52.5221 201.843 52.1992C201.958 51.8711 202.015 51.5065 202.015 51.1055ZM207.937 48.2148V54.8633H205.687V46.4102H207.797L207.937 48.2148ZM207.609 50.3398H207C207 49.7148 207.08 49.1523 207.242 48.6523C207.403 48.1471 207.63 47.7174 207.922 47.3633C208.213 47.0039 208.56 46.7305 208.961 46.543C209.367 46.3503 209.82 46.2539 210.32 46.2539C210.716 46.2539 211.078 46.3112 211.406 46.4258C211.734 46.5404 212.015 46.7227 212.25 46.9727C212.489 47.2227 212.672 47.5534 212.797 47.9648C212.927 48.3763 212.992 48.8789 212.992 49.4727V54.8633H210.726V49.4648C210.726 49.0898 210.674 48.7982 210.57 48.5898C210.466 48.3815 210.312 48.2357 210.109 48.1523C209.911 48.0638 209.666 48.0195 209.375 48.0195C209.073 48.0195 208.81 48.0794 208.586 48.1992C208.367 48.319 208.185 48.4857 208.039 48.6992C207.898 48.9076 207.791 49.1523 207.718 49.4336C207.646 49.7148 207.609 50.0169 207.609 50.3398ZM218.843 46.4102V48.0039H213.922V46.4102H218.843ZM215.14 44.3242H217.39V52.3164C217.39 52.5612 217.422 52.7487 217.484 52.8789C217.552 53.0091 217.651 53.1003 217.781 53.1523C217.911 53.1992 218.075 53.2227 218.273 53.2227C218.414 53.2227 218.539 53.2174 218.648 53.207C218.763 53.1914 218.859 53.1758 218.937 53.1602L218.945 54.8164C218.752 54.8789 218.544 54.9284 218.32 54.9648C218.096 55.0013 217.849 55.0195 217.578 55.0195C217.083 55.0195 216.651 54.9388 216.281 54.7773C215.916 54.6107 215.635 54.3451 215.437 53.9805C215.239 53.6159 215.14 53.1367 215.14 52.543V44.3242Z" fill="#190F3A"/>
<path d="M97.8826 21.4883V32.8633H95.5466V21.4883H97.8826ZM102.14 26.2148V32.8633H99.8904V24.4102H102L102.14 26.2148ZM101.812 28.3398H101.203C101.203 27.7148 101.284 27.1523 101.445 26.6523C101.607 26.1471 101.833 25.7174 102.125 25.3633C102.416 25.0039 102.763 24.7305 103.164 24.543C103.57 24.3503 104.023 24.2539 104.523 24.2539C104.919 24.2539 105.281 24.3112 105.609 24.4258C105.937 24.5404 106.219 24.7227 106.453 24.9727C106.692 25.2227 106.875 25.5534 107 25.9648C107.13 26.3763 107.195 26.8789 107.195 27.4727V32.8633H104.929V27.4648C104.929 27.0898 104.877 26.7982 104.773 26.5898C104.669 26.3815 104.515 26.2357 104.312 26.1523C104.114 26.0638 103.87 26.0195 103.578 26.0195C103.276 26.0195 103.013 26.0794 102.789 26.1992C102.57 26.319 102.388 26.4857 102.242 26.6992C102.101 26.9076 101.995 27.1523 101.922 27.4336C101.849 27.7148 101.812 28.0169 101.812 28.3398ZM111.781 31.2227L113.656 24.4102H116.008L113.156 32.8633H111.734L111.781 31.2227ZM110.492 24.4102L112.375 31.2305L112.414 32.8633H110.984L108.133 24.4102H110.492ZM120.797 33.0195C120.14 33.0195 119.552 32.9154 119.031 32.707C118.51 32.4935 118.067 32.1992 117.703 31.8242C117.344 31.4492 117.067 31.0143 116.875 30.5195C116.682 30.0195 116.586 29.4883 116.586 28.9258V28.6133C116.586 27.9727 116.677 27.3867 116.859 26.8555C117.041 26.3242 117.302 25.8633 117.64 25.4727C117.984 25.082 118.401 24.7826 118.89 24.5742C119.38 24.3607 119.932 24.2539 120.547 24.2539C121.146 24.2539 121.677 24.3529 122.14 24.5508C122.604 24.7487 122.992 25.0299 123.304 25.3945C123.622 25.7591 123.862 26.1966 124.023 26.707C124.185 27.2122 124.265 27.7747 124.265 28.3945V29.332H117.547V27.832H122.054V27.6602C122.054 27.3477 121.997 27.069 121.883 26.8242C121.773 26.5742 121.607 26.3763 121.383 26.2305C121.159 26.0846 120.872 26.0117 120.523 26.0117C120.226 26.0117 119.971 26.0768 119.758 26.207C119.544 26.3372 119.37 26.5195 119.234 26.7539C119.104 26.9883 119.005 27.2643 118.937 27.582C118.875 27.8945 118.844 28.2383 118.844 28.6133V28.9258C118.844 29.2643 118.89 29.5768 118.984 29.8633C119.083 30.1497 119.221 30.3971 119.398 30.6055C119.58 30.8138 119.799 30.9753 120.054 31.0898C120.315 31.2044 120.609 31.2617 120.937 31.2617C121.344 31.2617 121.721 31.1836 122.07 31.0273C122.424 30.8659 122.729 30.6237 122.984 30.3008L124.078 31.4883C123.901 31.7435 123.659 31.9883 123.351 32.2227C123.049 32.457 122.685 32.6497 122.258 32.8008C121.83 32.9466 121.344 33.0195 120.797 33.0195ZM130.117 30.5273C130.117 30.3659 130.07 30.2201 129.976 30.0898C129.883 29.9596 129.708 29.8398 129.453 29.7305C129.203 29.6159 128.841 29.5117 128.367 29.418C127.94 29.3242 127.541 29.207 127.172 29.0664C126.807 28.9206 126.489 28.7461 126.219 28.543C125.953 28.3398 125.745 28.1003 125.594 27.8242C125.442 27.543 125.367 27.2227 125.367 26.8633C125.367 26.5091 125.442 26.1758 125.594 25.8633C125.75 25.5508 125.971 25.2747 126.258 25.0352C126.549 24.7904 126.903 24.6003 127.32 24.4648C127.742 24.3242 128.216 24.2539 128.742 24.2539C129.476 24.2539 130.107 24.3711 130.633 24.6055C131.164 24.8398 131.57 25.1628 131.851 25.5742C132.138 25.9805 132.281 26.444 132.281 26.9648H130.031C130.031 26.7461 129.984 26.5508 129.89 26.3789C129.802 26.2018 129.661 26.0638 129.469 25.9648C129.281 25.8607 129.036 25.8086 128.734 25.8086C128.484 25.8086 128.268 25.8529 128.086 25.9414C127.903 26.0247 127.763 26.1393 127.664 26.2852C127.57 26.4258 127.523 26.582 127.523 26.7539C127.523 26.8841 127.549 27.0013 127.601 27.1055C127.659 27.2044 127.75 27.2956 127.875 27.3789C128 27.4622 128.161 27.5404 128.359 27.6133C128.562 27.681 128.812 27.7435 129.109 27.8008C129.719 27.9258 130.263 28.0898 130.742 28.293C131.221 28.4909 131.601 28.7617 131.883 29.1055C132.164 29.444 132.304 29.8893 132.304 30.4414C132.304 30.8164 132.221 31.1602 132.054 31.4727C131.888 31.7852 131.648 32.0586 131.336 32.293C131.023 32.5221 130.648 32.7018 130.211 32.832C129.778 32.957 129.291 33.0195 128.75 33.0195C127.963 33.0195 127.297 32.8789 126.75 32.5977C126.208 32.3164 125.797 31.9596 125.515 31.5273C125.239 31.0898 125.101 30.6419 125.101 30.1836H127.234C127.245 30.4909 127.323 30.7383 127.469 30.9258C127.62 31.1133 127.81 31.2487 128.039 31.332C128.273 31.4154 128.526 31.457 128.797 31.457C129.088 31.457 129.33 31.418 129.523 31.3398C129.716 31.2565 129.862 31.1471 129.961 31.0117C130.065 30.8711 130.117 30.7096 130.117 30.5273ZM137.906 24.4102V26.0039H132.984V24.4102H137.906ZM134.203 22.3242H136.453V30.3164C136.453 30.5612 136.484 30.7487 136.547 30.8789C136.614 31.0091 136.713 31.1003 136.844 31.1523C136.974 31.1992 137.138 31.2227 137.336 31.2227C137.476 31.2227 137.601 31.2174 137.711 31.207C137.825 31.1914 137.922 31.1758 138 31.1602L138.008 32.8164C137.815 32.8789 137.607 32.9284 137.383 32.9648C137.159 33.0013 136.911 33.0195 136.64 33.0195C136.146 33.0195 135.713 32.9388 135.344 32.7773C134.979 32.6107 134.698 32.3451 134.5 31.9805C134.302 31.6159 134.203 31.1367 134.203 30.543V22.3242Z" fill="#190F3A"/>
<circle cx="38.2228" cy="38.8632" r="35.16" fill="#FFD7E0"/>
<path d="M29.2227 36.8633H33.2227V43.8633H29.2227V36.8633ZM36.2227 33.8633H40.2227V46.8633H36.2227V33.8633Z" stroke="black" stroke-width="1.7" stroke-linejoin="round"/>
<path d="M38.2227 48.8633V46.8633" stroke="black" stroke-width="1.7" stroke-linecap="round" stroke-linejoin="round"/>
<path d="M43.2227 32.8633H47.2227V37.3633H43.2227V32.8633Z" stroke="black" stroke-width="1.7" stroke-linejoin="round"/>
<path d="M31.2227 36.8633V31.8633M45.2227 43.8633V37.3633M45.2227 32.8633V28.8633" stroke="black" stroke-width="1.7" stroke-linecap="round" stroke-linejoin="round"/>
</svg>
