<svg width="1130" height="224" viewBox="0 0 1130 224" fill="none" xmlns="http://www.w3.org/2000/svg">
<path d="M0.935608 211.994L58.047 171.2C63.4608 167.333 71.0422 169.128 74.1477 175.012V175.012C78.1985 182.687 89.131 182.855 93.4162 175.308L109.924 146.235C121.531 125.792 151.279 126.661 161.673 147.747L187.19 199.51C190.048 205.307 197.972 206.149 201.984 201.081L204.214 198.264C206.48 195.402 210.79 195.306 213.181 198.065V198.065C215.928 201.235 221.024 200.549 222.834 196.765L254.222 131.187C257.618 124.092 267.978 124.931 270.187 132.481V132.481C271.827 138.084 278.465 140.446 283.276 137.139L300.747 125.127C306.809 120.959 315.138 122.848 318.808 129.224V129.224C323.011 136.524 333.055 137.725 338.86 131.621L342.771 127.51C350.582 119.298 364.112 120.993 369.658 130.877L376.856 143.709C376.908 143.803 376.931 143.843 376.984 143.935C378.673 146.841 422.985 222.416 462.378 222.416C502.543 222.416 552.41 1.62172 652.379 1.62183C752.348 1.62194 672.13 176.296 838.541 176.296C1004.95 176.296 1128.26 1.62183 1128.26 1.62183" stroke="url(#paint0_linear_8721_318)" stroke-width="2.23195"/>
<defs>
<linearGradient id="paint0_linear_8721_318" x1="1136.01" y1="-8.55331" x2="-55.9558" y2="256.029" gradientUnits="userSpaceOnUse">
<stop stop-color="#348B78" stop-opacity="0"/>
<stop offset="0.455" stop-color="white"/>
<stop offset="0.895" stop-color="#348B78" stop-opacity="0"/>
</linearGradient>
</defs>
</svg>
