<svg width="1130" height="224" viewBox="0 0 1130 224" fill="none" xmlns="http://www.w3.org/2000/svg">
<path d="M1.00452 212.277L58.1159 171.483C63.5297 167.616 71.1111 169.41 74.2166 175.294V175.294C78.2674 182.97 89.1999 183.138 93.4851 175.591L109.993 146.517C121.6 126.074 151.348 126.943 161.742 148.029L187.259 199.793C190.117 205.59 198.041 206.432 202.052 201.364L204.283 198.547C206.548 195.685 210.859 195.589 213.25 198.348V198.348C215.997 201.517 221.093 200.831 222.903 197.048L254.291 131.47C257.687 124.374 268.047 125.214 270.256 132.763V132.763C271.896 138.366 278.534 140.729 283.345 137.421L300.816 125.409C306.878 121.242 315.206 123.131 318.877 129.506V129.506C323.08 136.806 333.124 138.007 338.929 131.904L342.84 127.793C350.651 119.581 364.181 121.275 369.727 131.16L376.925 143.992C376.977 144.085 377 144.125 377.053 144.218C378.742 147.123 423.054 222.699 462.447 222.699C502.612 222.699 552.479 1.90419 652.448 1.9043C752.417 1.90441 672.199 176.578 838.61 176.578C1005.02 176.578 1128.33 1.9043 1128.33 1.9043" stroke="url(#paint0_linear_8697_1403)" stroke-width="2.23195"/>
<defs>
<linearGradient id="paint0_linear_8697_1403" x1="1136.08" y1="-8.27084" x2="-55.887" y2="256.311" gradientUnits="userSpaceOnUse">
<stop offset="0.040358" stop-color="white" stop-opacity="0"/>
<stop offset="0.455" stop-color="white"/>
<stop offset="0.88034" stop-color="white" stop-opacity="0"/>
</linearGradient>
</defs>
</svg>
