<svg width="60" height="61" viewBox="0 0 60 61" fill="none" xmlns="http://www.w3.org/2000/svg">
<g clip-path="url(#clip0_8715_263)">
<circle cx="30" cy="30.7764" r="30" fill="white"/>
<path d="M32.6812 25.0967C33.0166 25.1375 33.3256 25.2993 33.5503 25.5518C33.7749 25.8042 33.8997 26.13 33.9013 26.4679V41.5461C33.9053 41.7281 33.8705 41.9088 33.7991 42.0762C33.7277 42.2437 33.6214 42.3939 33.4873 42.5169C33.2733 42.7397 32.9885 42.8811 32.6817 42.9168V45.5022C32.6817 45.5505 32.6625 45.5969 32.6285 45.6311C32.5944 45.6654 32.5481 45.6847 32.4998 45.685C32.4513 45.685 32.4046 45.6658 32.3702 45.6315C32.3358 45.5973 32.3163 45.5508 32.316 45.5022V42.9168C32.0095 42.8806 31.725 42.7393 31.5109 42.5169C31.3769 42.3939 31.2708 42.2436 31.1995 42.0762C31.1283 41.9087 31.0936 41.728 31.0979 41.5461V26.4679C31.0984 26.13 31.2227 25.804 31.4471 25.5514C31.6715 25.2988 31.9806 25.1371 32.316 25.0967V20.4113C32.3163 20.3628 32.3358 20.3164 32.3702 20.2822C32.4047 20.248 32.4513 20.2289 32.4998 20.229C32.5481 20.2291 32.5944 20.2484 32.6284 20.2826C32.6625 20.3168 32.6817 20.3631 32.6817 20.4113L32.6812 25.0967Z" fill="#232323"/>
<path d="M32.6812 25.0967C33.0166 25.1375 33.3256 25.2993 33.5503 25.5518C33.7749 25.8042 33.8997 26.13 33.9013 26.4679V41.5461C33.9053 41.7281 33.8705 41.9088 33.7991 42.0762C33.7277 42.2437 33.6214 42.3939 33.4873 42.5169C33.2733 42.7397 32.9885 42.8811 32.6817 42.9168V45.5022C32.6817 45.5505 32.6625 45.5969 32.6285 45.6311C32.5944 45.6654 32.5481 45.6847 32.4998 45.685C32.4513 45.685 32.4046 45.6658 32.3702 45.6315C32.3358 45.5973 32.3163 45.5508 32.316 45.5022V42.9168C32.0095 42.8806 31.725 42.7393 31.5109 42.5169C31.3769 42.3939 31.2708 42.2436 31.1995 42.0762C31.1283 41.9087 31.0936 41.728 31.0979 41.5461V26.4679C31.0984 26.13 31.2227 25.804 31.4471 25.5514C31.6715 25.2988 31.9806 25.1371 32.316 25.0967V20.4113C32.3163 20.3628 32.3358 20.3164 32.3702 20.2822C32.4047 20.248 32.4513 20.2289 32.4998 20.229C32.5481 20.2291 32.5944 20.2484 32.6284 20.2826C32.6625 20.3168 32.6817 20.3631 32.6817 20.4113L32.6812 25.0967Z" fill="url(#paint0_linear_8715_263)"/>
<path d="M27.682 20.7359C28.0169 20.7777 28.3251 20.9399 28.5493 21.1921C28.7735 21.4444 28.8984 21.7695 28.9006 22.107V37.1853C28.9047 37.3671 28.8699 37.5477 28.7985 37.715C28.7271 37.8822 28.6208 38.0323 28.4866 38.1551C28.2733 38.3784 27.9887 38.5202 27.682 38.556V42.2906C27.6814 42.3264 27.6703 42.3612 27.6502 42.3908C27.63 42.4204 27.6017 42.4434 27.5686 42.4571C27.5355 42.4708 27.4992 42.4746 27.464 42.4679C27.4288 42.4613 27.3964 42.4445 27.3706 42.4196C27.3364 42.3856 27.3171 42.3393 27.3169 42.2911V38.556C27.0101 38.5199 26.7254 38.3782 26.5118 38.1551C26.3779 38.0322 26.2719 37.8822 26.2006 37.715C26.1294 37.5479 26.0946 37.3674 26.0987 37.1858V22.1075C26.0998 21.7698 26.2241 21.4441 26.4483 21.1915C26.6725 20.939 26.9812 20.777 27.3164 20.7359V16.051C27.3164 16.0025 27.3356 15.956 27.3699 15.9217C27.4042 15.8874 27.4507 15.8682 27.4992 15.8682C27.5476 15.8685 27.5938 15.8879 27.628 15.9221C27.6622 15.9563 27.6816 16.0026 27.682 16.051V20.7359Z" fill="#232323"/>
<path d="M27.682 20.7359C28.0169 20.7777 28.3251 20.9399 28.5493 21.1921C28.7735 21.4444 28.8984 21.7695 28.9006 22.107V37.1853C28.9047 37.3671 28.8699 37.5477 28.7985 37.715C28.7271 37.8822 28.6208 38.0323 28.4866 38.1551C28.2733 38.3784 27.9887 38.5202 27.682 38.556V42.2906C27.6814 42.3264 27.6703 42.3612 27.6502 42.3908C27.63 42.4204 27.6017 42.4434 27.5686 42.4571C27.5355 42.4708 27.4992 42.4746 27.464 42.4679C27.4288 42.4613 27.3964 42.4445 27.3706 42.4196C27.3364 42.3856 27.3171 42.3393 27.3169 42.2911V38.556C27.0101 38.5199 26.7254 38.3782 26.5118 38.1551C26.3779 38.0322 26.2719 37.8822 26.2006 37.715C26.1294 37.5479 26.0946 37.3674 26.0987 37.1858V22.1075C26.0998 21.7698 26.2241 21.4441 26.4483 21.1915C26.6725 20.939 26.9812 20.777 27.3164 20.7359V16.051C27.3164 16.0025 27.3356 15.956 27.3699 15.9217C27.4042 15.8874 27.4507 15.8682 27.4992 15.8682C27.5476 15.8685 27.5938 15.8879 27.628 15.9221C27.6622 15.9563 27.6816 16.0026 27.682 16.051V20.7359Z" fill="url(#paint1_linear_8715_263)"/>
</g>
<defs>
<linearGradient id="paint0_linear_8715_263" x1="31.0975" y1="32.957" x2="33.9016" y2="32.957" gradientUnits="userSpaceOnUse">
<stop stop-color="#B19FFC"/>
<stop offset="1" stop-color="#7963DC"/>
</linearGradient>
<linearGradient id="paint1_linear_8715_263" x1="26.0984" y1="29.1697" x2="28.901" y2="29.1697" gradientUnits="userSpaceOnUse">
<stop stop-color="#B19FFC"/>
<stop offset="1" stop-color="#7963DC"/>
</linearGradient>
<clipPath id="clip0_8715_263">
<rect width="60" height="60" fill="white" transform="translate(0 0.776367)"/>
</clipPath>
</defs>
</svg>
