<svg width="216" height="71" viewBox="0 0 216 71" fill="none" xmlns="http://www.w3.org/2000/svg">
<rect x="0.163696" y="0.626953" width="215.756" height="70" rx="35" fill="white"/>
<rect x="10.1637" y="12.0469" width="47.1684" height="47.1684" rx="23.5842" fill="url(#paint0_linear_9156_369)"/>
<path d="M31.3944 33.8594L33.7517 33.859" stroke="#190F3A" stroke-width="0.884006" stroke-linecap="round"/>
<path d="M28.3808 37.4847L28.8098 37.3781L28.3808 37.4847ZM28.3802 33.7705L28.8092 33.8769L28.3802 33.7705ZM39.1231 33.7686L39.552 33.662L39.1231 33.7686ZM39.1237 37.4828L38.6947 37.3763L39.1237 37.4828ZM35.5889 40.7292L35.4932 40.2977L35.5889 40.7292ZM31.9168 40.7299L32.0123 40.2983L31.9168 40.7299ZM31.915 30.5241L32.0107 30.9556L32.0107 30.9556L31.915 30.5241ZM35.5871 30.5234L35.6827 30.0919L35.6827 30.0919L35.5871 30.5234ZM31.6493 40.6707L31.5538 41.1022L31.6493 40.6707ZM35.8564 40.6699L35.9521 41.1014L35.9521 41.1014L35.8564 40.6699ZM35.8546 30.5826L35.7591 31.0142L35.7591 31.0142L35.8546 30.5826ZM31.6475 30.5834L31.5518 30.1519L31.5518 30.1519L31.6475 30.5834ZM37.6968 37.1014L37.6175 37.5362L37.6175 37.5362L37.6968 37.1014ZM37.6622 37.0951L37.7414 36.6603L37.7414 36.6603L37.6622 37.0951ZM37.6617 34.1568L37.7411 34.5916L37.7411 34.5916L37.6617 34.1568ZM37.6962 34.1505L37.6169 33.7157L37.6169 33.7157L37.6962 34.1505ZM39.0557 34.7342C39.2794 34.832 39.54 34.73 39.6378 34.5063C39.7356 34.2827 39.6335 34.0221 39.4098 33.9243L39.0557 34.7342ZM39.4105 37.327C39.6341 37.2291 39.736 36.9685 39.6382 36.7449C39.5403 36.5212 39.2797 36.4193 39.056 36.5172L39.4105 37.327ZM36.45 35.9964L36.0251 36.1179L36.0251 36.1179L36.45 35.9964ZM36.4499 35.2559L36.8749 35.3773L36.4499 35.2559ZM31.7432 31.0149L32.0107 30.9556L31.8193 30.0925L31.5518 30.1519L31.7432 31.0149ZM35.4916 30.955L35.7591 31.0142L35.9502 30.1511L35.6827 30.0919L35.4916 30.955ZM35.7607 40.2384L35.4932 40.2977L35.6846 41.1607L35.9521 41.1014L35.7607 40.2384ZM32.0123 40.2983L31.7448 40.2391L31.5538 41.1022L31.8212 41.1614L32.0123 40.2983ZM28.8098 37.3781C28.5241 36.2286 28.5239 35.0266 28.8092 33.8769L27.9512 33.664C27.6312 34.9536 27.6315 36.3018 27.9519 37.5913L28.8098 37.3781ZM38.6941 33.8752C38.9798 35.0247 38.98 36.2267 38.6947 37.3763L39.5527 37.5892C39.8727 36.2997 39.8725 34.9514 39.552 33.662L38.6941 33.8752ZM35.4932 40.2977C34.3469 40.5519 33.1588 40.5521 32.0123 40.2983L31.8212 41.1614C33.0937 41.4431 34.4123 41.4429 35.6846 41.1607L35.4932 40.2977ZM32.0107 30.9556C33.157 30.7013 34.3451 30.7011 35.4916 30.955L35.6827 30.0919C34.4103 29.8101 33.0916 29.8104 31.8193 30.0925L32.0107 30.9556ZM31.7448 40.2391C30.303 39.9199 29.166 38.8117 28.8098 37.3781L27.9519 37.5913C28.389 39.3504 29.7842 40.7104 31.5538 41.1022L31.7448 40.2391ZM35.9521 41.1014C37.7215 40.709 39.1162 39.3485 39.5527 37.5892L38.6947 37.3763C38.339 38.8101 37.2024 39.9187 35.7607 40.2384L35.9521 41.1014ZM35.7591 31.0142C37.2009 31.3334 38.3379 32.4416 38.6941 33.8752L39.552 33.662C39.1149 31.9029 37.7197 30.5429 35.9502 30.1511L35.7591 31.0142ZM31.5518 30.1519C29.7824 30.5443 28.3877 31.9048 27.9512 33.664L28.8092 33.8769C29.1649 32.4432 30.3015 31.3346 31.7432 31.0149L31.5518 30.1519ZM37.776 36.6666L37.7414 36.6603L37.583 37.53L37.6175 37.5362L37.776 36.6666ZM37.7411 34.5916L37.7756 34.5853L37.6169 33.7157L37.5823 33.722L37.7411 34.5916ZM37.7756 34.5853C38.2076 34.5065 38.6533 34.5583 39.0557 34.7342L39.4098 33.9243C38.8463 33.6779 38.222 33.6052 37.6169 33.7157L37.7756 34.5853ZM37.6175 37.5362C38.2227 37.6465 38.8469 37.5736 39.4105 37.327L39.056 36.5172C38.6537 36.6932 38.208 36.7453 37.776 36.6666L37.6175 37.5362ZM36.875 35.8749C36.8285 35.7123 36.8285 35.5399 36.8749 35.3773L36.0249 35.1346C35.9332 35.456 35.9332 35.7966 36.0251 36.1179L36.875 35.8749ZM37.5823 33.722C36.8367 33.8581 36.2329 34.4057 36.0249 35.1346L36.8749 35.3773C36.9907 34.9718 37.3265 34.6673 37.7411 34.5916L37.5823 33.722ZM37.7414 36.6603C37.3268 36.5847 36.9909 36.2803 36.875 35.8749L36.0251 36.1179C36.2334 36.8467 36.8373 37.3941 37.583 37.53L37.7414 36.6603Z" fill="#190F3A"/>
<path d="M77.4023 17.9629L79.6655 21.8521L81.9287 17.9629H84.0454L80.8228 23.2437L84.126 28.627H81.9873L79.6655 24.6646L77.3438 28.627H75.1978L78.5083 23.2437L75.2783 17.9629H77.4023ZM87.0557 23.6685L85.6494 23.3242L86.228 17.9629H91.9775V19.457H87.6929L87.3999 22.0718C87.5659 21.9741 87.7954 21.8789 88.0884 21.7861C88.3813 21.6885 88.7158 21.6396 89.0918 21.6396C89.5947 21.6396 90.0439 21.7227 90.4395 21.8887C90.8398 22.0498 91.1792 22.2866 91.4575 22.5991C91.7358 22.9067 91.9482 23.2827 92.0947 23.7271C92.2412 24.1665 92.3145 24.6621 92.3145 25.2139C92.3145 25.707 92.2412 26.1685 92.0947 26.5981C91.9531 27.0278 91.7383 27.4062 91.4502 27.7334C91.1621 28.0605 90.7983 28.3169 90.3589 28.5024C89.9243 28.6831 89.4092 28.7734 88.8135 28.7734C88.3691 28.7734 87.9419 28.71 87.5317 28.583C87.1265 28.4512 86.7627 28.2583 86.4404 28.0044C86.1182 27.7456 85.8594 27.4282 85.6641 27.0522C85.4688 26.6714 85.3564 26.2344 85.3271 25.7412H87.0557C87.0996 26.0879 87.1948 26.3833 87.3413 26.6274C87.4927 26.8667 87.6929 27.0498 87.9419 27.1768C88.1909 27.3037 88.479 27.3672 88.8062 27.3672C89.104 27.3672 89.3604 27.3159 89.5752 27.2134C89.79 27.106 89.9683 26.9546 90.1099 26.7593C90.2563 26.5591 90.3638 26.3247 90.4321 26.0562C90.5054 25.7876 90.542 25.4897 90.542 25.1626C90.542 24.8501 90.5005 24.5645 90.4175 24.3057C90.3394 24.0469 90.2197 23.8223 90.0586 23.6318C89.9023 23.4414 89.7046 23.2949 89.4653 23.1924C89.2261 23.085 88.9502 23.0312 88.6377 23.0312C88.2178 23.0312 87.8955 23.0923 87.6709 23.2144C87.4512 23.3364 87.2461 23.4878 87.0557 23.6685ZM100.811 17.9629V18.9297L96.5479 28.627H94.6875L98.9429 19.3691H93.4204V17.9629H100.811ZM108.142 25.8804C108.142 25.6606 108.108 25.4653 108.04 25.2944C107.976 25.1235 107.861 24.9673 107.695 24.8257C107.529 24.6841 107.295 24.5474 106.992 24.4155C106.694 24.2788 106.313 24.1396 105.85 23.998C105.342 23.8418 104.873 23.6685 104.443 23.478C104.019 23.2827 103.647 23.0581 103.33 22.8042C103.013 22.5454 102.766 22.25 102.59 21.918C102.415 21.5811 102.327 21.1929 102.327 20.7534C102.327 20.3188 102.417 19.9233 102.598 19.5669C102.783 19.2104 103.044 18.9028 103.381 18.644C103.723 18.3804 104.126 18.1777 104.59 18.0361C105.054 17.8896 105.566 17.8164 106.128 17.8164C106.919 17.8164 107.6 17.9629 108.171 18.2559C108.748 18.5488 109.189 18.9419 109.497 19.4351C109.81 19.9282 109.966 20.4727 109.966 21.0684H108.142C108.142 20.7168 108.066 20.4067 107.915 20.1382C107.769 19.8647 107.544 19.6499 107.241 19.4937C106.943 19.3374 106.565 19.2593 106.106 19.2593C105.671 19.2593 105.31 19.3252 105.022 19.457C104.734 19.5889 104.519 19.7671 104.377 19.9917C104.236 20.2163 104.165 20.4702 104.165 20.7534C104.165 20.9536 104.211 21.1367 104.304 21.3027C104.397 21.4639 104.539 21.6152 104.729 21.7568C104.919 21.8936 105.159 22.0229 105.447 22.145C105.735 22.2671 106.074 22.3843 106.465 22.4966C107.056 22.6724 107.571 22.8677 108.01 23.0825C108.45 23.2925 108.816 23.5317 109.109 23.8003C109.402 24.0688 109.622 24.374 109.768 24.7158C109.915 25.0527 109.988 25.436 109.988 25.8657C109.988 26.3149 109.897 26.7202 109.717 27.0815C109.536 27.438 109.277 27.7432 108.94 27.9971C108.608 28.2461 108.208 28.439 107.739 28.5757C107.275 28.7075 106.758 28.7734 106.187 28.7734C105.674 28.7734 105.168 28.7051 104.67 28.5684C104.177 28.4316 103.728 28.2241 103.323 27.9458C102.917 27.6626 102.595 27.311 102.356 26.8911C102.117 26.4663 101.997 25.9707 101.997 25.4043H103.835C103.835 25.751 103.894 26.0464 104.011 26.2905C104.133 26.5347 104.302 26.7349 104.517 26.8911C104.731 27.0425 104.98 27.1548 105.264 27.228C105.552 27.3013 105.859 27.3379 106.187 27.3379C106.616 27.3379 106.975 27.2769 107.263 27.1548C107.556 27.0327 107.776 26.8618 107.922 26.6421C108.069 26.4224 108.142 26.1685 108.142 25.8804ZM115.767 19.3838L112.581 28.627H110.654L114.668 17.9629H115.898L115.767 19.3838ZM118.433 28.627L115.239 19.3838L115.1 17.9629H116.338L120.366 28.627H118.433ZM118.279 24.6719V26.1294H112.478V24.6719H118.279ZM123.135 23.6685L121.729 23.3242L122.307 17.9629H128.057V19.457H123.772L123.479 22.0718C123.645 21.9741 123.875 21.8789 124.167 21.7861C124.46 21.6885 124.795 21.6396 125.171 21.6396C125.674 21.6396 126.123 21.7227 126.519 21.8887C126.919 22.0498 127.258 22.2866 127.537 22.5991C127.815 22.9067 128.027 23.2827 128.174 23.7271C128.32 24.1665 128.394 24.6621 128.394 25.2139C128.394 25.707 128.32 26.1685 128.174 26.5981C128.032 27.0278 127.817 27.4062 127.529 27.7334C127.241 28.0605 126.877 28.3169 126.438 28.5024C126.003 28.6831 125.488 28.7734 124.893 28.7734C124.448 28.7734 124.021 28.71 123.611 28.583C123.206 28.4512 122.842 28.2583 122.52 28.0044C122.197 27.7456 121.938 27.4282 121.743 27.0522C121.548 26.6714 121.436 26.2344 121.406 25.7412H123.135C123.179 26.0879 123.274 26.3833 123.42 26.6274C123.572 26.8667 123.772 27.0498 124.021 27.1768C124.27 27.3037 124.558 27.3672 124.885 27.3672C125.183 27.3672 125.439 27.3159 125.654 27.2134C125.869 27.106 126.047 26.9546 126.189 26.7593C126.335 26.5591 126.443 26.3247 126.511 26.0562C126.584 25.7876 126.621 25.4897 126.621 25.1626C126.621 24.8501 126.58 24.5645 126.497 24.3057C126.418 24.0469 126.299 23.8223 126.138 23.6318C125.981 23.4414 125.784 23.2949 125.544 23.1924C125.305 23.085 125.029 23.0312 124.717 23.0312C124.297 23.0312 123.975 23.0923 123.75 23.2144C123.53 23.3364 123.325 23.4878 123.135 23.6685ZM136.78 25.7192C136.78 26.3833 136.626 26.9424 136.318 27.3965C136.011 27.8506 135.591 28.1948 135.059 28.4292C134.531 28.6587 133.936 28.7734 133.271 28.7734C132.607 28.7734 132.009 28.6587 131.477 28.4292C130.945 28.1948 130.525 27.8506 130.217 27.3965C129.91 26.9424 129.756 26.3833 129.756 25.7192C129.756 25.2798 129.841 24.8818 130.012 24.5254C130.183 24.1641 130.425 23.854 130.737 23.5952C131.055 23.3315 131.426 23.1289 131.851 22.9873C132.28 22.8457 132.749 22.7749 133.257 22.7749C133.931 22.7749 134.534 22.8994 135.066 23.1484C135.598 23.3975 136.016 23.7417 136.318 24.1812C136.626 24.6206 136.78 25.1333 136.78 25.7192ZM135.007 25.6313C135.007 25.2749 134.934 24.9624 134.788 24.6938C134.641 24.4253 134.436 24.2178 134.172 24.0713C133.909 23.9248 133.604 23.8516 133.257 23.8516C132.905 23.8516 132.6 23.9248 132.341 24.0713C132.083 24.2178 131.88 24.4253 131.733 24.6938C131.592 24.9624 131.521 25.2749 131.521 25.6313C131.521 25.9927 131.592 26.3052 131.733 26.5688C131.875 26.8276 132.078 27.0254 132.341 27.1621C132.605 27.2988 132.915 27.3672 133.271 27.3672C133.628 27.3672 133.936 27.2988 134.194 27.1621C134.453 27.0254 134.653 26.8276 134.795 26.5688C134.937 26.3052 135.007 25.9927 135.007 25.6313ZM136.538 20.7681C136.538 21.3003 136.396 21.7739 136.113 22.189C135.835 22.604 135.449 22.9312 134.956 23.1704C134.463 23.4048 133.901 23.522 133.271 23.522C132.637 23.522 132.07 23.4048 131.572 23.1704C131.079 22.9312 130.691 22.604 130.408 22.189C130.129 21.7739 129.99 21.3003 129.99 20.7681C129.99 20.1333 130.129 19.5986 130.408 19.1641C130.691 18.7246 131.079 18.3901 131.572 18.1606C132.065 17.9312 132.629 17.8164 133.264 17.8164C133.899 17.8164 134.463 17.9312 134.956 18.1606C135.449 18.3901 135.835 18.7246 136.113 19.1641C136.396 19.5986 136.538 20.1333 136.538 20.7681ZM134.773 20.8267C134.773 20.5093 134.709 20.231 134.583 19.9917C134.46 19.7476 134.287 19.5571 134.062 19.4204C133.838 19.2837 133.572 19.2153 133.264 19.2153C132.957 19.2153 132.69 19.2812 132.466 19.4131C132.241 19.5449 132.068 19.7305 131.946 19.9697C131.824 20.209 131.763 20.4946 131.763 20.8267C131.763 21.1538 131.824 21.4395 131.946 21.6836C132.068 21.9229 132.241 22.1108 132.466 22.2476C132.695 22.3843 132.964 22.4526 133.271 22.4526C133.579 22.4526 133.845 22.3843 134.07 22.2476C134.294 22.1108 134.468 21.9229 134.59 21.6836C134.712 21.4395 134.773 21.1538 134.773 20.8267ZM145.481 27.2207V28.627H138.333V27.4185L141.804 23.6318C142.185 23.2021 142.485 22.8311 142.705 22.5186C142.925 22.2061 143.079 21.9253 143.167 21.6763C143.259 21.4224 143.306 21.1758 143.306 20.9365C143.306 20.5996 143.242 20.3042 143.115 20.0503C142.993 19.7915 142.812 19.5889 142.573 19.4424C142.334 19.291 142.043 19.2153 141.702 19.2153C141.306 19.2153 140.974 19.3008 140.706 19.4717C140.437 19.6426 140.234 19.8794 140.098 20.1821C139.961 20.48 139.893 20.8218 139.893 21.2075H138.127C138.127 20.5874 138.269 20.021 138.552 19.5083C138.835 18.9907 139.246 18.5806 139.783 18.2778C140.32 17.9702 140.967 17.8164 141.724 17.8164C142.437 17.8164 143.042 17.936 143.54 18.1753C144.038 18.4146 144.417 18.7539 144.675 19.1934C144.939 19.6328 145.071 20.1528 145.071 20.7534C145.071 21.0854 145.017 21.415 144.91 21.7422C144.802 22.0693 144.648 22.3965 144.448 22.7236C144.253 23.0459 144.021 23.3706 143.752 23.6978C143.484 24.02 143.188 24.3472 142.866 24.6792L140.559 27.2207H145.481ZM153.809 22.4014V24.1445C153.809 24.9795 153.726 25.6924 153.56 26.2832C153.398 26.8691 153.164 27.3452 152.856 27.7114C152.549 28.0776 152.18 28.3462 151.75 28.5171C151.326 28.688 150.85 28.7734 150.322 28.7734C149.902 28.7734 149.512 28.7197 149.15 28.6123C148.794 28.5049 148.472 28.3364 148.184 28.1069C147.896 27.8774 147.649 27.582 147.444 27.2207C147.244 26.8545 147.087 26.4175 146.975 25.9097C146.868 25.4019 146.814 24.8135 146.814 24.1445V22.4014C146.814 21.5615 146.897 20.8535 147.063 20.2773C147.229 19.6963 147.466 19.2251 147.773 18.8638C148.081 18.4976 148.447 18.2314 148.872 18.0654C149.302 17.8994 149.78 17.8164 150.308 17.8164C150.732 17.8164 151.123 17.8701 151.479 17.9775C151.841 18.0801 152.163 18.2437 152.446 18.4683C152.734 18.6929 152.979 18.9858 153.179 19.3472C153.384 19.7036 153.54 20.1357 153.647 20.6436C153.755 21.1465 153.809 21.7324 153.809 22.4014ZM152.043 24.3936V22.1377C152.043 21.7129 152.019 21.3394 151.97 21.0171C151.921 20.6899 151.848 20.4141 151.75 20.1895C151.658 19.96 151.541 19.7744 151.399 19.6328C151.257 19.4863 151.096 19.3813 150.916 19.3179C150.735 19.2495 150.532 19.2153 150.308 19.2153C150.034 19.2153 149.79 19.269 149.575 19.3765C149.36 19.479 149.18 19.645 149.033 19.8745C148.887 20.104 148.774 20.4067 148.696 20.7827C148.623 21.1538 148.586 21.6055 148.586 22.1377V24.3936C148.586 24.8232 148.611 25.2017 148.66 25.5288C148.708 25.856 148.782 26.1367 148.879 26.3711C148.977 26.6006 149.094 26.791 149.231 26.9424C149.373 27.0889 149.534 27.1963 149.714 27.2646C149.9 27.333 150.103 27.3672 150.322 27.3672C150.601 27.3672 150.847 27.3135 151.062 27.2061C151.277 27.0986 151.458 26.9277 151.604 26.6934C151.75 26.4541 151.86 26.144 151.934 25.7632C152.007 25.3823 152.043 24.9258 152.043 24.3936ZM157.456 22.4966H158.511C158.921 22.4966 159.26 22.4258 159.529 22.2842C159.802 22.1426 160.005 21.9473 160.137 21.6982C160.269 21.4492 160.334 21.1636 160.334 20.8413C160.334 20.5044 160.273 20.2163 160.151 19.9771C160.034 19.7329 159.854 19.5449 159.609 19.4131C159.37 19.2812 159.065 19.2153 158.694 19.2153C158.381 19.2153 158.098 19.2788 157.844 19.4058C157.595 19.5278 157.397 19.7036 157.251 19.9331C157.104 20.1577 157.031 20.4263 157.031 20.7388H155.259C155.259 20.1724 155.408 19.6694 155.706 19.23C156.003 18.7905 156.409 18.4463 156.921 18.1973C157.439 17.9434 158.02 17.8164 158.665 17.8164C159.353 17.8164 159.954 17.9312 160.466 18.1606C160.984 18.3853 161.387 18.7222 161.675 19.1714C161.963 19.6206 162.107 20.1772 162.107 20.8413C162.107 21.144 162.036 21.4517 161.895 21.7642C161.753 22.0767 161.543 22.3623 161.265 22.6211C160.986 22.875 160.64 23.0825 160.225 23.2437C159.81 23.3999 159.329 23.478 158.782 23.478H157.456V22.4966ZM157.456 23.8735V22.9067H158.782C159.407 22.9067 159.939 22.98 160.378 23.1265C160.823 23.2729 161.184 23.4756 161.462 23.7344C161.741 23.9883 161.943 24.2788 162.07 24.606C162.202 24.9331 162.268 25.2798 162.268 25.646C162.268 26.144 162.178 26.5884 161.997 26.979C161.821 27.3647 161.57 27.6919 161.243 27.9604C160.916 28.229 160.532 28.4316 160.093 28.5684C159.658 28.7051 159.185 28.7734 158.672 28.7734C158.213 28.7734 157.773 28.71 157.354 28.583C156.934 28.4561 156.558 28.2681 156.226 28.019C155.894 27.7651 155.63 27.4502 155.435 27.0742C155.244 26.6934 155.149 26.2539 155.149 25.7559H156.914C156.914 26.0732 156.987 26.354 157.134 26.5981C157.285 26.8374 157.495 27.0254 157.764 27.1621C158.037 27.2988 158.35 27.3672 158.701 27.3672C159.072 27.3672 159.392 27.3013 159.661 27.1694C159.929 27.0376 160.134 26.8423 160.276 26.5835C160.422 26.3247 160.496 26.0122 160.496 25.646C160.496 25.231 160.415 24.894 160.254 24.6353C160.093 24.3765 159.863 24.186 159.565 24.064C159.268 23.937 158.916 23.8735 158.511 23.8735H157.456ZM164.084 27.748C164.084 27.4746 164.177 27.2451 164.363 27.0596C164.548 26.8691 164.8 26.7739 165.117 26.7739C165.439 26.7739 165.691 26.8691 165.872 27.0596C166.057 27.2451 166.15 27.4746 166.15 27.748C166.15 28.0215 166.057 28.251 165.872 28.4365C165.691 28.6221 165.439 28.7148 165.117 28.7148C164.8 28.7148 164.548 28.6221 164.363 28.4365C164.177 28.251 164.084 28.0215 164.084 27.748ZM168.259 27.748C168.259 27.4746 168.352 27.2451 168.538 27.0596C168.723 26.8691 168.975 26.7739 169.292 26.7739C169.614 26.7739 169.866 26.8691 170.046 27.0596C170.232 27.2451 170.325 27.4746 170.325 27.748C170.325 28.0215 170.232 28.251 170.046 28.4365C169.866 28.6221 169.614 28.7148 169.292 28.7148C168.975 28.7148 168.723 28.6221 168.538 28.4365C168.352 28.251 168.259 28.0215 168.259 27.748ZM172.434 27.748C172.434 27.4746 172.527 27.2451 172.712 27.0596C172.898 26.8691 173.149 26.7739 173.467 26.7739C173.789 26.7739 174.041 26.8691 174.221 27.0596C174.407 27.2451 174.5 27.4746 174.5 27.748C174.5 28.0215 174.407 28.251 174.221 28.4365C174.041 28.6221 173.789 28.7148 173.467 28.7148C173.149 28.7148 172.898 28.6221 172.712 28.4365C172.527 28.251 172.434 28.0215 172.434 27.748Z" fill="#190F3A"/>
<path d="M81.8408 51.9316C81.8408 51.6826 81.8018 51.4629 81.7236 51.2725C81.6504 51.0771 81.5186 50.9014 81.3281 50.7451C81.1426 50.5889 80.8838 50.4399 80.5518 50.2983C80.2246 50.1567 79.8096 50.0127 79.3066 49.8662C78.7793 49.71 78.3032 49.5366 77.8784 49.3462C77.4536 49.1509 77.0898 48.9287 76.7871 48.6797C76.4844 48.4307 76.2524 48.145 76.0913 47.8228C75.9302 47.5005 75.8496 47.1318 75.8496 46.7168C75.8496 46.3018 75.9351 45.9185 76.106 45.5669C76.2769 45.2153 76.521 44.9102 76.8384 44.6514C77.1606 44.3877 77.5439 44.1826 77.9883 44.0361C78.4326 43.8896 78.9282 43.8164 79.4751 43.8164C80.2759 43.8164 80.9546 43.9702 81.5112 44.2778C82.0728 44.5806 82.5 44.9785 82.793 45.4717C83.0859 45.96 83.2324 46.4824 83.2324 47.0391H81.8262C81.8262 46.6387 81.7407 46.2847 81.5698 45.9771C81.3989 45.6646 81.1401 45.4204 80.7935 45.2446C80.4468 45.064 80.0073 44.9736 79.4751 44.9736C78.9722 44.9736 78.5571 45.0493 78.23 45.2007C77.9028 45.3521 77.6587 45.5571 77.4976 45.8159C77.3413 46.0747 77.2632 46.3701 77.2632 46.7021C77.2632 46.9268 77.3096 47.1318 77.4023 47.3174C77.5 47.498 77.6489 47.6665 77.8491 47.8228C78.0542 47.979 78.313 48.123 78.6255 48.2549C78.9429 48.3867 79.3213 48.5137 79.7607 48.6357C80.3662 48.8066 80.8887 48.9971 81.3281 49.207C81.7676 49.417 82.1289 49.6538 82.4121 49.9175C82.7002 50.1763 82.9126 50.4717 83.0493 50.8037C83.1909 51.1309 83.2617 51.502 83.2617 51.917C83.2617 52.3516 83.1738 52.7446 82.998 53.0962C82.8223 53.4478 82.5708 53.748 82.2437 53.9971C81.9165 54.2461 81.5234 54.439 81.0645 54.5757C80.6104 54.7075 80.1025 54.7734 79.541 54.7734C79.0479 54.7734 78.562 54.7051 78.0835 54.5684C77.6099 54.4316 77.1777 54.2266 76.7871 53.9531C76.4014 53.6797 76.0913 53.3428 75.8569 52.9424C75.6274 52.5371 75.5127 52.0684 75.5127 51.5361H76.9189C76.9189 51.9023 76.9897 52.2173 77.1313 52.481C77.2729 52.7397 77.4658 52.9546 77.71 53.1255C77.959 53.2964 78.2397 53.4233 78.5522 53.5063C78.8696 53.5845 79.1992 53.6235 79.541 53.6235C80.0342 53.6235 80.4517 53.5552 80.7935 53.4185C81.1353 53.2817 81.394 53.0864 81.5698 52.8325C81.7505 52.5786 81.8408 52.2783 81.8408 51.9316ZM88.147 54.7734C87.5952 54.7734 87.0947 54.6807 86.6455 54.4951C86.2012 54.3047 85.8179 54.0386 85.4956 53.6968C85.1782 53.355 84.9341 52.9497 84.7632 52.481C84.5923 52.0122 84.5068 51.4995 84.5068 50.9429V50.6353C84.5068 49.9907 84.6021 49.417 84.7925 48.9141C84.9829 48.4062 85.2417 47.9766 85.5688 47.625C85.896 47.2734 86.2671 47.0073 86.6821 46.8267C87.0972 46.646 87.5269 46.5557 87.9712 46.5557C88.5376 46.5557 89.0259 46.6533 89.436 46.8486C89.8511 47.0439 90.1904 47.3174 90.4541 47.6689C90.7178 48.0156 90.9131 48.4258 91.04 48.8994C91.167 49.3682 91.2305 49.8809 91.2305 50.4375V51.0454H85.3125V49.9395H89.8755V49.8369C89.856 49.4854 89.7827 49.1436 89.6558 48.8115C89.5337 48.4795 89.3384 48.2061 89.0698 47.9912C88.8013 47.7764 88.4351 47.6689 87.9712 47.6689C87.6636 47.6689 87.3804 47.7349 87.1216 47.8667C86.8628 47.9937 86.6406 48.1841 86.4551 48.438C86.2695 48.6919 86.1255 49.002 86.0229 49.3682C85.9204 49.7344 85.8691 50.1567 85.8691 50.6353V50.9429C85.8691 51.3188 85.9204 51.6729 86.0229 52.0049C86.1304 52.332 86.2842 52.6201 86.4844 52.8691C86.6895 53.1182 86.936 53.3135 87.2241 53.4551C87.5171 53.5967 87.8491 53.6675 88.2202 53.6675C88.6987 53.6675 89.104 53.5698 89.436 53.3745C89.7681 53.1792 90.0586 52.918 90.3076 52.5908L91.1279 53.2427C90.957 53.5015 90.7397 53.748 90.4761 53.9824C90.2124 54.2168 89.8877 54.4072 89.502 54.5537C89.1211 54.7002 88.6694 54.7734 88.147 54.7734ZM94.1675 48.394V54.627H92.8125V46.7021H94.0942L94.1675 48.394ZM93.8452 50.3643L93.2812 50.3423C93.2861 49.8003 93.3667 49.2998 93.5229 48.8408C93.6792 48.377 93.8989 47.9741 94.1821 47.6323C94.4653 47.2905 94.8022 47.0269 95.1929 46.8413C95.5884 46.6509 96.0254 46.5557 96.5039 46.5557C96.8945 46.5557 97.2461 46.6094 97.5586 46.7168C97.8711 46.8193 98.1372 46.9854 98.3569 47.2148C98.5815 47.4443 98.7524 47.7422 98.8696 48.1084C98.9868 48.4697 99.0454 48.9116 99.0454 49.4341V54.627H97.6831V49.4194C97.6831 49.0044 97.6221 48.6724 97.5 48.4233C97.3779 48.1694 97.1997 47.9863 96.9653 47.874C96.731 47.7568 96.4429 47.6982 96.1011 47.6982C95.7642 47.6982 95.4565 47.769 95.1782 47.9106C94.9048 48.0522 94.668 48.2476 94.4678 48.4966C94.2725 48.7456 94.1187 49.0312 94.0063 49.3535C93.8989 49.6709 93.8452 50.0078 93.8452 50.3643ZM106.099 53.0889V43.377H107.461V54.627H106.216L106.099 53.0889ZM100.767 50.7524V50.5986C100.767 49.9932 100.84 49.4438 100.986 48.9507C101.138 48.4526 101.35 48.0254 101.624 47.6689C101.902 47.3125 102.231 47.0391 102.612 46.8486C102.998 46.6533 103.428 46.5557 103.901 46.5557C104.399 46.5557 104.834 46.6436 105.205 46.8193C105.581 46.9902 105.898 47.2417 106.157 47.5737C106.421 47.9009 106.628 48.2964 106.78 48.7603C106.931 49.2241 107.036 49.749 107.095 50.335V51.0088C107.041 51.5898 106.936 52.1123 106.78 52.5762C106.628 53.04 106.421 53.4355 106.157 53.7627C105.898 54.0898 105.581 54.3413 105.205 54.5171C104.829 54.688 104.39 54.7734 103.887 54.7734C103.423 54.7734 102.998 54.6733 102.612 54.4731C102.231 54.2729 101.902 53.9922 101.624 53.6309C101.35 53.2695 101.138 52.8447 100.986 52.3564C100.84 51.8633 100.767 51.3286 100.767 50.7524ZM102.129 50.5986V50.7524C102.129 51.1479 102.168 51.519 102.246 51.8657C102.329 52.2124 102.456 52.5176 102.627 52.7812C102.798 53.0449 103.015 53.2524 103.279 53.4038C103.542 53.5503 103.857 53.6235 104.224 53.6235C104.673 53.6235 105.042 53.5283 105.33 53.3379C105.623 53.1475 105.857 52.896 106.033 52.5835C106.208 52.271 106.345 51.9316 106.443 51.5654V49.8003C106.384 49.5317 106.299 49.2729 106.187 49.0239C106.079 48.77 105.938 48.5454 105.762 48.3501C105.591 48.1499 105.378 47.9912 105.125 47.874C104.875 47.7568 104.58 47.6982 104.238 47.6982C103.867 47.6982 103.547 47.7764 103.279 47.9326C103.015 48.084 102.798 48.2939 102.627 48.5625C102.456 48.8262 102.329 49.1338 102.246 49.4854C102.168 49.832 102.129 50.2031 102.129 50.5986ZM112.859 54.7734C112.307 54.7734 111.807 54.6807 111.357 54.4951C110.913 54.3047 110.53 54.0386 110.208 53.6968C109.89 53.355 109.646 52.9497 109.475 52.481C109.304 52.0122 109.219 51.4995 109.219 50.9429V50.6353C109.219 49.9907 109.314 49.417 109.504 48.9141C109.695 48.4062 109.954 47.9766 110.281 47.625C110.608 47.2734 110.979 47.0073 111.394 46.8267C111.809 46.646 112.239 46.5557 112.683 46.5557C113.25 46.5557 113.738 46.6533 114.148 46.8486C114.563 47.0439 114.902 47.3174 115.166 47.6689C115.43 48.0156 115.625 48.4258 115.752 48.8994C115.879 49.3682 115.942 49.8809 115.942 50.4375V51.0454H110.024V49.9395H114.587V49.8369C114.568 49.4854 114.495 49.1436 114.368 48.8115C114.246 48.4795 114.05 48.2061 113.782 47.9912C113.513 47.7764 113.147 47.6689 112.683 47.6689C112.375 47.6689 112.092 47.7349 111.833 47.8667C111.575 47.9937 111.353 48.1841 111.167 48.438C110.981 48.6919 110.837 49.002 110.735 49.3682C110.632 49.7344 110.581 50.1567 110.581 50.6353V50.9429C110.581 51.3188 110.632 51.6729 110.735 52.0049C110.842 52.332 110.996 52.6201 111.196 52.8691C111.401 53.1182 111.648 53.3135 111.936 53.4551C112.229 53.5967 112.561 53.6675 112.932 53.6675C113.411 53.6675 113.816 53.5698 114.148 53.3745C114.48 53.1792 114.771 52.918 115.02 52.5908L115.84 53.2427C115.669 53.5015 115.452 53.748 115.188 53.9824C114.924 54.2168 114.6 54.4072 114.214 54.5537C113.833 54.7002 113.381 54.7734 112.859 54.7734ZM122.52 53.0889V43.377H123.882V54.627H122.637L122.52 53.0889ZM117.188 50.7524V50.5986C117.188 49.9932 117.261 49.4438 117.407 48.9507C117.559 48.4526 117.771 48.0254 118.044 47.6689C118.323 47.3125 118.652 47.0391 119.033 46.8486C119.419 46.6533 119.849 46.5557 120.322 46.5557C120.82 46.5557 121.255 46.6436 121.626 46.8193C122.002 46.9902 122.319 47.2417 122.578 47.5737C122.842 47.9009 123.049 48.2964 123.201 48.7603C123.352 49.2241 123.457 49.749 123.516 50.335V51.0088C123.462 51.5898 123.357 52.1123 123.201 52.5762C123.049 53.04 122.842 53.4355 122.578 53.7627C122.319 54.0898 122.002 54.3413 121.626 54.5171C121.25 54.688 120.811 54.7734 120.308 54.7734C119.844 54.7734 119.419 54.6733 119.033 54.4731C118.652 54.2729 118.323 53.9922 118.044 53.6309C117.771 53.2695 117.559 52.8447 117.407 52.3564C117.261 51.8633 117.188 51.3286 117.188 50.7524ZM118.55 50.5986V50.7524C118.55 51.1479 118.589 51.519 118.667 51.8657C118.75 52.2124 118.877 52.5176 119.048 52.7812C119.219 53.0449 119.436 53.2524 119.7 53.4038C119.963 53.5503 120.278 53.6235 120.645 53.6235C121.094 53.6235 121.462 53.5283 121.75 53.3379C122.043 53.1475 122.278 52.896 122.454 52.5835C122.629 52.271 122.766 51.9316 122.864 51.5654V49.8003C122.805 49.5317 122.72 49.2729 122.607 49.0239C122.5 48.77 122.358 48.5454 122.183 48.3501C122.012 48.1499 121.799 47.9912 121.545 47.874C121.296 47.7568 121.001 47.6982 120.659 47.6982C120.288 47.6982 119.968 47.7764 119.7 47.9326C119.436 48.084 119.219 48.2939 119.048 48.5625C118.877 48.8262 118.75 49.1338 118.667 49.4854C118.589 49.832 118.55 50.2031 118.55 50.5986Z" fill="#999999"/>
<defs>
<linearGradient id="paint0_linear_9156_369" x1="33.7479" y1="12.0469" x2="62.1849" y2="116.754" gradientUnits="userSpaceOnUse">
<stop stop-color="#FFD597"/>
<stop offset="1" stop-color="#ECAE52"/>
</linearGradient>
</defs>
</svg>
