<svg width="204" height="71" viewBox="0 0 204 71" fill="none" xmlns="http://www.w3.org/2000/svg">
<rect x="0.75708" y="0.896484" width="202.53" height="70" rx="35" fill="white"/>
<rect x="10.7571" y="13.6396" width="44.5218" height="44.5218" rx="22.2609" fill="url(#paint0_linear_9156_363)"/>
<path d="M29.4504 33.1206L33.0122 33.12" stroke="white" stroke-width="1.33569" stroke-linecap="round"/>
<path d="M24.8971 38.5982L25.5452 38.4371L24.8971 38.5982ZM24.8961 32.9862L25.5443 33.147L24.8961 32.9862ZM41.1281 32.9833L41.7762 32.8223L41.1281 32.9833ZM41.129 38.5953L40.4809 38.4345L41.129 38.5953ZM35.7881 43.5005L35.6436 42.8485L35.7881 43.5005ZM30.2397 43.5015L30.3841 42.8494L30.2397 43.5015ZM30.237 28.081L30.3816 28.733L30.3816 28.733L30.237 28.081ZM35.7854 28.08L35.9298 27.428L35.9298 27.428L35.7854 28.08ZM29.8355 43.412L29.6912 44.0641L29.8355 43.412ZM36.1923 43.4109L36.3369 44.0629L36.3369 44.0629L36.1923 43.4109ZM36.1896 28.1695L36.0452 28.8216L36.0452 28.8216L36.1896 28.1695ZM29.8329 28.1706L29.6883 27.5186L29.6883 27.5186L29.8329 28.1706ZM38.973 38.0191L38.8533 38.6761L38.8533 38.6761L38.973 38.0191ZM38.9208 38.0095L39.0405 37.3525L39.0404 37.3525L38.9208 38.0095ZM38.92 33.5699L39.0399 34.2269L39.0399 34.2269L38.92 33.5699ZM38.9722 33.5604L38.8523 32.9034L38.8523 32.9034L38.9722 33.5604ZM41.0263 34.4424C41.3642 34.5902 41.758 34.436 41.9057 34.098C42.0535 33.7601 41.8993 33.3663 41.5614 33.2186L41.0263 34.4424ZM41.5623 38.3599C41.9002 38.2121 42.0542 37.8183 41.9063 37.4804C41.7585 37.1425 41.3647 36.9884 41.0268 37.1363L41.5623 38.3599ZM37.0892 36.3494L36.4471 36.533L37.0892 36.3494ZM37.089 35.2307L37.7312 35.414L37.7312 35.414L37.089 35.2307ZM29.9775 28.8226L30.3816 28.733L30.0924 27.429L29.6883 27.5186L29.9775 28.8226ZM35.6411 28.7321L36.0452 28.8216L36.3339 27.5174L35.9298 27.428L35.6411 28.7321ZM36.0477 42.7589L35.6436 42.8485L35.9327 44.1525L36.3369 44.0629L36.0477 42.7589ZM30.3841 42.8494L29.9799 42.76L29.6912 44.0641L30.0953 44.1536L30.3841 42.8494ZM25.5452 38.4371C25.1136 36.7002 25.1133 34.8841 25.5443 33.147L24.2479 32.8254C23.7644 34.7738 23.7648 36.811 24.2489 38.7592L25.5452 38.4371ZM40.4799 33.1444C40.9115 34.8813 40.9119 36.6974 40.4809 38.4345L41.7772 38.7561C42.2607 36.8077 42.2603 34.7706 41.7762 32.8223L40.4799 33.1444ZM35.6436 42.8485C33.9115 43.2326 32.1163 43.233 30.3841 42.8494L30.0953 44.1536C32.0179 44.5792 34.0103 44.5789 35.9327 44.1525L35.6436 42.8485ZM30.3816 28.733C32.1137 28.3489 33.9088 28.3486 35.6411 28.7321L35.9298 27.428C34.0072 27.0023 32.0148 27.0027 30.0924 27.429L30.3816 28.733ZM29.9799 42.76C27.8013 42.2776 26.0835 40.6032 25.5452 38.4371L24.2489 38.7592C24.9094 41.4172 27.0175 43.4721 29.6912 44.0641L29.9799 42.76ZM36.3369 44.0629C39.0103 43.47 41.1177 41.4143 41.7772 38.7561L40.4809 38.4345C39.9434 40.6007 38.2261 42.2758 36.0477 42.7589L36.3369 44.0629ZM36.0452 28.8216C38.2238 29.3039 39.9417 30.9783 40.4799 33.1444L41.7762 32.8223C41.1157 30.1643 39.0076 28.1094 36.3339 27.5174L36.0452 28.8216ZM29.6883 27.5186C27.0148 28.1115 24.9075 30.1672 24.2479 32.8254L25.5443 33.147C26.0818 30.9808 27.7991 29.3057 29.9775 28.8226L29.6883 27.5186ZM39.0926 37.362L39.0405 37.3525L38.8011 38.6666L38.8533 38.6761L39.0926 37.362ZM39.0399 34.2269L39.0921 34.2174L38.8523 32.9034L38.8001 32.9129L39.0399 34.2269ZM39.0921 34.2174C39.7448 34.0982 40.4183 34.1766 41.0263 34.4424L41.5614 33.2186C40.7098 32.8463 39.7665 32.7365 38.8523 32.9034L39.0921 34.2174ZM38.8533 38.6761C39.7676 38.8426 40.7108 38.7326 41.5623 38.3599L41.0268 37.1363C40.4189 37.4023 39.7454 37.4809 39.0926 37.362L38.8533 38.6761ZM37.7314 36.1659C37.6611 35.9202 37.6611 35.6597 37.7312 35.414L36.4468 35.0473C36.3082 35.5329 36.3083 36.0475 36.4471 36.533L37.7314 36.1659ZM38.8001 32.9129C37.6734 33.1185 36.7612 33.946 36.4468 35.0473L37.7312 35.414C37.9061 34.8013 38.4135 34.3412 39.0399 34.2269L38.8001 32.9129ZM39.0404 37.3525C38.414 37.2384 37.9064 36.7785 37.7314 36.1659L36.4471 36.533C36.7619 37.6342 37.6744 38.4613 38.8011 38.6666L39.0404 37.3525Z" fill="white"/>
<path d="M69.4689 28.8965H67.191L67.2057 27.439H69.4689C70.1281 27.439 70.6798 27.2949 71.1241 27.0068C71.5734 26.7188 71.9103 26.3062 72.1349 25.769C72.3644 25.2319 72.4791 24.5923 72.4791 23.8501V23.2715C72.4791 22.6953 72.4132 22.1851 72.2814 21.7407C72.1544 21.2964 71.964 20.9229 71.7101 20.6201C71.4611 20.3174 71.1534 20.0879 70.7872 19.9316C70.4259 19.7754 70.0084 19.6973 69.5348 19.6973H67.1471V18.2324H69.5348C70.2428 18.2324 70.8898 18.3521 71.4757 18.5913C72.0616 18.8257 72.567 19.165 72.9918 19.6094C73.4215 20.0537 73.7511 20.5859 73.9806 21.2061C74.2101 21.8262 74.3248 22.5195 74.3248 23.2861V23.8501C74.3248 24.6167 74.2101 25.3101 73.9806 25.9302C73.7511 26.5503 73.4215 27.0825 72.9918 27.5269C72.5621 27.9663 72.0494 28.3057 71.4537 28.5449C70.8629 28.7793 70.2013 28.8965 69.4689 28.8965ZM68.2091 18.2324V28.8965H66.3707V18.2324H68.2091ZM79.4884 29.043C78.9025 29.043 78.3727 28.9478 77.899 28.7573C77.4303 28.562 77.0299 28.291 76.6979 27.9443C76.3707 27.5977 76.1193 27.1899 75.9435 26.7212C75.7677 26.2524 75.6798 25.7471 75.6798 25.2051V24.9121C75.6798 24.292 75.7701 23.7305 75.9508 23.2275C76.1315 22.7246 76.3829 22.2949 76.7052 21.9385C77.0275 21.5771 77.4083 21.3013 77.8478 21.1108C78.2872 20.9204 78.7633 20.8252 79.276 20.8252C79.8424 20.8252 80.338 20.9204 80.7628 21.1108C81.1876 21.3013 81.5392 21.5698 81.8175 21.9165C82.1007 22.2583 82.3107 22.666 82.4474 23.1396C82.589 23.6133 82.6598 24.1357 82.6598 24.707V25.4614H76.5367V24.1943H80.9166V24.0552C80.9069 23.7378 80.8434 23.4399 80.7262 23.1616C80.6139 22.8833 80.4406 22.6587 80.2062 22.4878C79.9718 22.3169 79.6593 22.2314 79.2687 22.2314C78.9757 22.2314 78.7145 22.2949 78.485 22.4219C78.2604 22.5439 78.0724 22.7222 77.921 22.9565C77.7697 23.1909 77.6525 23.4741 77.5695 23.8062C77.4913 24.1333 77.4523 24.502 77.4523 24.9121V25.2051C77.4523 25.5518 77.4987 25.874 77.5914 26.1719C77.6891 26.4648 77.8307 26.7212 78.0162 26.9409C78.2018 27.1606 78.4264 27.334 78.6901 27.4609C78.9537 27.583 79.254 27.644 79.5909 27.644C80.0157 27.644 80.3942 27.5586 80.7262 27.3877C81.0582 27.2168 81.3463 26.9751 81.5905 26.6626L82.5206 27.5635C82.3497 27.8125 82.1276 28.0518 81.8541 28.2812C81.5807 28.5059 81.2462 28.689 80.8507 28.8306C80.4601 28.9722 80.006 29.043 79.4884 29.043ZM85.8092 22.4951V31.9434H84.0441V20.9717H85.67L85.8092 22.4951ZM90.9728 24.8608V25.0146C90.9728 25.5908 90.9044 26.1255 90.7677 26.6187C90.6359 27.1069 90.4381 27.5342 90.1744 27.9004C89.9156 28.2617 89.5958 28.5425 89.215 28.7427C88.8341 28.9429 88.3947 29.043 87.8966 29.043C87.4034 29.043 86.9713 28.9526 86.6002 28.772C86.234 28.5864 85.924 28.3252 85.67 27.9883C85.4161 27.6514 85.2111 27.2559 85.0548 26.8018C84.9034 26.3428 84.796 25.8398 84.7325 25.293V24.6997C84.796 24.1187 84.9034 23.5913 85.0548 23.1177C85.2111 22.644 85.4161 22.2363 85.67 21.8945C85.924 21.5527 86.234 21.2891 86.6002 21.1035C86.9664 20.918 87.3937 20.8252 87.882 20.8252C88.38 20.8252 88.8219 20.9229 89.2076 21.1182C89.5934 21.3086 89.9181 21.582 90.1818 21.9385C90.4454 22.29 90.6432 22.7148 90.775 23.2129C90.9069 23.7061 90.9728 24.2554 90.9728 24.8608ZM89.2076 25.0146V24.8608C89.2076 24.4946 89.1735 24.1553 89.1051 23.8428C89.0367 23.5254 88.9293 23.2471 88.7828 23.0078C88.6364 22.7686 88.4484 22.583 88.2189 22.4512C87.9943 22.3145 87.7233 22.2461 87.4059 22.2461C87.0934 22.2461 86.8248 22.2998 86.6002 22.4072C86.3756 22.5098 86.1876 22.6538 86.0363 22.8394C85.8849 23.0249 85.7677 23.2422 85.6847 23.4912C85.6017 23.7354 85.5431 24.0015 85.5089 24.2896V25.7104C85.5675 26.062 85.6676 26.3843 85.8092 26.6772C85.9508 26.9702 86.151 27.2046 86.4098 27.3804C86.6735 27.5513 87.0104 27.6367 87.4205 27.6367C87.7379 27.6367 88.0089 27.5684 88.2335 27.4316C88.4581 27.2949 88.6412 27.1069 88.7828 26.8677C88.9293 26.6235 89.0367 26.3428 89.1051 26.0254C89.1735 25.708 89.2076 25.3711 89.2076 25.0146ZM92.1373 25.022V24.8535C92.1373 24.2822 92.2203 23.7524 92.3864 23.2642C92.5524 22.771 92.7916 22.3438 93.1041 21.9824C93.4215 21.6162 93.8073 21.333 94.2614 21.1328C94.7203 20.9277 95.2379 20.8252 95.8141 20.8252C96.3951 20.8252 96.9127 20.9277 97.3668 21.1328C97.8258 21.333 98.214 21.6162 98.5314 21.9824C98.8488 22.3438 99.0905 22.771 99.2565 23.2642C99.4225 23.7524 99.5055 24.2822 99.5055 24.8535V25.022C99.5055 25.5933 99.4225 26.123 99.2565 26.6113C99.0905 27.0996 98.8488 27.5269 98.5314 27.8931C98.214 28.2544 97.8282 28.5376 97.3741 28.7427C96.92 28.9429 96.4049 29.043 95.8287 29.043C95.2477 29.043 94.7277 28.9429 94.2687 28.7427C93.8146 28.5376 93.4288 28.2544 93.1115 27.8931C92.7941 27.5269 92.5524 27.0996 92.3864 26.6113C92.2203 26.123 92.1373 25.5933 92.1373 25.022ZM93.9025 24.8535V25.022C93.9025 25.3784 93.9391 25.7153 94.0123 26.0327C94.0856 26.3501 94.2003 26.6284 94.3566 26.8677C94.5128 27.1069 94.713 27.2949 94.9572 27.4316C95.2013 27.5684 95.4918 27.6367 95.8287 27.6367C96.1559 27.6367 96.4391 27.5684 96.6783 27.4316C96.9225 27.2949 97.1227 27.1069 97.2789 26.8677C97.4352 26.6284 97.5499 26.3501 97.6232 26.0327C97.7013 25.7153 97.7404 25.3784 97.7404 25.022V24.8535C97.7404 24.502 97.7013 24.1699 97.6232 23.8574C97.5499 23.54 97.4327 23.2593 97.2716 23.0151C97.1154 22.771 96.9152 22.5806 96.671 22.4438C96.4318 22.3022 96.1461 22.2314 95.8141 22.2314C95.4821 22.2314 95.194 22.3022 94.9498 22.4438C94.7106 22.5806 94.5128 22.771 94.3566 23.0151C94.2003 23.2593 94.0856 23.54 94.0123 23.8574C93.9391 24.1699 93.9025 24.502 93.9025 24.8535ZM105.431 26.7505C105.431 26.5747 105.387 26.416 105.299 26.2744C105.211 26.1279 105.043 25.9961 104.794 25.8789C104.549 25.7617 104.188 25.6543 103.71 25.5566C103.29 25.4639 102.904 25.354 102.552 25.2271C102.206 25.0952 101.908 24.9365 101.659 24.751C101.41 24.5654 101.217 24.3457 101.08 24.0918C100.943 23.8379 100.875 23.5449 100.875 23.2129C100.875 22.8906 100.946 22.5854 101.088 22.2974C101.229 22.0093 101.432 21.7554 101.695 21.5356C101.959 21.3159 102.279 21.1426 102.655 21.0156C103.036 20.8887 103.461 20.8252 103.929 20.8252C104.593 20.8252 105.162 20.9375 105.636 21.1621C106.114 21.3818 106.481 21.6821 106.734 22.063C106.988 22.439 107.115 22.8638 107.115 23.3374H105.35C105.35 23.1274 105.297 22.9321 105.189 22.7515C105.087 22.5659 104.93 22.417 104.72 22.3047C104.51 22.1875 104.247 22.1289 103.929 22.1289C103.627 22.1289 103.375 22.1777 103.175 22.2754C102.98 22.3682 102.833 22.4902 102.735 22.6416C102.643 22.793 102.596 22.959 102.596 23.1396C102.596 23.2715 102.621 23.3911 102.67 23.4985C102.723 23.6011 102.811 23.6963 102.933 23.7842C103.055 23.8672 103.221 23.9453 103.431 24.0186C103.646 24.0918 103.915 24.1626 104.237 24.231C104.842 24.3579 105.362 24.5215 105.797 24.7217C106.236 24.917 106.573 25.1709 106.808 25.4834C107.042 25.791 107.159 26.1816 107.159 26.6553C107.159 27.0068 107.084 27.3291 106.932 27.6221C106.786 27.9102 106.571 28.1616 106.288 28.3765C106.005 28.5864 105.665 28.75 105.27 28.8672C104.879 28.9844 104.44 29.043 103.951 29.043C103.234 29.043 102.626 28.916 102.128 28.6621C101.63 28.4033 101.251 28.0737 100.992 27.6733C100.738 27.2681 100.611 26.8481 100.611 26.4136H102.318C102.338 26.7407 102.428 27.002 102.589 27.1973C102.755 27.3877 102.96 27.5269 103.204 27.6147C103.453 27.6978 103.71 27.7393 103.973 27.7393C104.291 27.7393 104.557 27.6978 104.772 27.6147C104.986 27.5269 105.15 27.4097 105.262 27.2632C105.375 27.1118 105.431 26.9409 105.431 26.7505ZM110.594 20.9717V28.8965H108.822V20.9717H110.594ZM108.705 18.8916C108.705 18.623 108.793 18.4009 108.968 18.2251C109.149 18.0444 109.398 17.9541 109.715 17.9541C110.028 17.9541 110.275 18.0444 110.455 18.2251C110.636 18.4009 110.726 18.623 110.726 18.8916C110.726 19.1553 110.636 19.375 110.455 19.5508C110.275 19.7266 110.028 19.8145 109.715 19.8145C109.398 19.8145 109.149 19.7266 108.968 19.5508C108.793 19.375 108.705 19.1553 108.705 18.8916ZM116.161 20.9717V22.2607H111.693V20.9717H116.161ZM112.982 19.0308H114.747V26.7065C114.747 26.9507 114.781 27.1387 114.85 27.2705C114.923 27.3975 115.023 27.4829 115.15 27.5269C115.277 27.5708 115.426 27.5928 115.597 27.5928C115.719 27.5928 115.836 27.5854 115.948 27.5708C116.061 27.5562 116.151 27.5415 116.219 27.5269L116.227 28.8745C116.08 28.9185 115.909 28.9575 115.714 28.9917C115.524 29.0259 115.304 29.043 115.055 29.043C114.65 29.043 114.291 28.9722 113.978 28.8306C113.666 28.6841 113.422 28.4473 113.246 28.1201C113.07 27.793 112.982 27.3584 112.982 26.8164V19.0308ZM128.143 23.0518V24.6411H120.834V23.0518H128.143ZM125.345 20.0635V27.8271H123.639V20.0635H125.345ZM133.732 16.5259V18.7158H132.604V16.5259H133.732ZM133.592 28.4863V30.4492H132.472V28.4863H133.592ZM134.698 26.1206C134.698 25.8374 134.64 25.5908 134.523 25.3809C134.41 25.166 134.225 24.9731 133.966 24.8022C133.707 24.6265 133.36 24.4629 132.926 24.3115C132.301 24.0918 131.754 23.8452 131.285 23.5718C130.821 23.2935 130.46 22.9517 130.201 22.5464C129.947 22.1362 129.82 21.626 129.82 21.0156C129.82 20.415 129.957 19.895 130.231 19.4556C130.509 19.0161 130.895 18.6768 131.388 18.4375C131.881 18.1982 132.457 18.0786 133.116 18.0786C133.624 18.0786 134.081 18.1543 134.486 18.3057C134.896 18.457 135.245 18.6792 135.533 18.9722C135.821 19.2651 136.041 19.6265 136.193 20.0562C136.349 20.481 136.427 20.9692 136.427 21.521H134.669C134.669 21.2085 134.632 20.9302 134.559 20.686C134.491 20.437 134.388 20.2271 134.252 20.0562C134.115 19.8804 133.949 19.7461 133.754 19.6533C133.563 19.5605 133.346 19.5142 133.102 19.5142C132.755 19.5142 132.469 19.5801 132.245 19.7119C132.02 19.8389 131.854 20.0146 131.747 20.2393C131.644 20.4639 131.593 20.7202 131.593 21.0083C131.593 21.2866 131.647 21.5308 131.754 21.7407C131.861 21.9507 132.045 22.1411 132.303 22.312C132.567 22.478 132.928 22.6465 133.387 22.8174C134.017 23.042 134.562 23.2935 135.021 23.5718C135.484 23.8452 135.841 24.1846 136.09 24.5898C136.344 24.9902 136.471 25.4956 136.471 26.106C136.471 26.7358 136.324 27.2705 136.031 27.71C135.743 28.1494 135.338 28.4839 134.816 28.7134C134.298 28.938 133.695 29.0503 133.006 29.0503C132.572 29.0503 132.14 28.9941 131.71 28.8818C131.285 28.7646 130.9 28.5742 130.553 28.3105C130.206 28.0469 129.93 27.6978 129.725 27.2632C129.52 26.8237 129.418 26.2866 129.418 25.6519H131.19C131.19 26.0327 131.241 26.3501 131.344 26.604C131.446 26.8579 131.586 27.0581 131.761 27.2046C131.937 27.3511 132.132 27.4561 132.347 27.5195C132.567 27.583 132.787 27.6147 133.006 27.6147C133.373 27.6147 133.68 27.5537 133.929 27.4316C134.183 27.3047 134.374 27.1289 134.501 26.9043C134.632 26.6748 134.698 26.4136 134.698 26.1206ZM139.869 23.938L138.463 23.5938L139.042 18.2324H144.791V19.7266H140.506L140.214 22.3413C140.38 22.2437 140.609 22.1484 140.902 22.0557C141.195 21.958 141.529 21.9092 141.905 21.9092C142.408 21.9092 142.858 21.9922 143.253 22.1582C143.653 22.3193 143.993 22.5562 144.271 22.8687C144.549 23.1763 144.762 23.5522 144.908 23.9966C145.055 24.436 145.128 24.9316 145.128 25.4834C145.128 25.9766 145.055 26.438 144.908 26.8677C144.767 27.2974 144.552 27.6758 144.264 28.0029C143.976 28.3301 143.612 28.5864 143.172 28.772C142.738 28.9526 142.223 29.043 141.627 29.043C141.183 29.043 140.755 28.9795 140.345 28.8525C139.94 28.7207 139.576 28.5278 139.254 28.2739C138.932 28.0151 138.673 27.6978 138.478 27.3218C138.282 26.9409 138.17 26.5039 138.141 26.0107H139.869C139.913 26.3574 140.008 26.6528 140.155 26.897C140.306 27.1362 140.506 27.3193 140.755 27.4463C141.005 27.5732 141.293 27.6367 141.62 27.6367C141.918 27.6367 142.174 27.5854 142.389 27.4829C142.604 27.3755 142.782 27.2241 142.923 27.0288C143.07 26.8286 143.177 26.5942 143.246 26.3257C143.319 26.0571 143.356 25.7593 143.356 25.4321C143.356 25.1196 143.314 24.834 143.231 24.5752C143.153 24.3164 143.033 24.0918 142.872 23.9014C142.716 23.7109 142.518 23.5645 142.279 23.4619C142.04 23.3545 141.764 23.3008 141.451 23.3008C141.031 23.3008 140.709 23.3618 140.484 23.4839C140.265 23.606 140.06 23.7573 139.869 23.938ZM153.624 18.2324V19.1992L149.361 28.8965H147.501L151.756 19.6387H146.234V18.2324H153.624ZM156.92 23.938L155.514 23.5938L156.092 18.2324H161.842V19.7266L157.557 19.7266L157.264 22.3413C157.43 22.2437 157.66 22.1484 157.953 22.0557C158.246 21.958 158.58 21.9092 158.956 21.9092C159.459 21.9092 159.908 21.9922 160.304 22.1582C160.704 22.3193 161.044 22.5562 161.322 22.8687C161.6 23.1763 161.813 23.5522 161.959 23.9966C162.106 24.436 162.179 24.9316 162.179 25.4834C162.179 25.9766 162.106 26.438 161.959 26.8677C161.818 27.2974 161.603 27.6758 161.315 28.0029C161.026 28.3301 160.663 28.5864 160.223 28.772C159.789 28.9526 159.274 29.043 158.678 29.043C158.234 29.043 157.806 28.9795 157.396 28.8525C156.991 28.7207 156.627 28.5278 156.305 28.2739C155.983 28.0151 155.724 27.6978 155.528 27.3218C155.333 26.9409 155.221 26.5039 155.192 26.0107H156.92C156.964 26.3574 157.059 26.6528 157.206 26.897C157.357 27.1362 157.557 27.3193 157.806 27.4463C158.055 27.5732 158.343 27.6367 158.671 27.6367C158.968 27.6367 159.225 27.5854 159.44 27.4829C159.654 27.3755 159.833 27.2241 159.974 27.0288C160.121 26.8286 160.228 26.5942 160.297 26.3257C160.37 26.0571 160.406 25.7593 160.406 25.4321C160.406 25.1196 160.365 24.834 160.282 24.5752C160.204 24.3164 160.084 24.0918 159.923 23.9014C159.767 23.7109 159.569 23.5645 159.33 23.4619C159.09 23.3545 158.815 23.3008 158.502 23.3008C158.082 23.3008 157.76 23.3618 157.535 23.4839C157.316 23.606 157.11 23.7573 156.92 23.938Z" fill="#190F3A"/>
<path d="M66.9713 44.2324H68.3409L71.8346 52.9263L75.3209 44.2324H76.6979L72.3619 54.8965H71.2926L66.9713 44.2324ZM66.5245 44.2324H67.733L67.9308 50.7363V54.8965H66.5245V44.2324ZM75.9288 44.2324H77.1373V54.8965H75.7311V50.7363L75.9288 44.2324ZM84.088 53.5415V49.4619C84.088 49.1494 84.0245 48.8784 83.8976 48.6489C83.7755 48.4146 83.59 48.2339 83.3409 48.1069C83.0919 47.98 82.7843 47.9165 82.4181 47.9165C82.0763 47.9165 81.776 47.9751 81.5172 48.0923C81.2633 48.2095 81.0631 48.3633 80.9166 48.5537C80.775 48.7441 80.7042 48.9492 80.7042 49.1689H79.3492C79.3492 48.8857 79.4225 48.605 79.569 48.3267C79.7155 48.0483 79.9254 47.7969 80.1989 47.5723C80.4772 47.3428 80.8092 47.1621 81.1949 47.0303C81.5856 46.8936 82.0201 46.8252 82.4987 46.8252C83.0748 46.8252 83.5826 46.9229 84.0221 47.1182C84.4664 47.3135 84.8131 47.6089 85.0621 48.0044C85.316 48.395 85.443 48.8857 85.443 49.4766V53.168C85.443 53.4316 85.465 53.7124 85.5089 54.0103C85.5577 54.3081 85.6285 54.5645 85.7213 54.7793V54.8965H84.3077C84.2394 54.7402 84.1857 54.5327 84.1466 54.2739C84.1075 54.0103 84.088 53.7661 84.088 53.5415ZM84.3224 50.0918L84.337 51.0439H82.9674C82.5817 51.0439 82.2374 51.0757 81.9347 51.1392C81.632 51.1978 81.3781 51.2881 81.173 51.4102C80.9679 51.5322 80.8116 51.686 80.7042 51.8716C80.5968 52.0522 80.5431 52.2646 80.5431 52.5088C80.5431 52.7578 80.5992 52.9849 80.7115 53.1899C80.8239 53.395 80.9923 53.5586 81.2169 53.6807C81.4464 53.7979 81.7272 53.8564 82.0592 53.8564C82.4742 53.8564 82.8405 53.7686 83.1578 53.5928C83.4752 53.417 83.7267 53.2021 83.9122 52.9482C84.1027 52.6943 84.2052 52.4478 84.2198 52.2085L84.7985 52.8604C84.7643 53.0654 84.6715 53.2925 84.5201 53.5415C84.3688 53.7905 84.1661 54.0298 83.9122 54.2593C83.6632 54.4839 83.3654 54.6719 83.0187 54.8232C82.6769 54.9697 82.2911 55.043 81.8615 55.043C81.3243 55.043 80.8531 54.938 80.4479 54.728C80.0475 54.5181 79.735 54.2373 79.5104 53.8857C79.2906 53.5293 79.1808 53.1313 79.1808 52.6919C79.1808 52.2671 79.2638 51.8936 79.4298 51.5713C79.5958 51.2441 79.8351 50.9731 80.1476 50.7583C80.4601 50.5386 80.8361 50.3726 81.2755 50.2603C81.715 50.1479 82.2057 50.0918 82.7477 50.0918H84.3224ZM88.9293 48.2168V54.8965H87.5743V46.9717H88.8927L88.9293 48.2168ZM91.4049 46.9277L91.3976 48.1875C91.2853 48.1631 91.1779 48.1484 91.0753 48.1436C90.9777 48.1338 90.8654 48.1289 90.7384 48.1289C90.4259 48.1289 90.15 48.1777 89.9108 48.2754C89.6715 48.373 89.4689 48.5098 89.3029 48.6855C89.1368 48.8613 89.005 49.0713 88.9073 49.3154C88.8146 49.5547 88.7535 49.8184 88.7242 50.1064L88.3434 50.3262C88.3434 49.8477 88.3898 49.3984 88.4825 48.9785C88.5802 48.5586 88.7291 48.1875 88.9293 47.8652C89.1295 47.5381 89.3834 47.2842 89.691 47.1035C90.0035 46.918 90.3746 46.8252 90.8043 46.8252C90.902 46.8252 91.0143 46.8374 91.1412 46.8618C91.2682 46.8813 91.3561 46.9033 91.4049 46.9277ZM94.0197 43.6465V54.8965H92.6573V43.6465H94.0197ZM98.861 46.9717L95.4039 50.6704L93.4703 52.6772L93.3605 51.2344L94.7448 49.5791L97.2057 46.9717H98.861ZM97.6232 54.8965L94.796 51.1172L95.4991 49.9087L99.2198 54.8965H97.6232ZM106.991 51.6738L109.108 44.2324H110.133L109.54 47.1255L107.262 54.8965H106.244L106.991 51.6738ZM104.801 44.2324L106.485 51.5273L106.991 54.8965H105.98L103.395 44.2324H104.801ZM112.872 51.52L114.52 44.2324H115.934L113.356 54.8965H112.345L112.872 51.52ZM110.287 44.2324L112.345 51.6738L113.092 54.8965H112.074L109.877 47.1255L109.276 44.2324H110.287ZM121.72 53.5415V49.4619C121.72 49.1494 121.656 48.8784 121.529 48.6489C121.407 48.4146 121.222 48.2339 120.973 48.1069C120.724 47.98 120.416 47.9165 120.05 47.9165C119.708 47.9165 119.408 47.9751 119.149 48.0923C118.895 48.2095 118.695 48.3633 118.548 48.5537C118.407 48.7441 118.336 48.9492 118.336 49.1689H116.981C116.981 48.8857 117.054 48.605 117.201 48.3267C117.347 48.0483 117.557 47.7969 117.831 47.5723C118.109 47.3428 118.441 47.1621 118.827 47.0303C119.217 46.8936 119.652 46.8252 120.13 46.8252C120.707 46.8252 121.214 46.9229 121.654 47.1182C122.098 47.3135 122.445 47.6089 122.694 48.0044C122.948 48.395 123.075 48.8857 123.075 49.4766V53.168C123.075 53.4316 123.097 53.7124 123.141 54.0103C123.19 54.3081 123.26 54.5645 123.353 54.7793V54.8965H121.94C121.871 54.7402 121.818 54.5327 121.778 54.2739C121.739 54.0103 121.72 53.7661 121.72 53.5415ZM121.954 50.0918L121.969 51.0439H120.599C120.214 51.0439 119.869 51.0757 119.567 51.1392C119.264 51.1978 119.01 51.2881 118.805 51.4102C118.6 51.5322 118.443 51.686 118.336 51.8716C118.229 52.0522 118.175 52.2646 118.175 52.5088C118.175 52.7578 118.231 52.9849 118.343 53.1899C118.456 53.395 118.624 53.5586 118.849 53.6807C119.078 53.7979 119.359 53.8564 119.691 53.8564C120.106 53.8564 120.472 53.7686 120.79 53.5928C121.107 53.417 121.359 53.2021 121.544 52.9482C121.734 52.6943 121.837 52.4478 121.852 52.2085L122.43 52.8604C122.396 53.0654 122.303 53.2925 122.152 53.5415C122.001 53.7905 121.798 54.0298 121.544 54.2593C121.295 54.4839 120.997 54.6719 120.651 54.8232C120.309 54.9697 119.923 55.043 119.493 55.043C118.956 55.043 118.485 54.938 118.08 54.728C117.679 54.5181 117.367 54.2373 117.142 53.8857C116.922 53.5293 116.813 53.1313 116.813 52.6919C116.813 52.2671 116.896 51.8936 117.062 51.5713C117.228 51.2441 117.467 50.9731 117.779 50.7583C118.092 50.5386 118.468 50.3726 118.907 50.2603C119.347 50.1479 119.838 50.0918 120.38 50.0918H121.954ZM126.678 43.6465V54.8965H125.316V43.6465H126.678ZM128.846 43.6465H130.209V53.3584L130.091 54.8965H128.846V43.6465ZM135.563 50.8682V51.022C135.563 51.5981 135.494 52.1328 135.358 52.626C135.221 53.1143 135.021 53.5391 134.757 53.9004C134.493 54.2617 134.171 54.5425 133.79 54.7427C133.409 54.9429 132.972 55.043 132.479 55.043C131.976 55.043 131.534 54.9575 131.153 54.7866C130.777 54.6108 130.46 54.3594 130.201 54.0322C129.943 53.7051 129.735 53.3096 129.579 52.8457C129.427 52.3818 129.322 51.8594 129.264 51.2783V50.6045C129.322 50.0186 129.427 49.4937 129.579 49.0298C129.735 48.5659 129.943 48.1704 130.201 47.8433C130.46 47.5112 130.777 47.2598 131.153 47.0889C131.529 46.9131 131.966 46.8252 132.464 46.8252C132.963 46.8252 133.404 46.9229 133.79 47.1182C134.176 47.3086 134.498 47.582 134.757 47.9385C135.021 48.2949 135.221 48.7222 135.358 49.2202C135.494 49.7134 135.563 50.2627 135.563 50.8682ZM134.2 51.022V50.8682C134.2 50.4727 134.164 50.1016 134.09 49.7549C134.017 49.4033 133.9 49.0957 133.739 48.832C133.578 48.5635 133.365 48.3535 133.102 48.2021C132.838 48.0459 132.513 47.9678 132.128 47.9678C131.786 47.9678 131.488 48.0264 131.234 48.1436C130.985 48.2607 130.773 48.4194 130.597 48.6196C130.421 48.8149 130.277 49.0396 130.165 49.2935C130.057 49.5425 129.977 49.8013 129.923 50.0698V51.835C130.001 52.1768 130.128 52.5063 130.304 52.8237C130.484 53.1362 130.724 53.3926 131.022 53.5928C131.324 53.793 131.698 53.8931 132.142 53.8931C132.508 53.8931 132.821 53.8198 133.08 53.6733C133.343 53.522 133.556 53.3145 133.717 53.0508C133.883 52.7871 134.005 52.4819 134.083 52.1353C134.161 51.7886 134.2 51.4175 134.2 51.022ZM140.565 55.043C140.013 55.043 139.513 54.9502 139.064 54.7646C138.619 54.5742 138.236 54.3081 137.914 53.9663C137.596 53.6245 137.352 53.2192 137.181 52.7505C137.01 52.2817 136.925 51.769 136.925 51.2124V50.9048C136.925 50.2603 137.02 49.6865 137.211 49.1836C137.401 48.6758 137.66 48.2461 137.987 47.8945C138.314 47.543 138.685 47.2769 139.1 47.0962C139.515 46.9155 139.945 46.8252 140.389 46.8252C140.956 46.8252 141.444 46.9229 141.854 47.1182C142.269 47.3135 142.609 47.5869 142.872 47.9385C143.136 48.2852 143.331 48.6953 143.458 49.1689C143.585 49.6377 143.649 50.1504 143.649 50.707V51.3149H137.731V50.209H142.294V50.1064C142.274 49.7549 142.201 49.4131 142.074 49.0811C141.952 48.749 141.756 48.4756 141.488 48.2607C141.219 48.0459 140.853 47.9385 140.389 47.9385C140.082 47.9385 139.798 48.0044 139.54 48.1362C139.281 48.2632 139.059 48.4536 138.873 48.7075C138.688 48.9614 138.544 49.2715 138.441 49.6377C138.339 50.0039 138.287 50.4263 138.287 50.9048V51.2124C138.287 51.5884 138.339 51.9424 138.441 52.2744C138.548 52.6016 138.702 52.8896 138.902 53.1387C139.108 53.3877 139.354 53.583 139.642 53.7246C139.935 53.8662 140.267 53.937 140.638 53.937C141.117 53.937 141.522 53.8394 141.854 53.644C142.186 53.4487 142.477 53.1875 142.726 52.8604L143.546 53.5122C143.375 53.771 143.158 54.0176 142.894 54.252C142.63 54.4863 142.306 54.6768 141.92 54.8232C141.539 54.9697 141.088 55.043 140.565 55.043ZM146.586 48.2168V54.8965H145.231V46.9717H146.549L146.586 48.2168ZM149.061 46.9277L149.054 48.1875C148.942 48.1631 148.834 48.1484 148.732 48.1436C148.634 48.1338 148.522 48.1289 148.395 48.1289C148.082 48.1289 147.806 48.1777 147.567 48.2754C147.328 48.373 147.125 48.5098 146.959 48.6855C146.793 48.8613 146.661 49.0713 146.564 49.3154C146.471 49.5547 146.41 49.8184 146.38 50.1064L146 50.3262C146 49.8477 146.046 49.3984 146.139 48.9785C146.236 48.5586 146.385 48.1875 146.586 47.8652C146.786 47.5381 147.04 47.2842 147.347 47.1035C147.66 46.918 148.031 46.8252 148.461 46.8252C148.558 46.8252 148.671 46.8374 148.797 46.8618C148.924 46.8813 149.012 46.9033 149.061 46.9277ZM155.301 46.9717H156.532V54.728C156.532 55.4263 156.39 56.022 156.107 56.5151C155.824 57.0083 155.428 57.3818 154.921 57.6357C154.418 57.8945 153.837 58.0239 153.177 58.0239C152.904 58.0239 152.582 57.98 152.211 57.8921C151.844 57.8091 151.483 57.665 151.127 57.46C150.775 57.2598 150.48 56.9888 150.24 56.647L150.951 55.8413C151.283 56.2417 151.63 56.52 151.991 56.6763C152.357 56.8325 152.718 56.9106 153.075 56.9106C153.505 56.9106 153.876 56.8301 154.188 56.6689C154.501 56.5078 154.742 56.2686 154.913 55.9512C155.089 55.6387 155.177 55.2529 155.177 54.7939V48.7148L155.301 46.9717ZM149.845 51.022V50.8682C149.845 50.2627 149.916 49.7134 150.057 49.2202C150.204 48.7222 150.411 48.2949 150.68 47.9385C150.953 47.582 151.283 47.3086 151.669 47.1182C152.054 46.9229 152.489 46.8252 152.972 46.8252C153.47 46.8252 153.905 46.9131 154.276 47.0889C154.652 47.2598 154.969 47.5112 155.228 47.8433C155.492 48.1704 155.699 48.5659 155.851 49.0298C156.002 49.4937 156.107 50.0186 156.166 50.6045V51.2783C156.112 51.8594 156.007 52.3818 155.851 52.8457C155.699 53.3096 155.492 53.7051 155.228 54.0322C154.969 54.3594 154.652 54.6108 154.276 54.7866C153.9 54.9575 153.461 55.043 152.958 55.043C152.484 55.043 152.054 54.9429 151.669 54.7427C151.288 54.5425 150.961 54.2617 150.687 53.9004C150.414 53.5391 150.204 53.1143 150.057 52.626C149.916 52.1328 149.845 51.5981 149.845 51.022ZM151.2 50.8682V51.022C151.2 51.4175 151.239 51.7886 151.317 52.1353C151.4 52.4819 151.525 52.7871 151.691 53.0508C151.861 53.3145 152.079 53.522 152.342 53.6733C152.606 53.8198 152.921 53.8931 153.287 53.8931C153.736 53.8931 154.108 53.7979 154.401 53.6074C154.693 53.417 154.925 53.1655 155.096 52.853C155.272 52.5405 155.409 52.2012 155.506 51.835V50.0698C155.453 49.8013 155.37 49.5425 155.257 49.2935C155.15 49.0396 155.008 48.8149 154.833 48.6196C154.662 48.4194 154.449 48.2607 154.195 48.1436C153.942 48.0264 153.644 47.9678 153.302 47.9678C152.931 47.9678 152.611 48.0459 152.342 48.2021C152.079 48.3535 151.861 48.5635 151.691 48.832C151.525 49.0957 151.4 49.4033 151.317 49.7549C151.239 50.1016 151.2 50.4727 151.2 50.8682Z" fill="#999999"/>
<defs>
<linearGradient id="paint0_linear_9156_363" x1="33.018" y1="58.1615" x2="33.018" y2="13.6396" gradientUnits="userSpaceOnUse">
<stop stop-color="#8CEEB5"/>
<stop offset="1" stop-color="#29A05B"/>
</linearGradient>
</defs>
</svg>
