<svg xmlns="http://www.w3.org/2000/svg" width="17" height="22" viewBox="0 0 17 22" fill="none">
  <path fill-rule="evenodd" clip-rule="evenodd" d="M8.82355 0.0663032L8.5 0.823077L8.17645 0.0663032C8.27871 0.0225556 8.38878 0 8.5 0C8.61122 0 8.72129 0.0225556 8.82355 0.0663032ZM16.1771 12.36L17 12.3589V4.83727C17 4.06953 16.5426 3.37527 15.8374 3.07256L8.82355 0.0674002L8.5 0.823077L8.49933 0.824632L8.17536 0.0674002L1.16477 3.07146L1.43021 3.69442L1.16258 3.07146C0.817543 3.2195 0.523499 3.46548 0.316857 3.77896C0.110215 4.09243 4.90978e-05 4.46072 0 4.83617V12.36C0.000117102 13.665 0.345189 14.9468 1.00025 16.0755C1.65531 17.2042 2.59708 18.1397 3.73013 18.7871L8.092 21.279C8.21626 21.35 8.35689 21.3873 8.5 21.3873C8.64311 21.3873 8.78374 21.35 8.908 21.279L13.2699 18.7871C14.4029 18.1397 15.3447 17.2042 15.9998 16.0755C16.6548 14.9468 16.9999 13.665 17 12.36H16.1771ZM15.3548 12.36V4.83727C15.3549 4.78363 15.3393 4.73115 15.3099 4.68631C15.2804 4.64147 15.2385 4.60625 15.1892 4.58501L8.50067 1.71774L1.80968 4.58501L1.80924 4.58398C1.70982 4.62843 1.64516 4.72745 1.64516 4.83617V12.3589C1.64516 12.3593 1.64516 12.3597 1.64516 12.36C1.64538 13.3747 1.9137 14.3713 2.42297 15.2489C2.93241 16.1268 3.66488 16.8544 4.54613 17.358L8.5 19.6178L12.4539 17.358C13.335 16.8545 14.0673 16.127 14.5768 15.2493C15.0862 14.3716 15.3546 13.3749 15.3548 12.36ZM12.4876 9.19847C12.8731 8.81299 12.8731 8.18799 12.4876 7.80251C12.1021 7.41702 11.4771 7.41702 11.0916 7.80251L7.40253 11.4916L5.90697 9.99605C5.52148 9.61057 4.89649 9.61057 4.511 9.99605C4.12552 10.3815 4.12552 11.0065 4.511 11.392L6.70455 13.5856C7.09004 13.9711 7.71503 13.9711 8.10052 13.5856L12.4876 9.19847Z" fill="white"/>
</svg>