<svg width="24" height="24" viewBox="0 0 24 24" fill="none" xmlns="http://www.w3.org/2000/svg">
<path d="M18.8571 0H5.14286C2.30254 0 0 2.30254 0 5.14286V18.8571C0 21.6975 2.30254 24 5.14286 24H18.8571C21.6975 24 24 21.6975 24 18.8571V5.14286C24 2.30254 21.6975 0 18.8571 0Z" fill="url(#paint0_radial_5585_101)"/>
<path d="M18.8571 0H5.14286C2.30254 0 0 2.30254 0 5.14286V18.8571C0 21.6975 2.30254 24 5.14286 24H18.8571C21.6975 24 24 21.6975 24 18.8571V5.14286C24 2.30254 21.6975 0 18.8571 0Z" fill="url(#paint1_radial_5585_101)"/>
<path d="M18.8571 0H5.14286C2.30254 0 0 2.30254 0 5.14286V18.8571C0 21.6975 2.30254 24 5.14286 24H18.8571C21.6975 24 24 21.6975 24 18.8571V5.14286C24 2.30254 21.6975 0 18.8571 0Z" fill="url(#paint2_radial_5585_101)"/>
<path d="M18 7.28571C18 7.62671 17.8646 7.95373 17.6234 8.19485C17.3823 8.43597 17.0553 8.57143 16.7143 8.57143C16.3733 8.57143 16.0463 8.43597 15.8052 8.19485C15.564 7.95373 15.4286 7.62671 15.4286 7.28571C15.4286 6.94472 15.564 6.6177 15.8052 6.37658C16.0463 6.13546 16.3733 6 16.7143 6C17.0553 6 17.3823 6.13546 17.6234 6.37658C17.8646 6.6177 18 6.94472 18 7.28571Z" fill="white"/>
<path fill-rule="evenodd" clip-rule="evenodd" d="M11.9999 16.2858C13.1366 16.2858 14.2267 15.8343 15.0304 15.0305C15.8341 14.2268 16.2857 13.1367 16.2857 12.0001C16.2857 10.8634 15.8341 9.77334 15.0304 8.96961C14.2267 8.16588 13.1366 7.71436 11.9999 7.71436C10.8633 7.71436 9.77322 8.16588 8.96949 8.96961C8.16576 9.77334 7.71423 10.8634 7.71423 12.0001C7.71423 13.1367 8.16576 14.2268 8.96949 15.0305C9.77322 15.8343 10.8633 16.2858 11.9999 16.2858ZM11.9999 14.5715C12.6819 14.5715 13.336 14.3006 13.8182 13.8183C14.3005 13.3361 14.5714 12.6821 14.5714 12.0001C14.5714 11.3181 14.3005 10.664 13.8182 10.1818C13.336 9.69956 12.6819 9.42864 11.9999 9.42864C11.318 9.42864 10.6639 9.69956 10.1817 10.1818C9.69944 10.664 9.42852 11.3181 9.42852 12.0001C9.42852 12.6821 9.69944 13.3361 10.1817 13.8183C10.6639 14.3006 11.318 14.5715 11.9999 14.5715Z" fill="white"/>
<path fill-rule="evenodd" clip-rule="evenodd" d="M3.42859 11.657C3.42859 8.77704 3.42859 7.33704 3.98916 6.23647C4.48222 5.26882 5.26894 4.48209 6.23659 3.98904C7.33716 3.42847 8.77716 3.42847 11.6572 3.42847H12.3429C15.2229 3.42847 16.6629 3.42847 17.7634 3.98904C18.7311 4.48209 19.5178 5.26882 20.0109 6.23647C20.5714 7.33704 20.5714 8.77704 20.5714 11.657V12.3428C20.5714 15.2228 20.5714 16.6628 20.0109 17.7633C19.5178 18.731 18.7311 19.5177 17.7634 20.0108C16.6629 20.5713 15.2229 20.5713 12.3429 20.5713H11.6572C8.77716 20.5713 7.33716 20.5713 6.23659 20.0108C5.26894 19.5177 4.48222 18.731 3.98916 17.7633C3.42859 16.6628 3.42859 15.2228 3.42859 12.3428V11.657ZM11.6572 5.14275H12.3429C13.8112 5.14275 14.8097 5.14447 15.5812 5.20704C16.3329 5.26875 16.7169 5.38018 16.9852 5.51647C17.6303 5.84517 18.1547 6.36965 18.4834 7.01475C18.6206 7.28304 18.732 7.66704 18.792 8.41875C18.8554 9.19018 18.8572 10.1888 18.8572 11.657V12.3428C18.8572 13.811 18.8554 14.8096 18.7929 15.581C18.7312 16.3328 18.6197 16.7168 18.4834 16.985C18.1547 17.6301 17.6303 18.1546 16.9852 18.4833C16.7169 18.6205 16.3329 18.7319 15.5812 18.7919C14.8097 18.8553 13.8112 18.857 12.3429 18.857H11.6572C10.1889 18.857 9.1903 18.8553 8.41887 18.7928C7.66716 18.731 7.28316 18.6196 7.01487 18.4833C6.36978 18.1546 5.84529 17.6301 5.51659 16.985C5.37945 16.7168 5.26802 16.3328 5.20802 15.581C5.14373 14.8096 5.14287 13.811 5.14287 12.3428V11.657C5.14287 10.1888 5.14459 9.19018 5.20716 8.41875C5.26887 7.66704 5.3803 7.28304 5.51659 7.01475C5.84529 6.36965 6.36978 5.84517 7.01487 5.51647C7.28316 5.37932 7.66716 5.2679 8.41887 5.2079C9.1903 5.14447 10.1889 5.14275 11.6572 5.14275Z" fill="white"/>
<defs>
<radialGradient id="paint0_radial_5585_101" cx="0" cy="0" r="1" gradientUnits="userSpaceOnUse" gradientTransform="translate(8.57155 18.0005) rotate(-55.376) scale(21.8739)">
<stop stop-color="#B13589"/>
<stop offset="0.793" stop-color="#C62F94"/>
<stop offset="1" stop-color="#8A3AC8"/>
</radialGradient>
<radialGradient id="paint1_radial_5585_101" cx="0" cy="0" r="1" gradientUnits="userSpaceOnUse" gradientTransform="translate(7.71348 24.8571) rotate(-65.136) scale(19.3665)">
<stop stop-color="#E0E8B7"/>
<stop offset="0.445" stop-color="#FB8A2E"/>
<stop offset="0.715" stop-color="#E2425C"/>
<stop offset="1" stop-color="#E2425C" stop-opacity="0"/>
</radialGradient>
<radialGradient id="paint2_radial_5585_101" cx="0" cy="0" r="1" gradientUnits="userSpaceOnUse" gradientTransform="translate(-1.28571 0.857143) rotate(-8.1301) scale(33.3351 7.13003)">
<stop offset="0.157" stop-color="#406ADC"/>
<stop offset="0.468" stop-color="#6A45BE"/>
<stop offset="1" stop-color="#6A45BE" stop-opacity="0"/>
</radialGradient>
</defs>
</svg>
