<svg width="24" height="18" viewBox="0 0 24 18" fill="none" xmlns="http://www.w3.org/2000/svg">
<path fill-rule="evenodd" clip-rule="evenodd" d="M2.59229 11.8706C2.59229 12.9053 2.79343 13.6998 3.05634 14.1804C3.40103 14.8099 3.91515 15.0766 4.43928 15.0766C5.11531 15.0766 5.73376 14.8872 6.92558 13.026C7.5986 11.9744 8.35621 10.6236 9.00989 9.45816L9.00992 9.45809L9.00995 9.45805C9.2836 8.97015 9.53903 8.51472 9.76241 8.12733L10.7829 6.35692C10.2847 5.55573 9.85604 4.94602 9.54792 4.57633C8.93114 3.83654 8.13827 2.94314 6.873 2.94314C5.84894 2.94314 4.97927 3.75455 4.25149 4.99571C3.22242 6.74953 2.59229 9.36188 2.59229 11.8706ZM0 11.766C0 13.3596 0.278759 14.7581 0.846293 15.824C1.54152 17.132 2.66407 18 4.43928 18C5.93574 18 7.07247 17.2414 8.40367 15.2397C9.16317 14.0965 9.54792 13.4039 11.0669 10.3627L11.8231 8.85016L12.0088 8.47869C12.0695 8.59106 12.1306 8.70516 12.192 8.82094L14.3444 12.8808C15.068 14.2473 16.0086 15.7674 16.8132 16.6231C17.8598 17.738 18.8062 18 19.8745 18C21.593 18 22.6145 16.9756 23.1387 15.9503C23.6812 14.8901 24 13.5481 24 11.7217C24 8.64942 23.319 5.67236 21.916 3.3088C20.634 1.15068 18.959 0 17.2004 0C16.153 0 15.1123 0.527749 14.1474 1.4777C13.4954 2.1199 12.8892 2.93053 12.3273 3.78767C11.6357 2.79907 10.9926 2.04558 10.3692 1.4711C9.18653 0.380733 8.05397 0 6.91473 0C5.07051 0 3.44781 1.27142 2.2729 3.13481C2.19457 3.25904 2.11824 3.3859 2.04396 3.51518C0.70441 5.84764 0 8.86806 0 11.766ZM14.7617 7.86157C14.3219 7.03443 13.9045 6.29045 13.5051 5.62124C13.5762 5.49675 13.647 5.37522 13.7176 5.25675C14.8385 3.37476 15.8359 2.31927 17.0753 2.31927C18.2212 2.31927 19.2628 3.17497 20.0665 4.57539C21.1991 6.54974 21.7132 9.31288 21.7132 11.8027C21.7132 13.5499 21.3459 15.0766 19.8745 15.0766C19.2945 15.0766 18.848 14.8165 18.2103 13.9439C17.7146 13.2644 16.8674 11.8235 15.3785 9.02262L14.7617 7.86157Z" fill="url(#paint0_linear_5585_141)"/>
<defs>
<linearGradient id="paint0_linear_5585_141" x1="3.75574" y1="13.0995" x2="3.75574" y2="6.2199" gradientUnits="userSpaceOnUse">
<stop stop-color="#0082FB"/>
<stop offset="1" stop-color="#0064E0"/>
</linearGradient>
</defs>
</svg>
