<svg xmlns="http://www.w3.org/2000/svg" width="89" height="40" viewBox="0 0 89 40" fill="none">
  <path d="M20.9826 39.5601C17.0722 39.5601 13.5213 38.7061 10.33 36.9981C7.13876 35.2901 4.64417 32.9528 2.84627 29.9863C1.04837 26.9748 0.149414 23.6037 0.149414 19.8731C0.149414 16.1424 1.04837 12.7938 2.84627 9.82729C4.64417 6.81581 7.13876 4.45606 10.33 2.74805C13.5213 1.04004 17.0722 0.186035 20.9826 0.186035C21.3684 0.186035 68.2712 0.194161 68.6493 0.210411C72.1476 0.360763 75.3165 1.20664 78.156 2.74805C81.3472 4.45606 83.8418 6.81581 85.6397 9.82729C87.4376 12.7938 88.3366 16.1424 88.3366 19.8731C88.3366 23.6037 87.4376 26.9748 85.6397 29.9863C83.8418 32.9528 81.3472 35.2901 78.156 36.9981C75.3165 38.5395 72.1476 39.3854 68.6493 39.5358C68.2712 39.552 21.3684 39.5601 20.9826 39.5601ZM20.9826 33.8967C21.3702 33.8967 68.2729 33.8842 68.6493 33.8591C70.8922 33.7098 72.9374 33.1155 74.7849 32.0764C76.9424 30.8628 78.6279 29.1997 79.8415 27.0872C81.1 24.9746 81.7293 22.5699 81.7293 19.8731C81.7293 17.1762 81.1 14.7715 79.8415 12.659C78.6279 10.5465 76.9424 8.88339 74.7849 7.66981C72.9374 6.63062 70.8922 6.03635 68.6493 5.88702C68.2729 5.86196 21.3702 5.84943 20.9826 5.84943C18.2858 5.84943 15.8586 6.45622 13.7011 7.66981C11.5436 8.88339 9.83562 10.5465 8.57709 12.659C7.3635 14.7715 6.75671 17.1762 6.75671 19.8731C6.75671 22.5699 7.3635 24.9746 8.57709 27.0872C9.83562 29.1997 11.5436 30.8628 13.7011 32.0764C15.8586 33.2899 18.2858 33.8967 20.9826 33.8967Z" fill="#232323"/>
</svg>