<svg width="226" height="151" viewBox="0 0 226 151" fill="none" xmlns="http://www.w3.org/2000/svg">
<path fill-rule="evenodd" clip-rule="evenodd" d="M175.426 143.333C177.2 144.231 187.103 150.666 187.103 150.923C187.103 151.186 180.533 150.726 178.438 150.315C175.464 149.733 171.579 148.01 169.991 146.57C169.333 145.973 168.273 144.67 167.634 143.674L166.923 142.565C166.366 142.589 165.807 142.602 165.246 142.602C158.469 143.333 156.255 144.032 154.637 146.362L153.53 145.586C154.977 142.602 158.724 140.395 165.327 140.706C166.367 140.605 167.403 140.505 168.426 140.395L168.14 140.4L168.663 138.73C169.896 134.788 171.865 132.686 176.145 130.743C177.432 130.159 179.143 129.233 179.947 128.685L181.409 127.689L181.175 128.735C180.447 131.993 176.787 137.743 174.501 139.48C175.666 139.229 176.782 138.925 177.834 138.548C179.043 138.133 180.239 137.651 181.417 137.104C181.366 136.789 181.375 136.343 181.425 135.75C181.717 132.283 182.677 130.425 187.381 124.218L191.939 118.202L191.73 120.151C191.615 121.223 191.138 123.744 190.67 125.753C189.901 129.056 188.758 131.743 187.266 133.776C189.58 132.206 191.802 130.383 193.909 128.336L193.735 127.392C193.086 123.866 194.407 117.605 196.774 112.986C197.261 112.034 198.217 109.833 198.897 108.093L200.134 104.93L200.241 110.804C200.301 114.095 200.179 117.72 199.963 119.047C199.749 120.369 199.202 121.89 198.46 123.35C200.62 120.691 202.613 117.777 204.407 114.652C204.217 114.83 204.072 114.909 204.006 114.855C203.424 114.374 202.672 109.931 202.676 106.995C202.679 105.135 203.121 101.664 203.86 97.7008C204.508 94.2216 205.052 90.765 205.068 90.0196C205.098 88.6825 205.107 88.6896 205.75 90.5544C206.514 92.7706 207.749 100.421 207.749 102.934C207.749 103.894 207.497 106.21 207.189 108.08C207.056 108.887 206.924 109.567 206.777 110.161C208.179 107.264 209.416 104.221 210.469 101.06C214.893 88.112 215.958 73.2146 213.841 59.2462C213.841 59.2536 213.841 59.261 213.841 59.2684C213.841 60.7182 213.765 60.7114 212.041 59.1081C209.877 57.095 207.663 53.8335 205.422 49.3537C204.303 47.1171 202.907 44.5247 202.32 43.5928C201.733 42.6607 201.334 41.8984 201.434 41.8984C202.1 41.8984 208.035 46.4122 209.257 47.8488C210.893 49.7717 212.141 51.941 212.919 54.1522C212.124 50.3888 211.09 46.7222 209.822 43.2121C209.751 43.2393 209.661 43.2503 209.549 43.2495C207.97 43.2382 202.441 38.7885 199.608 35.2492C198.946 34.4229 197.598 32.9375 196.612 31.9486C194.613 29.9433 194.85 29.7793 198.215 30.8383C201.854 31.9834 205.126 34.2954 207.326 37.0884C205.986 34.1595 204.471 31.387 202.806 28.7908L201.947 28.787C199.141 28.7748 195.993 27.6993 193.026 25.7397C191.537 24.7561 189.586 23.5859 188.692 23.1394C186.512 22.051 187.172 21.5812 190.894 21.5723C194.574 21.5636 197.096 22.1923 199.269 23.8187C197.659 21.7765 195.95 19.8774 194.157 18.1347C194.143 18.1785 194.122 18.2196 194.093 18.2578C193.976 18.4147 193.307 18.6915 192.607 18.8728C190.557 19.4034 188.199 19.3333 184.226 18.6233C182.178 18.2576 179.932 17.9564 179.234 17.9544C178.535 17.9524 177.964 17.7893 177.964 17.592C177.964 17.3947 179.297 16.6393 180.926 15.9131C184.652 14.2524 188.645 14.0835 191.352 15.4433C189.31 13.4388 187.726 11.8568 186.529 10.6311C186.396 10.7111 186.176 10.7213 185.837 10.7213C183.32 10.7213 181.337 9.39328 178.804 6.01196C176.168 2.49215 174.627 -0.561817 175.815 0.0877711C176.159 0.276189 177.507 0.797501 178.811 1.24602C184.128 3.0765 185.875 4.87679 186.581 9.25279C186.584 9.27153 186.587 9.29002 186.59 9.30829C188.627 10.9668 191.166 13.1514 192.746 14.5524C192.682 14.4688 192.619 14.3856 192.558 14.303C190.596 11.6428 189.642 9.24347 188.793 4.83595L188.189 1.70342L188.915 2.2143C189.315 2.49548 190.541 3.537 191.641 4.52903C195.927 8.3957 198.146 13.2839 197.405 17.2254C197.283 17.8728 197.118 18.4025 197.037 18.4025C196.92 18.4025 196.748 18.334 196.537 18.2107C202.327 24.3524 207.122 32.1542 210.533 41.091C209.988 39.1464 209.666 36.8437 209.664 34.5962C209.661 31.8687 209.902 30.1521 210.804 26.5009L211.948 21.8673L212.912 25.67C215.503 35.889 215.588 39.1119 213.397 44.0711L212.703 45.6395L211.949 44.4688C211.755 44.1678 211.57 43.8297 211.396 43.4603C212.731 47.3099 213.814 51.353 214.616 55.5504C214.641 54.7139 214.724 53.9128 214.864 53.1247C215.351 50.3734 216.688 46.1062 217.384 45.0766C217.641 44.6954 218.372 43.2304 219.007 41.8212C220.13 39.3302 220.162 39.2987 220.17 40.6915C220.175 41.4796 220.297 44.3758 220.442 47.1277C220.867 55.2091 219.788 60.0813 217.087 62.2804C216.332 62.8952 215.962 63.171 215.72 62.9858C216.073 66.2822 216.255 69.6537 216.255 73.0832C216.255 73.4601 216.253 73.8362 216.249 74.2117C217.111 71.1663 220.505 64.4839 221.87 63.2218C222.325 62.8013 223.247 61.8472 223.919 61.1015C224.856 60.0615 225.083 59.9457 224.897 60.6042C224.764 61.076 224.426 63.3126 224.146 65.5745C223.15 73.6166 221.403 78.2143 218.308 80.9353C217.289 81.831 216.248 82.5641 215.994 82.5641C215.921 82.5641 215.856 82.509 215.8 82.4068C215.423 86.2329 214.818 89.9606 214.003 93.5636C215.079 91.2902 216.416 89.2844 217.667 88.2703C218.32 87.7412 219.744 86.4829 220.832 85.4736C221.921 84.4645 223.528 83.0881 224.405 82.4149L226 81.191L223.983 86.6283C222.873 89.6188 221.43 93.1408 220.777 94.4551C219.328 97.3688 216.898 99.917 214.471 101.067C212.443 102.028 211.89 102.239 211.851 101.37C210.488 105.533 208.833 109.479 206.923 113.161C207.676 112.11 208.451 111.157 209.087 110.542C211.216 108.483 215.001 106.174 217.186 105.601C218.232 105.326 219.662 104.809 220.364 104.451C222.16 103.536 222.227 103.613 221.081 105.269C220.522 106.077 219.391 107.936 218.567 109.4C217.038 112.119 213.557 116.143 211.514 117.553C210.889 117.985 209.443 118.614 208.301 118.951C207.16 119.288 205.921 119.477 205.549 119.37C205.177 119.263 204.602 119.173 204.271 119.17C203.776 119.164 203.718 119.08 204.044 118.203C196.029 130.99 184.672 139.771 171.822 142.028C173.097 142.357 174.401 142.815 175.426 143.333ZM200.929 141.11C200.119 141.411 197.934 142.275 196.072 143.029C190.209 145.404 183.882 144.715 181.031 141.393L179.943 140.125L180.815 139.595C184.075 137.612 189.114 137.222 194.145 138.564C195.95 139.045 198.545 139.691 199.913 139.999L202.4 140.56L200.929 141.11ZM210.461 127.498C206.731 130.941 205.722 131.61 201.826 133.224C199.496 134.189 195.988 134.059 193.969 132.933L192.754 132.255L194.074 130.707C194.801 129.856 196.385 128.515 197.595 127.729C198.805 126.942 200.035 126.136 200.328 125.939C201.397 125.219 213.602 123.444 214.114 123.933C214.17 123.987 212.527 125.592 210.461 127.498ZM212.147 84.2414C213.038 88.095 213.027 92.2049 212.116 95.4551C211.418 97.9473 211.396 97.9744 210.726 97.1664C209.899 96.1675 208.876 93.5571 208.211 90.7508C207.822 89.1061 207.146 78.5605 207.092 73.3014C207.076 71.7015 211.422 81.1073 212.147 84.2414ZM214.373 71.6749C214.746 73.6403 214.85 75.3416 214.696 76.9841C214.571 78.3135 214.358 79.4012 214.222 79.4012C213.917 79.4012 210.819 73.8953 209.884 71.6926C209.276 70.259 208.246 66.3457 206.598 59.2093C206.3 57.9201 206.057 56.7615 206.057 56.6347C206.057 56.508 207.43 58.1583 209.108 60.3021C212.401 64.5099 213.438 66.7501 214.373 71.6749ZM206.25 18.6979C207.218 21.2887 207.518 25.0795 207.006 28.2302C206.834 29.2864 206.541 30.1503 206.353 30.1503C206.166 30.1503 205.206 29.0829 204.221 27.7784C201.469 24.1334 200.281 18.7543 200.8 12.2855L201.036 9.33646L203.209 12.8529C204.403 14.7868 205.772 17.4171 206.25 18.6979Z" fill="#F5F5F5"/>
<path fill-rule="evenodd" clip-rule="evenodd" d="M50.574 143.333C48.8003 144.231 38.8973 150.666 38.897 150.923C38.8965 151.186 45.4665 150.726 47.5616 150.315C50.5357 149.733 54.4206 148.01 56.0085 146.57C56.6666 145.973 57.7273 144.67 58.3657 143.674L59.0772 142.565C59.634 142.589 60.1929 142.602 60.754 142.602C67.531 143.333 69.7451 144.032 71.3631 146.362L72.4702 145.586C71.0225 142.602 67.2755 140.395 60.6728 140.706C59.633 140.605 58.5971 140.505 57.5738 140.395L57.86 140.4L57.3373 138.73C56.1035 134.788 54.135 132.686 49.8547 130.743C48.5678 130.159 46.8571 129.233 46.0531 128.685L44.5912 127.689L44.8251 128.735C45.553 131.993 49.2128 137.743 51.4989 139.48C50.3343 139.229 49.2177 138.925 48.1662 138.548C46.9565 138.133 45.7614 137.651 44.5834 137.104C44.6339 136.789 44.6254 136.343 44.5754 135.75C44.2826 132.283 43.3232 130.425 38.6192 124.218L34.0606 118.202L34.2703 120.151C34.3854 121.223 34.8623 123.744 35.33 125.753C36.0991 129.056 37.2416 131.743 38.734 133.776C36.4198 132.206 34.198 130.383 32.0912 128.336L32.265 127.392C32.9139 123.866 31.5932 117.605 29.2262 112.986C28.7387 112.034 27.7834 109.833 27.1032 108.093L25.8663 104.93L25.7592 110.804C25.6991 114.095 25.8212 117.72 26.0366 119.047C26.2514 120.369 26.7975 121.89 27.5403 123.35C25.3803 120.691 23.3871 117.777 21.5928 114.652C21.7831 114.83 21.9275 114.909 21.9936 114.855C22.5759 114.374 23.3277 109.931 23.3235 106.995C23.3207 105.135 22.8788 101.664 22.1403 97.7008C21.4919 94.2216 20.9479 90.765 20.9315 90.0196C20.9019 88.6825 20.8927 88.6896 20.2501 90.5544C19.4864 92.7706 18.2509 100.421 18.2509 102.934C18.2509 103.894 18.5028 106.21 18.8107 108.08C18.9436 108.887 19.0761 109.567 19.2225 110.161C17.8213 107.264 16.5837 104.221 15.531 101.06C11.1069 88.112 10.0421 73.2146 12.1585 59.2462C12.1585 59.2536 12.1585 59.261 12.1585 59.2684C12.1585 60.7182 12.2351 60.7114 13.9591 59.1081C16.1234 57.095 18.3367 53.8335 20.5781 49.3537C21.6971 47.1171 23.093 44.5247 23.6799 43.5928C24.267 42.6607 24.6656 41.8984 24.5658 41.8984C23.8996 41.8984 17.9654 46.4122 16.7431 47.8488C15.1067 49.7717 13.8585 51.941 13.0808 54.1522C13.876 50.3888 14.9097 46.7222 16.1783 43.2121C16.2487 43.2393 16.3391 43.2503 16.4511 43.2495C18.0295 43.2382 23.5587 38.7885 26.3922 35.2492C27.0539 34.4229 28.4018 32.9375 29.3878 31.9486C31.3868 29.9433 31.1497 29.7793 27.7848 30.8383C24.146 31.9834 20.8742 34.2954 18.6735 37.0884C20.0139 34.1595 21.5293 31.387 23.1941 28.7908L24.0534 28.787C26.8586 28.7748 30.0071 27.6993 32.974 25.7397C34.4633 24.7561 36.4136 23.5859 37.3081 23.1394C39.4878 22.051 38.8275 21.5812 35.106 21.5723C31.4264 21.5636 28.904 22.1923 26.7313 23.8187C28.3411 21.7765 30.0504 19.8774 31.8425 18.1347C31.8567 18.1785 31.878 18.2196 31.9066 18.2578C32.0241 18.4147 32.6932 18.6915 33.3933 18.8728C35.4433 19.4034 37.8006 19.3333 41.774 18.6233C43.8217 18.2576 46.0682 17.9564 46.7664 17.9544C47.4645 17.9524 48.0356 17.7893 48.0356 17.592C48.0356 17.3947 46.7028 16.6393 45.0741 15.9131C41.3483 14.2524 37.3545 14.0835 34.6476 15.4433C36.6904 13.4388 38.2737 11.8568 39.4713 10.6311C39.6039 10.7111 39.8243 10.7213 40.1626 10.7213C42.6797 10.7213 44.6629 9.39328 47.1959 6.01196C49.8324 2.49216 51.3734 -0.561817 50.1851 0.0877711C49.8406 0.276189 48.4925 0.797501 47.1894 1.24602C41.8718 3.0765 40.1245 4.87679 39.4187 9.25279C39.4156 9.27153 39.4127 9.29003 39.4097 9.30829C37.3726 10.9668 34.8338 13.1514 33.2537 14.5524C33.3183 14.4688 33.3812 14.3856 33.442 14.303C35.4036 11.6428 36.3577 9.24347 37.2069 4.83595L37.8105 1.70342L37.0846 2.2143C36.6852 2.49548 35.459 3.537 34.3594 4.52903C30.0733 8.3957 27.8543 13.2839 28.5953 17.2254C28.7169 17.8728 28.8823 18.4025 28.9625 18.4025C29.0802 18.4025 29.2521 18.334 29.4631 18.2107C23.6733 24.3524 18.8783 32.1542 15.4669 41.091C16.012 39.1464 16.3337 36.8437 16.3363 34.5962C16.3394 31.8687 16.0977 30.1521 15.1961 26.5009L14.0519 21.8673L13.0877 25.67C10.4965 35.889 10.4117 39.1119 12.6034 44.0711L13.2966 45.6395L14.0509 44.4688C14.2448 44.1678 14.4297 43.8297 14.6042 43.4603C13.2692 47.3099 12.1862 51.353 11.3843 55.5504C11.3591 54.7139 11.2761 53.9128 11.1364 53.1247C10.6486 50.3734 9.31236 46.1062 8.61627 45.0766C8.35853 44.6954 7.62795 43.2304 6.99281 41.8212C5.8701 39.3302 5.83772 39.2987 5.82961 40.6915C5.82502 41.4796 5.7028 44.3758 5.55799 47.1277C5.1328 55.2091 6.21162 60.0813 8.91309 62.2804C9.66815 62.8952 10.0375 63.171 10.2799 62.9858C9.92715 66.2822 9.7445 69.6537 9.7445 73.0832C9.7445 73.4601 9.7467 73.8362 9.75109 74.2117C8.88853 71.1663 5.49541 64.4839 4.12976 63.2218C3.67477 62.8013 2.75294 61.8472 2.08126 61.1015C1.14426 60.0615 0.916473 59.9457 1.10258 60.6042C1.23599 61.076 1.57426 63.3126 1.85429 65.5745C2.85002 73.6166 4.59745 78.2143 7.69234 80.9353C8.71136 81.8311 9.75234 82.5641 10.0056 82.5641C10.0793 82.5641 10.1441 82.509 10.1999 82.4068C10.5767 86.2329 11.1821 89.9606 11.9967 93.5637C10.9213 91.2902 9.5841 89.2844 8.33276 88.2703C7.6799 87.7412 6.25553 86.4829 5.16749 85.4736C4.07944 84.4645 2.47164 83.0881 1.59459 82.4149L-3.8147e-05 81.191L2.01737 86.6283C3.12694 89.6188 4.56959 93.1408 5.22323 94.4551C6.67238 97.3688 9.10241 99.917 11.5288 101.067C13.5568 102.028 14.1096 102.239 14.1489 101.37C15.512 105.533 17.1666 109.479 19.0773 113.161C18.3238 112.11 17.5491 111.157 16.9134 110.542C14.7841 108.483 10.9994 106.174 8.81438 105.601C7.76826 105.326 6.33808 104.809 5.63624 104.451C3.84007 103.536 3.77248 103.613 4.91895 105.269C5.47793 106.077 6.60911 107.936 7.43272 109.4C8.9622 112.119 12.4433 116.143 14.4856 117.553C15.1114 117.985 16.5572 118.614 17.6987 118.951C18.84 119.288 20.0786 119.477 20.4509 119.37C20.8232 119.263 21.3982 119.173 21.7288 119.17C22.2243 119.164 22.282 119.08 21.9557 118.203C29.9708 130.99 41.3275 139.771 54.1777 142.028C52.9034 142.357 51.5994 142.815 50.574 143.333ZM25.0713 141.11C25.8808 141.411 28.0663 142.275 29.9279 143.029C35.7911 145.404 42.118 144.715 44.9685 141.393L46.0566 140.125L45.1851 139.595C41.9252 137.612 36.8857 137.222 31.8545 138.564C30.0502 139.045 27.4547 139.691 26.0867 139.999L23.5995 140.56L25.0713 141.11ZM15.5386 127.498C19.2687 130.941 20.2777 131.61 24.1739 133.224C26.5035 134.189 30.0124 134.059 32.0313 132.933L33.2462 132.255L31.9255 130.707C31.1991 129.856 29.6147 128.515 28.4047 127.729C27.1948 126.942 25.9649 126.136 25.6716 125.939C24.6025 125.219 12.3977 123.444 11.8863 123.933C11.8297 123.987 13.4732 125.592 15.5386 127.498ZM13.8533 84.2414C12.9616 88.095 12.9728 92.2049 13.8836 95.4551C14.5822 97.9473 14.6042 97.9744 15.2736 97.1664C16.101 96.1675 17.1242 93.5571 17.7886 90.7508C18.178 89.1061 18.8543 78.5605 18.9078 73.3014C18.924 71.7015 14.5784 81.1073 13.8533 84.2414ZM11.6268 71.6749C11.2538 73.6403 11.1503 75.3416 11.3041 76.9841C11.4285 78.3135 11.6418 79.4012 11.778 79.4012C12.0828 79.4012 15.1811 73.8953 16.1158 71.6926C16.7242 70.259 17.7542 66.3457 19.4019 59.2093C19.6996 57.9202 19.9432 56.7615 19.9432 56.6347C19.9432 56.508 18.5702 58.1583 16.8923 60.3021C13.5989 64.5099 12.5617 66.7501 11.6268 71.6749ZM19.7497 18.6979C18.7823 21.2887 18.4818 25.0795 18.994 28.2302C19.1657 29.2864 19.4593 30.1503 19.6466 30.1503C19.8342 30.1503 20.7936 29.0829 21.7787 27.7784C24.5314 24.1334 25.7193 18.7543 25.2004 12.2855L24.9638 9.33646L22.7914 12.8529C21.5966 14.7868 20.2278 17.4171 19.7497 18.6979Z" fill="#F5F5F5"/>
</svg>
