<svg xmlns="http://www.w3.org/2000/svg" width="125" height="190" viewBox="0 0 125 190" fill="none">
  <path d="M100.065 0.626145C100.155 0.364915 100.439 0.225694 100.701 0.315202L104.958 1.77371C105.219 1.86322 105.358 2.14754 105.269 2.40878C105.179 2.67001 104.895 2.80924 104.634 2.71973L100.849 1.42328L99.553 5.20735C99.4635 5.46858 99.1792 5.6078 98.9179 5.5183C98.6567 5.4288 98.5175 5.14447 98.607 4.88324L100.065 0.626145ZM100.988 0.56833C138.869 77.9341 125.918 134.562 97.3299 164.798C68.7875 194.985 24.6079 198.809 0.500289 170.364L1.26315 169.717C24.87 197.571 68.3368 194.006 96.6033 164.11C124.824 134.263 137.844 78.1159 100.089 1.00809L100.988 0.56833Z" fill="white"/>
</svg>