<svg width="139" height="120" viewBox="0 0 139 120" fill="none" xmlns="http://www.w3.org/2000/svg">
<path d="M0.511187 4.11657C0.326125 3.91162 0.342245 3.59545 0.547203 3.41039L3.88709 0.394576C4.09205 0.209513 4.40823 0.225638 4.59329 0.430589C4.77835 0.635541 4.76223 0.951713 4.55727 1.13678L1.58848 3.81749L4.26921 6.78629C4.45427 6.99125 4.43815 7.30742 4.23319 7.49248C4.02823 7.67754 3.71207 7.66143 3.52701 7.45647L0.511187 4.11657ZM0.907752 3.28213C71.3156 6.87236 112.69 33.4167 129.385 60.358C137.729 73.8241 139.921 87.4201 136.411 98.2726C132.894 109.149 123.683 117.17 109.453 119.507L109.291 118.52C123.199 116.237 132.072 108.441 135.46 97.9649C138.855 87.4655 136.771 74.1753 128.535 60.8847C112.068 34.3124 71.0595 7.86059 0.856822 4.28083L0.907752 3.28213Z" fill="#A9A9A9"/>
</svg>
