<svg width="279" height="151" viewBox="0 0 279 151" fill="none" xmlns="http://www.w3.org/2000/svg">
<path d="M278.366 36.3139C278.481 37.1342 277.91 37.8928 277.09 38.0083L263.721 39.8893C262.901 40.0047 262.142 39.4333 262.027 38.6129C261.911 37.7926 262.483 37.034 263.303 36.9185L275.186 35.2465L273.514 23.3636C273.399 22.5432 273.97 21.7846 274.79 21.6692C275.611 21.5538 276.369 22.1252 276.485 22.9456L278.366 36.3139ZM0.265066 150.946C-0.452156 96.9739 39.8736 46.1044 94.6805 19.7291C149.556 -6.67937 219.305 -8.72641 277.783 35.3248L275.978 37.721C218.558 -5.53298 150.043 -3.5841 95.9814 22.4324C41.8512 48.482 2.56794 98.4665 3.2648 150.906L0.265066 150.946Z" fill="white"/>
</svg>
