<svg width="27" height="20" viewBox="0 0 27 20" fill="none" xmlns="http://www.w3.org/2000/svg">
<mask id="mask0_8309_856" style="mask-type:luminance" maskUnits="userSpaceOnUse" x="0" y="0" width="27" height="20">
<path d="M0.621582 19.7571H26.1574V0.757141H0.621582V19.7571Z" fill="white"/>
</mask>
<g mask="url(#mask0_8309_856)">
<path fill-rule="evenodd" clip-rule="evenodd" d="M9.7883 1.78396H17.3656C17.3656 1.78396 19.5348 1.82872 19.5348 3.96187V11.7382C19.5348 11.7382 19.5609 13.5494 17.3656 13.5494H9.7883C9.7883 13.5494 7.57765 13.5841 7.57765 11.7382V3.96187C7.57765 3.96187 7.55026 1.78396 9.7883 1.78396ZM8.42143 9.1508L13.4981 3.22098L18.6516 9.09134L16.1804 12.095L13.5856 9.16817L15.9807 6.41637H11.0857L13.4981 9.16817L10.9982 12.0422L8.42143 9.1508Z" fill="#1450A1"/>
<mask id="mask1_8309_856" style="mask-type:luminance" maskUnits="userSpaceOnUse" x="2" y="1" width="23" height="18">
<path d="M2.25586 18.3422H24.9503V1.71181H2.25586V18.3422Z" fill="white"/>
</mask>
<g mask="url(#mask1_8309_856)">
<path d="M9.7883 1.78396H17.3656C17.3656 1.78396 19.5348 1.82872 19.5348 3.96187V11.7382C19.5348 11.7382 19.5609 13.5494 17.3656 13.5494H9.7883C9.7883 13.5494 7.57765 13.5841 7.57765 11.7382V3.96187C7.57765 3.96187 7.55026 1.78396 9.7883 1.78396ZM8.42143 9.1508L13.4981 3.22098L18.6516 9.09134L16.1804 12.095L13.5856 9.16817L15.9807 6.41637H11.0857L13.4981 9.16817L10.9982 12.0422L8.42143 9.1508Z" stroke="#1450A1" stroke-width="0.192432" stroke-miterlimit="3.864"/>
</g>
<path fill-rule="evenodd" clip-rule="evenodd" d="M3.30852 18.27H2.38525L4.42489 14.9837C4.42489 14.9837 4.92459 14.1126 5.45303 15.0138L7.52941 18.27H6.62818L6.063 17.4656H3.81492L3.30852 18.27ZM4.1797 16.8276H5.70558L4.9246 15.581L4.1797 16.8276Z" fill="#1450A1"/>
<mask id="mask2_8309_856" style="mask-type:luminance" maskUnits="userSpaceOnUse" x="2" y="1" width="23" height="18">
<path d="M2.25586 18.3422H24.9503V1.71181H2.25586V18.3422Z" fill="white"/>
</mask>
<g mask="url(#mask2_8309_856)">
<path d="M3.30852 18.27H2.38525L4.42489 14.9837C4.42489 14.9837 4.92459 14.1126 5.45303 15.0138L7.52941 18.27H6.62818L6.063 17.4656H3.81492L3.30852 18.27ZM4.1797 16.8276H5.70558L4.9246 15.581L4.1797 16.8276Z" stroke="#1450A1" stroke-width="0.192432" stroke-miterlimit="3.864"/>
</g>
<path fill-rule="evenodd" clip-rule="evenodd" d="M18.7484 18.27H16.1804C16.1804 18.27 15.3613 18.262 15.3613 17.4656V15.4861C15.3613 15.4861 15.3907 14.6343 16.1804 14.6343H18.7631C18.7631 14.6343 19.5348 14.6611 19.5348 15.4861V17.4656C19.5348 17.4656 19.5735 18.27 18.7484 18.27ZM16.1804 15.4861H18.6516V17.4656H16.1804V15.4861Z" fill="#1450A1"/>
<mask id="mask3_8309_856" style="mask-type:luminance" maskUnits="userSpaceOnUse" x="2" y="1" width="23" height="18">
<path d="M2.25586 18.3422H24.9503V1.71181H2.25586V18.3422Z" fill="white"/>
</mask>
<g mask="url(#mask3_8309_856)">
<path d="M18.7484 18.27H16.1804C16.1804 18.27 15.3613 18.262 15.3613 17.4656V15.4861C15.3613 15.4861 15.3907 14.6343 16.1804 14.6343H18.7631C18.7631 14.6343 19.5348 14.6611 19.5348 15.4861V17.4656C19.5348 17.4656 19.5735 18.27 18.7484 18.27ZM16.1804 15.4861H18.6516V17.4656H16.1804V15.4861Z" stroke="#1450A1" stroke-width="0.192432" stroke-miterlimit="3.864"/>
</g>
<path fill-rule="evenodd" clip-rule="evenodd" d="M20.5976 18.27H19.6743L21.7139 14.9837C21.7139 14.9837 22.2137 14.1126 22.7421 15.0138L24.8185 18.27H23.9172L23.3521 17.4656H21.1033L20.5976 18.27ZM21.4688 16.8276H22.9946L22.2137 15.581L21.4688 16.8276Z" fill="#1450A1"/>
<mask id="mask4_8309_856" style="mask-type:luminance" maskUnits="userSpaceOnUse" x="2" y="1" width="23" height="18">
<path d="M2.25586 18.3422H24.9503V1.71181H2.25586V18.3422Z" fill="white"/>
</mask>
<g mask="url(#mask4_8309_856)">
<path d="M20.5976 18.27H19.6743L21.7139 14.9837C21.7139 14.9837 22.2137 14.1126 22.7421 15.0138L24.8185 18.27H23.9172L23.3521 17.4656H21.1033L20.5976 18.27ZM21.4688 16.8276H22.9946L22.2137 15.581L21.4688 16.8276Z" stroke="#1450A1" stroke-width="0.192432" stroke-miterlimit="3.864"/>
</g>
<path d="M7.57764 14.6343H8.50091V17.4656H10.9848V18.27H8.50091C8.50091 18.27 7.68586 18.2239 7.57764 17.2639V14.6343Z" fill="#1450A1"/>
<mask id="mask5_8309_856" style="mask-type:luminance" maskUnits="userSpaceOnUse" x="2" y="1" width="23" height="18">
<path d="M2.25586 18.3422H24.9503V1.71181H2.25586V18.3422Z" fill="white"/>
</mask>
<g mask="url(#mask5_8309_856)">
<path d="M7.57764 14.6343H8.50091V17.4656H10.9848V18.27H8.50091C8.50091 18.27 7.68586 18.2239 7.57764 17.2639V14.6343Z" stroke="#1450A1" stroke-width="0.192432" stroke-miterlimit="3.864"/>
</g>
<path d="M14.9908 14.6343V15.4861H12.1455V17.4656H15.0336V18.27H12.064C12.064 18.27 11.2275 18.0161 11.2275 17.2492V15.4861C11.2275 15.4861 11.4306 14.6343 12.1014 14.6343H14.9908Z" fill="#1450A1"/>
<mask id="mask6_8309_856" style="mask-type:luminance" maskUnits="userSpaceOnUse" x="2" y="1" width="23" height="18">
<path d="M2.25586 18.3422H24.9503V1.71181H2.25586V18.3422Z" fill="white"/>
</mask>
<g mask="url(#mask6_8309_856)">
<path d="M14.9908 14.6343V15.4861H12.1455V17.4656H15.0336V18.27H12.064C12.064 18.27 11.2275 18.0161 11.2275 17.2492V15.4861C11.2275 15.4861 11.4306 14.6343 12.1014 14.6343H14.9908Z" stroke="#1450A1" stroke-width="0.192432" stroke-miterlimit="3.864"/>
</g>
</g>
</svg>
