<svg width="93" height="40" viewBox="0 0 93 40" fill="none" xmlns="http://www.w3.org/2000/svg">
<path d="M29.8699 12.1811C30.3094 12.2346 30.7143 12.4466 31.0086 12.7774C31.3029 13.1081 31.4665 13.5349 31.4685 13.9777V33.7339C31.4738 33.9723 31.4282 34.2091 31.3346 34.4285C31.2411 34.6478 31.1018 34.8447 30.926 35.0059C30.6457 35.2978 30.2725 35.483 29.8705 35.5298V38.9173C29.8705 38.9806 29.8455 39.0413 29.8008 39.0862C29.7562 39.1311 29.6956 39.1565 29.6323 39.1568C29.5686 39.1568 29.5076 39.1316 29.4624 39.0867C29.4173 39.0419 29.3918 38.9809 29.3914 38.9173V35.5298C28.9898 35.4824 28.617 35.2972 28.3366 35.0059C28.161 34.8446 28.0219 34.6477 27.9286 34.4283C27.8352 34.209 27.7898 33.9722 27.7954 33.7339V13.9777C27.7961 13.535 27.9589 13.1078 28.2529 12.7769C28.5469 12.4459 28.9519 12.234 29.3914 12.1811V6.04212C29.3918 5.97853 29.4173 5.91767 29.4625 5.87289C29.5076 5.82811 29.5687 5.80305 29.6323 5.80322C29.6955 5.80339 29.7561 5.82864 29.8008 5.87342C29.8454 5.91821 29.8705 5.97887 29.8705 6.04212L29.8699 12.1811Z" fill="url(#paint0_linear_8478_1025)"/>
<path d="M23.32 7.10531C23.7588 7.16015 24.1627 7.37261 24.4565 7.70313C24.7502 8.03364 24.9138 8.45967 24.9168 8.90185V28.6581C24.9221 28.8963 24.8765 29.1329 24.7829 29.3521C24.6894 29.5713 24.55 29.7679 24.3743 29.9288C24.0948 30.2213 23.7219 30.4071 23.32 30.454V35.3472C23.3192 35.3941 23.3047 35.4398 23.2783 35.4785C23.2519 35.5173 23.2148 35.5475 23.1715 35.5655C23.1281 35.5834 23.0805 35.5884 23.0344 35.5796C22.9883 35.5709 22.9458 35.5489 22.9121 35.5163C22.8672 35.4717 22.8419 35.4111 22.8416 35.3479V30.454C22.4397 30.4067 22.0667 30.221 21.7867 29.9288C21.6114 29.7678 21.4724 29.5712 21.3791 29.3522C21.2857 29.1331 21.2402 28.8967 21.2455 28.6587V8.90249C21.2469 8.46001 21.4098 8.03325 21.7036 7.70234C21.9973 7.37143 22.4018 7.15914 22.841 7.10531V0.966956C22.841 0.903426 22.8662 0.842499 22.9111 0.797576C22.956 0.752654 23.017 0.727417 23.0805 0.727417C23.1439 0.727919 23.2045 0.753318 23.2493 0.798132C23.2941 0.842945 23.3195 0.903582 23.32 0.966956V7.10531Z" fill="url(#paint1_linear_8478_1025)"/>
<path d="M86.9123 16.9904C86.7064 16.9859 86.5017 17.0235 86.3108 17.1009C86.1199 17.1784 85.9469 17.294 85.8023 17.4407C85.6586 17.5858 85.5453 17.7582 85.4691 17.9477C85.3929 18.1372 85.3553 18.34 85.3585 18.5442C85.3516 18.8294 85.4301 19.11 85.5839 19.3502C85.7378 19.5903 85.9599 19.7789 86.2218 19.8918C87.0404 20.1948 87.8781 20.4458 88.7281 20.6431C89.7034 20.8706 90.6113 21.3253 91.3777 21.9702C92.2058 22.7624 92.6215 23.8807 92.6215 25.3417C92.6233 26.0277 92.4893 26.7074 92.2273 27.3414C91.9652 27.9754 91.5803 28.5513 91.0946 29.0359C90.6089 29.521 90.0322 29.9054 89.3976 30.167C88.763 30.4286 88.0829 30.5622 87.3965 30.5603H83.4838C83.2464 30.5619 83.0111 30.5153 82.7922 30.4233C82.5733 30.3312 82.3754 30.1957 82.2105 30.0248C82.0361 29.8629 81.8979 29.6658 81.8052 29.4465C81.7124 29.2273 81.6672 28.9908 81.6725 28.7528V28.7227C81.677 28.2422 81.8687 27.7824 82.207 27.4412C82.5453 27.0999 83.0034 26.9041 83.4838 26.8955H87.5432C87.8518 26.8991 88.1545 26.8101 88.412 26.64C88.6696 26.4699 88.8703 26.2264 88.9881 25.9411C89.0662 25.7516 89.1053 25.5485 89.104 25.3436C89.1029 25.0742 89.021 24.8114 88.8688 24.5891C88.7165 24.3669 88.5011 24.1955 88.2503 24.0972C88.101 24.0312 87.2613 23.7814 85.7332 23.3517C84.7486 23.1165 83.837 22.6429 83.0784 21.9727C82.2502 21.1657 81.8365 20.0238 81.8365 18.5462C81.8419 17.163 82.3943 15.8382 83.373 14.8608C84.3523 13.8827 85.6781 13.3308 87.0622 13.325H89.8239C90.3075 13.3263 90.771 13.5191 91.1129 13.8612C91.4548 14.2032 91.6475 14.6667 91.6486 15.1503V15.1811C91.655 15.419 91.6105 15.6555 91.5182 15.8749C91.4259 16.0942 91.2878 16.2913 91.1132 16.4531C90.9466 16.6264 90.7462 16.7638 90.5245 16.8568C90.3027 16.9497 90.0643 16.9963 89.8239 16.9936L86.9123 16.9904ZM64.2726 36.7108C63.7948 36.7052 63.3381 36.513 62.9999 36.1753C62.6618 35.8377 62.469 35.3812 62.4626 34.9034V21.9144C62.469 20.2121 62.9814 18.55 63.9325 17.1384C64.6452 16.0831 65.5825 15.1985 66.6772 14.548C67.7719 13.8975 68.997 13.4972 70.2646 13.3758C71.5322 13.2544 72.8109 13.4149 74.0092 13.8459C75.2075 14.2768 76.2956 14.9674 77.1956 15.8683C78.0949 16.7691 78.7832 17.8581 79.2109 19.057C79.6386 20.2559 79.795 21.5347 79.6689 22.8013C79.5427 24.0678 79.1372 25.2907 78.4814 26.3817C77.8257 27.4726 76.9361 28.4045 75.8768 29.1102C74.4594 30.0557 72.7938 30.5605 71.0899 30.5609C68.9167 30.5609 67.2585 30.062 66.1339 29.066V34.9034C66.1253 35.3815 65.9309 35.8375 65.592 36.1748C65.2531 36.5122 64.7962 36.7044 64.3181 36.7108H64.2726ZM71.0899 26.8641C71.7449 26.8703 72.3947 26.7468 73.0018 26.5008C73.6089 26.2548 74.1613 25.8911 74.6273 25.4307C75.3286 24.7371 75.8068 23.8499 76.0006 22.8828C76.1943 21.9157 76.0948 20.9127 75.7147 20.0025C75.3346 19.0923 74.6913 18.3164 73.8673 17.7743C73.0433 17.2321 72.0762 16.9485 71.0899 16.9597C70.1108 16.9615 69.1541 17.2526 68.34 17.7965C67.5259 18.3404 66.8907 19.1129 66.5143 20.0167C66.1385 20.92 66.0383 21.9143 66.2262 22.8745C66.4141 23.8346 66.8818 24.7178 67.5705 25.4127C68.0262 25.883 68.5739 26.2546 69.1793 26.5042C69.7848 26.7539 70.4351 26.8764 71.0899 26.8641ZM57.0717 11.3779C56.7276 11.3798 56.3883 11.2968 56.0839 11.1362C55.7794 10.9757 55.5193 10.7426 55.3264 10.4576C55.1339 10.1724 55.015 9.84399 54.9802 9.50169C54.9455 9.15938 54.9959 8.8138 55.1271 8.49573C55.2583 8.17766 55.4662 7.897 55.7322 7.67875C55.9981 7.46051 56.314 7.31147 56.6516 7.24491C56.9893 7.17796 57.3383 7.19536 57.6676 7.29557C57.997 7.39579 58.2965 7.57572 58.5397 7.81942C58.7382 8.01002 58.896 8.23876 59.0039 8.4919C59.1118 8.74504 59.1674 9.01736 59.1674 9.29252C59.1674 9.56768 59.1118 9.84001 59.0039 10.0931C58.896 10.3463 58.7382 10.575 58.5397 10.7656C58.3496 10.9622 58.1213 11.1179 57.8689 11.2232C57.6165 11.3285 57.3452 11.3812 57.0717 11.3779ZM57.0877 13.3237C57.3258 13.3186 57.5622 13.3637 57.7816 13.4562C58.001 13.5487 58.1985 13.6864 58.361 13.8604C58.5331 14.0272 58.6695 14.2274 58.7617 14.4486C58.854 14.6698 58.9003 14.9075 58.8977 15.1471V28.7535C58.8914 29.2312 58.6987 29.6876 58.3607 30.0252C58.0227 30.3629 57.5661 30.5551 57.0884 30.5609H57.0564C56.8164 30.5643 56.5784 30.5186 56.3568 30.4266C56.1352 30.3346 55.9347 30.1984 55.7677 30.0261C55.5933 29.8639 55.455 29.6668 55.3617 29.4477C55.2683 29.2286 55.2221 28.9923 55.2259 28.7541V15.1465C55.2249 14.9066 55.2724 14.669 55.3655 14.4479C55.4586 14.2268 55.5954 14.0267 55.7677 13.8598C55.9346 13.687 56.1351 13.5503 56.3568 13.458C56.5785 13.3657 56.8168 13.3197 57.057 13.3231L57.0877 13.3237ZM36.6776 36.7114C36.1997 36.7052 35.7431 36.5129 35.4046 36.1754C35.0662 35.838 34.8726 35.3819 34.865 34.904V21.9144C34.8714 20.2121 35.3838 18.55 36.3349 17.1371C37.0476 16.0814 37.985 15.1963 39.0799 14.5455C40.1749 13.8947 41.4002 13.4941 42.6682 13.3726C43.9362 13.2511 45.2153 13.4116 46.4139 13.8427C47.6126 14.2737 48.701 14.9646 49.6012 15.8658C50.8036 17.0711 51.6218 18.6059 51.9523 20.2761C52.2828 21.9463 52.1108 23.677 51.4579 25.2494C50.804 26.8225 49.6986 28.1665 48.2811 29.1115C46.8635 30.0565 45.1979 30.5608 43.4942 30.5609C41.3223 30.5609 39.6641 30.0613 38.5382 29.0654V34.9034C38.5305 35.3816 38.3367 35.8379 37.9979 36.1754C37.659 36.513 37.2019 36.705 36.7237 36.7108H36.6782L36.6776 36.7114ZM43.4936 26.8647C44.1485 26.8709 44.7982 26.7475 45.4052 26.5015C46.0122 26.2555 46.5645 25.8918 47.0303 25.4313C47.4954 24.9709 47.8647 24.4229 48.1167 23.8189C48.3687 23.2149 48.4984 22.567 48.4984 21.9125C48.4984 21.2581 48.3687 20.6101 48.1167 20.0061C47.8647 19.4021 47.4954 18.8541 47.0303 18.3937C46.5646 17.9331 46.0123 17.5693 45.4053 17.3233C44.7983 17.0773 44.1485 16.9539 43.4936 16.9603C42.5147 16.9633 41.5586 17.255 40.7448 17.7989C39.931 18.3428 39.2957 19.1147 38.9186 20.018C38.5428 20.9211 38.4427 21.9153 38.6307 22.8753C38.8188 23.8352 39.2866 24.7181 39.9754 25.4127C40.4313 25.8826 40.9787 26.2538 41.5839 26.5035C42.1891 26.7531 42.839 26.8765 43.4936 26.8647ZM9.01721 16.9904C8.36264 16.9788 7.71265 17.1017 7.10749 17.3514C6.50234 17.6012 5.95489 17.9725 5.49906 18.4424C4.57859 19.3782 4.06275 20.6383 4.06275 21.951C4.06275 23.2636 4.57859 24.5237 5.49906 25.4595C5.95771 25.9244 6.50594 26.2914 7.11056 26.5382C7.71518 26.785 8.3636 26.9066 9.01657 26.8955C9.99889 26.9006 10.9604 26.6127 11.7782 26.0685C12.596 25.5242 13.2329 24.7485 13.6075 23.8404C13.8554 23.2377 13.9809 22.5914 13.9771 21.9394C13.9878 21.2881 13.8645 20.6416 13.6147 20.04C13.3649 19.4384 12.994 18.8946 12.5251 18.4424C12.071 17.9729 11.5252 17.6018 10.9216 17.352C10.3181 17.1022 9.66966 16.9792 9.01657 16.9904H9.01721ZM9.01721 13.3231C10.153 13.3063 11.2801 13.5221 12.3294 13.9571C13.3787 14.3922 14.3278 15.0374 15.1184 15.853C15.9332 16.6411 16.5781 17.5877 17.0135 18.6344C17.4488 19.6812 17.6652 20.8059 17.6496 21.9394V28.7541C17.6546 28.9922 17.6093 29.2286 17.5166 29.4479C17.4238 29.6672 17.2858 29.8645 17.1116 30.0268C16.9464 30.1972 16.7485 30.3324 16.5296 30.4244C16.3108 30.5163 16.0757 30.5629 15.8383 30.5616H15.7928C15.5555 30.5638 15.3201 30.5176 15.1013 30.4256C14.8824 30.3336 14.6847 30.1979 14.5202 30.0268C14.3445 29.8654 14.2051 29.6684 14.1115 29.449C14.0178 29.2295 13.972 28.9927 13.9771 28.7541C12.8415 29.9595 11.1884 30.5616 9.01657 30.5616C7.88183 30.5781 6.7557 30.3625 5.70736 29.9278C4.65903 29.4932 3.71064 28.8488 2.92049 28.0342C2.11833 27.2354 1.48177 26.2862 1.0473 25.2408C0.612833 24.1955 0.389011 23.0747 0.388672 21.9426C0.388499 20.8106 0.61209 19.6897 1.04659 18.6444C1.48109 17.5991 2.11793 16.65 2.92049 15.8517C3.71027 15.0365 4.65857 14.3917 5.70698 13.957C6.75539 13.5222 7.88171 13.3067 9.01657 13.3237L9.01721 13.3231Z" fill="white"/>
<defs>
<linearGradient id="paint0_linear_8478_1025" x1="27.7947" y1="32.5528" x2="27.7947" y2="6.037" gradientUnits="userSpaceOnUse">
<stop stop-color="#F50057"/>
<stop offset="1" stop-color="#651FFF"/>
</linearGradient>
<linearGradient id="paint1_linear_8478_1025" x1="21.2449" y1="0.901627" x2="21.2449" y2="35.2025" gradientUnits="userSpaceOnUse">
<stop stop-color="#F50057"/>
<stop offset="1" stop-color="#651FFF"/>
</linearGradient>
</defs>
</svg>
