<svg width="25" height="92" viewBox="0 0 25 92" fill="none" xmlns="http://www.w3.org/2000/svg">
<path d="M20.9501 27.9759C22.0066 28.1026 22.98 28.6049 23.6875 29.3884C24.395 30.172 24.7882 31.1831 24.7931 32.2319V79.0344C24.8059 79.5992 24.6961 80.1602 24.4712 80.6798C24.2463 81.1995 23.9115 81.6659 23.489 82.0477C22.8151 82.7392 21.918 83.1781 20.9516 83.2889V91.3139C20.9516 91.4638 20.8914 91.6077 20.784 91.714C20.6767 91.8204 20.531 91.8805 20.3788 91.8813C20.2258 91.8813 20.079 91.8216 19.9706 91.7153C19.8621 91.609 19.8007 91.4646 19.7999 91.3139V83.2889C18.8344 83.1766 17.9382 82.738 17.264 82.0477C16.842 81.6657 16.5076 81.1992 16.2832 80.6796C16.0588 80.1599 15.9497 79.599 15.963 79.0344V32.2319C15.9648 31.1832 16.356 30.1713 17.0628 29.3872C17.7697 28.6032 18.7433 28.1012 19.7999 27.9759V13.4327C19.8007 13.282 19.8621 13.1378 19.9707 13.0317C20.0792 12.9256 20.226 12.8663 20.3788 12.8667C20.5309 12.8671 20.6766 12.9269 20.7839 13.033C20.8913 13.1391 20.9516 13.2828 20.9516 13.4327L20.9501 27.9759Z" fill="url(#paint0_linear_8478_968)"/>
<path d="M5.20387 15.9513C6.25868 16.0812 7.2296 16.5845 7.93577 17.3675C8.64195 18.1505 9.03521 19.1597 9.04232 20.2073V67.0097C9.05523 67.5741 8.94555 68.1347 8.72063 68.6539C8.49571 69.1731 8.16075 69.6389 7.7382 70.02C7.06632 70.7131 6.16995 71.1531 5.20387 71.2642V82.8564C5.2019 82.9675 5.16704 83.0756 5.10359 83.1674C5.04014 83.2592 4.95085 83.3308 4.84669 83.3734C4.74253 83.4159 4.62804 83.4276 4.51726 83.4069C4.40648 83.3862 4.30424 83.3341 4.2231 83.2569C4.11525 83.1513 4.05434 83.0077 4.05373 82.8579V71.2642C3.08749 71.1522 2.19091 70.7124 1.51786 70.02C1.09631 69.6386 0.762201 69.1729 0.537843 68.654C0.313485 68.1352 0.204042 67.5751 0.216824 67.0113V20.2088C0.220177 19.1605 0.6117 18.1495 1.31789 17.3656C2.02408 16.5817 2.99637 16.0788 4.05219 15.9513V1.40951C4.05219 1.25901 4.11286 1.11467 4.22085 1.00825C4.32884 0.901828 4.47531 0.842041 4.62803 0.842041C4.78038 0.843231 4.92615 0.9034 5.03388 1.00956C5.14161 1.11573 5.20267 1.25938 5.20387 1.40951V15.9513Z" fill="url(#paint1_linear_8478_968)"/>
<defs>
<linearGradient id="paint0_linear_8478_968" x1="15.9615" y1="76.2365" x2="15.9615" y2="13.4205" gradientUnits="userSpaceOnUse">
<stop stop-color="#F50057"/>
<stop offset="1" stop-color="#651FFF"/>
</linearGradient>
<linearGradient id="paint1_linear_8478_968" x1="0.215285" y1="1.25475" x2="0.215285" y2="82.5134" gradientUnits="userSpaceOnUse">
<stop stop-color="#F50057"/>
<stop offset="1" stop-color="#651FFF"/>
</linearGradient>
</defs>
</svg>
