<svg width="20" height="20" viewBox="0 0 20 20" fill="none" xmlns="http://www.w3.org/2000/svg">
<path d="M16.8304 15.9838C8.80629 19.6894 3.82645 16.589 0.638688 14.7059C0.441431 14.5872 0.106163 14.7336 0.397054 15.0578C1.45906 16.3074 4.93946 19.3192 9.4824 19.3192C14.0285 19.3192 16.7329 16.9121 17.0713 16.4922C17.4073 16.0759 17.1699 15.8462 16.8303 15.9838H16.8304ZM19.0839 14.7761C18.8685 14.5038 17.7737 14.4531 17.0847 14.5352C16.3946 14.6149 15.3589 15.0242 15.4489 15.2699C15.4951 15.3619 15.5894 15.3207 16.0635 15.2793C16.5388 15.2333 17.8704 15.0702 18.1479 15.4222C18.4267 15.7766 17.7232 17.4649 17.5947 17.7372C17.4706 18.0095 17.6421 18.0797 17.8753 17.8983C18.1053 17.7171 18.5216 17.2476 18.801 16.5832C19.0785 15.9152 19.2477 14.9834 19.0839 14.7761Z" fill="#FF9900"/>
<path fill-rule="evenodd" clip-rule="evenodd" d="M11.4351 8.4224C11.4351 9.3947 11.4604 10.2056 10.954 11.069C10.5452 11.7711 9.8977 12.2029 9.17424 12.2029C8.18666 12.2029 7.61151 11.4727 7.61151 10.3951C7.61151 8.26791 9.5757 7.88183 11.4351 7.88183V8.4224ZM14.0287 14.5056C13.8587 14.653 13.6127 14.6636 13.421 14.5652C12.5673 13.8773 12.4154 13.5578 11.9451 12.9014C10.5344 14.2985 9.53597 14.7162 7.70561 14.7162C5.54241 14.7162 3.85669 13.4209 3.85669 10.8269C3.85669 8.80152 4.98899 7.42198 6.59862 6.74807C7.99497 6.15127 9.94474 6.04598 11.4351 5.88105V5.55809C11.4351 4.96483 11.4821 4.26281 11.124 3.75036C10.8093 3.29051 10.2088 3.10094 9.68062 3.10094C8.70036 3.10094 7.82494 3.58884 7.61151 4.59977C7.56805 4.82447 7.39809 5.04563 7.1666 5.05614L4.67058 4.79643C4.46081 4.75071 4.22932 4.58578 4.28719 4.27332C4.86234 1.33887 7.59337 0.454239 10.0387 0.454239C11.2903 0.454239 12.9253 0.777206 13.9129 1.69691C15.1645 2.83066 15.0451 4.34354 15.0451 5.98982V9.87912C15.0451 11.048 15.5443 11.5605 16.0146 12.1924C16.181 12.417 16.2172 12.6873 16.0073 12.8557C15.4828 13.2805 14.5495 14.0703 14.0359 14.5126L14.0287 14.5056" fill="black"/>
<path d="M16.8304 15.9838C8.80629 19.6894 3.82645 16.589 0.638688 14.7059C0.441431 14.5872 0.106163 14.7336 0.397054 15.0578C1.45906 16.3074 4.93946 19.3192 9.4824 19.3192C14.0285 19.3192 16.7329 16.9121 17.0713 16.4922C17.4073 16.0759 17.1699 15.8462 16.8303 15.9838H16.8304ZM19.0839 14.7761C18.8685 14.5038 17.7737 14.4531 17.0847 14.5352C16.3946 14.6149 15.3589 15.0242 15.4489 15.2699C15.4951 15.3619 15.5894 15.3207 16.0635 15.2793C16.5388 15.2333 17.8704 15.0702 18.1479 15.4222C18.4267 15.7766 17.7232 17.4649 17.5947 17.7372C17.4706 18.0095 17.6421 18.0797 17.8753 17.8983C18.1053 17.7171 18.5216 17.2476 18.801 16.5832C19.0785 15.9152 19.2477 14.9834 19.0839 14.7761Z" fill="#FF9900"/>
<path fill-rule="evenodd" clip-rule="evenodd" d="M11.4351 8.4224C11.4351 9.3947 11.4604 10.2056 10.954 11.069C10.5452 11.7711 9.8977 12.2029 9.17424 12.2029C8.18666 12.2029 7.61151 11.4727 7.61151 10.3951C7.61151 8.26791 9.5757 7.88183 11.4351 7.88183V8.4224ZM14.0287 14.5056C13.8587 14.653 13.6127 14.6636 13.421 14.5652C12.5673 13.8773 12.4154 13.5578 11.9451 12.9014C10.5344 14.2985 9.53597 14.7162 7.70561 14.7162C5.54241 14.7162 3.85669 13.4209 3.85669 10.8269C3.85669 8.80152 4.98899 7.42198 6.59862 6.74807C7.99497 6.15127 9.94474 6.04598 11.4351 5.88105V5.55809C11.4351 4.96483 11.4821 4.26281 11.124 3.75036C10.8093 3.29051 10.2088 3.10094 9.68062 3.10094C8.70036 3.10094 7.82494 3.58884 7.61151 4.59977C7.56805 4.82447 7.39809 5.04563 7.1666 5.05614L4.67058 4.79643C4.46081 4.75071 4.22932 4.58578 4.28719 4.27332C4.86234 1.33887 7.59337 0.454239 10.0387 0.454239C11.2903 0.454239 12.9253 0.777206 13.9129 1.69691C15.1645 2.83066 15.0451 4.34354 15.0451 5.98982V9.87912C15.0451 11.048 15.5443 11.5605 16.0146 12.1924C16.181 12.417 16.2172 12.6873 16.0073 12.8557C15.4828 13.2805 14.5495 14.0703 14.0359 14.5126L14.0287 14.5056" fill="black"/>
</svg>
