<svg width="20" height="20" viewBox="0 0 20 20" fill="none" xmlns="http://www.w3.org/2000/svg">
<path d="M0 0.943298H19V11.2001L18.0596 12.6695L19 13.9773V19.9433H0V10.2743L0.58778 9.59836L0 8.95181V0.943298Z" fill="#016FD0"/>
<path d="M3.68848 14.1829V11.1999H6.84691L7.18577 11.6417L7.53584 11.1999H19.0002V13.9772C19.0002 13.9772 18.7003 14.1799 18.3536 14.1829H12.0056L11.6235 13.7127V14.1829H10.3715V13.3802C10.3715 13.3802 10.2005 13.4923 9.83078 13.4923H9.40464V14.1829H7.50905L7.17067 13.7317L6.82709 14.1829H3.68848Z" fill="white"/>
<path d="M0 8.95168L0.712238 7.2912H1.94398L2.34818 8.22133V7.2912H3.87935L4.11997 7.96347L4.35325 7.2912H11.2266V7.62917C11.2266 7.62917 11.5879 7.2912 12.1818 7.2912L14.4119 7.29899L14.8091 8.21695V7.2912H16.0905L16.4432 7.81849V7.2912H17.7363V10.2742H16.4432L16.1052 9.74518V10.2742H14.2226L14.0333 9.80396H13.5272L13.3409 10.2742H12.0642C11.5532 10.2742 11.2266 9.94311 11.2266 9.94311V10.2742H9.30163L8.91957 9.80396V10.2742H1.7615L1.57231 9.80396H1.06782L0.879964 10.2742H0V8.95168Z" fill="white"/>
<path d="M0.96456 7.65894L0.00390625 9.8925H0.629341L0.806594 9.44524H1.83705L2.01338 9.8925H2.65259L1.69286 7.65894H0.96456ZM1.31998 8.17875L1.63408 8.96032H1.00497L1.31998 8.17875Z" fill="#016FD0"/>
<path d="M2.71826 9.8921V7.65854L3.60704 7.66184L4.12398 9.1019L4.62855 7.65854H5.51022V9.8921H4.95183V8.24632L4.35992 9.8921H3.87021L3.27665 8.24632V9.8921H2.71826Z" fill="#016FD0"/>
<path d="M5.89258 9.8921V7.65854H7.7147V8.15815H6.45685V8.54021H7.68531V9.01043H6.45685V9.40719H7.7147V9.8921H5.89258Z" fill="#016FD0"/>
<path d="M8.03809 7.65894V9.8925H8.59648V9.099H8.83159L9.50111 9.8925H10.1835L9.44876 9.06961C9.75029 9.04416 10.0613 8.78536 10.0613 8.38356C10.0613 7.91354 9.69242 7.65894 9.28069 7.65894H8.03809ZM8.59648 8.15855H9.23477C9.38789 8.15855 9.49927 8.27832 9.49927 8.39366C9.49927 8.54205 9.35496 8.62877 9.24304 8.62877H8.59648V8.15855Z" fill="#016FD0"/>
<path d="M10.8592 9.8921H10.2891V7.65854H10.8592V9.8921Z" fill="#016FD0"/>
<path d="M12.2109 9.8921H12.0878C11.4924 9.8921 11.1309 9.42298 11.1309 8.78451C11.1309 8.13025 11.4883 7.65854 12.2403 7.65854H12.8575V8.18754H12.2177C11.9125 8.18754 11.6966 8.42576 11.6966 8.79002C11.6966 9.22257 11.9434 9.40425 12.2991 9.40425H12.446L12.2109 9.8921Z" fill="#016FD0"/>
<path d="M13.4265 7.65894L12.4658 9.8925H13.0913L13.2685 9.44524H14.299L14.4753 9.8925H15.1145L14.1548 7.65894H13.4265ZM13.7819 8.17875L14.096 8.96032H13.4669L13.7819 8.17875Z" fill="#016FD0"/>
<path d="M15.1792 9.8921V7.65854H15.8891L16.7956 9.06187V7.65854H17.354V9.8921H16.667L15.7376 8.45204V9.8921H15.1792Z" fill="#016FD0"/>
<path d="M4.07031 13.8009V11.5673H5.89243V12.0669H4.63458V12.449H5.86304V12.9192H4.63458V13.3159H5.89243V13.8009H4.07031Z" fill="#016FD0"/>
<path d="M12.9985 13.8009V11.5673H14.8207V12.0669H13.5628V12.449H14.7854V12.9192H13.5628V13.3159H14.8207V13.8009H12.9985Z" fill="#016FD0"/>
<path d="M5.96351 13.8009L6.85069 12.6979L5.94238 11.5673H6.64588L7.18682 12.2662L7.7296 11.5673H8.40555L7.50918 12.6841L8.398 13.8009H7.69461L7.16937 13.113L6.6569 13.8009H5.96351Z" fill="#016FD0"/>
<path d="M8.46436 11.5677V13.8013H9.03744V13.0959H9.62522C10.1226 13.0959 10.4995 12.8321 10.4995 12.3189C10.4995 11.8939 10.2039 11.5677 9.69778 11.5677H8.46436ZM9.03744 12.0728H9.65645C9.81712 12.0728 9.93197 12.1713 9.93197 12.33C9.93197 12.479 9.8177 12.5871 9.65461 12.5871H9.03744V12.0728Z" fill="#016FD0"/>
<path d="M10.7417 11.5673V13.8009H11.3001V13.0074H11.5352L12.2047 13.8009H12.8871L12.1524 12.978C12.4539 12.9525 12.7649 12.6937 12.7649 12.2919C12.7649 11.8219 12.396 11.5673 11.9843 11.5673H10.7417ZM11.3001 12.0669H11.9384C12.0915 12.0669 12.2029 12.1867 12.2029 12.302C12.2029 12.4504 12.0586 12.5371 11.9466 12.5371H11.3001V12.0669Z" fill="#016FD0"/>
<path d="M15.0797 13.8009V13.3159H16.1972C16.3626 13.3159 16.4342 13.2266 16.4342 13.1286C16.4342 13.0347 16.3628 12.9398 16.1972 12.9398H15.6922C15.2533 12.9398 15.0088 12.6723 15.0088 12.2708C15.0088 11.9127 15.2327 11.5673 15.8849 11.5673H16.9723L16.7372 12.0698H15.7968C15.617 12.0698 15.5617 12.1642 15.5617 12.2543C15.5617 12.3469 15.6301 12.449 15.7674 12.449H16.2964C16.7857 12.449 16.9981 12.7265 16.9981 13.09C16.9981 13.4808 16.7615 13.8009 16.2698 13.8009H15.0797Z" fill="#016FD0"/>
<path d="M17.129 13.8009V13.3159H18.2465C18.4119 13.3159 18.4835 13.2266 18.4835 13.1286C18.4835 13.0347 18.4121 12.9398 18.2465 12.9398H17.7415C17.3026 12.9398 17.0581 12.6723 17.0581 12.2708C17.0581 11.9127 17.282 11.5673 17.9343 11.5673H19.0217L18.7865 12.0698H17.8461C17.6663 12.0698 17.611 12.1642 17.611 12.2543C17.611 12.3469 17.6794 12.449 17.8167 12.449H18.3457C18.835 12.449 19.0474 12.7265 19.0474 13.09C19.0474 13.4808 18.8108 13.8009 18.3191 13.8009H17.129Z" fill="#016FD0"/>
</svg>
