<svg width="20" height="24" viewBox="0 0 20 24" fill="none" xmlns="http://www.w3.org/2000/svg">
<path d="M19.064 8.25661C18.9296 8.3609 16.5564 9.69813 16.5564 12.6716C16.5564 16.1108 19.5762 17.3275 19.6666 17.3577C19.6527 17.4318 19.1868 19.024 18.0744 20.6463C17.0825 22.0739 16.0465 23.4992 14.4706 23.4992C12.8947 23.4992 12.4891 22.5838 10.6698 22.5838C8.89687 22.5838 8.26649 23.5293 6.82497 23.5293C5.38345 23.5293 4.37763 22.2083 3.22117 20.586C1.88162 18.681 0.799316 15.7215 0.799316 12.9126C0.799316 8.40725 3.72871 6.01785 6.61175 6.01785C8.14366 6.01785 9.42064 7.02367 10.3824 7.02367C11.2979 7.02367 12.7255 5.95759 14.4683 5.95759C15.1288 5.95759 17.502 6.01785 19.064 8.25661ZM13.6409 4.05024C14.3617 3.19506 14.8715 2.00847 14.8715 0.821883C14.8715 0.657336 14.8576 0.490472 14.8275 0.356053C13.6548 0.400087 12.2596 1.13707 11.4184 2.11276C10.7579 2.86365 10.1414 4.05024 10.1414 5.25306C10.1414 5.43383 10.1715 5.61459 10.1854 5.67253C10.2596 5.68644 10.3801 5.70266 10.5006 5.70266C11.5528 5.70266 12.8761 4.99812 13.6409 4.05024Z" fill="black"/>
</svg>
