<svg width="1158" height="242" viewBox="0 0 1158 242" fill="none" xmlns="http://www.w3.org/2000/svg">
<path d="M1295.82 102.683C1267.87 102.683 1239.91 118.877 1211.95 118.877C1183.99 118.877 1156.03 143.167 1128.08 143.167C1100.12 143.167 1072.16 135.071 1044.2 135.071C1016.24 135.071 988.286 21.7154 960.328 21.7154C932.37 21.7154 904.412 216.039 876.454 216.039C848.496 216.039 820.538 -18.7687 792.58 -18.7687C764.622 -18.7687 736.664 240.329 708.706 240.329C680.748 240.329 652.79 159.361 624.831 159.361C596.873 159.361 568.915 54.1026 540.957 54.1026C512.999 54.1026 485.041 118.877 457.083 118.877C429.125 118.877 401.167 -2.57505 373.209 -2.57505C345.251 -2.57505 317.293 118.877 289.335 118.877C261.377 118.877 233.419 -43.0591 205.461 -43.0591C177.503 -43.0591 149.545 183.651 121.587 183.651C93.6286 183.651 65.6707 232.232 37.7126 232.232C9.7546 232.232 -18.2035 118.877 -46.1615 118.877C-74.1195 118.877 -102.078 191.748 -130.036 191.748" stroke="url(#paint0_linear_8188_2031)" stroke-width="2"/>
<defs>
<linearGradient id="paint0_linear_8188_2031" x1="-139.838" y1="-56.1188" x2="1369.83" y2="274.106" gradientUnits="userSpaceOnUse">
<stop offset="0.200498" stop-color="#331D74" stop-opacity="0"/>
<stop offset="0.545" stop-color="white" stop-opacity="0.958751"/>
<stop offset="1" stop-color="#331D74" stop-opacity="0"/>
</linearGradient>
</defs>
</svg>
