<svg width="19" height="19" viewBox="0 0 19 19" fill="none" xmlns="http://www.w3.org/2000/svg">
<path d="M17.9615 11.3998C16.7594 16.2212 11.8761 19.1554 7.05413 17.9531C2.23411 16.7511 -0.700138 11.8675 0.502474 7.04634C1.70396 2.22436 6.58726 -0.710172 11.4078 0.491878C16.2295 1.69393 19.1635 6.57807 17.9615 11.3998Z" fill="#F7931A"/>
<path d="M13.1999 7.94051C13.3791 6.74296 12.4673 6.09918 11.2205 5.66972L11.6249 4.04749L10.6375 3.80139L10.2437 5.38088C9.98412 5.31619 9.7175 5.25516 9.45257 5.19469L9.84913 3.6048L8.86223 3.35871L8.45752 4.98038C8.24264 4.93145 8.03171 4.88307 7.82696 4.83217L7.82808 4.8271L6.46629 4.48707L6.2036 5.54175C6.2036 5.54175 6.93625 5.70966 6.92078 5.72006C7.32071 5.8199 7.393 6.08456 7.3809 6.29437L6.92022 8.14244C6.94778 8.14948 6.9835 8.1596 7.02287 8.17535C6.98997 8.16719 6.95481 8.15819 6.91853 8.14948L6.27279 10.7384C6.22385 10.8599 6.09982 11.0421 5.82026 10.9729C5.8301 10.9873 5.10252 10.7938 5.10252 10.7938L4.6123 11.9241L5.89732 12.2444C6.13638 12.3043 6.37066 12.3671 6.60128 12.4261L6.19263 14.0669L7.17897 14.313L7.58368 12.6896C7.85312 12.7628 8.11468 12.8303 8.37061 12.8938L7.9673 14.5096L8.95476 14.7557L9.36341 13.118C11.0472 13.4366 12.3134 13.3081 12.8464 11.7852C13.2758 10.5589 12.825 9.85158 11.9391 9.39034C12.5843 9.24156 13.0703 8.81716 13.1999 7.94051ZM10.9437 11.1043C10.6386 12.3305 8.57395 11.6676 7.90458 11.5014L8.44683 9.32762C9.1162 9.49468 11.2627 9.82543 10.9437 11.1043ZM11.2492 7.92279C10.9707 9.03822 9.25232 8.4715 8.69489 8.33257L9.18651 6.36102C9.74394 6.49996 11.5391 6.75927 11.2492 7.92279Z" fill="white"/>
</svg>
