<svg width="21" height="41" viewBox="0 0 21 41" fill="none" xmlns="http://www.w3.org/2000/svg">
<path fill-rule="evenodd" clip-rule="evenodd" d="M6.45577 38.8954C6.93693 39.1389 9.62336 40.8854 9.62345 40.9549C9.62359 41.0264 7.84131 40.9014 7.27296 40.7901C6.46617 40.6321 5.41228 40.1646 4.98153 39.7738C4.803 39.6118 4.51525 39.2581 4.34208 38.9879L4.14905 38.6868C3.99803 38.6935 3.84639 38.6968 3.69419 38.6968C1.85576 38.8954 1.25512 39.0851 0.816189 39.7174L0.515869 39.5066C0.908595 38.6968 1.92506 38.098 3.71623 38.1823C3.99828 38.1551 4.27931 38.128 4.5569 38.098L4.47925 38.0993L4.62105 37.6462C4.95575 36.5764 5.48976 36.0062 6.65089 35.4788C7 35.3202 7.46406 35.0689 7.68218 34.9203L8.07874 34.6502L8.01531 34.934C7.81784 35.8179 6.82504 37.3783 6.20486 37.8497C6.52078 37.7815 6.8237 37.6992 7.10896 37.5968C7.43711 37.4842 7.76131 37.3533 8.08088 37.205C8.06717 37.1194 8.06947 36.9985 8.08304 36.8376C8.16246 35.8967 8.42273 35.3926 9.69881 33.7081L10.9354 32.0757L10.8786 32.6046C10.8473 32.8955 10.718 33.5795 10.5911 34.1246C10.3824 35.0211 10.0725 35.7502 9.66766 36.3019C10.2954 35.8758 10.8982 35.381 11.4697 34.8257L11.4225 34.5694C11.2465 33.6127 11.6048 31.9137 12.2469 30.66C12.3791 30.4019 12.6383 29.8045 12.8228 29.3324L13.1583 28.4741L13.1874 30.0681C13.2037 30.961 13.1706 31.9448 13.1121 32.3049C13.0539 32.6638 12.9057 33.0763 12.7042 33.4727C13.2902 32.7509 13.8309 31.9603 14.3176 31.1123C14.266 31.1606 14.2268 31.182 14.2089 31.1672C14.0509 31.0368 13.847 29.831 13.8482 29.0343C13.8489 28.5297 13.9688 27.5877 14.1691 26.5123C14.345 25.5681 14.4926 24.6301 14.497 24.4278C14.5051 24.065 14.5076 24.0669 14.6819 24.573C14.8891 25.1744 15.2242 27.2505 15.2242 27.9323C15.2242 28.1927 15.1559 28.8213 15.0724 29.3289C15.0363 29.548 15.0004 29.7322 14.9607 29.8934C15.3408 29.1074 15.6765 28.2816 15.962 27.4237C17.1622 23.9102 17.4511 19.8675 16.8769 16.077C16.8769 16.079 16.8769 16.081 16.8769 16.083C16.8769 16.4764 16.8562 16.4746 16.3885 16.0395C15.8013 15.4932 15.2009 14.6081 14.5929 13.3925C14.2894 12.7855 13.9107 12.082 13.7515 11.8292C13.5922 11.5762 13.4841 11.3693 13.5112 11.3693C13.6919 11.3693 15.3017 12.5942 15.6333 12.9841C16.0772 13.5059 16.4158 14.0946 16.6267 14.6946C16.411 13.6734 16.1306 12.6784 15.7865 11.7258C15.7674 11.7332 15.7429 11.7362 15.7124 11.736C15.2843 11.7329 13.7844 10.5254 13.0157 9.56496C12.8362 9.34075 12.4705 8.93766 12.2031 8.66931C11.6608 8.12512 11.7251 8.08062 12.6379 8.368C13.625 8.67875 14.5126 9.30614 15.1096 10.0641C14.746 9.26927 14.3349 8.5169 13.8833 7.81238L13.6501 7.81135C12.8892 7.80804 12.0351 7.51619 11.2302 6.98441C10.8262 6.7175 10.2971 6.39994 10.0545 6.27876C9.46317 5.98343 9.6423 5.85593 10.6518 5.85352C11.65 5.85116 12.3343 6.02178 12.9237 6.46311C12.487 5.90892 12.0233 5.39358 11.5372 4.92066C11.5333 4.93255 11.5275 4.9437 11.5198 4.95407C11.4879 4.99665 11.3064 5.07175 11.1165 5.12095C10.5604 5.26495 9.92086 5.24592 8.84299 5.05326C8.28749 4.95401 7.67807 4.87229 7.48869 4.87174C7.2993 4.8712 7.14438 4.82694 7.14438 4.7734C7.14438 4.71986 7.50592 4.51486 7.94776 4.3178C8.95847 3.86713 10.0419 3.82131 10.7762 4.19031C10.222 3.64635 9.79253 3.21704 9.46765 2.88443C9.43168 2.90615 9.3719 2.90892 9.28012 2.90892C8.59728 2.90892 8.05929 2.54853 7.37216 1.63096C6.65694 0.6758 6.2389 -0.152947 6.56125 0.0233299C6.65472 0.0744602 7.02042 0.215927 7.37392 0.337641C8.81647 0.834371 9.29047 1.32291 9.48193 2.51041C9.48275 2.5155 9.48356 2.52052 9.48435 2.52547C10.037 2.97555 10.7257 3.56837 11.1543 3.94855C11.1368 3.92586 11.1198 3.90328 11.1032 3.88088C10.5711 3.15897 10.3123 2.50788 10.0819 1.31183L9.91818 0.461762L10.1151 0.600399C10.2234 0.676703 10.5561 0.959336 10.8544 1.22854C12.0171 2.27783 12.6191 3.60432 12.418 4.67391C12.385 4.84958 12.3402 4.99334 12.3184 4.99334C12.2865 4.99334 12.2399 4.97474 12.1826 4.9413C13.7533 6.60794 15.054 8.72508 15.9795 11.1502C15.8316 10.6225 15.7443 9.99766 15.7436 9.38778C15.7428 8.64763 15.8083 8.18179 16.0529 7.19098L16.3633 5.93356L16.6249 6.9655C17.3278 9.73859 17.3508 10.6132 16.7562 11.9589L16.5682 12.3845L16.3636 12.0669C16.311 11.9852 16.2608 11.8934 16.2135 11.7932C16.5756 12.8378 16.8694 13.935 17.087 15.074C17.0938 14.847 17.1163 14.6297 17.1542 14.4158C17.2865 13.6692 17.649 12.5112 17.8379 12.2318C17.9078 12.1283 18.106 11.7308 18.2783 11.3484C18.5828 10.6724 18.5916 10.6639 18.5938 11.0418C18.5951 11.2557 18.6282 12.0416 18.6675 12.7884C18.7828 14.9814 18.4902 16.3036 17.7573 16.9003C17.5525 17.0672 17.4523 17.142 17.3866 17.0918C17.4822 17.9863 17.5318 18.9012 17.5318 19.8319C17.5318 19.9341 17.5312 20.0362 17.53 20.1381C17.764 19.3117 18.6845 17.4983 19.0549 17.1558C19.1784 17.0417 19.4284 16.7828 19.6106 16.5804C19.8648 16.2982 19.9266 16.2668 19.8761 16.4455C19.8399 16.5735 19.7482 17.1804 19.6722 17.7942C19.4021 19.9766 18.9281 21.2243 18.0885 21.9627C17.8121 22.2057 17.5297 22.4047 17.461 22.4047C17.441 22.4047 17.4234 22.3897 17.4082 22.362C17.306 23.4002 17.1418 24.4118 16.9208 25.3896C17.2125 24.7726 17.5753 24.2283 17.9148 23.9531C18.0919 23.8096 18.4783 23.4681 18.7734 23.1942C19.0686 22.9204 19.5047 22.5468 19.7427 22.3642L20.1752 22.032L19.628 23.5075C19.327 24.3191 18.9356 25.2748 18.7583 25.6315C18.3652 26.4222 17.706 27.1137 17.0477 27.4258C16.4976 27.6866 16.3476 27.7439 16.337 27.5081C15.9672 28.6376 15.5184 29.7085 15 30.7078C15.2044 30.4223 15.4146 30.1638 15.5871 29.997C16.1647 29.4382 17.1914 28.8116 17.7841 28.656C18.0679 28.5815 18.4559 28.4411 18.6463 28.344C19.1335 28.0956 19.1519 28.1166 18.8408 28.5661C18.6892 28.7852 18.3823 29.2896 18.1589 29.687C17.744 30.4248 16.7997 31.5168 16.2457 31.8994C16.0759 32.0166 15.6837 32.1874 15.374 32.2788C15.0644 32.3703 14.7284 32.4215 14.6274 32.3925C14.5264 32.3635 14.3704 32.3391 14.2808 32.3382C14.1463 32.3368 14.1307 32.3138 14.2192 32.0759C12.0449 35.5458 8.96412 37.9288 5.47818 38.5413C5.82386 38.6305 6.17759 38.7547 6.45577 38.8954ZM13.374 38.2919C13.1544 38.3738 12.5615 38.6083 12.0565 38.8129C10.466 39.4572 8.74966 39.2705 7.9764 38.3689L7.68121 38.0247L7.91763 37.8808C8.80196 37.3427 10.1691 37.237 11.5339 37.601C12.0234 37.7316 12.7275 37.907 13.0986 37.9907L13.7733 38.1429L13.374 38.2919ZM15.96 34.5983C14.9481 35.5326 14.6744 35.7142 13.6175 36.1522C12.9855 36.414 12.0336 36.3787 11.4859 36.0731L11.1564 35.8892L11.5146 35.4691C11.7117 35.238 12.1415 34.8743 12.4697 34.6608C12.798 34.4472 13.1316 34.2287 13.2112 34.1752C13.5012 33.9799 16.812 33.498 16.9508 33.6309C16.9661 33.6456 16.5203 34.0809 15.96 34.5983ZM16.4172 22.8598C16.6591 23.9056 16.656 25.0209 16.4089 25.9028C16.2195 26.5792 16.2135 26.5865 16.0319 26.3672C15.8074 26.0962 15.5299 25.3878 15.3496 24.6263C15.244 24.1799 15.0605 21.3182 15.046 19.8911C15.0416 19.4569 16.2205 22.0093 16.4172 22.8598ZM17.0212 19.4497C17.1224 19.983 17.1504 20.4447 17.1087 20.8904C17.075 21.2512 17.0171 21.5463 16.9801 21.5463C16.8975 21.5463 16.057 20.0522 15.8034 19.4545C15.6384 19.0655 15.359 18.0035 14.912 16.067C14.8312 15.7171 14.7651 15.4027 14.7651 15.3683C14.7651 15.3339 15.1376 15.7817 15.5928 16.3635C16.4862 17.5054 16.7676 18.1133 17.0212 19.4497ZM14.8176 5.0735C15.0801 5.77656 15.1616 6.80525 15.0226 7.66025C14.9761 7.94686 14.8964 8.18131 14.8456 8.18131C14.7947 8.18131 14.5345 7.89163 14.2672 7.53763C13.5205 6.54851 13.1982 5.08879 13.339 3.33338L13.4032 2.53312L13.9925 3.48737C14.3166 4.01216 14.6879 4.72594 14.8176 5.0735Z" fill="#F7F5FB"/>
</svg>
