<svg width="1014" height="202" viewBox="0 0 1014 202" fill="none" xmlns="http://www.w3.org/2000/svg">
<path d="M2 190.65L53.1762 154.095C58.0274 150.63 64.8209 152.239 67.6036 157.511V157.511C71.2335 164.389 81.0298 164.539 84.8697 157.777L99.6619 131.725C110.063 113.406 136.719 114.185 146.033 133.079L168.899 179.463C171.459 184.658 178.559 185.412 182.154 180.871L184.153 178.347C186.183 175.782 190.045 175.697 192.188 178.169V178.169C194.649 181.009 199.216 180.394 200.838 177.004L228.964 118.241C232.007 111.883 241.29 112.635 243.27 119.4V119.4C244.74 124.421 250.688 126.537 254.999 123.574L270.654 112.81C276.086 109.076 283.549 110.769 286.838 116.481V116.481C290.604 123.023 299.604 124.099 304.807 118.63L308.311 114.946C315.31 107.587 327.434 109.106 332.403 117.963L338.854 129.462C338.9 129.545 338.92 129.581 338.969 129.664C340.482 132.268 380.188 199.989 415.488 199.989C451.479 199.989 496.163 2.14016 585.743 2.14026C675.323 2.14036 603.442 158.662 752.559 158.662C901.676 158.662 1012.17 2.14026 1012.17 2.14026" stroke="url(#paint0_linear_8183_627)" stroke-width="4.02484"/>
<defs>
<linearGradient id="paint0_linear_8183_627" x1="1019.12" y1="-6.97745" x2="-48.9791" y2="230.109" gradientUnits="userSpaceOnUse">
<stop offset="0.200498" stop-color="#331D74" stop-opacity="0"/>
<stop offset="0.545" stop-color="white" stop-opacity="0.958751"/>
<stop offset="1" stop-color="#331D74" stop-opacity="0"/>
</linearGradient>
</defs>
</svg>
