<svg width="37" height="20" viewBox="0 0 37 20" fill="none" xmlns="http://www.w3.org/2000/svg">
<path d="M24.5974 12.8874C24.4501 12.8437 23.9057 12.6648 23.1683 12.6648C21.261 12.6648 19.8608 14.0247 19.8608 15.8796C19.8608 17.8808 21.4064 19.0962 23.1683 19.0962C23.8683 19.0962 24.4027 18.9304 24.5974 18.8752V17.2079C24.5301 17.2453 24.0177 17.5376 23.2807 17.5376C22.2365 17.5376 21.563 16.8027 21.563 15.8796C21.563 14.9284 22.2656 14.223 23.2807 14.223C24.0303 14.223 24.5344 14.5217 24.5974 14.5546" fill="#049FD9"/>
<path d="M17.9037 12.8606C17.8571 12.8478 17.139 12.6626 16.376 12.6626C14.9313 12.6626 14.0616 13.4427 14.0616 14.6044C14.0616 15.6327 14.7892 16.1455 15.6624 16.4214C15.7592 16.4533 15.9019 16.498 15.9969 16.5294C16.3856 16.6517 16.6959 16.8334 16.6959 17.1482C16.6959 17.5002 16.3373 17.728 15.5577 17.728C14.8726 17.728 14.2158 17.5321 14.0774 17.4972V18.9265C14.1546 18.9428 14.9351 19.0961 15.769 19.0961C16.9684 19.0961 18.3404 18.572 18.3404 17.0118C18.3404 16.2551 17.8771 15.5584 16.8599 15.2351L16.4275 15.0974C16.1695 15.016 15.7089 14.8841 15.7089 14.5059C15.7089 14.2072 16.0502 13.9969 16.6785 13.9969C17.2206 13.9969 17.8804 14.1791 17.9037 14.1864V12.8606ZM31.1491 15.8794C31.1491 16.7831 30.4568 17.5142 29.528 17.5142C28.5982 17.5142 27.9078 16.7831 27.9078 15.8794C27.9078 14.9776 28.5982 14.2461 29.528 14.2461C30.4568 14.2461 31.1491 14.9776 31.1491 15.8794ZM29.528 12.6646C27.6177 12.6646 26.2476 14.1055 26.2476 15.8794C26.2476 17.6562 27.6177 19.0961 29.528 19.0961C31.4382 19.0961 32.8102 17.6562 32.8102 15.8794C32.8102 14.1055 31.4382 12.6646 29.528 12.6646ZM11.9598 18.9855H10.3923V12.7747H11.9598" fill="#049FD9"/>
<path d="M8.23805 12.8874C8.09077 12.8437 7.54634 12.6648 6.80895 12.6648C4.90161 12.6648 3.50146 14.0247 3.50146 15.8796C3.50146 17.8808 5.04706 19.0962 6.80895 19.0962C7.50894 19.0962 8.04328 18.9304 8.23805 18.8752V17.2079C8.1707 17.2453 7.65837 17.5376 6.92131 17.5376C5.87712 17.5376 5.20361 16.8027 5.20361 15.8796C5.20361 14.9284 5.90625 14.223 6.92131 14.223C7.67095 14.223 8.175 14.5217 8.23805 14.5546" fill="#049FD9"/>
<path d="M10.3877 1.03214C10.3877 0.60404 10.038 0.256859 9.60943 0.256859C9.181 0.256859 8.83133 0.60404 8.83133 1.03214V9.27976C8.83133 9.71034 9.181 10.0574 9.60943 10.0574C10.038 10.0574 10.3877 9.71034 10.3877 9.27976V1.03214ZM6.11346 3.95985C6.11346 3.53191 5.76396 3.18423 5.33536 3.18423C4.90677 3.18423 4.55727 3.53191 4.55727 3.95985V7.73035C4.55727 8.16077 4.90677 8.50795 5.33536 8.50795C5.76396 8.50795 6.11346 8.16077 6.11346 7.73035V3.95985ZM1.83939 6.09986C1.83939 5.67176 1.4899 5.32474 1.0613 5.32474C0.633197 5.32474 0.283203 5.67176 0.283203 6.09986V7.73035C0.283203 8.16077 0.633197 8.50795 1.0613 8.50795C1.4899 8.50795 1.83939 8.16077 1.83939 7.73035" fill="#049FD9"/>
<path d="M8.83155 1.03222C8.83155 0.604116 9.18121 0.256935 9.60981 0.256935C10.0382 0.256935 10.3879 0.604116 10.3879 1.03222V9.27983C10.3879 9.71042 10.0382 10.0574 9.60981 10.0574C9.18121 10.0574 8.83155 9.71042 8.83155 9.27983V1.03222ZM13.1058 3.95992C13.1058 3.53199 13.4553 3.18431 13.8839 3.18431C14.3125 3.18431 14.662 3.53199 14.662 3.95992V7.73043C14.662 8.16084 14.3125 8.50803 13.8839 8.50803C13.4553 8.50803 13.1058 8.16084 13.1058 7.73043V3.95992ZM17.3798 6.09993C17.3798 5.67183 17.7293 5.32482 18.1579 5.32482C18.586 5.32482 18.936 5.67183 18.936 6.09993V7.73043C18.936 8.16084 18.586 8.50803 18.1579 8.50803C17.7293 8.50803 17.3798 8.16084 17.3798 7.73043" fill="#049FD9"/>
<path d="M25.9229 1.03222C25.9229 0.604116 26.2725 0.256935 26.7011 0.256935C27.1295 0.256935 27.4792 0.604116 27.4792 1.03222V9.27983C27.4792 9.71042 27.1295 10.0574 26.7011 10.0574C26.2725 10.0574 25.9229 9.71042 25.9229 9.27983V1.03222ZM30.1971 3.95992C30.1971 3.53199 30.5466 3.18431 30.9752 3.18431C31.4038 3.18431 31.7533 3.53199 31.7533 3.95992V7.73043C31.7533 8.16084 31.4038 8.50803 30.9752 8.50803C30.5466 8.50803 30.1971 8.16084 30.1971 7.73043V3.95992ZM34.4712 6.09993C34.4712 5.67183 34.8207 5.32482 35.2492 5.32482C35.6773 5.32482 36.0273 5.67183 36.0273 6.09993V7.73043C36.0273 8.16084 35.6773 8.50803 35.2492 8.50803C34.8207 8.50803 34.4712 8.16084 34.4712 7.73043" fill="#049FD9"/>
<path d="M27.479 1.03229C27.479 0.604192 27.1293 0.257011 26.7007 0.257011C26.2723 0.257011 25.9226 0.604192 25.9226 1.03229V9.27991C25.9226 9.71049 26.2723 10.0575 26.7007 10.0575C27.1293 10.0575 27.479 9.71049 27.479 9.27991V1.03229ZM23.2048 3.96C23.2048 3.53206 22.8553 3.18439 22.4267 3.18439C21.9981 3.18439 21.6486 3.53206 21.6486 3.96V7.7305C21.6486 8.16092 21.9981 8.5081 22.4267 8.5081C22.8553 8.5081 23.2048 8.16092 23.2048 7.7305V3.96ZM18.9307 6.10001C18.9307 5.67191 18.5812 5.32489 18.1526 5.32489C17.7245 5.32489 17.3745 5.67191 17.3745 6.10001V7.7305C17.3745 8.16092 17.7245 8.5081 18.1526 8.5081C18.5812 8.5081 18.9307 8.16092 18.9307 7.7305" fill="#049FD9"/>
</svg>
