<svg width="58" height="20" viewBox="0 0 58 20" fill="none" xmlns="http://www.w3.org/2000/svg">
<path d="M22.2527 16.9666C20.1089 15.5856 17.1995 15.3433 12.5075 16.645C7.50543 17.8205 5.83768 18.574 3.64745 17.0614C2.80601 16.3183 2.50433 15.1219 2.7296 13.3985C3.25208 10.5892 4.66403 7.88562 7.172 4.88672C8.57192 3.3267 9.87045 1.98792 11.5852 1.45032C12.8993 1.11306 12.7765 2.14585 12.6174 2.29355C12.4496 2.29355 12.1678 2.31998 11.9499 2.46214C11.7731 2.59926 11.2878 3.04202 11.2617 3.63759C11.2241 4.54932 12.1677 4.35956 12.5747 3.85897C13.0133 3.29487 13.6616 2.21462 13.1517 1.20784C12.9379 0.849483 12.5686 0.601819 12.1101 0.517488C10.54 0.427756 9.07769 1.17622 7.72818 2.00369C4.77681 4.05392 2.41589 6.89482 1.07999 10.0045C0.309778 11.8807 -0.386764 14.5684 0.657328 16.7559C1.46499 18.2737 3.14182 19.0799 5.14236 18.9113C6.54546 18.7639 8.24209 18.3104 9.38319 18.0366C10.5243 17.7624 16.3655 15.7545 18.2847 19.2491C18.2847 19.2491 18.9229 18.0102 20.5178 17.9837C21.8291 17.8628 23.7208 18.3633 25.0984 19.3751C24.6394 18.6849 23.3382 17.6677 22.2527 16.9666Z" fill="#E61D2A"/>
<path d="M13.1032 5.23974C12.0107 4.52296 9.81494 5.89329 8.05622 8.24383C6.44796 10.3523 5.7535 12.8028 6.50924 13.9359C7.63349 15.2693 9.72052 13.3298 10.6081 12.2917L10.7226 12.1704C11.3261 11.5221 11.7924 10.742 12.2438 9.99354C12.2438 9.99354 12.6586 9.30838 12.6784 9.27669C12.9348 9.22945 13.2436 9.15563 13.5915 9.05546C13.5866 9.07115 12.2602 11.3006 12.3955 12.4072C12.4376 12.7449 12.4054 13.9781 13.6095 14.3523C15.2144 14.6212 16.4958 13.3772 17.6263 12.2704C17.6263 12.2704 17.819 12.0861 17.9279 11.9809C17.9004 12.0913 17.8644 12.2386 17.8644 12.2386C17.3946 13.8725 18.0279 14.2153 18.4241 14.3418C19.6213 14.6899 21.0516 12.9505 21.0562 12.9505C21.0192 13.4984 20.9107 13.9516 21.4883 14.3153C22.0334 14.5105 22.5852 14.213 23.0045 13.9336C24.5151 12.869 25.732 11.2028 26.7149 9.76244H26.088C26.0805 9.76244 24.5408 11.9941 23.541 12.4791C23.5394 12.4791 23.3575 12.5725 23.2527 12.4986C23.1229 12.3879 23.1741 12.1577 23.2543 11.9947C23.2593 11.984 27.1146 5.29743 27.1146 5.29743H25.2943C25.2943 5.29743 25.0954 5.61912 25.0792 5.64023C25.067 5.62971 25.0378 5.5744 25.0176 5.5479C23.8898 3.98788 21.3359 6.38747 19.4131 9.17018C18.6729 10.2402 17.7304 11.445 16.7531 12.3146C16.7531 12.3146 15.3054 13.6417 14.6868 12.6882C14.4606 12.2875 14.5302 11.7018 14.6577 11.3172C15.378 9.26697 16.619 7.40628 18.0313 6.28355C18.43 5.9728 18.8633 5.88292 19.0783 6.01471C19.2832 6.13613 19.3163 6.43629 19.1866 6.6419C18.8577 6.63139 18.5942 6.73134 18.38 6.95272C17.958 7.39548 17.8113 7.82246 17.9455 8.22309C18.5973 9.15066 19.8973 7.31648 19.8344 6.19914C19.812 5.79852 19.5982 5.41914 19.2792 5.23449C18.8039 4.95002 18.0787 5.02369 17.6093 5.25047C16.9811 5.48755 15.9865 6.31495 15.406 6.95805C14.6752 7.76456 13.4218 8.66045 13.0298 8.56013C13.1582 8.2174 14.2169 6.05129 13.1032 5.23974ZM21.8792 8.44418C22.2333 7.95411 23.2639 6.64168 23.5152 6.42038C24.3602 5.67695 24.698 6.00405 24.7272 6.2358C23.9386 7.64826 23.0077 9.26639 22.1326 10.7211C22.1344 10.7159 21.8587 11.1374 21.8587 11.1374C21.4722 11.7276 21.083 12.2336 20.4482 12.5867C20.3577 12.6132 20.2085 12.6238 20.1092 12.5498C19.9896 12.4707 19.9424 12.3389 19.9559 12.2018C19.9939 11.7487 20.4553 10.3628 21.8792 8.44418ZM11.9766 9.29268C11.9766 9.29268 11.9607 9.34028 11.9529 9.35584C11.9509 9.35584 11.1593 10.6469 11.1593 10.6469C10.6815 11.2848 10.085 12.0861 9.33934 12.4707C9.11832 12.5445 8.81283 12.592 8.65713 12.3972C8.32708 12.0018 8.49718 11.4537 8.63538 11.011L8.68428 10.8528C9.08051 9.77778 9.70922 8.82889 10.3211 7.94871C10.3288 7.94352 10.3459 7.93827 10.3521 7.93827C10.3535 7.94352 10.356 7.94352 10.3571 7.95411C10.7411 8.69184 11.4611 9.03428 11.9996 9.19265C12.0028 9.19265 12.0062 9.1979 12.0062 9.20849C12.0063 9.22419 11.9975 9.24543 11.9766 9.29268ZM12.7266 7.76968C12.7231 7.78019 12.374 8.58123 12.374 8.58123C12.3235 8.62336 12.2437 8.60233 12.1522 8.58123L11.9955 8.55473C11.5034 8.40198 11.1323 8.07517 11.0178 7.6852C10.86 6.92622 11.5083 6.33065 11.794 6.11467C12.0681 5.92476 12.4942 5.82466 12.7417 6.01975C12.8943 6.199 12.9521 6.43082 12.9521 6.68396C12.9522 7.02647 12.8465 7.41118 12.7266 7.76968Z" fill="#E61D2A"/>
<path d="M35.739 10.2151C35.5634 9.83574 35.1468 9.59326 34.7027 9.61954C33.2607 9.75141 31.8503 10.9372 31.1097 12.6395C30.7211 13.5145 30.5091 14.2364 30.37 15.3854C30.8184 14.869 31.733 14.0205 32.7709 13.5567C32.7709 13.5567 32.9121 12.4552 33.6323 11.4748C33.9048 11.0689 34.4501 10.4154 35.0625 10.5892C35.5975 10.7686 35.4095 12.2496 34.6984 13.6828C34.1722 14.7371 33.3671 15.7915 32.5524 16.5186C31.8322 17.1301 30.7666 17.8679 29.8343 17.2987C29.247 16.951 28.9475 16.2235 29.0108 15.2854C29.2914 12.6238 30.5029 10.3575 32.2367 7.77499C34.0245 5.37692 35.9951 2.91562 38.6499 1.60305C39.1913 1.32903 39.6928 1.2658 40.1263 1.43446C40.1263 1.43446 37.6342 2.80479 36.4463 5.33998C36.1441 5.98308 35.7238 6.85246 36.1471 7.62203C36.3682 8.02251 36.7609 8.0542 37.0771 8.0331C38.5332 7.6957 39.4739 6.33596 40.2426 5.09224C40.6882 4.14883 41.0843 3.21067 41.0843 2.16708C41.0843 2.04062 41.0777 1.87203 41.067 1.74543C41.7627 1.37663 43.1892 2.03003 43.1892 2.03003C44.3039 2.39912 46.6775 4.21753 47.4782 4.56522C47.8687 4.11203 48.5105 3.42693 48.8719 3.08428L48.3488 2.76273C47.5112 2.25148 46.6259 1.76653 45.7545 1.28697C43.7756 0.206652 42.1648 0.586034 41.345 0.881229C41.0228 0.997104 40.7283 1.09728 40.7283 1.09728C40.1199 0.433216 39.1221 0.496302 38.3869 0.675623C35.7429 1.43453 33.2881 3.28441 30.6563 6.49425C28.7213 9.00834 27.5211 11.1799 26.8814 13.3249C26.3883 14.7689 26.2384 16.8929 27.442 18.1526C28.4652 19.2222 29.8221 18.9905 30.7803 18.6059C32.8563 17.5834 34.7222 15.3802 35.6519 12.8451C35.8762 12.0915 36.1252 11.0269 35.739 10.2151ZM40.5126 2.27258C40.2378 5.42438 37.7879 7.27448 37.1817 7.42182C36.8144 7.4955 36.1875 7.33223 36.7471 6.00951C37.5712 4.2279 38.9781 2.71541 40.4876 1.94059C40.5244 2.07238 40.5234 2.15649 40.5126 2.27258Z" fill="#E61D2A"/>
<path d="M55.045 2.6728C53.7272 3.42133 52.3611 3.90608 50.7074 3.73749C50.2491 4.25413 49.8029 4.7864 49.3916 5.33445C51.7126 5.92477 54.1733 4.61241 55.5455 3.36343C56.9972 2.10372 57.7417 0.51742 57.7417 0.51742C57.7417 0.51742 56.6535 1.76114 55.045 2.6728Z" fill="#E61D2A"/>
<path d="M29.1646 6.88185L30.1401 5.29749H28.4114L27.4363 6.88185H29.1646Z" fill="#E61D2A"/>
<path d="M50.7006 17.1133C50.5147 17.2398 50.2535 17.1425 50.3512 16.8527C50.5944 16.1149 51.5613 14.6112 51.5613 14.6112L54.2544 9.83461H52.4096C52.322 9.97864 52.1345 10.3094 52.1345 10.3094C52.0491 10.1672 51.7939 9.8511 51.6888 9.78283C51.2382 9.498 50.5769 9.63267 50.1207 9.89085C48.1375 11.0505 46.6905 13.3417 45.5493 15.1285C45.5493 15.1285 44.348 17.1147 43.6811 17.2624C43.1605 17.3046 43.2142 16.6033 43.2368 16.4399C43.4381 15.2592 43.9055 14.1366 44.3765 13.1194C45.3344 12.4554 46.4276 11.5858 47.4211 10.6318C49.5771 8.57086 51.3947 6.23602 51.6604 5.71426C51.6604 5.71426 51.3728 5.77231 51.0333 5.78275C49.3746 8.09649 45.9803 11.4592 44.9513 11.9598C45.4071 10.8634 48.3524 5.62986 50.8588 3.12643L51.2532 2.74683C51.863 2.15126 52.495 1.53991 52.9874 1.43974C53.0394 1.43448 53.1064 1.43974 53.1642 1.56116C53.1862 2.02487 53.0136 2.36752 52.8155 2.75749L52.538 3.32678C52.538 3.32678 52.9311 3.25296 53.1893 3.16842C53.4889 2.60474 53.8207 1.97208 53.6984 1.21857C53.6575 0.976096 53.482 0.791662 53.2527 0.74946C52.505 0.607156 51.6901 1.16039 51.0345 1.60854L51.008 1.62424C47.6376 4.26479 44.7915 8.07013 42.3032 13.2669C42.1229 13.4037 41.4261 13.5673 41.3077 13.4881C41.5534 12.9823 41.8628 12.3022 42.0176 11.5644C42.0444 11.3535 42.0693 11.1375 42.0693 10.9267C42.0693 10.4731 41.9604 10.0463 41.554 9.75128C41.0776 9.51406 40.4887 9.62482 40.0917 9.80393C38.313 10.5418 36.9837 12.3655 36.0244 13.8674C35.5085 14.8217 34.9941 15.8436 34.8516 17.0139C34.7513 17.9308 34.9556 18.5211 35.4769 18.8164C36.013 19.0903 36.6878 18.8056 36.9529 18.6687C38.7548 17.72 40.0138 15.8175 41.0063 14.0781C41.0458 14.0729 41.5876 14.0572 41.9975 13.9516C42.0029 13.9516 42.0052 13.9516 42.0143 13.9572C41.9908 14.0359 41.779 14.6686 41.779 14.6686C41.15 16.5131 40.8592 17.7676 41.4533 18.5106C42.3023 19.5595 43.7078 18.4739 44.8512 17.0401C44.6058 18.7582 45.4963 19.0271 46.175 18.8955C46.9548 18.6848 47.8236 17.8518 48.2269 17.4251C48.0974 17.9256 48.1326 18.8217 48.8419 18.9113C49.3281 19.0011 49.6919 18.7367 50.1129 18.51C51.623 17.6877 53.4307 14.9477 53.9 14.1555H53.2846C52.6175 15.1638 51.7685 16.4858 50.7006 17.1133ZM37.1458 16.9298C37.05 16.7875 37.0182 16.6319 37.0151 16.4636C36.9967 15.4302 38.1086 13.5795 38.8934 12.5712C38.8951 12.5712 38.8951 12.5712 38.8951 12.5712C39.224 13.2914 39.9688 13.7543 40.4184 13.9494C39.8599 15.1933 37.9448 17.8574 37.1458 16.9298ZM40.7335 13.3933C40.6803 13.4304 39.7411 13.114 39.5596 12.2444C39.4057 11.4957 39.9212 10.9107 40.42 10.6158C40.6341 10.4471 40.9566 10.3893 41.1932 10.4732C41.4128 10.621 41.4722 10.8847 41.4722 11.1689C41.4722 11.3432 41.4491 11.5222 41.4287 11.6856C41.4287 11.6856 41.4249 11.7173 41.4242 11.7226C41.2677 12.3074 41.0283 12.882 40.7335 13.3933ZM48.2661 16.5978C48.2653 16.5978 48.0879 16.7559 48.0879 16.7559C47.8346 16.9824 47.5739 17.2248 47.2592 17.1036C47.1723 17.072 47.1111 16.9562 47.0964 16.8663C47.0821 16.218 47.374 15.6173 47.6571 15.0324L47.7297 14.8794C48.5441 13.5197 49.4907 11.9175 50.8809 10.8055C51.1151 10.6365 51.3694 10.4945 51.6377 10.6053C51.6994 10.6631 51.7713 10.7633 51.7713 10.8634C51.7713 10.8951 51.7431 10.9794 51.7269 11.0056C51.3386 11.6331 50.9688 12.2918 50.6092 12.9242C49.9065 14.1734 49.1775 15.4645 48.2661 16.5978Z" fill="#E61D2A"/>
</svg>
