<svg width="190" height="101" viewBox="0 0 190 101" fill="none" xmlns="http://www.w3.org/2000/svg">
<rect width="67.6621" height="100.467" rx="8.19" fill="#E3DDFF"/>
<rect x="53.2983" y="85.3809" width="38.9351" height="70.2952" rx="9" transform="rotate(180 53.2983 85.3809)" stroke="#190F3A" stroke-width="2"/>
<rect x="25.7891" y="19.9819" width="16.083" height="3.16016" rx="1.58008" fill="#190F3A"/>
<rect x="70.6621" width="47.5688" height="60" rx="8.19" fill="#E3DDFF"/>
<path d="M88.4463 20.5005C88.4463 20.7657 88.3409 21.0201 88.1534 21.2076C87.9659 21.3951 87.7115 21.5005 87.4463 21.5005C87.1811 21.5005 86.9267 21.3951 86.7392 21.2076C86.5516 21.0201 86.4463 20.7657 86.4463 20.5005V16.0005C86.4463 15.7353 86.5516 15.4809 86.7392 15.2934C86.9267 15.1058 87.1811 15.0005 87.4463 15.0005C87.7115 15.0005 87.9659 15.1058 88.1534 15.2934C88.3409 15.4809 88.4463 15.7353 88.4463 16.0005V20.5005ZM102.446 20.5005C102.446 20.7657 102.341 21.0201 102.153 21.2076C101.966 21.3951 101.712 21.5005 101.446 21.5005C101.181 21.5005 100.927 21.3951 100.739 21.2076C100.552 21.0201 100.446 20.7657 100.446 20.5005V16.0005C100.446 15.7353 100.552 15.4809 100.739 15.2934C100.927 15.1058 101.181 15.0005 101.446 15.0005C101.712 15.0005 101.966 15.1058 102.153 15.2934C102.341 15.4809 102.446 15.7353 102.446 16.0005V20.5005ZM93.4463 26C93.4463 26.2652 93.3409 26.5196 93.1534 26.7071C92.9659 26.8946 92.7115 27 92.4463 27C92.1811 27 91.9267 26.8946 91.7392 26.7071C91.5516 26.5196 91.4463 26.2652 91.4463 26V21.5C91.4463 21.2348 91.5516 20.9804 91.7392 20.7929C91.9267 20.6053 92.1811 20.5 92.4463 20.5C92.7115 20.5 92.9659 20.6053 93.1534 20.7929C93.3409 20.9804 93.4463 21.2348 93.4463 21.5V26ZM97.4463 26C97.4463 26.2652 97.3409 26.5196 97.1534 26.7071C96.9659 26.8946 96.7115 27 96.4463 27C96.1811 27 95.9267 26.8946 95.7392 26.7071C95.5516 26.5196 95.4463 26.2652 95.4463 26V21.5C95.4463 21.2348 95.5516 20.9804 95.7392 20.7929C95.9267 20.6053 96.1811 20.5 96.4463 20.5C96.7115 20.5 96.9659 20.6053 97.1534 20.7929C97.3409 20.9804 97.4463 21.2348 97.4463 21.5V26Z" fill="#190F3A"/>
<path d="M89.4463 15.0005V22.5C89.4463 22.7652 89.5516 23.0196 89.7392 23.2071C89.9267 23.3946 90.1811 23.5 90.4463 23.5H98.4463C98.7115 23.5 98.9659 23.3946 99.1534 23.2071C99.3409 23.0196 99.4463 22.7652 99.4463 22.5V15.0005H89.4463ZM94.4463 10C91.4463 10 89.6188 11.8225 89.4463 14H99.4463C99.2733 11.8225 97.4463 10 94.4463 10ZM92.4463 12.799C92.3137 12.799 92.1865 12.7463 92.0927 12.6526C91.999 12.5588 91.9463 12.4316 91.9463 12.299C91.9463 12.1664 91.999 12.0392 92.0927 11.9454C92.1865 11.8517 92.3137 11.799 92.4463 11.799C92.5789 11.799 92.7061 11.8517 92.7998 11.9454C92.8936 12.0392 92.9463 12.1664 92.9463 12.299C92.9463 12.4316 92.8936 12.5588 92.7998 12.6526C92.7061 12.7463 92.5789 12.799 92.4463 12.799ZM96.4463 12.799C96.3137 12.799 96.1865 12.7463 96.0927 12.6526C95.999 12.5588 95.9463 12.4316 95.9463 12.299C95.9463 12.1664 95.999 12.0392 96.0927 11.9454C96.1865 11.8517 96.3137 11.799 96.4463 11.799C96.5789 11.799 96.7061 11.8517 96.7998 11.9454C96.8936 12.0392 96.9463 12.1664 96.9463 12.299C96.9463 12.4316 96.8936 12.5588 96.7998 12.6526C96.7061 12.7463 96.5789 12.799 96.4463 12.799Z" fill="#190F3A"/>
<path d="M97.4463 9.5L96.6133 10.7495M91.4463 9.5L92.1128 10.541" stroke="#190F3A" stroke-width="1.07338" stroke-linecap="round"/>
<path d="M100.543 39.455C100.45 39.527 98.8119 40.4503 98.8119 42.5032C98.8119 44.8778 100.897 45.7179 100.959 45.7387C100.95 45.7899 100.628 46.8892 99.86 48.0093C99.1751 48.9949 98.4599 49.979 97.3718 49.979C96.2837 49.979 96.0037 49.347 94.7476 49.347C93.5235 49.347 93.0882 49.9998 92.093 49.9998C91.0977 49.9998 90.4032 49.0878 89.6048 47.9677C88.6799 46.6524 87.9326 44.609 87.9326 42.6696C87.9326 39.559 89.9552 37.9092 91.9457 37.9092C93.0034 37.9092 93.8851 38.6037 94.5492 38.6037C95.1812 38.6037 96.1669 37.8676 97.3702 37.8676C97.8262 37.8676 99.4648 37.9092 100.543 39.455ZM96.7989 36.5507C97.2966 35.9603 97.6486 35.141 97.6486 34.3217C97.6486 34.2081 97.639 34.0929 97.6182 34.0001C96.8085 34.0305 95.8453 34.5394 95.2644 35.213C94.8084 35.7315 94.3827 36.5507 94.3827 37.3812C94.3827 37.506 94.4035 37.6308 94.4131 37.6708C94.4644 37.6804 94.5476 37.6916 94.6308 37.6916C95.3572 37.6916 96.2709 37.2052 96.7989 36.5507Z" fill="#190F3A"/>
<rect x="70.6621" y="63" width="47.5688" height="37.4666" rx="8.19" fill="#E3DDFF"/>
<path d="M91.2896 94.4666C85.3373 94.4666 82.3604 94.4666 80.512 92.6011C78.6637 90.7357 78.6621 87.7354 78.6621 81.7333C78.6621 75.7311 78.6621 72.7293 80.512 70.8654C82.362 69.0016 85.3373 69 91.2896 69H97.6034C103.556 69 106.533 69 108.381 70.8654C110.229 72.7309 110.231 75.7311 110.231 81.7333C110.231 87.7354 110.231 90.7373 108.381 92.6011C106.531 94.465 103.556 94.4666 97.6034 94.4666H91.2896Z" stroke="black" stroke-width="2.38749"/>
<path d="M99.1816 89.6915H89.7109" stroke="black" stroke-width="2.38749" stroke-linecap="round"/>
<rect x="121.231" width="68" height="56.7499" rx="8.19" fill="#E3DDFF"/>
<rect x="130.231" y="7" width="50" height="38.317" rx="9" stroke="#190F3A" stroke-width="2"/>
<rect x="154.425" y="49.1388" width="2.82178" height="1.61108" transform="rotate(-90 154.425 49.1388)" fill="#190F3A"/>
<rect x="145.231" y="49.1388" width="20" height="1.61108" rx="0.805542" fill="#190F3A"/>
</svg>
