<svg width="183" height="97" viewBox="0 0 183 97" fill="none" xmlns="http://www.w3.org/2000/svg">
<rect x="0.264648" y="-0.0012207" width="65.3274" height="97" rx="7.90741" fill="#E3DDFF"/>
<rect x="51.724" y="82.4337" width="37.5916" height="67.8696" rx="8.68946" transform="rotate(180 51.724 82.4337)" stroke="#190F3A" stroke-width="1.93099"/>
<rect x="25.1641" y="19.2913" width="15.5281" height="3.05112" rx="1.52556" fill="#190F3A"/>
<rect x="68.4888" y="-0.0012207" width="45.9275" height="57.9297" rx="7.90741" fill="#E3DDFF"/>
<path d="M85.6595 19.7919C85.6595 20.048 85.5578 20.2936 85.3767 20.4746C85.1957 20.6557 84.9501 20.7574 84.694 20.7574C84.4379 20.7574 84.1924 20.6557 84.0113 20.4746C83.8302 20.2936 83.7285 20.048 83.7285 19.7919V15.4472C83.7285 15.1911 83.8302 14.9455 84.0113 14.7645C84.1924 14.5834 84.4379 14.4817 84.694 14.4817C84.9501 14.4817 85.1957 14.5834 85.3767 14.7645C85.5578 14.9455 85.6595 15.1911 85.6595 15.4472V19.7919ZM99.1764 19.7919C99.1764 20.048 99.0747 20.2936 98.8937 20.4746C98.7126 20.6557 98.467 20.7574 98.2109 20.7574C97.9549 20.7574 97.7093 20.6557 97.5282 20.4746C97.3472 20.2936 97.2454 20.048 97.2454 19.7919V15.4472C97.2454 15.1911 97.3472 14.9455 97.5282 14.7645C97.7093 14.5834 97.9549 14.4817 98.2109 14.4817C98.467 14.4817 98.7126 14.5834 98.8937 14.7645C99.0747 14.9455 99.1764 15.1911 99.1764 15.4472V19.7919ZM90.487 25.1017C90.487 25.3577 90.3853 25.6033 90.2042 25.7844C90.0231 25.9654 89.7776 26.0671 89.5215 26.0671C89.2654 26.0671 89.0198 25.9654 88.8388 25.7844C88.6577 25.6033 88.556 25.3577 88.556 25.1017V20.7569C88.556 20.5009 88.6577 20.2553 88.8388 20.0742C89.0198 19.8932 89.2654 19.7914 89.5215 19.7914C89.7776 19.7914 90.0231 19.8932 90.2042 20.0742C90.3853 20.2553 90.487 20.5009 90.487 20.7569V25.1017ZM94.349 25.1017C94.349 25.3577 94.2472 25.6033 94.0662 25.7844C93.8851 25.9654 93.6395 26.0671 93.3835 26.0671C93.1274 26.0671 92.8818 25.9654 92.7008 25.7844C92.5197 25.6033 92.418 25.3577 92.418 25.1017V20.7569C92.418 20.5009 92.5197 20.2553 92.7008 20.0742C92.8818 19.8932 93.1274 19.7914 93.3835 19.7914C93.6395 19.7914 93.8851 19.8932 94.0662 20.0742C94.2472 20.2553 94.349 20.5009 94.349 20.7569V25.1017Z" fill="#190F3A"/>
<path d="M86.6245 14.4816V21.7224C86.6245 21.9784 86.7262 22.224 86.9073 22.4051C87.0884 22.5862 87.3339 22.6879 87.59 22.6879H95.314C95.57 22.6879 95.8156 22.5862 95.9967 22.4051C96.1777 22.224 96.2795 21.9784 96.2795 21.7224V14.4816H86.6245ZM91.452 9.65369C88.5555 9.65369 86.7911 11.4133 86.6245 13.5157H96.2795C96.1124 11.4133 94.3485 9.65369 91.452 9.65369ZM89.521 12.3561C89.393 12.3561 89.2702 12.3052 89.1796 12.2147C89.0891 12.1242 89.0382 12.0014 89.0382 11.8734C89.0382 11.7453 89.0891 11.6225 89.1796 11.532C89.2702 11.4415 89.393 11.3906 89.521 11.3906C89.649 11.3906 89.7718 11.4415 89.8624 11.532C89.9529 11.6225 90.0037 11.7453 90.0037 11.8734C90.0037 12.0014 89.9529 12.1242 89.8624 12.2147C89.7718 12.3052 89.649 12.3561 89.521 12.3561ZM93.383 12.3561C93.2549 12.3561 93.1322 12.3052 93.0416 12.2147C92.9511 12.1242 92.9002 12.0014 92.9002 11.8734C92.9002 11.7453 92.9511 11.6225 93.0416 11.532C93.1322 11.4415 93.2549 11.3906 93.383 11.3906C93.511 11.3906 93.6338 11.4415 93.7243 11.532C93.8149 11.6225 93.8657 11.7453 93.8657 11.8734C93.8657 12.0014 93.8149 12.1242 93.7243 12.2147C93.6338 12.3052 93.511 12.3561 93.383 12.3561Z" fill="#190F3A"/>
<path d="M94.3486 9.17102L93.5444 10.3774M88.5557 9.17102L89.1992 10.1761" stroke="#190F3A" stroke-width="1.03635" stroke-linecap="round"/>
<path d="M97.3386 38.0924C97.249 38.162 95.667 39.0534 95.667 41.0355C95.667 43.3282 97.68 44.1392 97.7403 44.1593C97.731 44.2088 97.4205 45.2701 96.6789 46.3516C96.0177 47.3032 95.3271 48.2534 94.2766 48.2534C93.226 48.2534 92.9557 47.6431 91.7429 47.6431C90.561 47.6431 90.1408 48.2734 89.1799 48.2734C88.2189 48.2734 87.5484 47.3928 86.7775 46.3114C85.8846 45.0415 85.1631 43.0686 85.1631 41.1962C85.1631 38.1929 87.1159 36.6 89.0377 36.6C90.0589 36.6 90.9102 37.2705 91.5513 37.2705C92.1616 37.2705 93.1132 36.5599 94.275 36.5599C94.7153 36.5599 96.2973 36.6 97.3386 38.0924ZM93.7235 35.2884C94.204 34.7183 94.5438 33.9273 94.5438 33.1363C94.5438 33.0266 94.5346 32.9154 94.5145 32.8258C93.7328 32.8552 92.8027 33.3464 92.2419 33.9969C91.8016 34.4974 91.3907 35.2884 91.3907 36.0902C91.3907 36.2107 91.4107 36.3312 91.42 36.3698C91.4694 36.3791 91.5498 36.3899 91.6301 36.3899C92.3315 36.3899 93.2137 35.9203 93.7235 35.2884Z" fill="#190F3A"/>
<rect x="68.4888" y="60.825" width="45.9275" height="36.1738" rx="7.90741" fill="#E3DDFF"/>
<path d="M88.4047 91.2058C82.6578 91.2058 79.7836 91.2058 77.999 89.4047C76.2144 87.6037 76.2129 84.7069 76.2129 78.9118C76.2129 73.1168 76.2129 70.2185 77.999 68.419C79.7851 66.6195 82.6578 66.6179 88.4047 66.6179H94.5006C100.248 66.6179 103.122 66.6179 104.906 68.419C106.691 70.22 106.692 73.1168 106.692 78.9118C106.692 84.7069 106.692 87.6052 104.906 89.4047C103.12 91.2042 100.248 91.2058 94.5006 91.2058H88.4047Z" stroke="black" stroke-width="2.30511"/>
<path d="M96.0247 86.5955H86.8809" stroke="black" stroke-width="2.30511" stroke-linecap="round"/>
<rect x="117.312" y="-0.0012207" width="65.6537" height="54.7917" rx="7.90741" fill="#E3DDFF"/>
<rect x="126.002" y="6.75724" width="48.2748" height="36.9949" rx="8.68946" stroke="#190F3A" stroke-width="1.93099"/>
<rect x="149.361" y="47.442" width="2.72441" height="1.55549" transform="rotate(-90 149.361 47.442)" fill="#190F3A"/>
<rect x="140.484" y="47.442" width="19.3099" height="1.55549" rx="0.777747" fill="#190F3A"/>
</svg>
