<svg width="14" height="13" viewBox="0 0 14 13" fill="none" xmlns="http://www.w3.org/2000/svg">
<path fill-rule="evenodd" clip-rule="evenodd" d="M2.94799 4.86208C4.76266 1.79945 9.22041 1.79945 11.0351 4.86208C11.6624 5.92074 11.6624 7.23436 11.0351 8.29301C9.22041 11.3556 4.76266 11.3556 2.94799 8.29301C2.32072 7.23436 2.32072 5.92074 2.94799 4.86208ZM5.6701 6.60505C5.6701 5.87206 6.26156 5.27861 6.99128 5.27861C7.72113 5.27861 8.31298 5.87219 8.31298 6.60505C8.31298 7.33732 7.72119 7.93096 6.99128 7.93096C6.26149 7.93096 5.6701 7.33745 5.6701 6.60505ZM6.99128 4.65733C5.91953 4.65733 5.05103 5.52907 5.05103 6.60505C5.05103 7.68057 5.91959 8.55224 6.99128 8.55224C8.06284 8.55224 8.93204 7.6807 8.93204 6.60505C8.93204 5.52894 8.0629 4.65733 6.99128 4.65733Z" fill="#321C93"/>
</svg>
