<svg width="18" height="18" viewBox="0 0 18 18" fill="none" xmlns="http://www.w3.org/2000/svg">
<path d="M17.4456 9.08339C17.4456 8.47028 17.3906 7.88075 17.2884 7.3148H9.14502V10.6633H13.7984C13.594 11.7402 12.9809 12.652 12.0612 13.2651V15.4424H14.8674C16.5023 13.9333 17.4456 11.7166 17.4456 9.08339Z" fill="#4285F4"/>
<path d="M9.14468 17.5331C11.4792 17.5331 13.4365 16.7628 14.867 15.4422L12.0609 13.2649C11.2906 13.7837 10.308 14.0981 9.14468 14.0981C6.89661 14.0981 4.98654 12.5811 4.30268 10.5374H1.42578V12.7697C2.84851 15.5916 5.76472 17.5331 9.14468 17.5331Z" fill="#34A853"/>
<path d="M4.30296 10.5296C4.13003 10.0109 4.02785 9.46063 4.02785 8.88682C4.02785 8.31301 4.13003 7.76279 4.30296 7.244V5.01165H1.42606C0.836532 6.17499 0.498535 7.48767 0.498535 8.88682C0.498535 10.286 0.836532 11.5987 1.42606 12.762L3.66627 11.017L4.30296 10.5296Z" fill="#FBBC05"/>
<path d="M9.14468 3.68324C10.4181 3.68324 11.55 4.12343 12.4539 4.97235L14.9299 2.49633C13.4286 1.09718 11.4792 0.240395 9.14468 0.240395C5.76472 0.240395 2.84851 2.18191 1.42578 5.01165L4.30268 7.244C4.98654 5.2003 6.89661 3.68324 9.14468 3.68324Z" fill="#EA4335"/>
</svg>
