<svg width="23" height="22" viewBox="0 0 23 22" fill="none" xmlns="http://www.w3.org/2000/svg">
<path d="M12.7073 3.49623C12.0432 3.49867 11.3831 3.56411 10.7499 3.67189C7.53985 4.2182 5.73048 5.65086 4.75415 7.66276C5.90951 7.57268 7.04902 7.47681 8.15807 7.4837C9.0506 7.48925 9.92344 7.56131 10.769 7.75648C11.3297 7.88603 11.6814 8.37263 11.7908 8.93108C11.9001 9.48953 11.8225 10.1495 11.6037 10.8392L11.593 10.8727L11.5757 10.9032C11.2884 11.4081 10.6777 11.81 9.89923 12.2355C9.12078 12.661 8.17092 13.0754 7.22431 13.4357C6.27771 13.796 5.33622 14.1012 4.57512 14.3032C4.30663 14.3744 4.06249 14.432 3.84467 14.4756C3.92888 15.6278 4.08755 16.8214 4.28912 18.0281C9.47529 16.6123 14.4121 15.0712 19.2242 13.4661C20.1841 11.8206 20.3319 10.2664 19.8522 8.7753C19.0233 6.19902 17.5981 4.81315 15.9579 4.10546C14.9328 3.66316 13.8143 3.49216 12.7074 3.49623H12.7073ZM6.62937 8.19975C6.29403 8.21862 5.95333 8.24253 5.61033 8.2677L4.00612 13.7584C4.13137 13.7291 4.26284 13.6968 4.40416 13.6593C4.56089 13.6174 4.7171 13.5736 4.87274 13.5278C5.24368 12.3778 6.4754 8.6637 6.62937 8.19975ZM4.90087 8.32048C4.49862 8.35105 4.0931 8.3817 3.68285 8.4082C3.67101 8.42467 3.65643 8.44325 3.63407 8.49211C3.57559 8.6198 3.50915 8.8407 3.45226 9.11111C3.33845 9.65194 3.2535 10.3965 3.20409 11.1423C3.15475 11.8881 3.14006 12.639 3.15994 13.1995C3.16986 13.4798 3.18918 13.7142 3.21331 13.8643C3.21509 13.8756 3.2162 13.8758 3.21812 13.8861C3.23515 13.8857 3.25635 13.8845 3.27534 13.8837L4.90087 8.32048ZM10.1018 8.34021C9.52451 8.34021 9.04098 8.8059 9.04098 9.38219C9.04098 9.95848 9.52451 10.4243 10.1018 10.4243C10.679 10.4243 11.1626 9.95852 11.1626 9.38219C11.1626 8.8059 10.679 8.34021 10.1018 8.34021ZM10.1018 9.00644C10.3283 9.00644 10.4963 9.17548 10.4963 9.38219C10.4963 9.58895 10.3283 9.75806 10.1018 9.75806C9.87525 9.75806 9.70721 9.58891 9.70721 9.38219C9.70721 9.17548 9.87525 9.00644 10.1018 9.00644ZM18.6217 14.3683C14.0393 15.8853 9.33505 17.3428 4.40379 18.6875C4.41908 18.7733 4.43377 18.8589 4.44939 18.9447C9.91274 17.9583 13.9237 16.3921 18.1945 14.9042C18.3422 14.7299 18.4848 14.5511 18.6218 14.3683L18.6217 14.3683Z" fill="black"/>
</svg>
