<svg width="20" height="20" viewBox="0 0 20 20" fill="none" xmlns="http://www.w3.org/2000/svg">
<path d="M9.74212 0.510429L7.71259 6.20058L9.09223 6.20102C10.0861 6.2013 10.509 6.98489 10.196 7.86241L8.178 13.5203H6.14733L8.36759 7.29475H7.32204L5.10197 13.5203H3.05376L7.60936 0.746413C3.41409 1.70347 0.283203 5.45727 0.283203 9.9425C0.283203 14.3579 3.31712 18.0642 7.41391 19.0918L12.0165 6.16887H15.3498C16.0392 6.16887 16.9063 6.63373 16.5316 7.69175L14.6601 12.9761C14.4211 13.6511 13.8528 13.7879 13.4001 13.7879H11.351L9.36353 19.3681C9.48055 19.3724 9.5978 19.3753 9.71578 19.3753C14.9252 19.3753 19.1484 15.1523 19.1484 9.94266C19.1484 4.74187 14.9394 0.524527 9.74182 0.510378L9.74212 0.510429ZM13.6689 7.27949L11.7358 12.7059H12.7652L14.6987 7.27949H13.6689Z" fill="#015294"/>
</svg>
