<svg width="29" height="20" viewBox="0 0 29 20" fill="none" xmlns="http://www.w3.org/2000/svg">
<path d="M8.62188 8.24577V12.8654H7.15131V7.05874L10.1873 7.06175C11.4768 7.06175 11.9161 7.9711 11.9161 8.79709V12.8654H10.4482V8.8047C10.4482 8.45869 10.2691 8.24578 9.83705 8.24578L8.62188 8.24577ZM18.6215 8.1764C18.1189 8.1764 17.7298 8.43479 17.5674 8.78558C17.4711 8.99619 17.438 9.1576 17.4267 9.41546H19.6891C19.66 8.78558 19.3744 8.1764 18.6215 8.1764ZM17.4267 10.4163C17.4267 11.1685 17.8943 11.7221 18.7291 11.7221C19.3786 11.7221 19.7015 11.5421 20.077 11.1685L20.9853 12.0357C20.4037 12.6099 19.7935 12.9585 18.7183 12.9585C17.3106 12.9585 15.9634 12.1909 15.9634 9.95385C15.9634 8.04242 17.1396 6.96034 18.6852 6.96034C20.2519 6.96034 21.157 8.22719 21.157 9.8866V10.4163H17.4267ZM14.722 12.8582C13.524 12.8582 13.0157 12.0242 13.0157 11.2005V5.47668H14.484V7.05874H15.5908V8.24577H14.484V11.1085C14.484 11.4458 14.6432 11.6331 14.9935 11.6331H15.5908V12.8582H14.722ZM5.84287 6.25629H4.36221V4.8498H5.84287V6.25629ZM5.84659 12.9265C4.73778 12.8199 4.36063 12.1474 4.36063 11.3713L4.36223 7.05874H5.8466L5.84659 12.9265ZM23.4939 12.8024C22.3874 12.6957 22.012 12.0242 22.012 11.2492V4.64963H23.4939V12.8024ZM28.6744 5.6034C27.3314 -0.944141 14.6217 -1.35864 6.4294 3.6286V4.1792C14.6133 -0.0266538 26.2202 -0.00187677 27.2776 6.02869C27.6314 8.02277 26.5078 10.1018 24.5009 11.2968V12.8603C26.9164 11.9766 29.3937 9.11105 28.6744 5.6034ZM13.7827 17.0591C8.1288 17.5817 2.23699 16.761 1.4126 12.343C1.00907 10.165 2.00125 7.85623 3.31748 6.42213V5.65525C0.948015 7.73305 -0.337954 10.3636 0.402372 13.4718C1.34729 17.4575 6.40391 19.7161 14.122 18.9661C17.1757 18.668 21.1726 17.6861 23.9512 16.161V13.9944C21.4299 15.4958 17.2577 16.7373 13.7827 17.0591Z" fill="#0071C5"/>
<path d="M25.207 5.08794C25.207 5.01608 25.165 4.99325 25.0691 4.99325H24.9765V5.19661C24.99 5.19661 25.0572 5.19908 25.0691 5.19908C25.165 5.19908 25.207 5.16705 25.207 5.09979V5.08794ZM25.3514 5.59217H25.2417C25.2317 5.59217 25.2231 5.58596 25.2188 5.57765L25.0691 5.32386C25.0664 5.31873 25.0535 5.31253 25.0484 5.31253H24.9811V5.5642C24.9811 5.57765 24.9719 5.59217 24.9542 5.59217H24.8549C24.8426 5.59217 24.8302 5.57765 24.8302 5.5642V4.92759C24.8302 4.89078 24.8445 4.87538 24.8757 4.8706C24.9107 4.866 25.0059 4.86282 25.0572 4.86282C25.2395 4.86282 25.3498 4.91662 25.3498 5.08794V5.09979C25.3498 5.2058 25.2971 5.26173 25.2153 5.28916L25.3705 5.55163C25.3715 5.55694 25.3751 5.5642 25.3751 5.57039C25.3751 5.58066 25.3689 5.59217 25.3514 5.59217ZM25.0909 4.74795C24.8208 4.74795 24.6024 4.97095 24.6024 5.23943C24.6024 5.50827 24.8208 5.72773 25.0909 5.72773C25.3595 5.72773 25.5801 5.50827 25.5801 5.23943C25.5801 4.97095 25.3595 4.74795 25.0909 4.74795ZM25.0909 5.82897C24.7627 5.82897 24.501 5.5642 24.501 5.23943C24.501 4.9152 24.7627 4.64972 25.0909 4.64972C25.4155 4.64972 25.6822 4.9152 25.6822 5.23943C25.6822 5.5642 25.4155 5.82897 25.0909 5.82897Z" fill="#0071C5"/>
</svg>
