<svg width="22" height="22" viewBox="0 0 22 22" fill="none" xmlns="http://www.w3.org/2000/svg">
<path d="M4.16918 3.66645V4.42183C4.16918 5.17722 5.67995 5.17722 5.67995 5.93261C5.67995 6.68799 4.16918 6.68799 4.16918 7.44338C4.16918 8.19876 5.67995 8.19876 5.67995 8.95415C5.67995 9.70954 4.16918 9.70954 4.16918 10.4649C4.16918 11.2203 5.67995 11.2203 5.67995 11.9757M15.5 6.68799H15.5075M6.43533 15.7526H6.44289M17.6377 8.82574C17.9184 8.545 18.1411 8.21173 18.2931 7.84493C18.445 7.47814 18.5232 7.08501 18.5232 6.68799C18.5232 6.29098 18.445 5.89785 18.2931 5.53105C18.1411 5.16426 17.9184 4.83098 17.6377 4.55025C17.357 4.26952 17.0237 4.04683 16.6569 3.8949C16.2901 3.74297 15.897 3.66477 15.5 3.66477C15.103 3.66477 14.7098 3.74297 14.343 3.8949C13.9762 4.04683 13.643 4.26952 13.3622 4.55025L4.29759 13.6149C3.73063 14.1818 3.41211 14.9508 3.41211 15.7526C3.41211 16.1496 3.49031 16.5428 3.64224 16.9096C3.79417 17.2764 4.01686 17.6096 4.29759 17.8904C4.57832 18.1711 4.9116 18.3938 5.2784 18.5457C5.64519 18.6977 6.03832 18.7759 6.43533 18.7759C7.23714 18.7759 8.00611 18.4573 8.57308 17.8904L17.6377 8.82574Z" stroke="black" stroke-width="1.51077" stroke-linecap="round" stroke-linejoin="round"/>
<path d="M15.5 10.9635V18.7742C16.3014 18.7742 17.0699 18.4559 17.6366 17.8892C18.2032 17.3226 18.5215 16.554 18.5215 15.7527V6.68804" stroke="black" stroke-width="1.51077" stroke-linecap="round" stroke-linejoin="round"/>
</svg>
