<svg width="13" height="13" viewBox="0 0 13 13" fill="none" xmlns="http://www.w3.org/2000/svg">
<path fill-rule="evenodd" clip-rule="evenodd" d="M5.83629 2.81587C6.11909 2.74418 6.41604 2.74418 6.69884 2.81587C7.35854 2.98309 7.83048 3.53907 7.88287 4.19187L7.86333 4.18784C6.81116 3.971 5.724 3.971 4.67183 4.18784L4.65226 4.19188C4.70465 3.53908 5.17659 2.98309 5.83629 2.81587ZM8.61008 4.31313V4.41813C9.34718 4.75908 9.90598 5.40315 10.1167 6.19261C10.3653 7.12378 10.3055 8.1076 9.94573 9.00371L9.90348 9.10896C9.51757 10.0702 8.6389 10.7616 7.59247 10.9275L7.25191 10.9814C6.59997 11.0848 5.93517 11.0848 5.28324 10.9814L4.94268 10.9275C3.89625 10.7616 3.01757 10.0702 2.63167 9.10895L2.58942 9.00371C2.22966 8.1076 2.16982 7.12379 2.41842 6.19261C2.62918 5.40316 3.18797 4.7591 3.92505 4.41815V4.31312C3.92505 3.2887 4.63583 2.39355 5.65425 2.13539C6.05642 2.03345 6.47871 2.03345 6.88088 2.13539C7.8993 2.39355 8.61008 3.2887 8.61008 4.31313ZM6.26758 6.98412C6.42716 6.98412 6.55653 7.11005 6.55653 7.26539V8.20294C6.55653 8.35828 6.42716 8.48421 6.26758 8.48421C6.108 8.48421 5.97864 8.35828 5.97864 8.20294V7.26539C5.97864 7.11005 6.108 6.98412 6.26758 6.98412Z" fill="#321C93"/>
</svg>
