<svg width="9" height="31" viewBox="0 0 9 31" fill="none" xmlns="http://www.w3.org/2000/svg">
<path d="M7.40176 10.085C7.7372 10.1258 8.04622 10.2876 8.27085 10.5401C8.49549 10.7925 8.62029 11.1182 8.62187 11.4561V26.5344C8.62592 26.7164 8.59108 26.8971 8.51968 27.0645C8.44828 27.2319 8.34196 27.3822 8.20783 27.5052C7.99388 27.728 7.70906 27.8694 7.40225 27.9051V30.4905C7.40225 30.5388 7.38312 30.5851 7.34905 30.6194C7.31498 30.6537 7.26873 30.673 7.22041 30.6733C7.17183 30.6733 7.12523 30.6541 7.09079 30.6198C7.05635 30.5855 7.03687 30.539 7.03661 30.4905V27.9051C6.73008 27.8689 6.44556 27.7276 6.23152 27.5052C6.09752 27.3821 5.99135 27.2319 5.92012 27.0644C5.84888 26.897 5.81423 26.7163 5.81846 26.5344V11.4561C5.81903 11.1183 5.94323 10.7923 6.16764 10.5397C6.39205 10.2871 6.70115 10.1253 7.03661 10.085V5.39962C7.03687 5.35109 7.05636 5.30464 7.09082 5.27046C7.12527 5.23628 7.17188 5.21716 7.22041 5.21729C7.26868 5.21742 7.31493 5.23668 7.34902 5.27086C7.38311 5.30504 7.40225 5.35134 7.40225 5.39962L7.40176 10.085Z" fill="#232323"/>
<path d="M7.40176 10.085C7.7372 10.1258 8.04622 10.2876 8.27085 10.5401C8.49549 10.7925 8.62029 11.1182 8.62187 11.4561V26.5344C8.62592 26.7164 8.59108 26.8971 8.51968 27.0645C8.44828 27.2319 8.34196 27.3822 8.20783 27.5052C7.99388 27.728 7.70906 27.8694 7.40225 27.9051V30.4905C7.40225 30.5388 7.38312 30.5851 7.34905 30.6194C7.31498 30.6537 7.26873 30.673 7.22041 30.6733C7.17183 30.6733 7.12523 30.6541 7.09079 30.6198C7.05635 30.5855 7.03687 30.539 7.03661 30.4905V27.9051C6.73008 27.8689 6.44556 27.7276 6.23152 27.5052C6.09752 27.3821 5.99135 27.2319 5.92012 27.0644C5.84888 26.897 5.81423 26.7163 5.81846 26.5344V11.4561C5.81903 11.1183 5.94323 10.7923 6.16764 10.5397C6.39205 10.2871 6.70115 10.1253 7.03661 10.085V5.39962C7.03687 5.35109 7.05636 5.30464 7.09082 5.27046C7.12527 5.23628 7.17188 5.21716 7.22041 5.21729C7.26868 5.21742 7.31493 5.23668 7.34902 5.27086C7.38311 5.30504 7.40225 5.35134 7.40225 5.39962L7.40176 10.085Z" fill="url(#paint0_linear_8183_879)"/>
<path d="M2.40259 5.72416C2.73747 5.76601 3.04572 5.92816 3.26992 6.18042C3.49412 6.43268 3.61897 6.75783 3.62123 7.09531V22.1736C3.62533 22.3554 3.5905 22.536 3.5191 22.7033C3.44769 22.8705 3.34134 23.0206 3.20719 23.1434C2.99388 23.3667 2.7093 23.5084 2.40259 23.5442V27.2789C2.40196 27.3146 2.3909 27.3495 2.37075 27.3791C2.35061 27.4086 2.32226 27.4317 2.28919 27.4454C2.25612 27.4591 2.21977 27.4629 2.1846 27.4562C2.14943 27.4495 2.11697 27.4328 2.09121 27.4079C2.05697 27.3739 2.03763 27.3276 2.03744 27.2793V23.5442C1.73067 23.5082 1.44603 23.3664 1.23235 23.1434C1.09851 23.0205 0.992436 22.8705 0.921206 22.7033C0.849977 22.5361 0.81523 22.3557 0.819288 22.1741V7.0958C0.820353 6.75808 0.944654 6.43237 1.16886 6.17982C1.39306 5.92726 1.70174 5.76524 2.03695 5.72416V1.03927C2.03695 0.990779 2.05621 0.944278 2.09049 0.909992C2.12478 0.875707 2.17128 0.856445 2.21977 0.856445C2.26814 0.856829 2.31442 0.876213 2.34862 0.910416C2.38282 0.944619 2.40221 0.990897 2.40259 1.03927V5.72416Z" fill="#232323"/>
<path d="M2.40259 5.72416C2.73747 5.76601 3.04572 5.92816 3.26992 6.18042C3.49412 6.43268 3.61897 6.75783 3.62123 7.09531V22.1736C3.62533 22.3554 3.5905 22.536 3.5191 22.7033C3.44769 22.8705 3.34134 23.0206 3.20719 23.1434C2.99388 23.3667 2.7093 23.5084 2.40259 23.5442V27.2789C2.40196 27.3146 2.3909 27.3495 2.37075 27.3791C2.35061 27.4086 2.32226 27.4317 2.28919 27.4454C2.25612 27.4591 2.21977 27.4629 2.1846 27.4562C2.14943 27.4495 2.11697 27.4328 2.09121 27.4079C2.05697 27.3739 2.03763 27.3276 2.03744 27.2793V23.5442C1.73067 23.5082 1.44603 23.3664 1.23235 23.1434C1.09851 23.0205 0.992436 22.8705 0.921206 22.7033C0.849977 22.5361 0.81523 22.3557 0.819288 22.1741V7.0958C0.820353 6.75808 0.944654 6.43237 1.16886 6.17982C1.39306 5.92726 1.70174 5.76524 2.03695 5.72416V1.03927C2.03695 0.990779 2.05621 0.944278 2.09049 0.909992C2.12478 0.875707 2.17128 0.856445 2.21977 0.856445C2.26814 0.856829 2.31442 0.876213 2.34862 0.910416C2.38282 0.944619 2.40221 0.990897 2.40259 1.03927V5.72416Z" fill="url(#paint1_linear_8183_879)"/>
<defs>
<linearGradient id="paint0_linear_8183_879" x1="5.81812" y1="17.9453" x2="8.62218" y2="17.9453" gradientUnits="userSpaceOnUse">
<stop stop-color="#B19FFC"/>
<stop offset="1" stop-color="#7963DC"/>
</linearGradient>
<linearGradient id="paint1_linear_8183_879" x1="0.81897" y1="14.1579" x2="3.62155" y2="14.1579" gradientUnits="userSpaceOnUse">
<stop stop-color="#B19FFC"/>
<stop offset="1" stop-color="#7963DC"/>
</linearGradient>
</defs>
</svg>
