<svg width="13" height="13" viewBox="0 0 13 13" fill="none" xmlns="http://www.w3.org/2000/svg">
<path d="M4.68349 2.13691C4.24027 2.03294 3.779 2.03294 3.33578 2.13691C2.75529 2.27307 2.30203 2.72633 2.16586 3.30682C2.0619 3.75004 2.0619 4.21131 2.16586 4.65453C2.30203 5.23502 2.75529 5.68828 3.33578 5.82444C3.779 5.92841 4.24027 5.92841 4.68349 5.82444C5.26398 5.68828 5.71724 5.23502 5.8534 4.65453C5.95737 4.21131 5.95737 3.75004 5.8534 3.30682C5.71724 2.72633 5.26398 2.27307 4.68349 2.13691Z" fill="#321C93"/>
<path d="M4.68349 7.29342C4.24027 7.18946 3.779 7.18946 3.33578 7.29342C2.75529 7.42959 2.30203 7.88284 2.16586 8.46334C2.0619 8.90656 2.0619 9.36782 2.16586 9.81104C2.30203 10.3915 2.75529 10.8448 3.33578 10.981C3.779 11.0849 4.24027 11.0849 4.68349 10.981C5.26398 10.8448 5.71724 10.3915 5.8534 9.81104C5.95737 9.36782 5.95737 8.90656 5.8534 8.46334C5.71724 7.88284 5.26398 7.42959 4.68349 7.29342Z" fill="#321C93"/>
<path d="M9.84 2.13691C9.39678 2.03294 8.93552 2.03294 8.4923 2.13691C7.9118 2.27307 7.45855 2.72633 7.32238 3.30682C7.21841 3.75004 7.21841 4.21131 7.32238 4.65453C7.45855 5.23502 7.9118 5.68828 8.4923 5.82444C8.93552 5.92841 9.39678 5.92841 9.84 5.82444C10.4205 5.68828 10.8738 5.23502 11.0099 4.65453C11.1139 4.21131 11.1139 3.75004 11.0099 3.30682C10.8738 2.72633 10.4205 2.27307 9.84 2.13691Z" fill="#321C93"/>
<path d="M9.84 7.29342C9.39678 7.18946 8.93552 7.18946 8.4923 7.29342C7.9118 7.42959 7.45855 7.88284 7.32238 8.46334C7.21841 8.90656 7.21841 9.36782 7.32238 9.81104C7.45855 10.3915 7.9118 10.8448 8.4923 10.981C8.93552 11.0849 9.39678 11.0849 9.84 10.981C10.4205 10.8448 10.8738 10.3915 11.0099 9.81104C11.1139 9.36782 11.1139 8.90656 11.0099 8.46334C10.8738 7.88284 10.4205 7.42959 9.84 7.29342Z" fill="#321C93"/>
</svg>
