<svg width="29" height="20" viewBox="0 0 29 20" fill="none" xmlns="http://www.w3.org/2000/svg">
<path d="M3.35098 13.0075C3.35098 14.0919 3.58901 14.9246 3.90013 15.4283C4.30805 16.0881 4.91647 16.3676 5.53674 16.3676C6.33677 16.3676 7.06865 16.1691 8.47908 14.2184C9.609 12.6549 10.9404 10.4602 11.8362 9.08434L13.3533 6.75339C14.4072 5.13456 15.627 3.33498 17.0256 2.11518C18.1674 1.11959 19.399 0.566481 20.6386 0.566481C22.7196 0.566481 24.7019 1.77245 26.219 4.03427C27.8793 6.5114 28.6853 9.63152 28.6853 12.8514C28.6853 14.7656 28.308 16.172 27.666 17.2832C27.0457 18.3578 25.8368 19.4314 23.8031 19.4314V16.3676C25.5444 16.3676 25.979 14.7675 25.979 12.9363C25.979 10.3269 25.3706 7.43094 24.0303 5.36173C23.0791 3.89402 21.8465 2.99719 20.4904 2.99719C19.0237 2.99719 17.8434 4.10341 16.5169 6.07583C15.8117 7.12377 15.0877 8.40086 14.2749 9.8419L13.38 11.4271C11.5824 14.6144 11.1271 15.3404 10.2283 16.5385C8.65291 18.6363 7.30767 19.4314 5.53674 19.4314C3.43592 19.4314 2.10747 18.5217 1.28472 17.1508C0.613093 16.0337 0.283203 14.568 0.283203 12.8978L3.35098 13.0075Z" fill="#0081FB"/>
<path d="M2.70239 4.25053C4.10887 2.08254 6.13858 0.566435 8.46657 0.566435C9.81477 0.566435 11.1551 0.965463 12.5546 2.10822C14.0856 3.35765 15.7172 5.41502 17.7529 8.80577L18.4828 10.0226C20.2448 12.958 21.2473 14.4682 21.834 15.1803C22.5886 16.0949 23.117 16.3675 23.8035 16.3675C25.5448 16.3675 25.9793 14.7675 25.9793 12.9363L28.6856 12.8514C28.6856 14.7655 28.3083 16.172 27.6663 17.2831C27.0461 18.3577 25.8371 19.4314 23.8035 19.4314C22.5392 19.4314 21.4192 19.1568 20.1806 17.9883C19.2285 17.0915 18.1153 15.4984 17.259 14.0662L14.7117 9.81124C13.4337 7.67585 12.2613 6.08369 11.5827 5.36267C10.8528 4.58733 9.91453 3.651 8.41718 3.651C7.20528 3.651 6.17611 4.5014 5.31484 5.80219L2.70239 4.25053Z" fill="url(#paint0_linear_8281_1264)"/>
<path d="M8.41685 3.65104C7.20495 3.65104 6.17578 4.50145 5.31451 5.80224C4.09668 7.64034 3.35098 10.3782 3.35098 13.0075C3.35098 14.0919 3.58901 14.9246 3.90013 15.4283L1.28472 17.1508C0.613093 16.0337 0.283203 14.568 0.283203 12.8978C0.283203 9.86067 1.11682 6.69511 2.70206 4.25057C4.10854 2.08259 6.13825 0.566481 8.46624 0.566481L8.41685 3.65104Z" fill="url(#paint1_linear_8281_1264)"/>
<defs>
<linearGradient id="paint0_linear_8281_1264" x1="6.30846" y1="12.1224" x2="25.8648" y2="13.1101" gradientUnits="userSpaceOnUse">
<stop stop-color="#0064E1"/>
<stop offset="0.4" stop-color="#0064E1"/>
<stop offset="0.83" stop-color="#0073EE"/>
<stop offset="1" stop-color="#0082FB"/>
</linearGradient>
<linearGradient id="paint1_linear_8281_1264" x1="4.72782" y1="14.2954" x2="4.72782" y2="7.08525" gradientUnits="userSpaceOnUse">
<stop stop-color="#0082FB"/>
<stop offset="1" stop-color="#0064E0"/>
</linearGradient>
</defs>
</svg>
