<svg width="24" height="20" viewBox="0 0 24 20" fill="none" xmlns="http://www.w3.org/2000/svg">
<mask id="mask0_8309_910" style="mask-type:luminance" maskUnits="userSpaceOnUse" x="11" y="0" width="13" height="15">
<path d="M11.6748 0.379761H23.3922V14.6941H11.6748V0.379761Z" fill="white"/>
</mask>
<g mask="url(#mask0_8309_910)">
<path d="M17.7559 0.379761L12.8007 13.9937C12.7394 14.1613 12.6322 14.3083 12.4913 14.4178C12.3504 14.5273 12.1815 14.5949 12.0039 14.6129V14.6195H17.242C17.6521 14.6195 18.0032 14.3586 18.1338 13.9941L23.0907 0.379761H17.7559Z" fill="#0996C7"/>
</g>
<path d="M11.3819 14.4129C11.6857 14.4129 11.9518 14.2619 12.1145 14.0332C12.1314 14.0093 12.1909 13.926 12.233 13.8127L14.0505 8.81674L12.9872 5.8991C12.9253 5.75136 12.825 5.62286 12.6967 5.52693C12.5684 5.431 12.4168 5.37112 12.2575 5.3535C12.0983 5.33588 11.9373 5.36117 11.7911 5.42673C11.6449 5.49229 11.5189 5.59575 11.4262 5.72638C11.4089 5.75025 11.3381 5.85657 11.3077 5.94684L9.49023 10.9411L10.5583 13.8704C10.6275 14.0314 10.7425 14.1686 10.8889 14.265C11.0352 14.3614 11.2067 14.4128 11.3819 14.4129Z" fill="#0996C7"/>
<mask id="mask1_8309_910" style="mask-type:luminance" maskUnits="userSpaceOnUse" x="0" y="4" width="12" height="16">
<path d="M0.147461 4.71259H11.8649V19.3797H0.147461V4.71259Z" fill="white"/>
</mask>
<g mask="url(#mask1_8309_910)">
<path d="M11.7212 5.13962H6.42539C6.01528 5.13962 5.66419 5.39914 5.53182 5.76541L0.57666 19.3793H5.91155L10.8672 5.76585C10.9314 5.58874 11.047 5.43477 11.1991 5.32355C11.3512 5.21234 11.533 5.14891 11.7212 5.14135V5.13962Z" fill="#0996C7"/>
</g>
</svg>
