<svg width="90" height="20" viewBox="0 0 90 20" fill="none" xmlns="http://www.w3.org/2000/svg">
<path d="M18.745 0.570091L15.4694 12.7918L11.4388 0.570091H5.88887L0.834961 19.4277H5.44522L8.95257 6.3297L13.2553 19.4277H18.2968L23.3507 0.570091H18.745ZM84.4992 0.570091L79.4453 19.4277H84.0509L89.1049 0.570091H84.4992ZM26.1123 0.570091L21.0557 19.4277H25.6609L30.718 0.570091H26.1123ZM77.6707 11.6857L78.6104 8.17877H70.7636L71.775 4.40248H80.5647L81.5927 0.570091H68.1973L63.256 19.0056L59.6213 9.29594H58.1906L66.8153 0.570091H61.3789L53.3289 8.57645L55.4749 0.570091H50.8688L45.9 19.1104L42.2271 9.29594H40.7964L49.4211 0.570091H43.9847L35.9347 8.57645L38.0807 0.570091H33.4764L28.4193 19.4277H33.0263L35.742 9.29594H37.3709L40.6861 19.4277H50.4206L53.1362 9.29594H54.7651L58.0803 19.4277H76.6684L77.6941 15.6008H68.7752L69.8243 11.6857H77.6707Z" fill="#003E70"/>
</svg>
