<svg width="13" height="13" viewBox="0 0 13 13" fill="none" xmlns="http://www.w3.org/2000/svg">
<path d="M8.57685 10.3026L8.66713 10.2402C8.94962 10.0449 9.0909 9.94717 9.21726 9.84244C9.90388 9.27337 10.3651 8.48014 10.5185 7.60421C10.5468 7.443 10.5615 7.27247 10.5908 6.9314L10.606 6.75505C10.6546 6.19051 10.6498 5.62268 10.5915 5.05905L10.5735 4.88463C10.4716 3.89828 9.86612 3.03379 8.97137 2.59725C7.50023 1.8795 5.77809 1.8795 4.30695 2.59725C3.4122 3.03379 2.80668 3.89828 2.7048 4.88463L2.68678 5.05905C2.62856 5.62268 2.62371 6.19051 2.67231 6.75505L2.68749 6.9314C2.71685 7.27247 2.73153 7.443 2.75977 7.60421C2.91327 8.48014 3.37444 9.27337 4.06106 9.84244C4.18742 9.94717 4.32871 10.0449 4.61119 10.2402L4.70147 10.3026C5.08552 10.5682 5.27757 10.701 5.47004 10.7933C6.20881 11.1475 7.06952 11.1475 7.80828 10.7933C8.00075 10.701 8.19279 10.5682 8.57685 10.3026Z" stroke="#190F3A" stroke-width="0.75"/>
<path d="M5.26416 6.43393L6.26416 7.43393L8.01416 5.55893" stroke="#190F3A" stroke-width="0.75" stroke-linecap="round" stroke-linejoin="round"/>
</svg>
