<svg width="85" height="20" viewBox="0 0 85 20" fill="none" xmlns="http://www.w3.org/2000/svg">
<path d="M61.9261 11.8968L59.3958 14.891L62.3056 18.321C62.8117 18.8692 63.2334 19.2066 63.9925 19.2066C65.103 19.2066 65.9746 18.3631 65.9746 17.3229C65.9746 16.8028 65.7918 16.4373 65.4685 16.0577L61.9261 11.8968Z" fill="black"/>
<path d="M61.8135 7.8483L65.3419 3.67328C65.6231 3.30778 65.8058 2.90012 65.8058 2.49246C65.8058 1.33976 64.8359 0.60878 63.7535 0.60878C63.1068 0.60878 62.671 0.974269 62.3196 1.35382L59.3535 4.91032L61.8135 7.8483Z" fill="black"/>
<path d="M57.5963 12.8387L52.9574 18.3351C52.4654 18.8833 52.0296 19.2066 51.2845 19.2066C50.1881 19.2066 49.3306 18.3632 49.3306 17.337C49.3306 16.8169 49.3868 16.606 49.6961 16.2405L55.0941 9.87256L49.8366 3.64516C49.5555 3.27967 49.3727 2.87201 49.3727 2.4784C49.3727 1.33976 50.3286 0.60878 51.397 0.60878C52.0296 0.60878 52.4654 0.974272 52.8168 1.33976L57.5682 7.04703L60.0563 9.8585L57.5963 12.8387Z" fill="black"/>
<path d="M80.4537 11.8968L77.9233 14.891L80.8332 18.321C81.3393 18.8692 81.761 19.2066 82.5201 19.2066C83.6306 19.2066 84.4881 18.3631 84.4881 17.3229C84.4881 16.8028 84.3054 16.4373 83.9821 16.0577L80.4537 11.8968Z" fill="black"/>
<path d="M80.3411 7.8483L83.8695 3.67328C84.1507 3.30778 84.3334 2.90012 84.3334 2.49246C84.3334 1.33976 83.3635 0.60878 82.281 0.60878C81.6344 0.60878 81.1986 0.974269 80.8472 1.35382L77.8811 4.91032L80.3411 7.8483Z" fill="black"/>
<path d="M76.1239 12.8387L71.4849 18.321C70.9929 18.8692 70.5572 19.1926 69.8121 19.1926C68.7156 19.1926 67.8582 18.3491 67.8582 17.3229C67.8582 16.8028 67.9144 16.592 68.2236 16.2265L73.6217 9.8585L68.3923 3.64516C68.1112 3.27967 67.9284 2.87201 67.9284 2.4784C67.9284 1.33976 68.8843 0.60878 69.9527 0.60878C70.5853 0.60878 71.0211 0.974272 71.3725 1.33976L76.1239 7.04703L78.612 9.8585L76.1239 12.8387Z" fill="black"/>
<path d="M7.25715 19.3192C5.00798 19.3192 2.60418 18.5741 1.15627 17.4074C0.495579 16.8732 0.158203 16.2547 0.158203 15.608C0.158203 14.5959 0.832955 13.893 1.78885 13.893C2.29492 13.893 2.59012 14.0617 3.13836 14.4272C4.24888 15.1723 5.2329 15.8048 7.31338 15.8048C9.28141 15.8048 10.406 15.1301 10.406 13.9352C10.406 12.9793 9.82964 12.3608 6.5824 11.4752C2.02783 10.2241 0.326891 8.66372 0.326891 5.72574C0.326891 2.42226 2.96967 0.454239 7.39773 0.454239C8.42391 0.454239 9.71718 0.636984 10.7574 0.946245C12.1632 1.35391 13.6532 2.22546 13.6532 3.43439C13.6532 4.69955 12.5708 5.64139 11.2775 5.05099C10.2092 4.55898 9.00026 3.98263 7.41178 3.98263C5.89359 3.98263 4.0802 4.26377 4.0802 5.64139C4.0802 6.6254 4.72683 7.01901 7.9319 7.97491C11.4603 9.02921 14.1452 10.1397 14.1452 13.7525C14.1734 17.1825 11.5306 19.3192 7.25715 19.3192Z" fill="black"/>
<path d="M22.9873 19.2068C21.947 19.2068 21.1177 18.3352 21.1177 17.2387V4.48874H17.0551C16.057 4.48874 15.2417 3.65936 15.2417 2.64723C15.2417 1.59293 16.043 0.777607 17.0551 0.777607H28.9335C29.9316 0.777607 30.7469 1.62104 30.7469 2.64723C30.7469 3.65936 29.9316 4.48874 28.9335 4.48874H24.885V17.2387C24.8991 18.3211 24.0416 19.2068 22.9873 19.2068Z" fill="black"/>
<path d="M39.6593 4.03877C36.2012 4.03877 34.3878 6.97675 34.3878 9.88661C34.3878 12.7965 36.2012 15.7345 39.6593 15.7345C43.1174 15.7345 44.9308 12.7965 44.9308 9.88661C44.9308 6.97675 43.1174 4.03877 39.6593 4.03877ZM39.6593 19.3191C34.4862 19.3191 30.5923 15.2706 30.5923 9.88661C30.5923 4.51671 34.4862 0.454147 39.6593 0.454147C44.8324 0.454147 48.7262 4.50266 48.7262 9.88661C48.7403 15.2565 44.8324 19.3191 39.6593 19.3191Z" fill="black"/>
</svg>
