<svg width="20" height="20" viewBox="0 0 20 20" fill="none" xmlns="http://www.w3.org/2000/svg">
<path d="M10.3351 19.0631L13.0046 4.0499C15.5491 4.0499 16.3516 4.32891 16.4675 5.46777C16.4675 5.46777 18.1744 4.83133 19.0353 3.53874C15.6758 1.98203 12.3003 1.91183 12.3003 1.91183L10.3307 4.31085L10.3351 4.31055L8.36546 1.91145C8.36546 1.91145 4.98988 1.98173 1.63086 3.53844C2.49101 4.83103 4.19859 5.46747 4.19859 5.46747C4.31514 4.32854 5.11675 4.04952 7.64414 4.04771L10.3351 19.0631Z" fill="#E82127"/>
<path d="M10.3337 1.21888C13.0493 1.19811 16.1577 1.63898 19.3398 3.02586C19.765 2.26037 19.8744 1.92206 19.8744 1.92206C16.3959 0.545872 13.1384 0.0749012 10.3333 0.0630875C7.52832 0.0749012 4.27096 0.545947 0.792969 1.92206C0.792969 1.92206 0.948128 2.33878 1.32722 3.02586C4.50866 1.63898 7.61756 1.19811 10.3333 1.21888H10.3337Z" fill="#E82127"/>
</svg>
