<svg width="20" height="20" viewBox="0 0 20 20" fill="none" xmlns="http://www.w3.org/2000/svg">
<path d="M10.2603 19.4314C15.4698 19.4314 19.6928 15.2083 19.6928 9.9989C19.6928 4.78949 15.4698 0.566435 10.2603 0.566435C5.05094 0.566435 0.827881 4.78949 0.827881 9.9989C0.827881 15.2083 5.05094 19.4314 10.2603 19.4314Z" fill="#26A17B"/>
<path d="M11.2658 10.8694V10.8679C11.2006 10.8724 10.864 10.8922 10.1148 10.8922C9.51583 10.8922 9.09577 10.8755 8.94715 10.8679V10.8694C6.64363 10.7678 4.92547 10.3675 4.92547 9.88673C4.92547 9.40753 6.64515 9.00566 8.94715 8.90406V10.4706C9.09728 10.4812 9.52948 10.507 10.1255 10.507C10.8412 10.507 11.1991 10.4766 11.2658 10.4706V8.90557C13.5648 9.00869 15.2784 9.40904 15.2784 9.88825C15.2784 10.3675 13.5633 10.7678 11.2658 10.8709M11.2658 8.74331V7.34209H14.4732V5.20538H5.74133V7.34209H8.94867V8.74331C6.34185 8.86311 4.38257 9.37871 4.38257 9.99744C4.38257 10.6162 6.34337 11.1318 8.94867 11.2531V15.7449H11.2674V11.2531C13.8696 11.1333 15.8259 10.6177 15.8259 9.99895C15.8259 9.38175 13.8696 8.86463 11.2674 8.74483" fill="white"/>
</svg>
