<svg width="65" height="28" viewBox="0 0 65 28" fill="none" xmlns="http://www.w3.org/2000/svg">
<g clip-path="url(#clip0_9878_566)">
<mask id="mask0_9878_566" style="mask-type:luminance" maskUnits="userSpaceOnUse" x="0" y="0" width="65" height="28">
<path d="M64.6419 0.798767H0.665527V27.0836H64.6419V0.798767Z" fill="white"/>
</mask>
<g mask="url(#mask0_9878_566)">
<path d="M21.1149 8.63292C21.4198 8.66952 21.7006 8.81453 21.9048 9.04078C22.1089 9.26698 22.2224 9.55889 22.2238 9.86176V23.3748C22.2275 23.5379 22.1958 23.6999 22.1309 23.8499C22.066 23.9999 21.9694 24.1346 21.8475 24.2448C21.6531 24.4445 21.3942 24.5712 21.1153 24.6032V26.9202C21.1153 26.9635 21.0979 27.0051 21.067 27.0358C21.036 27.0665 20.9939 27.0838 20.9501 27.084C20.9059 27.084 20.8636 27.0668 20.8323 27.0361C20.8009 27.0054 20.7832 26.9637 20.783 26.9202V24.6032C20.5044 24.5708 20.2458 24.4441 20.0513 24.2448C19.9295 24.1345 19.833 23.9999 19.7682 23.8498C19.7035 23.6998 19.672 23.5378 19.6759 23.3748V9.86176C19.6764 9.55894 19.7893 9.26678 19.9932 9.04038C20.1972 8.81403 20.4781 8.66907 20.783 8.63292V4.43391C20.7832 4.39042 20.801 4.34879 20.8323 4.31816C20.8636 4.28753 20.906 4.27039 20.9501 4.27051C20.9939 4.27062 21.036 4.28789 21.067 4.31852C21.0979 4.34915 21.1153 4.39065 21.1153 4.43391L21.1149 8.63292Z" fill="url(#paint0_linear_9878_566)"/>
<path d="M16.5712 5.16118C16.8756 5.19869 17.1558 5.34401 17.3595 5.57008C17.5633 5.79614 17.6768 6.08756 17.6788 6.38998V19.903C17.6825 20.066 17.6509 20.2279 17.586 20.3778C17.5211 20.5277 17.4245 20.6622 17.3025 20.7722C17.1086 20.9723 16.85 21.0993 16.5712 21.1314V24.4784C16.5707 24.5104 16.5606 24.5417 16.5423 24.5682C16.524 24.5947 16.4982 24.6154 16.4682 24.6277C16.4381 24.6399 16.4051 24.6433 16.3731 24.6373C16.3411 24.6313 16.3116 24.6163 16.2882 24.594C16.2571 24.5635 16.2396 24.5221 16.2394 24.4788V21.1314C15.9605 21.0991 15.7019 20.9721 15.5076 20.7722C15.386 20.6621 15.2896 20.5276 15.2249 20.3778C15.1601 20.228 15.1285 20.0663 15.1322 19.9035V6.39043C15.1332 6.08781 15.2461 5.7959 15.4499 5.56954C15.6537 5.34321 15.9343 5.198 16.2389 5.16118V0.96261C16.2389 0.919156 16.2564 0.877482 16.2876 0.846755C16.3188 0.816029 16.361 0.798767 16.4051 0.798767C16.449 0.799111 16.4911 0.816483 16.5222 0.847135C16.5533 0.877787 16.5709 0.919262 16.5712 0.96261V5.16118Z" fill="url(#paint1_linear_9878_566)"/>
<path d="M60.6818 11.9225C60.539 11.9194 60.3966 11.9451 60.2642 11.9981C60.1318 12.051 60.0118 12.1301 59.9116 12.2304C59.8119 12.3297 59.7335 12.4476 59.6805 12.5772C59.6279 12.7068 59.6016 12.8456 59.6036 12.9852C59.5991 13.1803 59.6537 13.3723 59.7603 13.5365C59.867 13.7007 60.0212 13.8298 60.2027 13.907C60.7706 14.1142 61.3518 14.2859 61.941 14.4208C62.6179 14.5765 63.2473 14.8875 63.7789 15.3286C64.3537 15.8705 64.6419 16.6354 64.6419 17.6346C64.6434 18.1039 64.5501 18.5688 64.3686 19.0024C64.1866 19.4361 63.9198 19.83 63.5825 20.1615C63.2458 20.4933 62.8461 20.7562 62.4057 20.9351C61.9653 21.114 61.4936 21.2054 61.0175 21.2041H58.3032C58.1386 21.2052 57.9754 21.1733 57.8237 21.1104C57.6719 21.0474 57.5345 20.9547 57.42 20.8379C57.299 20.7271 57.2033 20.5923 57.1388 20.4423C57.0748 20.2923 57.0431 20.1306 57.047 19.9679V19.9473C57.05 19.6186 57.1829 19.3041 57.4175 19.0707C57.6526 18.8373 57.97 18.7034 58.3032 18.6974H61.1192C61.3335 18.6999 61.5432 18.639 61.7218 18.5227C61.9008 18.4063 62.0397 18.2398 62.1215 18.0446C62.1756 17.915 62.2028 17.7761 62.2018 17.6359C62.2013 17.4517 62.1443 17.2719 62.0387 17.1199C61.933 16.9679 61.7838 16.8507 61.6097 16.7834C61.506 16.7383 60.9238 16.5674 59.8635 16.2735C59.1806 16.1126 58.5482 15.7887 58.0221 15.3303C57.4478 14.7783 57.1606 13.9972 57.1606 12.9866C57.1646 12.0405 57.5474 11.1343 58.2264 10.4659C58.9058 9.79684 59.8253 9.41928 60.7854 9.41537H62.7013C63.037 9.41626 63.3584 9.54813 63.5954 9.78206C63.8325 10.016 63.9664 10.3331 63.9669 10.6638V10.6849C63.9714 10.8476 63.9406 11.0094 63.8766 11.1594C63.8127 11.3095 63.7169 11.4443 63.5954 11.5549C63.4799 11.6735 63.341 11.7675 63.1873 11.831C63.0335 11.8946 62.8679 11.9265 62.7013 11.9247L60.6818 11.9225ZM44.9772 25.411C44.6457 25.4071 44.3289 25.2757 44.0943 25.0448C43.8598 24.8138 43.7261 24.5016 43.7216 24.1747V15.2904C43.7261 14.126 44.0815 12.9892 44.7413 12.0237C45.2356 11.3018 45.8858 10.6968 46.6452 10.2519C47.4045 9.80691 48.2543 9.5331 49.1336 9.45008C50.0129 9.36706 50.8998 9.47686 51.731 9.7716C52.5622 10.0663 53.3171 10.5388 53.9414 11.155C54.5653 11.7711 55.0429 12.516 55.3395 13.336C55.6361 14.156 55.7447 15.0307 55.6569 15.897C55.5696 16.7634 55.2884 17.5998 54.8336 18.346C54.3784 19.0922 53.7614 19.7296 53.0264 20.2123C52.0435 20.859 50.8879 21.2042 49.7061 21.2045C48.1987 21.2045 47.0484 20.8633 46.2683 20.182V24.1747C46.2623 24.5017 46.1275 24.8136 45.8924 25.0444C45.6573 25.2751 45.3404 25.4066 45.0088 25.411H44.9772ZM49.7061 18.6759C50.1604 18.6802 50.6112 18.5957 51.0323 18.4275C51.4533 18.2592 51.8367 18.0104 52.16 17.6955C52.6465 17.2211 52.9783 16.6143 53.1127 15.9528C53.2471 15.2913 53.1777 14.6052 52.9144 13.9827C52.6505 13.3601 52.2042 12.8294 51.6328 12.4586C51.061 12.0878 50.3905 11.8938 49.7061 11.9015C49.027 11.9027 48.3633 12.1018 47.7986 12.4738C47.2339 12.8459 46.7933 13.3742 46.5322 13.9924C46.2715 14.6103 46.202 15.2904 46.3323 15.9471C46.4627 16.6038 46.7871 17.2079 47.2648 17.6833C47.581 18.0049 47.9608 18.259 48.3808 18.4298C48.8008 18.6006 49.2519 18.6844 49.7061 18.6759ZM39.9821 8.08357C39.7434 8.08486 39.5081 8.02807 39.2969 7.91827C39.0857 7.80847 38.9053 7.64902 38.7715 7.45407C38.638 7.25896 38.5555 7.0344 38.5314 6.80027C38.5072 6.56613 38.5422 6.32972 38.6332 6.1122C38.7242 5.89463 38.8684 5.70266 39.0529 5.55338C39.2374 5.4041 39.4565 5.30216 39.6907 5.25664C39.925 5.21084 40.167 5.22274 40.3955 5.29129C40.624 5.35984 40.8317 5.48291 41.0005 5.6496C41.1381 5.77997 41.2476 5.93644 41.3224 6.10957C41.3973 6.2827 41.4358 6.46898 41.4358 6.65719C41.4358 6.8454 41.3973 7.03167 41.3224 7.20481C41.2476 7.37794 41.1381 7.53441 41.0005 7.66479C40.8685 7.79924 40.7102 7.90577 40.5351 7.97778C40.36 8.04979 40.1718 8.0858 39.9821 8.08357ZM39.9933 9.41447C40.1584 9.41095 40.3224 9.44185 40.4746 9.50513C40.6268 9.56836 40.7637 9.66259 40.8765 9.78157C40.9959 9.89568 41.0905 10.0326 41.1544 10.1839C41.2185 10.3352 41.2506 10.4978 41.2488 10.6617V19.9683C41.2444 20.295 41.1108 20.6072 40.8763 20.8381C40.6418 21.0691 40.3251 21.2006 39.9937 21.2045H39.9715C39.8051 21.2069 39.6399 21.1756 39.4863 21.1127C39.3325 21.0498 39.1934 20.9566 39.0776 20.8387C38.9566 20.7278 38.8607 20.593 38.796 20.4431C38.7312 20.2932 38.6991 20.1316 38.7017 19.9687V10.6613C38.7011 10.4972 38.734 10.3346 38.7986 10.1834C38.8632 10.0322 38.9581 9.89534 39.0776 9.78112C39.1933 9.66299 39.3324 9.56945 39.4863 9.50632C39.64 9.44319 39.8053 9.41175 39.9719 9.41403L39.9933 9.41447ZM25.8354 25.4114C25.5039 25.4071 25.1871 25.2756 24.9523 25.0448C24.7176 24.814 24.5833 24.502 24.5781 24.1752V15.2904C24.5825 14.126 24.9379 12.9892 25.5977 12.0228C26.092 11.3007 26.7422 10.6953 27.5018 10.2502C28.2613 9.80498 29.1113 9.53102 29.9909 9.44795C30.8704 9.36483 31.7577 9.47458 32.5891 9.76942C33.4206 10.0643 34.1756 10.5368 34.8001 11.1532C35.6342 11.9776 36.2017 13.0274 36.431 14.1698C36.6602 15.3122 36.5409 16.496 36.088 17.5715C35.6345 18.6475 34.8676 19.5668 33.8844 20.2131C32.901 20.8595 31.7457 21.2045 30.5638 21.2045C29.0573 21.2045 27.9071 20.8628 27.126 20.1816V24.1747C27.1207 24.5018 26.9863 24.8139 26.7512 25.0448C26.5162 25.2757 26.1991 25.407 25.8674 25.411H25.8358L25.8354 25.4114ZM30.5634 18.6764C31.0177 18.6806 31.4684 18.5962 31.8894 18.428C32.3105 18.2597 32.6936 18.0109 33.0167 17.6959C33.3394 17.3811 33.5955 17.0062 33.7703 16.5931C33.9451 16.18 34.0351 15.7368 34.0351 15.2891C34.0351 14.8415 33.9451 14.3983 33.7703 13.9852C33.5955 13.572 33.3394 13.1972 33.0167 12.8823C32.6937 12.5673 32.3106 12.3184 31.8895 12.1501C31.4684 11.9819 31.0177 11.8975 30.5634 11.9019C29.8844 11.9039 29.2212 12.1034 28.6566 12.4755C28.0922 12.8475 27.6515 13.3755 27.3899 13.9933C27.1292 14.611 27.0598 15.291 27.1902 15.9477C27.3207 16.6042 27.6452 17.2081 28.123 17.6833C28.4392 18.0046 28.819 18.2585 29.2387 18.4293C29.6585 18.6 30.1094 18.6845 30.5634 18.6764ZM6.6482 11.9225C6.19417 11.9145 5.74331 11.9986 5.32351 12.1694C4.90373 12.3402 4.52399 12.5942 4.20779 12.9156C3.56929 13.5557 3.21147 14.4176 3.21147 15.3154C3.21147 16.2132 3.56929 17.0751 4.20779 17.7152C4.52594 18.0332 4.90623 18.2842 5.32564 18.453C5.74504 18.6219 6.19481 18.705 6.64776 18.6974C7.32918 18.7009 7.99617 18.504 8.56348 18.1317C9.13074 17.7595 9.57257 17.2289 9.83239 16.6078C10.0043 16.1955 10.0914 15.7535 10.0887 15.3075C10.0962 14.862 10.0106 14.4198 9.83735 14.0083C9.66407 13.5968 9.40683 13.2249 9.08154 12.9156C8.76652 12.5945 8.38792 12.3406 7.96929 12.1698C7.55062 11.999 7.10124 11.9148 6.6482 11.9225ZM6.6482 9.41403C7.43606 9.40257 8.21796 9.55016 8.9458 9.84773C9.67364 10.1453 10.332 10.5866 10.8804 11.1445C11.4456 11.6836 11.893 12.331 12.195 13.0469C12.4969 13.7629 12.6471 14.5322 12.6362 15.3075V19.9687C12.6397 20.1316 12.6083 20.2932 12.544 20.4433C12.4796 20.5933 12.3839 20.7282 12.2631 20.8392C12.1485 20.9558 12.0112 21.0483 11.8594 21.1111C11.7075 21.174 11.5444 21.2059 11.3798 21.205H11.3483C11.1836 21.2065 11.0204 21.1749 10.8686 21.112C10.7168 21.0491 10.5796 20.9563 10.4655 20.8392C10.3436 20.7288 10.2469 20.5941 10.182 20.444C10.117 20.2939 10.0852 20.1319 10.0887 19.9687C9.30104 20.7932 8.15433 21.205 6.64776 21.205C5.86065 21.2163 5.07948 21.0688 4.35228 20.7715C3.62508 20.4743 2.96722 20.0335 2.41911 19.4763C1.86268 18.9299 1.42112 18.2807 1.11974 17.5657C0.818366 16.8507 0.663107 16.084 0.662872 15.3097C0.662752 14.5355 0.817851 13.7688 1.11925 13.0538C1.42065 12.3388 1.8624 11.6897 2.41911 11.1436C2.96696 10.586 3.62477 10.145 4.35202 9.84763C5.07927 9.55026 5.86055 9.40282 6.64776 9.41447L6.6482 9.41403Z" fill="#312A7F"/>
</g>
</g>
<defs>
<linearGradient id="paint0_linear_9878_566" x1="19.6754" y1="22.567" x2="19.6754" y2="4.4304" gradientUnits="userSpaceOnUse">
<stop stop-color="#F50057"/>
<stop offset="1" stop-color="#651FFF"/>
</linearGradient>
<linearGradient id="paint1_linear_9878_566" x1="15.1318" y1="0.917925" x2="15.1318" y2="24.3794" gradientUnits="userSpaceOnUse">
<stop stop-color="#F50057"/>
<stop offset="1" stop-color="#651FFF"/>
</linearGradient>
<clipPath id="clip0_9878_566">
<rect width="64.4724" height="26.7808" fill="white" transform="translate(0.495361 0.773926)"/>
</clipPath>
</defs>
</svg>
