<svg width="91" height="16" viewBox="0 0 91 16" fill="none" xmlns="http://www.w3.org/2000/svg">
<g clip-path="url(#clip0_9879_51)">
<path d="M8.96632 13.1249C11.3739 13.1249 13.3257 11.3537 13.3257 9.16881C13.3257 6.98395 11.3739 5.21277 8.96632 5.21277C6.5587 5.21277 4.60693 6.98395 4.60693 9.16881C4.60693 11.3537 6.5587 13.1249 8.96632 13.1249Z" fill="#E58613"/>
<path d="M8.96632 12.3207C10.8845 12.3207 12.4395 10.9096 12.4395 9.1689C12.4395 7.4282 10.8845 6.01709 8.96632 6.01709C7.04815 6.01709 5.49316 7.4282 5.49316 9.1689C5.49316 10.9096 7.04815 12.3207 8.96632 12.3207Z" fill="white"/>
<path d="M10.2903 10.2369H9.77367V11.0444H8.89103V10.2369H7.09705V9.66382L8.94126 7.16321H9.77367V9.61498H10.2903V10.2369ZM8.89103 9.58567V8.83679C8.89103 8.79121 8.89103 8.74237 8.89103 8.68702C8.89103 8.63167 8.89103 8.57631 8.89103 8.51771V8.34839C8.89103 8.2963 8.89103 8.25071 8.89103 8.20838C8.89103 8.16606 8.89103 8.14001 8.89103 8.12373H8.86592L8.74751 8.36142C8.70446 8.44282 8.65064 8.52747 8.59682 8.61213L7.87922 9.58893L8.89103 9.58567Z" fill="black"/>
<path d="M8.98072 3.94628C9.94971 3.94628 10.7352 3.06287 10.7352 1.97314C10.7352 0.883404 9.94971 0 8.98072 0C8.01172 0 7.2262 0.883404 7.2262 1.97314C7.2262 3.06287 8.01172 3.94628 8.98072 3.94628Z" fill="#678925"/>
<path d="M11.7721 5.56448C11.9064 5.23821 12.0073 4.90142 12.0735 4.55837C12.3498 4.6821 12.5579 5.65564 12.5292 6.16358C13.3274 6.93117 13.7969 7.93238 13.8532 8.98654C14.4272 8.18882 16.11 2.66989 11.033 1.30237C11.3057 4.01136 9.27131 4.31743 9.0345 4.32394C8.7977 4.33045 6.59109 4.07323 6.88172 1.35121C3.5449 2.01218 3.26504 4.79932 3.36191 5.8217C4.08579 5.44816 4.8923 5.2257 5.7228 5.1705C5.77776 4.94494 5.89227 4.73488 6.05648 4.55837C6.05648 4.79932 6.07442 4.93607 6.07801 5.13468C6.23947 5.11515 6.67003 5.07608 7.22975 5.05654C7.97558 4.79895 8.7796 4.71115 9.57148 4.80083C10.3634 4.89052 11.1189 5.15495 11.7721 5.57099V5.56448Z" fill="#678925"/>
<path d="M17.7459 13.6878C18.2306 12.9263 17.7805 11.8672 16.7407 11.3222C15.7008 10.7771 14.465 10.9526 13.9803 11.714C13.4957 12.4755 13.9457 13.5346 14.9856 14.0796C16.0255 14.6247 17.2613 14.4492 17.7459 13.6878Z" fill="#2F6FA8"/>
<path d="M13.5805 11.5588C13.7024 11.3635 15.0408 9.76479 17.4878 11.3635C18.5426 8.40704 16.0239 6.80508 14.9977 6.35901C15.0003 7.11637 14.8139 7.86443 14.4523 8.54704C14.6376 8.70465 14.7791 8.89994 14.865 9.11684L14.3016 8.8466C14.2406 8.98009 14.072 9.32197 13.8209 9.75828C13.7185 10.4872 13.4184 11.1817 12.9475 11.7795C12.4766 12.3773 11.8496 12.8598 11.1227 13.1836C11.3482 13.4182 11.5942 13.636 11.8582 13.8348C11.6286 13.9715 10.7818 13.7241 10.2544 13.4734C9.12349 13.7493 7.92122 13.65 6.86377 13.1934C7.71771 14.3264 11.8403 17.7615 15.4641 14.652C12.7409 13.5027 13.4656 11.7477 13.5805 11.5588Z" fill="#2F6FA8"/>
<path d="M3.9467 11.702C3.45874 10.9401 2.22447 10.7675 1.18396 11.3113C0.143448 11.855 -0.290697 12.9165 0.197268 13.6751C0.685232 14.4338 1.91949 14.6129 2.95642 14.0659C3.99334 13.5188 4.44184 12.4639 3.9467 11.702Z" fill="#C1A840"/>
<path d="M4.0795 9.19811C4.0795 9.02879 4.0795 8.87251 4.1118 8.69668C3.72749 8.75499 3.35023 8.84657 2.98517 8.97019C2.96365 8.6804 3.8427 7.99339 4.33425 7.785C4.60163 7.06292 5.07005 6.41577 5.69409 5.90629C5.90921 5.70036 6.15003 5.51788 6.41169 5.36253C5.74074 5.2095 -0.875486 6.57377 0.42336 11.3959C2.86677 9.82326 4.17997 11.2657 4.30196 11.4513C4.42395 11.6369 5.29224 13.5058 2.54744 14.6519C4.84016 16.9311 7.63877 15.7622 8.56806 15.1729C7.84288 14.7973 7.22093 14.2774 6.74896 13.6523C6.50688 13.7173 6.25176 13.7317 6.00266 13.6946L6.54085 13.369C6.46192 13.2746 6.28252 13.0434 6.06365 12.7472C5.45071 12.3371 4.95202 11.8026 4.60748 11.1863C4.26295 10.57 4.08214 9.88914 4.0795 9.19811Z" fill="#C1A840"/>
</g>
<path d="M22.6666 4.54004H23.7623L26.5573 11.4951L29.3463 4.54004H30.4479L26.9791 13.0713H26.1237L22.6666 4.54004ZM22.3092 4.54004H23.276L23.4342 9.74316V13.0713H22.3092V4.54004ZM29.8326 4.54004H30.7994V13.0713H29.6744V9.74316L29.8326 4.54004ZM35.2526 13.1885C34.8112 13.1885 34.4108 13.1143 34.0514 12.9658C33.6959 12.8135 33.3893 12.6006 33.1315 12.3271C32.8776 12.0537 32.6823 11.7295 32.5455 11.3545C32.4088 10.9795 32.3405 10.5693 32.3405 10.124V9.87793C32.3405 9.3623 32.4166 8.90332 32.569 8.50098C32.7213 8.09473 32.9283 7.75098 33.1901 7.46973C33.4518 7.18848 33.7487 6.97559 34.0807 6.83105C34.4127 6.68652 34.7565 6.61426 35.1119 6.61426C35.5651 6.61426 35.9557 6.69238 36.2838 6.84863C36.6158 7.00488 36.8873 7.22363 37.0983 7.50488C37.3092 7.78223 37.4655 8.11035 37.567 8.48926C37.6686 8.86426 37.7194 9.27441 37.7194 9.71973V10.2061H32.985V9.32129H36.6354V9.23926C36.6198 8.95801 36.5612 8.68457 36.4596 8.41895C36.3619 8.15332 36.2057 7.93457 35.9908 7.7627C35.776 7.59082 35.483 7.50488 35.1119 7.50488C34.8658 7.50488 34.6393 7.55762 34.4323 7.66309C34.2252 7.76465 34.0475 7.91699 33.899 8.12012C33.7506 8.32324 33.6354 8.57129 33.5533 8.86426C33.4713 9.15723 33.4303 9.49512 33.4303 9.87793V10.124C33.4303 10.4248 33.4713 10.708 33.5533 10.9736C33.6393 11.2354 33.7623 11.4658 33.9225 11.665C34.0865 11.8643 34.2838 12.0205 34.5143 12.1338C34.7487 12.2471 35.0143 12.3037 35.3112 12.3037C35.694 12.3037 36.0182 12.2256 36.2838 12.0693C36.5494 11.9131 36.7819 11.7041 36.9811 11.4424L37.6373 11.9639C37.5006 12.1709 37.3268 12.3682 37.1158 12.5557C36.9049 12.7432 36.6451 12.8955 36.3365 13.0127C36.0319 13.1299 35.6705 13.1885 35.2526 13.1885ZM41.6393 6.73145V7.56348H38.2115V6.73145H41.6393ZM39.3717 5.19043H40.4557V11.501C40.4557 11.7158 40.4889 11.8779 40.5553 11.9873C40.6217 12.0967 40.7076 12.1689 40.8131 12.2041C40.9186 12.2393 41.0319 12.2568 41.153 12.2568C41.2428 12.2568 41.3365 12.249 41.4342 12.2334C41.5358 12.2139 41.6119 12.1982 41.6627 12.1865L41.6686 13.0713C41.5826 13.0986 41.4694 13.124 41.3287 13.1475C41.192 13.1748 41.026 13.1885 40.8307 13.1885C40.5651 13.1885 40.3209 13.1357 40.0983 13.0303C39.8756 12.9248 39.6979 12.749 39.5651 12.5029C39.4362 12.2529 39.3717 11.917 39.3717 11.4951V5.19043ZM46.649 11.9873V8.72363C46.649 8.47363 46.5983 8.25684 46.4967 8.07324C46.399 7.88574 46.2506 7.74121 46.0514 7.63965C45.8522 7.53809 45.6061 7.4873 45.3131 7.4873C45.0397 7.4873 44.7994 7.53418 44.5924 7.62793C44.3893 7.72168 44.2291 7.84473 44.1119 7.99707C43.9987 8.14941 43.942 8.31348 43.942 8.48926H42.858C42.858 8.2627 42.9166 8.03809 43.0338 7.81543C43.151 7.59277 43.319 7.3916 43.5377 7.21191C43.7604 7.02832 44.026 6.88379 44.3346 6.77832C44.6471 6.66895 44.9948 6.61426 45.3776 6.61426C45.8385 6.61426 46.2448 6.69238 46.5963 6.84863C46.9518 7.00488 47.2291 7.24121 47.4283 7.55762C47.6315 7.87012 47.733 8.2627 47.733 8.73535V11.6885C47.733 11.8994 47.7506 12.124 47.7858 12.3623C47.8248 12.6006 47.8815 12.8057 47.9557 12.9775V13.0713H46.8248C46.7701 12.9463 46.7272 12.7803 46.6959 12.5732C46.6647 12.3623 46.649 12.167 46.649 11.9873ZM46.8365 9.22754L46.8483 9.98926H45.7526C45.444 9.98926 45.1686 10.0146 44.9264 10.0654C44.6842 10.1123 44.4811 10.1846 44.317 10.2822C44.153 10.3799 44.028 10.5029 43.942 10.6514C43.8561 10.7959 43.8131 10.9658 43.8131 11.1611C43.8131 11.3604 43.858 11.542 43.9479 11.7061C44.0377 11.8701 44.1725 12.001 44.3522 12.0986C44.5358 12.1924 44.7604 12.2393 45.026 12.2393C45.358 12.2393 45.651 12.1689 45.9049 12.0283C46.1588 11.8877 46.36 11.7158 46.5084 11.5127C46.6608 11.3096 46.7428 11.1123 46.7545 10.9209L47.2174 11.4424C47.1901 11.6064 47.1158 11.7881 46.9948 11.9873C46.8737 12.1865 46.7115 12.3779 46.5084 12.5615C46.3092 12.7412 46.0709 12.8916 45.7936 13.0127C45.5201 13.1299 45.2115 13.1885 44.8678 13.1885C44.4381 13.1885 44.0612 13.1045 43.7369 12.9365C43.4166 12.7686 43.1666 12.5439 42.9869 12.2627C42.8112 11.9775 42.7233 11.6592 42.7233 11.3076C42.7233 10.9678 42.7897 10.6689 42.9225 10.4111C43.0553 10.1494 43.2467 9.93262 43.4967 9.76074C43.7467 9.58496 44.0475 9.45215 44.399 9.3623C44.7506 9.27246 45.1432 9.22754 45.5768 9.22754H46.8365ZM52.0924 6.73145V7.56348H48.6647V6.73145H52.0924ZM49.8248 5.19043H50.9088V11.501C50.9088 11.7158 50.942 11.8779 51.0084 11.9873C51.0748 12.0967 51.1608 12.1689 51.2662 12.2041C51.3717 12.2393 51.485 12.2568 51.6061 12.2568C51.6959 12.2568 51.7897 12.249 51.8873 12.2334C51.9889 12.2139 52.0651 12.1982 52.1158 12.1865L52.1217 13.0713C52.0358 13.0986 51.9225 13.124 51.7819 13.1475C51.6451 13.1748 51.4791 13.1885 51.2838 13.1885C51.0182 13.1885 50.774 13.1357 50.5514 13.0303C50.3287 12.9248 50.151 12.749 50.0182 12.5029C49.8893 12.2529 49.8248 11.917 49.8248 11.4951V5.19043ZM54.4479 7.72754V13.0713H53.3639V6.73145H54.4186L54.4479 7.72754ZM56.4283 6.69629L56.4225 7.7041C56.3326 7.68457 56.2467 7.67285 56.1647 7.66895C56.0865 7.66113 55.9967 7.65723 55.8951 7.65723C55.6451 7.65723 55.4244 7.69629 55.233 7.77441C55.0416 7.85254 54.8795 7.96191 54.7467 8.10254C54.6139 8.24316 54.5084 8.41113 54.4303 8.60645C54.3561 8.79785 54.3073 9.00879 54.2838 9.23926L53.9791 9.41504C53.9791 9.03223 54.0162 8.67285 54.0905 8.33691C54.1686 8.00098 54.2877 7.7041 54.4479 7.44629C54.608 7.18457 54.8112 6.98145 55.0573 6.83691C55.3073 6.68848 55.6041 6.61426 55.9479 6.61426C56.026 6.61426 56.1158 6.62402 56.2174 6.64355C56.319 6.65918 56.3893 6.67676 56.4283 6.69629ZM60.9342 11.9873V8.72363C60.9342 8.47363 60.8834 8.25684 60.7819 8.07324C60.6842 7.88574 60.5358 7.74121 60.3365 7.63965C60.1373 7.53809 59.8912 7.4873 59.5983 7.4873C59.3248 7.4873 59.0846 7.53418 58.8776 7.62793C58.6744 7.72168 58.5143 7.84473 58.3971 7.99707C58.2838 8.14941 58.2272 8.31348 58.2272 8.48926H57.1432C57.1432 8.2627 57.2018 8.03809 57.319 7.81543C57.4362 7.59277 57.6041 7.3916 57.8229 7.21191C58.0455 7.02832 58.3112 6.88379 58.6198 6.77832C58.9323 6.66895 59.2799 6.61426 59.6627 6.61426C60.1237 6.61426 60.5299 6.69238 60.8815 6.84863C61.2369 7.00488 61.5143 7.24121 61.7135 7.55762C61.9166 7.87012 62.0182 8.2627 62.0182 8.73535V11.6885C62.0182 11.8994 62.0358 12.124 62.0709 12.3623C62.11 12.6006 62.1666 12.8057 62.2408 12.9775V13.0713H61.11C61.0553 12.9463 61.0123 12.7803 60.9811 12.5732C60.9498 12.3623 60.9342 12.167 60.9342 11.9873ZM61.1217 9.22754L61.1334 9.98926H60.0377C59.7291 9.98926 59.4537 10.0146 59.2115 10.0654C58.9694 10.1123 58.7662 10.1846 58.6022 10.2822C58.4381 10.3799 58.3131 10.5029 58.2272 10.6514C58.1412 10.7959 58.0983 10.9658 58.0983 11.1611C58.0983 11.3604 58.1432 11.542 58.233 11.7061C58.3229 11.8701 58.4576 12.001 58.6373 12.0986C58.8209 12.1924 59.0455 12.2393 59.3112 12.2393C59.6432 12.2393 59.9362 12.1689 60.1901 12.0283C60.444 11.8877 60.6451 11.7158 60.7936 11.5127C60.9459 11.3096 61.028 11.1123 61.0397 10.9209L61.5026 11.4424C61.4752 11.6064 61.401 11.7881 61.2799 11.9873C61.1588 12.1865 60.9967 12.3779 60.7936 12.5615C60.5944 12.7412 60.3561 12.8916 60.0787 13.0127C59.8053 13.1299 59.4967 13.1885 59.153 13.1885C58.7233 13.1885 58.3463 13.1045 58.0221 12.9365C57.7018 12.7686 57.4518 12.5439 57.2721 12.2627C57.0963 11.9775 57.0084 11.6592 57.0084 11.3076C57.0084 10.9678 57.0748 10.6689 57.2076 10.4111C57.3405 10.1494 57.5319 9.93262 57.7819 9.76074C58.0319 9.58496 58.3326 9.45215 58.6842 9.3623C59.0358 9.27246 59.4283 9.22754 59.8619 9.22754H61.1217ZM67.7194 11.8408V4.07129H68.8092V13.0713H67.8131L67.7194 11.8408ZM63.4537 9.97168V9.84863C63.4537 9.36426 63.5123 8.9248 63.6295 8.53027C63.7506 8.13184 63.9205 7.79004 64.1393 7.50488C64.3619 7.21973 64.6256 7.00098 64.9303 6.84863C65.2389 6.69238 65.5826 6.61426 65.9615 6.61426C66.36 6.61426 66.7076 6.68457 67.0045 6.8252C67.3053 6.96191 67.5592 7.16309 67.7662 7.42871C67.9772 7.69043 68.1432 8.00684 68.2643 8.37793C68.3854 8.74902 68.4694 9.16895 68.5162 9.6377V10.1768C68.4733 10.6416 68.3893 11.0596 68.2643 11.4307C68.1432 11.8018 67.9772 12.1182 67.7662 12.3799C67.5592 12.6416 67.3053 12.8428 67.0045 12.9834C66.7037 13.1201 66.3522 13.1885 65.9498 13.1885C65.5787 13.1885 65.2389 13.1084 64.9303 12.9482C64.6256 12.7881 64.3619 12.5635 64.1393 12.2744C63.9205 11.9854 63.7506 11.6455 63.6295 11.2549C63.5123 10.8604 63.4537 10.4326 63.4537 9.97168ZM64.5436 9.84863V9.97168C64.5436 10.2881 64.5748 10.585 64.6373 10.8623C64.7037 11.1396 64.8053 11.3838 64.942 11.5947C65.0787 11.8057 65.2526 11.9717 65.4635 12.0928C65.6744 12.21 65.9264 12.2686 66.2194 12.2686C66.5787 12.2686 66.8737 12.1924 67.1041 12.04C67.3385 11.8877 67.526 11.6865 67.6666 11.4365C67.8073 11.1865 67.9166 10.915 67.9948 10.6221V9.20996C67.9479 8.99512 67.8795 8.78809 67.7897 8.58887C67.7037 8.38574 67.5905 8.20605 67.4498 8.0498C67.3131 7.88965 67.1432 7.7627 66.9401 7.66895C66.7408 7.5752 66.5045 7.52832 66.2311 7.52832C65.9342 7.52832 65.6783 7.59082 65.4635 7.71582C65.2526 7.83691 65.0787 8.00488 64.942 8.21973C64.8053 8.43066 64.7037 8.67676 64.6373 8.95801C64.5748 9.23535 64.5436 9.53223 64.5436 9.84863ZM73.1276 13.1885C72.6862 13.1885 72.2858 13.1143 71.9264 12.9658C71.5709 12.8135 71.2643 12.6006 71.0065 12.3271C70.7526 12.0537 70.5573 11.7295 70.4205 11.3545C70.2838 10.9795 70.2155 10.5693 70.2155 10.124V9.87793C70.2155 9.3623 70.2916 8.90332 70.444 8.50098C70.5963 8.09473 70.8033 7.75098 71.0651 7.46973C71.3268 7.18848 71.6237 6.97559 71.9557 6.83105C72.2877 6.68652 72.6315 6.61426 72.9869 6.61426C73.4401 6.61426 73.8307 6.69238 74.1588 6.84863C74.4908 7.00488 74.7623 7.22363 74.9733 7.50488C75.1842 7.78223 75.3405 8.11035 75.442 8.48926C75.5436 8.86426 75.5944 9.27441 75.5944 9.71973V10.2061H70.86V9.32129H74.5104V9.23926C74.4948 8.95801 74.4362 8.68457 74.3346 8.41895C74.2369 8.15332 74.0807 7.93457 73.8658 7.7627C73.651 7.59082 73.358 7.50488 72.9869 7.50488C72.7408 7.50488 72.5143 7.55762 72.3073 7.66309C72.1002 7.76465 71.9225 7.91699 71.774 8.12012C71.6256 8.32324 71.5104 8.57129 71.4283 8.86426C71.3463 9.15723 71.3053 9.49512 71.3053 9.87793V10.124C71.3053 10.4248 71.3463 10.708 71.4283 10.9736C71.5143 11.2354 71.6373 11.4658 71.7975 11.665C71.9615 11.8643 72.1588 12.0205 72.3893 12.1338C72.6237 12.2471 72.8893 12.3037 73.1862 12.3037C73.569 12.3037 73.8932 12.2256 74.1588 12.0693C74.4244 11.9131 74.6569 11.7041 74.8561 11.4424L75.5123 11.9639C75.3756 12.1709 75.2018 12.3682 74.9908 12.5557C74.7799 12.7432 74.5201 12.8955 74.2115 13.0127C73.9069 13.1299 73.5455 13.1885 73.1276 13.1885ZM77.944 7.72754V13.0713H76.86V6.73145H77.9147L77.944 7.72754ZM79.9244 6.69629L79.9186 7.7041C79.8287 7.68457 79.7428 7.67285 79.6608 7.66895C79.5826 7.66113 79.4928 7.65723 79.3912 7.65723C79.1412 7.65723 78.9205 7.69629 78.7291 7.77441C78.5377 7.85254 78.3756 7.96191 78.2428 8.10254C78.11 8.24316 78.0045 8.41113 77.9264 8.60645C77.8522 8.79785 77.8033 9.00879 77.7799 9.23926L77.4752 9.41504C77.4752 9.03223 77.5123 8.67285 77.5865 8.33691C77.6647 8.00098 77.7838 7.7041 77.944 7.44629C78.1041 7.18457 78.3073 6.98145 78.5533 6.83691C78.8033 6.68848 79.1002 6.61426 79.444 6.61426C79.5221 6.61426 79.6119 6.62402 79.7135 6.64355C79.8151 6.65918 79.8854 6.67676 79.9244 6.69629Z" fill="black"/>
<path d="M89.5514 10.2002V11.0908H83.3873V10.4521L87.2076 4.54004H88.0924L87.1432 6.25098L84.6178 10.2002H89.5514ZM88.3619 4.54004V13.0713H87.278V4.54004H88.3619Z" fill="#C1A840"/>
<defs>
<clipPath id="clip0_9879_51">
<rect width="17.9399" height="16" fill="white"/>
</clipPath>
</defs>
</svg>
